<svg xmlns="http://www.w3.org/2000/svg" viewBox="0 0 302.22 108.51"><defs><style>.cls-1{fill:#605657;}.cls-2{fill:#af2080;}.cls-3{fill:#010101;}</style></defs><title>turi-logo-withtagline_1</title><g id="Layer_2" data-name="Layer 2"><g id="Layer_1-2" data-name="Layer 1"><path class="cls-1" d="M94.07,91.11a5.94,5.94,0,0,1,4.42,1.73l-.84,1.22a5.11,5.11,0,0,0-3.53-1.46,4.63,4.63,0,0,0-4.7,4.85,4.68,4.68,0,0,0,4.75,4.85,5.32,5.32,0,0,0,3.86-1.7l.74,1.27a6.44,6.44,0,0,1-4.7,1.9,6.32,6.32,0,1,1,0-12.65Z"/><path class="cls-1" d="M101.75,91.4h1.61v2.14c0,.53,0,1,0,1h0a4.12,4.12,0,0,1,3.82-3.22,3.25,3.25,0,0,1,.65.07V93a4.15,4.15,0,0,0-.6,0c-1.7,0-3,1.34-3.5,3.12a8,8,0,0,0-.34,2.35v5.09h-1.63Z"/><path class="cls-1" d="M115.26,91.11c3.34,0,5,2.57,5,5.57,0,.29,0,.84,0,.84H111a4.55,4.55,0,0,0,4.68,4.78,5.61,5.61,0,0,0,3.67-1.46l.74,1.25a6.92,6.92,0,0,1-4.46,1.68,6.1,6.1,0,0,1-6.31-6.31C109.31,93.49,112,91.11,115.26,91.11Zm3.38,5.06c-.1-2.52-1.63-3.7-3.43-3.7a4.09,4.09,0,0,0-4.15,3.7Z"/><path class="cls-1" d="M129.83,96h.67V95.7c0-2.33-1.27-3.12-3-3.12a5.88,5.88,0,0,0-3.41,1.15l-.77-1.25a6.93,6.93,0,0,1,4.3-1.37c2.9,0,4.51,1.61,4.51,4.63v7.73h-1.56v-1.32a9.57,9.57,0,0,1,0-1h0a4.36,4.36,0,0,1-4,2.62c-2,0-4.1-1.18-4.1-3.58C122.44,96.1,127.74,96,129.83,96Zm-3,6.36c2.3,0,3.7-2.4,3.7-4.49v-.53h-.7c-1.9,0-5.69.07-5.69,2.74A2.4,2.4,0,0,0,126.81,102.37Z"/><path class="cls-1" d="M136.29,92.91H134.7V91.54h1.61V88.06h1.61v3.48h3v1.37h-3v6c0,2.83,1.8,3.19,2.71,3.19a2.82,2.82,0,0,0,.55,0v1.46a4.31,4.31,0,0,1-.7,0c-1.39,0-4.2-.46-4.2-4.49Z"/><path class="cls-1" d="M149,91.11c3.34,0,5,2.57,5,5.57,0,.29,0,.84,0,.84h-9.27a4.55,4.55,0,0,0,4.68,4.78,5.61,5.61,0,0,0,3.67-1.46l.74,1.25a6.92,6.92,0,0,1-4.46,1.68A6.1,6.1,0,0,1,143,97.45C143,93.49,145.72,91.11,149,91.11Zm3.38,5.06c-.1-2.52-1.63-3.7-3.43-3.7a4.09,4.09,0,0,0-4.15,3.7Z"/><path class="cls-1" d="M163.55,86.6h1.7v2h-1.7Zm0,4.8h1.63v12.07H163.6Z"/><path class="cls-1" d="M169.16,91.4h1.61v1.8c0,.53,0,1,0,1h0a5.14,5.14,0,0,1,4.83-3c3,0,4,1.7,4,4.68v7.68H178V96.22c0-1.9-.29-3.58-2.62-3.58A4.59,4.59,0,0,0,171,96.06a6,6,0,0,0-.19,1.63v5.78h-1.63Z"/><path class="cls-1" d="M183.85,92.91h-1.58V91.54h1.61V88.06h1.61v3.48h3v1.37h-3v6c0,2.83,1.8,3.19,2.71,3.19a2.81,2.81,0,0,0,.55,0v1.46a4.32,4.32,0,0,1-.7,0c-1.39,0-4.2-.46-4.2-4.49Z"/><path class="cls-1" d="M196.55,91.11c3.34,0,5,2.57,5,5.57,0,.29,0,.84,0,.84h-9.27A4.55,4.55,0,0,0,197,102.3a5.61,5.61,0,0,0,3.67-1.46l.74,1.25a6.92,6.92,0,0,1-4.46,1.68,6.1,6.1,0,0,1-6.31-6.31C190.6,93.49,193.28,91.11,196.55,91.11Zm3.38,5.06c-.1-2.52-1.63-3.7-3.43-3.7a4.09,4.09,0,0,0-4.15,3.7Z"/><path class="cls-1" d="M204.59,86.6h1.63v13.66c0,1.58.72,1.82,1.34,1.82a3.8,3.8,0,0,0,.41,0v1.46a4.17,4.17,0,0,1-.6,0c-1,0-2.78-.31-2.78-3Z"/><path class="cls-1" d="M210.52,86.6h1.63v13.66c0,1.58.72,1.82,1.34,1.82a3.8,3.8,0,0,0,.41,0v1.46a4.17,4.17,0,0,1-.6,0c-1,0-2.78-.31-2.78-3Z"/><path class="cls-1" d="M216.52,86.6h1.71v2h-1.71Zm0,4.8h1.63v12.07h-1.63Z"/><path class="cls-1" d="M226.31,107c2.35,0,4.22-1.1,4.22-3.79v-1.1a8.37,8.37,0,0,1,0-.86h0a4,4,0,0,1-3.82,2.11c-3.24,0-5.38-2.57-5.38-6.19s2-6.1,5.23-6.1,4,2,4,2h0a2.83,2.83,0,0,1,0-.41V91.4h1.58v11.79c0,3.84-2.83,5.33-5.79,5.33a8.84,8.84,0,0,1-4-1l.62-1.34A7.42,7.42,0,0,0,226.31,107Zm4.25-9.84c0-3.53-1.68-4.61-3.82-4.61-2.35,0-3.72,1.7-3.72,4.58s1.56,4.75,4,4.75C228.88,101.94,230.56,100.76,230.56,97.21Z"/><path class="cls-1" d="M241.21,91.11c3.34,0,5,2.57,5,5.57,0,.29,0,.84,0,.84h-9.26a4.55,4.55,0,0,0,4.68,4.78,5.61,5.61,0,0,0,3.67-1.46l.74,1.25a6.92,6.92,0,0,1-4.46,1.68,6.1,6.1,0,0,1-6.31-6.31C235.26,93.49,237.95,91.11,241.21,91.11Zm3.38,5.06c-.1-2.52-1.63-3.7-3.43-3.7a4.09,4.09,0,0,0-4.15,3.7Z"/><path class="cls-1" d="M249.37,91.4H251v1.8c0,.53,0,1,0,1h0a5.14,5.14,0,0,1,4.83-3c3,0,4,1.7,4,4.68v7.68H258.2V96.22c0-1.9-.29-3.58-2.62-3.58a4.59,4.59,0,0,0-4.39,3.41,6,6,0,0,0-.19,1.63v5.78h-1.63Z"/><path class="cls-1" d="M269.1,91.11a5.94,5.94,0,0,1,4.42,1.73l-.84,1.22a5.11,5.11,0,0,0-3.53-1.46,4.63,4.63,0,0,0-4.7,4.85,4.68,4.68,0,0,0,4.75,4.85,5.32,5.32,0,0,0,3.86-1.7l.74,1.27a6.44,6.44,0,0,1-4.7,1.9,6.32,6.32,0,1,1,0-12.65Z"/><path class="cls-1" d="M281.89,91.11c3.34,0,5,2.57,5,5.57,0,.29,0,.84,0,.84h-9.26a4.55,4.55,0,0,0,4.68,4.78,5.61,5.61,0,0,0,3.67-1.46l.74,1.25a6.92,6.92,0,0,1-4.46,1.68,6.1,6.1,0,0,1-6.31-6.31C275.94,93.49,278.63,91.11,281.89,91.11Zm3.38,5.06c-.1-2.52-1.63-3.7-3.43-3.7a4.09,4.09,0,0,0-4.15,3.7Z"/><path class="cls-1" d="M291.2,86.07h-2.53v-.62h5.74v.62h-2.52v6.41h-.69Z"/><path class="cls-1" d="M295.85,85.45h.72l1.84,4.13c.16.36.34.86.34.86h0s.19-.5.35-.86L301,85.45h.71l.56,7h-.69l-.39-4.92c0-.38,0-1,0-1h0s-.21.62-.37,1l-1.65,3.61h-.65l-1.65-3.61c-.16-.35-.38-1-.38-1h0s0,.62,0,1L296,92.47h-.69Z"/><path class="cls-2" d="M300.67,0c-5.43,1.87-10.55,8.71-16.32,11.55a62.3,62.3,0,0,1-14.84,5c-4.95,1-6.71,1-9.28,1.54A64.45,64.45,0,0,0,243,24.8a37.29,37.29,0,0,1-11.89,4.73q-.55.09-1.08.14a15.59,15.59,0,0,1-10-3.12l-.88-.69a25,25,0,0,0-4-2.83q-.43-.29-.83-.59c-1.59-1.22-2.8-2.72-5.38-4-4.91-2.42-10.42-2.74-11.48-1.76-1.26,1.17-1.51,1-3.3,1.52-1.38.39-6.57-1.33-8-1.66a1.45,1.45,0,0,0-2,1.21c-.1.8-1.91,3.73-.46,6.74a6.84,6.84,0,0,0,4.67,4.11,12.56,12.56,0,0,1,3.62,2.19,5.85,5.85,0,0,0,3.79,1.83,9.84,9.84,0,0,1,2.27,1.28c3.08,2.16,4.46,4.68,7.12,9.23,0,0,5.53,4.95.64,12.91-.29.48-1,3.13-6.06,6.74s-14.23,10.77-15.62,11.41-3.56.57-4.79.81-1.24.4-1.84,1.68.86,1.2,1.4,1.28a15.69,15.69,0,0,0,5-.17c1.78-.48,4.42-1.75,5.86-2.18,1.93-.56,7.1-4.83,8.1-5.32s10.87-4,12-5.7a10.7,10.7,0,0,1,9.14-4.7c5.69.2-.27,5.76-.76,6.36-1.07,1.28-9.84,8.08-11.3,9.37s-3.16,2.25-4.16,2.17a3.75,3.75,0,0,0-3.16,1.37c-1,1.12-.45,1.76-.45,2.32s5-.09,6.35-.17a2.59,2.59,0,0,0,1.71-1,1.26,1.26,0,0,1,.78-.95c2-.91,3.7-2.39,5.71-3.3a28.11,28.11,0,0,0,5.33-2.81c1.91-1.45,4.19-1.91,6-3.48,5.39-4.66,6.11-3.82,6.17-6.07.08-3.11,17.66-16.21,22.35-12.9,1,.67,1.57,2.26,2.08,3a10.78,10.78,0,0,1,.75,3.67c-1.1,8.51-4.95,10-6.1,11.07s-2.4,0-3.48.49-1.38,1.68-2,2.65,3.57,1.35,4.73,1.35a4.68,4.68,0,0,0,3.39-1.93c.84-1.12,8.35-9.87,9.5-11.32s.27-4.57.42-5.85,3.57-7.54,4.5-8.42,2.72,1.68,3.65,2.08,5.29,2.31,7.7,4.63,6.53,3.51,8.64,5.43,4,8.24,4.35,10.56-1.22,1.93-1.53,2.81a8.83,8.83,0,0,0-.6,2.57c0,.72,2.1.72,3.34.79s3.25.15,4-.89-1.77-7.77-2.09-9-.83-6.73-.92-7.85-3.08-2.4-3.82-3.12c-6-5.87-7.3-14.13-7.8-18.06-.46-3.64-2.06-10.05-6.76-13.59-.37-.28-.62-.88.24-1,5.26-1.05,10.65-2.91,15.33-7.53,3.67-3.62,5.41-8.11,9.88-12.31C301.66.52,301.37-.19,300.67,0Z"/><circle class="cls-2" cx="152.29" cy="4.24" r="4.24"/><path class="cls-3" d="M130.07,22.79c-7.82,0-14.05,5.23-17.18,14.37-.06-.8-.15-2.34-.15-4v-3.8c0-4.38-1.66-6-6.11-6H97.43v5H106c1.43,0,1.79.2,1.79,1.69V73.73H90.68a2.5,2.5,0,0,1-2.52-2.59V23.32H72.85v5H83.19V49.86c0,12-8.23,24.42-22,24.42-12.08,0-13.1-9-13.1-18.13V23.32H15.35V8.46h-5V23.32H0v5H10.37V58c0,17.68,11,20.31,17.52,20.31a15.89,15.89,0,0,0,2.78-.22l.18,0v-4.7l-.27.06a13.38,13.38,0,0,1-2.5.21c-11.5,0-12.74-11.16-12.74-16V28.3H43.12V57.78c0,14.83,5.63,21.44,18.25,21.44A24.35,24.35,0,0,0,83.44,65.58a18.92,18.92,0,0,0-.25,3.07v3c0,4.23,2.3,6.38,6.84,6.38H121.8V73.73h-9V54.2c0-10.2,4.82-26.38,17.77-26.38a22.17,22.17,0,0,1,2.65.22l.26,0v-5l-.19,0A23.18,23.18,0,0,0,130.07,22.79Z"/><polygon class="cls-3" points="154.77 73.73 154.77 23.32 139.45 23.32 139.45 28.3 149.79 28.3 149.79 73.73 140.1 73.73 140.1 78.06 164.46 78.06 164.46 73.73 154.77 73.73"/></g></g></svg>