<?xml version="1.0" encoding="utf-8"?>
<!-- Generator: Adobe Illustrator 22.0.1, SVG Export Plug-In . SVG Version: 6.00 Build 0)  -->
<svg version="1.1" id="Layer_1" xmlns="http://www.w3.org/2000/svg" xmlns:xlink="http://www.w3.org/1999/xlink" x="0px" y="0px"
	 width="250.11px" height="250.81px" viewBox="0 0 250.11 250.81" style="enable-background:new 0 0 250.11 250.81;"
	 xml:space="preserve">
<path style="fill:#D13239;" d="M10.05,122.86c0.23,0.19,0.29,0.69,0.1,0.9c-1.74,0.58-4,1.97-3.81,5.68
	c0.19,3.57,2.91,7.04,8.66,6.73c5.98-0.32,8.7-4.22,8.5-7.85c-0.19-3.55-2.63-4.97-4.49-5.66c-0.27-0.24-0.18-0.7,0.07-0.85
	c1.89,0.1,3.78,0.76,4.34,1.12c0.07,0.33,0.2,0.67,0.31,0.97c0.23,0.61,0.81,2.52,0.91,4.36c0.15,2.79-0.28,5.21-1.5,7.3
	c-1.37,2.36-3.83,4.21-7.5,4.41c-3.28,0.18-5.92-1.15-7.63-3.15c-1.68-2-2.65-4.8-2.8-7.64c-0.09-1.6,0.09-3.56,0.36-4.9
	c0.07-0.34,0.08-0.54,0.13-0.8C6.33,123.4,7.98,123.25,10.05,122.86 M18.16,113.57c0.07-0.64,0.03-0.74-0.53-0.61l-2.84,0.67
	c-1.25,0.26-1.7,0.35-1.87,0.45l-0.01,0.05c0.15,0.11,0.7,0.35,1.73,0.88l2.57,1.24c0.63,0.32,0.64,0.25,0.7-0.29L18.16,113.57z
	 M18.9,116.43c-0.06,0.59-0.06,0.57,0.53,0.84l2.64,1.23c1.3,0.6,1.37,0.52,1.58-0.32l0.18-0.65c0.18-0.14,0.58-0.08,0.66,0.12
	c-0.12,0.73-0.2,1.48-0.33,2.42c-0.08,0.76-0.13,1.47-0.17,2.27c-0.13,0.15-0.48,0.13-0.67-0.05l-0.04-0.7
	c-0.02-0.67-0.2-0.95-0.92-1.37c-0.56-0.34-1.48-0.81-2.66-1.42l-7.79-4c-0.7-0.38-1.22-0.64-1.62-0.61
	c-0.07-0.82-0.93-1.67-0.93-1.72c0.02-0.18,0.1-0.29,0.22-0.37c1.06-0.26,2.17-0.44,3.23-0.7l9.91-2.28
	c1.58-0.36,1.76-0.46,2.09-1.61l0.1-0.34c0.18-0.17,0.57-0.13,0.66,0.05c-0.14,0.93-0.26,1.78-0.38,2.97c-0.1,0.98-0.17,2-0.23,2.8
	c-0.13,0.17-0.55,0.15-0.67,0l-0.01-0.51c0-0.83-0.13-0.92-1.15-0.72l-3.22,0.74c-0.64,0.16-0.65,0.23-0.71,0.87L18.9,116.43z
	 M15.21,99.93c-2.32-0.56-2.34-0.77-2.24-1.86L13,97.55c-0.07-0.21-0.52-0.29-0.66-0.11c-0.19,1-0.41,2.01-0.65,2.99
	c-0.25,1.03-0.51,2.03-0.82,3.14c0.04,0.22,0.49,0.33,0.64,0.2l0.24-0.6c0.41-1.01,0.52-1.2,2.84-0.64l8.3,2
	c2.32,0.56,2.34,0.77,2.22,1.86l-0.05,0.7c0.06,0.23,0.53,0.27,0.66,0.11c0.18-0.95,0.43-2.07,0.7-3.21l0.56-2.33
	c0.6-2.5,1.08-4.42,1.35-5.35c-0.54-0.41-2.12-1.31-3.01-1.72c-0.21,0.07-0.36,0.41-0.3,0.66c2.05,1.58,2.08,1.97,1.48,4.45
	c-0.43,1.79-0.69,2.11-1.07,2.3c-0.46,0.24-1.27,0.1-2.39-0.17L15.21,99.93z M19.07,86.83c-2.3-0.8-2.29-1.02-2.07-2.09l0.1-0.5
	c-0.1-0.2-0.5-0.32-0.64-0.18c-0.29,0.97-0.61,1.96-0.94,2.91c-0.35,1-0.71,1.97-1.09,2.91c0.03,0.2,0.41,0.36,0.61,0.26l0.23-0.46
	c0.49-0.97,0.62-1.15,2.91-0.34l8.05,2.82c2.3,0.8,2.29,1.02,2.07,2.09l-0.1,0.5c0.1,0.2,0.5,0.32,0.64,0.18
	c0.29-0.97,0.62-2,0.96-2.95c0.33-0.95,0.7-1.92,1.07-2.86c-0.03-0.2-0.41-0.36-0.61-0.26l-0.23,0.45
	c-0.49,0.97-0.62,1.15-2.91,0.34L19.07,86.83z M18.87,78.43c-0.42,0.92-0.88,1.85-1.26,2.56c0.01,0.21,0.37,0.4,0.58,0.32l0.17-0.25
	c0.6-0.91,0.75-1.07,2.96-0.05l7.74,3.6c2.21,1.02,2.18,1.24,1.85,2.28l-0.15,0.49c0.08,0.21,0.46,0.37,0.62,0.24
	c0.4-0.98,0.82-1.93,1.24-2.85c0.42-0.92,0.88-1.85,1.54-3.17c-0.01-0.2-0.37-0.4-0.58-0.32l-0.51,0.83
	c-0.54,0.94-0.69,1.1-2.89,0.08l-2.91-1.35c-0.52-0.24-0.55-0.28-0.33-0.76l0.57-1.23c0.84-1.82,1.03-2.13,2-1.91l0.89,0.21
	c0.2-0.06,0.39-0.45,0.27-0.63c-0.66-0.28-1.42-0.58-2.19-0.94c-0.77-0.36-1.52-0.76-2.05-1.03c-0.22,0.03-0.4,0.42-0.31,0.62
	l0.63,0.5c0.79,0.59,0.67,0.95-0.16,2.76l-0.57,1.23c-0.22,0.48-0.27,0.48-0.79,0.24l-3.73-1.73c-1.17-0.54-1.21-0.56-0.8-1.44
	l0.49-1.06c0.31-0.67,0.57-1.18,0.98-1.68c0.57-0.7,1.33-0.75,2.63-0.4c0.22-0.15,0.35-0.54,0.23-0.71c-1-0.41-2.56-1.14-3.02-1.35
	c-0.16,0.46-0.68,1.64-1.3,2.97L18.87,78.43z M28.23,62.29c-1.25,1.93-1.22,4.94,2.87,7.62c2.65,1.74,7,2.97,9.15-0.32
	c1.43-2.2,0.95-5.04-2.91-7.57C34.44,60.12,30.23,59.23,28.23,62.29 M27.63,61.54c2.9-4.45,7.58-4.65,11.07-2.36
	c3.78,2.48,4.72,7.22,2.19,11.1c-2.84,4.35-7.52,4.85-10.94,2.61C26.03,70.33,24.99,65.58,27.63,61.54 M42.64,53.42
	c0.54,0.49,0.58,0.53,1.32-0.29c1.51-1.67,1.39-3.18-0.23-4.65c-1.34-1.22-3.3-1.42-4.64,0.07c-0.8,0.89-0.77,0.95,0.02,1.66
	L42.64,53.42z M38.4,53.17c-1.63-1.48-1.85-1.65-2.66-0.93l-0.45,0.4c-0.23,0.01-0.5-0.24-0.46-0.45c0.87-1.17,2.13-2.66,3.39-4.06
	c1.2-1.33,2.42-2.33,3.5-2.71c1.24-0.45,2.61-0.36,3.84,0.76c1.56,1.42,1.25,3.34,0.84,4.49c-0.04,0.15,0.13,0.24,0.29,0.26
	c3.53,0.72,5.74,1.18,7.13,0.98c0.84-0.11,1.39-0.51,1.59-0.7c0.14-0.02,0.33,0.15,0.37,0.28c-0.13,0.25-0.37,0.62-0.91,1.22
	c-1.48,1.64-2.94,1.92-5.46,1.52c-1.13-0.19-2.49-0.56-3.53-0.76c-0.79-0.16-1.02-0.03-1.53,0.53c-0.46,0.51-0.46,0.54-0.1,0.87
	l2.18,1.98c1.8,1.64,1.99,1.53,2.82,0.82l0.39-0.33c0.23-0.01,0.52,0.28,0.46,0.48c-0.71,0.72-1.42,1.47-2.1,2.22
	c-0.68,0.75-1.35,1.53-2.03,2.35c-0.19,0.08-0.54-0.15-0.52-0.41l0.29-0.42c0.62-0.89,0.71-1.09-1.09-2.73L38.4,53.17z M60.88,35.26
	c-1.14-1.41-2.39-2.97-2.59-3.73c-0.11-0.39,0.14-0.7,0.44-1.03l0.34-0.42c0.04-0.24-0.24-0.52-0.45-0.49
	c-0.62,0.56-1.06,0.95-1.83,1.57c-0.7,0.56-1.37,1.08-2.1,1.61c-0.13,0.2,0.12,0.55,0.38,0.55l0.45-0.28
	c0.5-0.29,0.88-0.41,1.25-0.27c0.75,0.28,2.1,1.91,3.18,3.25l2.81,3.49c0.23,0.29,0.3,0.38,0.29,0.47
	c-0.27,0.04-3.45-0.52-4.86-0.74l-3.34-0.49c-1.17-0.17-4.93-0.86-5.85-1.38c-0.4,0.38-0.81,0.75-1.19,1.05
	c-0.45,0.36-1.41,1.17-2.15,1.65c-0.13,0.2,0.13,0.57,0.35,0.58l0.31-0.16c0.29-0.15,0.91-0.41,1.23-0.41
	c1.02,0.03,1.24,0.33,2.36,1.73l3.41,4.24c1.14,1.41,2.39,2.97,2.6,3.71c0.11,0.39-0.16,0.72-0.45,1.05l-0.32,0.41
	c-0.04,0.24,0.24,0.52,0.45,0.49c0.6-0.54,1.06-0.95,1.81-1.55c0.68-0.55,1.39-1.09,2.08-1.59c0.13-0.2-0.12-0.55-0.38-0.55
	l-0.44,0.26c-0.5,0.29-0.89,0.43-1.27,0.29c-0.74-0.29-2.08-1.92-3.16-3.27l-2.81-3.49c-0.76-0.95-0.92-1.15-0.87-1.19
	c0.52,0.02,1.64,0.24,3.85,0.61l8.02,1.4c2.47,0.43,3.47,0.62,4.06,0.77c0.23-0.16,0.42-0.43,0.41-0.74
	c-0.38-0.37-2.16-2.57-2.59-3.11L60.88,35.26z M66.84,28.59c-1.28-2.07-1.14-2.24-0.3-2.93l0.39-0.33c0.05-0.22-0.18-0.56-0.39-0.54
	c-0.83,0.57-1.7,1.14-2.56,1.67c-0.9,0.56-1.79,1.08-2.67,1.58c-0.11,0.18,0.09,0.54,0.31,0.59l0.46-0.21
	c0.99-0.45,1.2-0.5,2.48,1.57l4.5,7.27c1.28,2.07,1.14,2.24,0.3,2.93l-0.39,0.33c-0.05,0.22,0.18,0.56,0.39,0.54
	c0.83-0.57,1.74-1.16,2.59-1.7c0.86-0.53,1.75-1.06,2.63-1.55c0.11-0.18-0.09-0.54-0.31-0.59l-0.47,0.21
	c-0.99,0.45-1.2,0.5-2.48-1.57L66.84,28.59z M78.86,28c0.58-0.28,0.64-0.36,0.24-0.78l-2.06-2.07c-0.88-0.93-1.19-1.26-1.36-1.36
	l-0.04,0.02c-0.01,0.19,0.07,0.78,0.16,1.94l0.29,2.84c0.06,0.71,0.12,0.68,0.62,0.44L78.86,28z M76.82,30.13
	c-0.54,0.26-0.52,0.25-0.44,0.9l0.34,2.9c0.17,1.42,0.29,1.44,1.1,1.18l0.65-0.19c0.21,0.08,0.37,0.46,0.25,0.62
	c-0.68,0.28-1.36,0.61-2.22,0.99c-0.68,0.33-1.31,0.66-2.02,1.05c-0.19-0.03-0.36-0.34-0.31-0.59l0.57-0.4
	c0.56-0.37,0.7-0.67,0.68-1.5c-0.01-0.66-0.09-1.69-0.2-3.02l-0.7-8.75c-0.05-0.79-0.1-1.38-0.33-1.7c0.65-0.49,0.93-1.67,0.97-1.69
	c0.16-0.08,0.3-0.07,0.43,0c0.78,0.77,1.51,1.62,2.29,2.39l7.14,7.25c1.14,1.16,1.31,1.26,2.46,0.94l0.34-0.09
	c0.23,0.07,0.4,0.42,0.31,0.59c-0.87,0.37-1.64,0.72-2.72,1.23c-0.89,0.43-1.78,0.91-2.49,1.28c-0.22-0.02-0.42-0.39-0.35-0.57
	L83,32.67c0.71-0.44,0.71-0.6,0.01-1.36l-2.32-2.35c-0.48-0.46-0.53-0.43-1.11-0.15L76.82,30.13z M94.34,28.1
	c0.63,0.19,2.26,0.63,4.76-0.02c3.94-1.03,5.74-3.86,4.93-6.97c-0.72-2.76-3.11-3.94-5.12-4.4l-1.92-0.46
	c-2.04-0.48-3.15-1.51-3.45-2.65c-0.38-1.45,0.15-3.1,2.33-3.67c2.31-0.6,3.74,0.97,4.52,2.29c0.29,0.13,0.78-0.03,0.85-0.31
	c-0.33-1.28-1.07-3.01-1.53-3.53c-1.34,0.09-2.46,0.03-3.87,0.4c-3.97,1.04-5.39,3.85-4.69,6.55c0.64,2.45,2.87,3.65,5.2,4.26
	l1.34,0.35c2.34,0.61,3.4,1.68,3.8,3.23c0.43,1.66-0.41,3.22-2.48,3.76c-2.67,0.7-4.89-1.84-5.74-3.1
	c-0.27-0.13-0.72,0.01-0.82,0.33C92.86,25.87,93.71,27.66,94.34,28.1 M111.99,21.74c0.27,2.42,0.08,2.51-0.99,2.73l-0.94,0.22
	c-0.15,0.13-0.07,0.59,0.12,0.66c1.45-0.21,2.52-0.35,3.52-0.47c1-0.11,2.03-0.21,3.36-0.31c0.17-0.11,0.15-0.53-0.03-0.67h-0.83
	c-1.08,0.01-1.3-0.04-1.57-2.46l-1.11-9.87c-0.11-0.96-0.09-1.01,0.5-1.07l1.3-0.15c2.44-0.28,2.92,0.11,3.42,1.86
	c0.22,0.14,0.6,0.05,0.7-0.15c-0.15-0.72-0.19-2.71-0.07-3.67c-0.05-0.06-0.17-0.1-0.31-0.08c-0.09,0.01-0.18,0.07-0.26,0.12
	c-0.22,0.56-0.55,0.66-1.67,0.79l-9.3,1.05c-1.55,0.18-1.87,0.19-2.05-0.37c-0.05-0.06-0.15-0.08-0.24-0.06
	c-0.11,0.01-0.2,0.05-0.24,0.12c-0.07,0.82-0.25,2.27-0.5,3.55c0.12,0.22,0.6,0.23,0.75,0.08c0.63-1.95,1.22-2.27,3.32-2.5
	l1.28-0.14c0.59-0.07,0.62-0.02,0.73,0.94L111.99,21.74z M126.53,17.58c0.64,0.01,0.74-0.04,0.56-0.59l-0.93-2.77
	c-0.38-1.22-0.51-1.66-0.62-1.82l-0.05,0c-0.09,0.16-0.28,0.73-0.71,1.81l-0.99,2.68c-0.26,0.66-0.19,0.67,0.36,0.67L126.53,17.58z
	 M123.76,18.59c-0.6-0.01-0.57-0.01-0.79,0.61l-0.97,2.75c-0.47,1.35-0.38,1.42,0.47,1.55l0.67,0.12c0.16,0.16,0.13,0.58-0.05,0.67
	c-0.73-0.05-1.49-0.06-2.43-0.1c-0.76-0.01-1.47,0.01-2.27,0.05c-0.16-0.12-0.18-0.46-0.02-0.67l0.69-0.11
	c0.67-0.09,0.92-0.29,1.27-1.05c0.28-0.59,0.66-1.56,1.15-2.79l3.23-8.15c0.31-0.73,0.52-1.28,0.45-1.68
	c0.8-0.15,1.57-1.09,1.62-1.09c0.18,0,0.3,0.07,0.39,0.19c0.36,1.04,0.64,2.12,1,3.16l3.2,9.67c0.51,1.55,0.63,1.71,1.79,1.93
	l0.34,0.07c0.18,0.16,0.18,0.55,0.02,0.67c-0.94-0.06-1.79-0.09-2.98-0.1c-0.99-0.01-2,0.02-2.8,0.04c-0.18-0.12-0.2-0.53-0.06-0.67
	l0.51-0.06c0.83-0.08,0.9-0.22,0.61-1.21l-1.05-3.14c-0.22-0.62-0.29-0.62-0.93-0.63L123.76,18.59z M137.92,21.71
	c-0.33,2.42-0.54,2.46-1.62,2.4l-0.97-0.02c-0.18,0.09-0.21,0.55-0.04,0.67c1.46,0.15,2.53,0.27,3.53,0.41
	c1,0.14,2.02,0.3,3.33,0.52c0.19-0.07,0.27-0.47,0.13-0.66l-0.81-0.2c-1.05-0.26-1.25-0.35-0.92-2.77l1.33-9.85
	c0.13-0.96,0.16-1,0.75-0.92l1.29,0.18c2.43,0.33,2.81,0.82,2.86,2.64c0.18,0.19,0.58,0.19,0.71,0.03c0.03-0.74,0.48-2.67,0.83-3.58
	c-0.04-0.07-0.14-0.14-0.28-0.15c-0.09-0.01-0.19,0.02-0.28,0.05c-0.34,0.49-0.69,0.51-1.81,0.36l-9.27-1.26
	c-1.55-0.21-1.86-0.28-1.9-0.86c-0.04-0.07-0.12-0.11-0.22-0.12c-0.11-0.01-0.21,0-0.26,0.06c-0.27,0.78-0.8,2.14-1.35,3.32
	c0.06,0.24,0.53,0.37,0.71,0.26c1.09-1.73,1.74-1.9,3.83-1.62l1.27,0.17c0.59,0.08,0.61,0.13,0.48,1.09L137.92,21.71z M149.44,23.73
	c-0.66,2.35-0.87,2.36-1.94,2.18l-0.84-0.14c-0.2,0.11-0.29,0.52-0.13,0.66c1.01,0.23,2.36,0.59,3.33,0.86l2.52,0.71
	c2.58,0.72,4.48,1.28,5.44,1.6c0.48-0.51,1.43-2.06,1.82-2.95c-0.07-0.26-0.43-0.43-0.67-0.33c-1.27,1.58-1.94,2.08-4.73,1.25
	c-1.86-0.52-2.18-0.8-2.36-1.19c-0.22-0.47-0.05-1.28,0.27-2.41l0.79-2.81c0.15-0.55,0.19-0.59,0.7-0.45l1.06,0.3
	c1.92,0.54,2.28,0.69,2.18,1.66l-0.09,0.93c0.14,0.18,0.56,0.3,0.71,0.18c0.18-0.72,0.35-1.5,0.58-2.34c0.23-0.82,0.49-1.6,0.68-2.2
	c-0.06-0.21-0.48-0.33-0.7-0.22l-0.36,0.71c-0.42,0.91-0.8,0.82-2.72,0.29l-1.06-0.3c-0.51-0.14-0.52-0.17-0.36-0.75l1.05-3.74
	c0.35-1.26,0.36-1.31,1.32-1.04l1.48,0.42c0.6,0.17,1.25,0.4,1.71,0.69c0.66,0.38,0.84,1.02,0.83,2.41
	c0.14,0.18,0.59,0.26,0.73,0.11c0.13-0.99,0.49-2.78,0.51-3.18c-0.3-0.04-1.59-0.38-3-0.77l-4.22-1.19c-0.97-0.27-2-0.59-2.83-0.87
	c-0.2,0.04-0.34,0.43-0.22,0.63l0.34,0.14c0.99,0.45,1.17,0.57,0.52,2.92L149.44,23.73z M169.84,26.29
	c-1.34,2.51-1.76,4.52-1.22,6.19c0.55,1.71,1.92,3.08,4.25,4.34c1.71,0.92,3.82,1.45,5.85,0.76c2.03-0.7,3.5-2.59,4.71-4.85
	l1.58-2.95c1.05-1.96,2.22-4.14,2.97-4.7c0.38-0.3,0.88-0.16,1.41-0.01l0.61,0.17c0.29-0.07,0.45-0.49,0.32-0.72
	c-0.94-0.44-1.62-0.78-2.66-1.34c-0.97-0.52-1.89-1.05-2.71-1.56c-0.29-0.06-0.55,0.38-0.42,0.67l0.46,0.34
	c0.57,0.43,0.87,0.82,0.89,1.31c0.06,0.96-1.15,3.28-2.15,5.14l-1.66,3.1c-2.02,3.77-4.68,5.51-7.92,3.76
	c-3.44-1.86-2.93-5.29-1.1-8.72l3.05-5.68c1.41-2.63,1.67-2.59,2.93-2.13l0.59,0.22c0.27-0.08,0.47-0.52,0.32-0.72
	c-1.12-0.54-2.24-1.11-3.36-1.71c-1.09-0.59-2.19-1.21-3.15-1.8c-0.25-0.01-0.5,0.4-0.42,0.67l0.38,0.3c1.07,0.8,1.25,1-0.16,3.63
	L169.84,26.29z M199.11,43.23c1.14-1.42,2.39-2.97,3.08-3.33c0.35-0.19,0.72-0.01,1.1,0.21l0.48,0.24c0.24-0.01,0.45-0.34,0.38-0.55
	c-0.67-0.48-1.15-0.84-1.92-1.46c-0.7-0.56-1.34-1.11-2.01-1.71c-0.22-0.09-0.51,0.24-0.45,0.49l0.37,0.39
	c0.39,0.43,0.59,0.77,0.53,1.17c-0.11,0.8-1.41,2.46-2.49,3.8l-2.8,3.49c-0.23,0.29-0.3,0.38-0.4,0.39
	c-0.09-0.25-0.23-3.49-0.32-4.92l-0.23-3.38c-0.08-1.19-0.22-5.01,0.1-6.03c-0.46-0.31-0.9-0.64-1.28-0.94
	c-0.45-0.36-1.44-1.14-2.07-1.75c-0.22-0.09-0.53,0.25-0.49,0.46l0.22,0.27c0.21,0.26,0.59,0.8,0.66,1.12
	c0.19,1.01-0.06,1.28-1.18,2.68l-3.41,4.25c-1.14,1.42-2.39,2.98-3.06,3.34c-0.36,0.19-0.74,0-1.12-0.22l-0.46-0.23
	c-0.24,0.01-0.45,0.34-0.38,0.55c0.65,0.47,1.15,0.84,1.9,1.44c0.68,0.55,1.36,1.13,1.99,1.7c0.22,0.09,0.51-0.24,0.45-0.49
	l-0.35-0.37c-0.39-0.43-0.61-0.78-0.55-1.18c0.13-0.78,1.43-2.45,2.51-3.79l2.8-3.5c0.76-0.95,0.92-1.15,0.98-1.1
	c0.09,0.51,0.11,1.66,0.22,3.9l0.34,8.16c0.11,2.51,0.14,3.54,0.12,4.14c0.2,0.19,0.51,0.32,0.81,0.24c0.28-0.46,2.05-2.66,2.48-3.2
	L199.11,43.23z M206.88,47.66c1.74-1.7,1.94-1.6,2.79-0.92l0.4,0.31c0.23,0,0.51-0.3,0.44-0.5c-0.74-0.69-1.47-1.42-2.17-2.15
	c-0.74-0.76-1.44-1.52-2.11-2.28c-0.2-0.07-0.51,0.2-0.51,0.43l0.3,0.41c0.65,0.87,0.75,1.07-1,2.77l-6.12,5.96
	c-1.75,1.7-1.94,1.6-2.79,0.92l-0.4-0.32c-0.23,0-0.51,0.3-0.44,0.5c0.74,0.69,1.5,1.45,2.21,2.18c0.7,0.73,1.41,1.49,2.07,2.24
	c0.19,0.07,0.51-0.2,0.51-0.43l-0.3-0.41c-0.65-0.87-0.75-1.07,1-2.77L206.88,47.66z M214,61.36c2.46-0.61,4.08-1.03,5.35-1.2
	c0.76-0.1,1.2,0.2,1.61,0.55l0.44,0.38c0.21-0.02,0.52-0.23,0.5-0.45c-0.43-0.48-0.92-1.06-1.42-1.72
	c-0.45-0.58-0.91-1.21-1.45-1.98c-0.2-0.08-0.51,0.13-0.55,0.37l0.28,0.62c0.3,0.64,0.19,0.81-0.76,1.09
	c-3.21,0.96-6.55,1.82-9.59,2.62c0.27-0.51,0.96-1.83,1.52-2.79l2.21-3.82c1.27-2.18,1.55-2.64,1.72-2.77
	c0.14-0.11,0.35-0.04,0.75,0.29l0.46,0.37c0.25,0.06,0.53-0.18,0.51-0.43c-0.78-0.93-1.28-1.54-1.91-2.35
	c-0.55-0.71-1.14-1.5-1.65-2.24c-0.2-0.14-0.52,0.11-0.55,0.34l0.25,0.51c0.42,0.84,0.29,1.2-0.53,2.65l-5.16,9.12
	c-0.51,0.92-1.17,1.9-1.73,2.69c0.02,0.13,0.08,0.29,0.18,0.42c0.1,0.13,0.25,0.24,0.33,0.24c1.16-0.41,3.94-1.21,6.15-1.77
	L214,61.36z M213.18,69.53c-2.1,1.23-2.26,1.08-2.9,0.21l-0.51-0.69c-0.22-0.06-0.57,0.17-0.55,0.38c0.56,0.87,1.28,2.07,1.79,2.95
	l1.32,2.27c1.35,2.33,2.32,4.05,2.79,4.95c0.7-0.03,2.46-0.48,3.36-0.84c0.13-0.24-0.01-0.61-0.25-0.71
	c-2.01,0.24-2.84,0.14-4.26-2.41c-0.97-1.67-1.01-2.1-0.87-2.5c0.16-0.49,0.85-0.95,1.86-1.54l2.52-1.47
	c0.49-0.29,0.55-0.29,0.81,0.17l0.55,0.95c1.01,1.73,1.16,2.09,0.41,2.71l-0.71,0.6c-0.03,0.23,0.19,0.61,0.39,0.62
	c0.62-0.39,1.29-0.83,2.05-1.27c0.73-0.43,1.47-0.81,2.02-1.1c0.1-0.19-0.12-0.57-0.35-0.65l-0.76,0.25
	c-0.93,0.36-1.15,0.03-2.15-1.7l-0.55-0.96c-0.26-0.46-0.26-0.49,0.26-0.79l3.35-1.96c1.13-0.66,1.17-0.68,1.67,0.17l0.77,1.33
	c0.31,0.54,0.62,1.16,0.74,1.69c0.21,0.73-0.11,1.32-1.08,2.31c-0.03,0.23,0.24,0.6,0.45,0.59c0.78-0.62,2.28-1.65,2.57-1.93
	c-0.19-0.24-0.88-1.38-1.62-2.65l-2.2-3.8c-0.51-0.87-1.03-1.82-1.43-2.6c-0.17-0.11-0.54,0.08-0.6,0.3l0.14,0.34
	c0.4,1.01,0.45,1.23-1.65,2.45L213.18,69.53z M225.28,81.63c-0.68,0.28-0.72,0.3-0.3,1.32c0.86,2.08,2.27,2.62,4.28,1.78
	c1.68-0.69,2.69-2.38,1.93-4.23c-0.46-1.11-0.53-1.1-1.5-0.7L225.28,81.63z M227.32,77.9c2.04-0.84,2.28-0.97,1.97-2.01l-0.16-0.58
	c0.09-0.21,0.42-0.35,0.6-0.23c0.68,1.29,1.49,3.07,2.2,4.81c0.68,1.66,1.07,3.19,0.94,4.34c-0.13,1.32-0.8,2.52-2.32,3.15
	c-1.95,0.81-3.55-0.3-4.4-1.16c-0.12-0.1-0.27,0.01-0.36,0.15c-2.16,2.89-3.53,4.7-3.94,6.04c-0.26,0.81-0.14,1.48-0.05,1.74
	c-0.04,0.14-0.27,0.24-0.41,0.22c-0.17-0.23-0.4-0.61-0.7-1.35c-0.84-2.04-0.47-3.49,0.97-5.6c0.65-0.94,1.58-2.02,2.19-2.87
	c0.48-0.65,0.47-0.91,0.18-1.62c-0.26-0.64-0.29-0.65-0.74-0.47l-2.71,1.12c-2.24,0.93-2.23,1.15-1.95,2.2l0.13,0.49
	c-0.09,0.21-0.48,0.35-0.63,0.21c-0.34-0.95-0.72-1.92-1.1-2.85c-0.39-0.93-0.8-1.88-1.24-2.84c0.01-0.2,0.37-0.43,0.6-0.3
	l0.26,0.44c0.54,0.95,0.68,1.11,2.93,0.18L227.32,77.9z M221.91,94.67c-0.15,0.52-0.5,1.85,0.05,3.89c0.87,3.22,3.18,4.66,5.71,3.98
	c2.24-0.61,3.18-2.58,3.54-4.23l0.36-1.57c0.38-1.68,1.2-2.59,2.13-2.84c1.17-0.32,2.52,0.1,3,1.88c0.51,1.89-0.76,3.07-1.83,3.71
	c-0.1,0.24,0.03,0.63,0.26,0.69c1.04-0.28,2.44-0.9,2.86-1.28c-0.08-1.1-0.04-2.02-0.35-3.17c-0.87-3.24-3.18-4.38-5.37-3.79
	c-1.99,0.54-2.95,2.37-3.43,4.29l-0.27,1.1c-0.48,1.92-1.34,2.79-2.6,3.14c-1.35,0.37-2.63-0.31-3.08-2
	c-0.59-2.18,1.46-4.02,2.48-4.72c0.11-0.22-0.02-0.59-0.27-0.66C223.72,93.44,222.27,94.14,221.91,94.67 M236.37,107.49
	c2.4-0.41,2.5-0.22,2.82,0.82l0.15,0.49c0.18,0.13,0.59,0.04,0.65-0.16c-0.22-0.99-0.41-2.01-0.58-3c-0.18-1.04-0.33-2.07-0.45-3.07
	c-0.12-0.17-0.53-0.12-0.66,0.07l0.02,0.51c0.04,1.09,0.01,1.3-2.38,1.72l-8.41,1.45c-2.4,0.41-2.5,0.22-2.82-0.82l-0.15-0.49
	c-0.18-0.13-0.59-0.04-0.65,0.16c0.22,0.99,0.42,2.05,0.59,3.05c0.17,1,0.32,2.02,0.45,3.03c0.12,0.17,0.53,0.12,0.66-0.07
	l-0.02-0.51c-0.05-1.09-0.01-1.3,2.38-1.72L236.37,107.49z M228.99,118.11c-2.43,0.14-2.51-0.06-2.66-1.14l-0.17-0.96
	c-0.12-0.16-0.58-0.11-0.66,0.08c0.13,1.47,0.21,2.55,0.27,3.56c0.06,1.01,0.09,2.04,0.13,3.38c0.1,0.18,0.51,0.18,0.66,0.01
	l0.04-0.83c0.05-1.09,0.11-1.3,2.54-1.44l9.89-0.56c0.96-0.05,1.01-0.04,1.04,0.56l0.08,1.31c0.14,2.46-0.27,2.92-2.04,3.32
	c-0.15,0.22-0.08,0.6,0.11,0.71c0.73-0.11,2.71-0.04,3.66,0.14c0.07-0.05,0.11-0.17,0.1-0.3c0-0.09-0.06-0.18-0.11-0.27
	c-0.54-0.24-0.63-0.58-0.69-1.71l-0.53-9.37c-0.09-1.56-0.08-1.88,0.48-2.03c0.07-0.05,0.08-0.14,0.08-0.24
	c-0.01-0.11-0.04-0.21-0.11-0.25c-0.81-0.11-2.25-0.38-3.51-0.7c-0.22,0.1-0.27,0.59-0.12,0.74c1.9,0.74,2.19,1.35,2.31,3.46
	l0.07,1.29c0.04,0.6-0.01,0.62-0.97,0.68L228.99,118.11z M228.98,132.91c-2.42-0.2-2.47-0.42-2.5-1.5l-0.03-0.74
	c-0.15-0.17-0.56-0.19-0.67-0.01c-0.06,1.24-0.12,2.27-0.21,3.33c-0.08,1.01-0.19,2.04-0.35,3.46c0.08,0.19,0.49,0.25,0.66,0.1
	l0.16-0.86c0.21-1.11,0.29-1.31,2.71-1.11l1.37,0.11c1.55,0.13,2.02,0.33,3.15,1.12c1.22,0.82,2.42,1.61,3.66,2.5
	c1.91,1.36,2.33,1.67,2.42,2.72l0.08,0.67c0.17,0.18,0.53,0.21,0.67,0.01c0.01-0.74,0.05-1.47,0.11-2.18
	c0.06-0.69,0.14-1.4,0.27-2.4c-0.1-0.24-0.49-0.27-0.66-0.12l-0.22,0.67c-0.07,0.32-0.16,0.52-0.39,0.5
	c-0.25-0.02-0.74-0.29-1.48-0.75c-1.64-1.04-3.17-2.02-4.83-3.1c1.74-0.78,3.66-1.45,5.7-2.2c0.78-0.26,1.04-0.33,1.22-0.31
	c0.18,0.02,0.24,0.14,0.26,0.51l0.06,0.7c0.14,0.2,0.56,0.19,0.67,0.01c0-0.53,0.09-1.93,0.17-2.94c0.08-0.94,0.18-1.9,0.31-2.88
	c-0.05-0.19-0.49-0.27-0.66-0.14l-0.19,0.58c-0.29,1.01-0.58,1.17-1.6,1.6l-5.65,2.3c-1.26,0.54-1.61,0.61-2.89,0.5L228.98,132.91z"
	/>
<path style="fill:none;stroke:#F5C400;stroke-width:1.8579;" d="M220.14,125.4c0,52.66-42.57,95.35-95.08,95.35
	c-52.51,0-95.08-42.69-95.08-95.35c0-52.66,42.57-95.35,95.08-95.35C177.57,30.05,220.14,72.74,220.14,125.4z M249.13,125.4
	c0,68.71-55.55,124.42-124.07,124.42S0.98,194.12,0.98,125.4C0.98,56.69,56.53,0.98,125.05,0.98S249.13,56.69,249.13,125.4z"/>
<path style="fill:#D13239;" d="M61.01,224.21c-0.14-0.77,0.53-2.63,1.44-4.12c0.29-0.16,0.71,0.06,0.81,0.35
	c-0.29,1.5-0.51,4.87,1.86,6.27c1.84,1.09,3.54,0.59,4.41-0.89c0.81-1.38,0.82-2.88-0.4-4.98l-0.7-1.2
	c-1.22-2.09-1.94-4.52-0.66-6.7c1.41-2.4,4.41-3.38,7.94-1.29c1.26,0.75,2.01,1.58,3.02,2.47c-0.05,0.69-0.75,2.43-1.42,3.58
	c-0.25,0.15-0.7-0.09-0.82-0.38c0.38-1.48,0.49-3.6-1.57-4.82c-1.94-1.15-3.48-0.36-4.23,0.93c-0.6,1.02-0.54,2.53,0.56,4.32
	l1.03,1.69c1.09,1.76,1.94,4.29,0.5,6.74c-1.63,2.77-4.89,3.49-8.4,1.41C62.15,226.26,61.32,224.79,61.01,224.21 M80.17,231.42
	c-0.93,2.25-1.14,2.24-2.17,1.91l-0.93-0.26c-0.19,0.05-0.35,0.48-0.21,0.63c1.37,0.52,2.38,0.91,3.31,1.29
	c0.93,0.39,1.88,0.8,3.09,1.35c0.2-0.02,0.38-0.39,0.3-0.6l-0.73-0.4c-0.95-0.52-1.12-0.66-0.19-2.91l3.77-9.19
	c0.37-0.89,0.41-0.92,0.96-0.7l1.21,0.5c2.27,0.94,2.51,1.51,2.1,3.28c0.13,0.23,0.51,0.34,0.68,0.21c0.22-0.71,1.14-2.47,1.71-3.25
	c-0.02-0.08-0.1-0.17-0.23-0.22c-0.09-0.03-0.19-0.03-0.29-0.02c-0.46,0.38-0.8,0.32-1.84-0.11l-8.65-3.57
	c-1.44-0.6-1.73-0.74-1.62-1.31c-0.02-0.08-0.09-0.14-0.18-0.17c-0.11-0.05-0.2-0.06-0.27-0.01c-0.45,0.68-1.31,1.87-2.15,2.87
	c0,0.25,0.42,0.49,0.62,0.43c1.49-1.4,2.16-1.39,4.11-0.59l1.19,0.49c0.55,0.23,0.55,0.28,0.19,1.17L80.17,231.42z M95.63,233.25
	c0.62,0.17,0.72,0.15,0.69-0.43l-0.2-2.92c-0.05-1.28-0.07-1.74-0.14-1.92l-0.04-0.01c-0.13,0.13-0.46,0.64-1.15,1.57l-1.64,2.34
	c-0.42,0.57-0.35,0.59,0.18,0.74L95.63,233.25z M92.7,233.51c-0.57-0.16-0.55-0.15-0.92,0.39l-1.64,2.41
	c-0.8,1.18-0.73,1.28,0.06,1.61l0.61,0.29c0.11,0.2-0.02,0.59-0.22,0.63c-0.69-0.24-1.42-0.44-2.32-0.72
	c-0.73-0.2-1.42-0.37-2.21-0.54c-0.12-0.15-0.05-0.49,0.16-0.65l0.69,0.07c0.67,0.09,0.96-0.04,1.5-0.68
	c0.42-0.5,1.03-1.34,1.83-2.4l5.2-7.06c0.48-0.63,0.83-1.11,0.86-1.5c0.82,0.06,1.8-0.65,1.84-0.64c0.18,0.05,0.27,0.15,0.33,0.28
	c0.08,1.1,0.08,2.22,0.16,3.31l0.62,10.17c0.1,1.63,0.17,1.81,1.24,2.32l0.31,0.16c0.13,0.21,0.03,0.58-0.16,0.65
	c-0.89-0.3-1.7-0.55-2.85-0.86c-0.95-0.26-1.94-0.49-2.71-0.68c-0.15-0.16-0.06-0.57,0.11-0.66l0.5,0.07
	c0.82,0.13,0.92,0.02,0.9-1.02l-0.21-3.3c-0.06-0.66-0.12-0.68-0.74-0.85L92.7,233.51z M118.48,234.44c0.21-1.8,0.45-3.79,0.85-4.46
	c0.2-0.35,0.6-0.39,1.04-0.41l0.54-0.05c0.2-0.14,0.2-0.53,0.03-0.67c-0.83-0.05-1.42-0.1-2.4-0.21c-0.89-0.11-1.73-0.23-2.61-0.38
	c-0.24,0.04-0.31,0.47-0.12,0.66l0.52,0.13c0.56,0.16,0.91,0.34,1.07,0.71c0.33,0.73,0.1,2.84-0.1,4.55l-0.53,4.45
	c-0.04,0.36-0.06,0.48-0.13,0.54c-0.21-0.16-2.04-2.84-2.88-4l-1.99-2.74c-0.7-0.96-2.84-4.13-3.11-5.16
	c-0.55-0.02-1.1-0.06-1.58-0.12c-0.57-0.07-1.82-0.19-2.68-0.39c-0.24,0.04-0.31,0.5-0.17,0.65l0.33,0.11
	c0.31,0.11,0.93,0.36,1.15,0.6c0.7,0.76,0.63,1.12,0.42,2.9l-0.64,5.41c-0.21,1.8-0.45,3.79-0.83,4.46
	c-0.2,0.35-0.62,0.39-1.07,0.41l-0.51,0.05c-0.2,0.14-0.2,0.53-0.03,0.67c0.8,0.05,1.42,0.1,2.38,0.21c0.86,0.1,1.75,0.23,2.59,0.38
	c0.24-0.04,0.31-0.47,0.12-0.66l-0.49-0.13c-0.56-0.16-0.93-0.34-1.1-0.71c-0.31-0.73-0.08-2.83,0.12-4.55l0.53-4.45
	c0.14-1.21,0.17-1.46,0.24-1.45c0.35,0.39,0.97,1.34,2.26,3.19l4.61,6.73c1.42,2.07,1.99,2.92,2.3,3.44c0.27,0.06,0.6,0,0.81-0.23
	c-0.01-0.53,0.32-3.34,0.4-4.03L118.48,234.44z M126.62,231.99c0-2.44,0.2-2.51,1.28-2.65l0.5-0.07c0.16-0.16,0.13-0.58-0.05-0.67
	c-1.01,0.05-2.04,0.07-3.05,0.08c-1.05,0-2.09-0.02-3.1-0.06c-0.18,0.09-0.21,0.51-0.04,0.67l0.5,0.07c1.08,0.14,1.29,0.2,1.29,2.64
	l0.02,8.55c0,2.44-0.2,2.51-1.28,2.65l-0.5,0.07c-0.16,0.16-0.14,0.58,0.05,0.67c1.01-0.05,2.09-0.07,3.1-0.08
	c1.01,0,2.04,0.02,3.05,0.06c0.18-0.09,0.21-0.51,0.04-0.67l-0.5-0.07c-1.08-0.13-1.29-0.2-1.29-2.64L126.62,231.99z M131.78,243.14
	c0.48,0.23,1.73,0.81,3.83,0.61c3.31-0.31,5.13-2.34,4.89-4.95c-0.22-2.31-1.99-3.58-3.55-4.22l-1.48-0.63
	c-1.58-0.66-2.34-1.63-2.43-2.59c-0.11-1.21,0.53-2.47,2.36-2.64c1.94-0.18,2.88,1.28,3.33,2.44c0.22,0.14,0.63,0.08,0.72-0.14
	c-0.1-1.08-0.47-2.57-0.76-3.05c-1.09-0.1-1.99-0.3-3.17-0.19c-3.33,0.31-4.84,2.39-4.64,4.66c0.19,2.06,1.82,3.32,3.63,4.12
	l1.03,0.46c1.8,0.8,2.52,1.8,2.63,3.11c0.13,1.39-0.75,2.54-2.49,2.7c-2.24,0.21-3.69-2.13-4.21-3.26c-0.2-0.14-0.58-0.08-0.7,0.16
	C130.89,241.15,131.33,242.7,131.78,243.14 M145.85,229.96c-0.49-2.34-0.3-2.45,0.72-2.83l0.48-0.19c0.16-0.15,0.04-0.59-0.18-0.64
	c-0.98,0.25-1.98,0.48-2.97,0.69c-1.03,0.21-2.05,0.4-3.18,0.59c-0.18,0.13-0.09,0.58,0.09,0.66l0.65-0.04
	c1.09-0.06,1.31-0.04,1.79,2.3l1.74,8.37c0.49,2.34,0.3,2.45-0.73,2.81l-0.65,0.25c-0.18,0.16-0.02,0.59,0.18,0.64
	c0.93-0.24,2.05-0.5,3.19-0.74l2.33-0.49c2.51-0.53,4.45-0.91,5.4-1.06c0.14-0.66,0.28-2.48,0.26-3.46
	c-0.15-0.16-0.52-0.15-0.72,0.01c-0.55,2.53-0.89,2.72-3.38,3.24c-1.8,0.38-2.19,0.27-2.53,0.01c-0.42-0.31-0.63-1.11-0.86-2.24
	L145.85,229.96z M162.17,230.84c0.61-0.21,0.68-0.29,0.32-0.75l-1.82-2.29c-0.77-1.02-1.04-1.39-1.2-1.5l-0.04,0.02
	c-0.04,0.18-0.02,0.78-0.05,1.94l-0.02,2.86c-0.02,0.71,0.05,0.69,0.57,0.51L162.17,230.84z M159.91,232.73
	c-0.56,0.2-0.54,0.19-0.53,0.84l0.02,2.92c0.01,1.43,0.12,1.47,0.96,1.3l0.67-0.11c0.2,0.1,0.32,0.5,0.18,0.64
	c-0.71,0.2-1.42,0.45-2.32,0.74c-0.71,0.25-1.38,0.51-2.12,0.82c-0.19-0.05-0.32-0.37-0.24-0.62l0.61-0.33
	c0.6-0.31,0.77-0.59,0.84-1.42c0.06-0.66,0.09-1.69,0.14-3.02l0.27-8.77c0.04-0.79,0.05-1.38-0.14-1.73
	c0.71-0.42,1.11-1.56,1.15-1.57c0.17-0.06,0.31-0.03,0.43,0.05c0.69,0.86,1.33,1.78,2.01,2.63l6.29,8c1,1.28,1.17,1.39,2.34,1.2
	l0.35-0.05c0.22,0.09,0.35,0.46,0.24,0.62c-0.9,0.27-1.71,0.53-2.84,0.92c-0.93,0.33-1.87,0.7-2.62,0.99
	c-0.21-0.05-0.37-0.43-0.28-0.61l0.45-0.23c0.75-0.36,0.77-0.51,0.16-1.35l-2.05-2.59c-0.42-0.51-0.49-0.49-1.09-0.28L159.91,232.73
	z M170.36,228.45c1.05,2.07,2.2,3.29,3.57,3.7c1.4,0.43,2.95,0.15,4.88-0.83c1.41-0.72,2.75-1.89,3.23-3.58
	c0.48-1.69-0.1-3.56-1.05-5.43l-1.23-2.44c-0.82-1.62-1.73-3.43-1.75-4.19c-0.02-0.4,0.3-0.67,0.65-0.95l0.4-0.33
	c0.09-0.23-0.12-0.53-0.33-0.55c-0.74,0.43-1.28,0.73-2.14,1.16c-0.8,0.4-1.59,0.78-2.3,1.09c-0.17,0.17-0.01,0.54,0.25,0.59
	l0.44-0.15c0.55-0.18,0.95-0.2,1.29,0.01c0.67,0.41,1.65,2.31,2.43,3.84l1.29,2.57c1.58,3.12,1.5,5.71-1.18,7.07
	c-2.84,1.45-4.9-0.5-6.33-3.33l-2.37-4.7c-1.1-2.17-0.94-2.33-0.06-2.96l0.42-0.29c0.07-0.22-0.13-0.56-0.33-0.55
	c-0.88,0.5-1.79,0.99-2.71,1.45c-0.9,0.46-1.83,0.91-2.67,1.28c-0.12,0.16,0.03,0.52,0.25,0.59l0.38-0.12
	c1.03-0.34,1.25-0.38,2.35,1.8L170.36,228.45z M188.11,224.97c0.53-0.03,1.9-0.14,3.64-1.34c2.74-1.89,3.33-4.56,1.85-6.72
	c-1.32-1.91-3.48-2.15-5.15-1.95l-1.6,0.18c-1.7,0.2-2.84-0.28-3.38-1.07c-0.69-1.01-0.74-2.42,0.77-3.46
	c1.61-1.11,3.14-0.29,4.1,0.49c0.26,0.02,0.59-0.24,0.57-0.47c-0.61-0.89-1.66-2.01-2.15-2.28c-1,0.44-1.88,0.71-2.86,1.39
	c-2.76,1.9-3.06,4.46-1.78,6.34c1.17,1.7,3.21,2,5.17,1.82l1.12-0.1c1.96-0.18,3.07,0.34,3.81,1.41c0.79,1.16,0.58,2.59-0.86,3.58
	c-1.85,1.28-4.26-0.05-5.27-0.77c-0.24-0.03-0.55,0.21-0.53,0.48C186.35,223.67,187.5,224.8,188.11,224.97"/>
<g>
	<path style="fill:#FFFFFF;" d="M161.9,197.69c47.93-47.15,32.96-135.48,32.96-135.48l-140-0.02c0,0-16.16,87.08,32.21,135.02
		c-7.66,4,0.47,6.51,1.09,15.01c0.77-3.53,6.25-5.22,9.19-6.17c8.16,6.08,17.45,10.79,27.02,14.18
		c10.59-3.48,19.42-8.12,27.21-13.82c3.24,1.17,8.43,2.39,9.41,6.19C161.14,204.06,171.13,201.35,161.9,197.69z"/>
	<path style="fill:#D13239;" d="M124.99,62.45l69.73-0.39c0,0,4.48,26.2,1.08,57.13h-71.27L124.99,62.45z M149.25,91.26
		c2.4,4.67,6.81,7.84,12.46,7.83c5.57,0.01,9.98-3.16,12.46-7.83H149.25z M166.83,84.19c-0.39-1.17-2.42-2.14-3.33-2.18
		c-0.98,0.05-0.87-1.13-0.51-1.41c0.3-0.21,0.44-0.58,0.38-0.9c0.06-0.84-0.61-1.51-1.41-1.54c-0.86,0.03-1.53,0.7-1.54,1.54
		c0.01,0.32,0.16,0.69,0.38,0.9c0.42,0.29,0.54,1.46-0.38,1.41c-0.97,0.05-2.99,1.02-3.33,2.18H166.83z M171.7,86.53
		c-0.02,1.23,0.96,2.22,2.21,2.22c1.18,0,2.17-0.99,2.22-2.22c-0.05-1-0.73-1.85-1.69-2.11c0.03-1.44,1.18-2.07,2.74-2.11
		c1.48,0.04,2.18,1.94,2.21,3.28c-0.03,1.26,0.01,2.97-3.69,6.56c-1.2,1.14-2.56,2.44-2.53,3.7c-0.03,1.15,0.89,2.08,2,2.12
		c1.18-0.04,2.1-0.97,2.11-2.12c0-0.36-0.09-0.69-0.21-0.95c-0.42-0.53-0.98-1.5-0.32-1.9c0.67-0.42,5.75-3.8,5.8-7.4
		c-0.04-3.68-3.94-4.69-5.38-4.65C175.65,80.89,171.7,82.23,171.7,86.53 M173.86,89.97v-0.64c-2.19,0-5.63-0.77-6.91-3.59h-10.62
		c-1.24,2.82-4.68,3.59-6.78,3.59v0.64H173.86z M175.27,106.52v-1.92c-2.85-0.05-6.9-0.86-8.32-2.31h-10.62
		c-1.37,1.45-5.42,2.26-8.32,2.31v1.92H175.27z M167.08,99.85h-10.75v1.41h10.75V99.85z M140.21,86.89
		c0.49-2.54,2.93-3.14,3.81-3.59c3.48-2.27,0.84-5.36-0.23-5.7c0.79,2.07-0.33,3.03-2.1,4.56C139.86,83.67,139.7,85.79,140.21,86.89
		 M140.6,77.08c0.41,1.02,0.41,2.38-0.23,3.36c-0.64,0.94-0.84,2.1-0.57,3.3c0.01-0.84,1.61-2.33,1.93-2.79
		C142.94,79.3,141.86,77.66,140.6,77.08 M142.99,78.28c-0.73-1.5-0.17-3.43,0.57-4.16C140.94,75.13,142.02,77.62,142.99,78.28
		 M151.73,97.02c-2.66-1.95-5.18-4.66-6.78-9.11h-6.14C140.34,91.46,146.73,97.06,151.73,97.02"/>
	<g>
		<path style="fill:#D13239;" d="M87,150.1c0.98,0,1.4,0.54,1.4,1.79c0,1.22-0.47,1.77-1.52,1.77c-0.07,0-0.14,0-0.21-0.01v-3.18
			C86.67,150.1,86.69,150.1,87,150.1 M101.62,171.21h1.56l-0.75-2.5L101.62,171.21z M106.66,154.93h1.56l-0.75-2.5L106.66,154.93z
			 M92.69,141.77c0.85,0,1.99-0.42,1.99-4.04c0-2.69-0.72-4.05-2.15-4.05c-0.83,0-1.93,0.42-1.93,4.09
			C90.6,139.6,90.96,141.77,92.69,141.77 M124.52,119.27v69.82c-13.99-0.05-26.27,2.79-37.11,8.06l-0.05,0.03
			c-7.69-7.41-14.8-16.41-19.73-26.74c-13.61-28.53-14.07-51.16-14.07-51.16H124.52z M96.9,133.72l0.16,0.01
			c0.37,0.03,0.76,0.45,1.3,1.38c0,0,1.5,2.55,1.8,3.06l-1.49,2.22c-0.57,0.86-1.02,1.25-1.52,1.31L97,141.72v0.91l0.19-0.02
			c0.36-0.04,0.72-0.04,1.07-0.04c0.73,0,1.34,0.01,1.82,0.04l0.18,0.01v-0.92l-0.17-0.01c-0.67-0.03-0.67-0.28-0.67-0.4
			c0-0.1,0.05-0.34,0.25-0.64c0,0,0.7-1.08,1.02-1.57l1.05,1.76c0.17,0.27,0.23,0.43,0.23,0.55c0,0.15,0,0.29-0.63,0.29h-0.3v0.94
			l0.18-0.01c0.73-0.03,1.42-0.04,2.11-0.04c0.54,0,1.14,0.01,1.84,0.04l0.18,0.01v-0.94l-0.17-0.01c-0.38-0.01-0.59-0.17-0.9-0.68
			c0,0-1.95-3.31-2.29-3.88l1.06-1.63l0.11-0.17c0.63-0.97,1-1.56,1.63-1.58l0.17,0v-0.89l-0.18,0.01
			c-0.55,0.04-1.07,0.05-1.55,0.05c-0.53,0-0.92-0.02-1.27-0.07l-0.2-0.03v0.91l0.17,0.01c0.62,0.03,0.67,0.21,0.67,0.4
			c0,0.21-0.12,0.5-0.34,0.84c0,0-0.53,0.81-0.8,1.22l-0.99-1.71c-0.09-0.14-0.13-0.3-0.13-0.47c0-0.09,0-0.25,0.62-0.27l0.17,0
			v-0.88l-0.18,0.01c-0.72,0.04-1.38,0.05-1.97,0.05c-0.75,0-1.33-0.02-1.88-0.07l-0.19-0.02V133.72z M102.93,157.98
			c-0.81-0.03-0.98-0.19-0.98-0.97v-6.76c0.13-0.01,0.26-0.02,0.37-0.02c1.08,0,1.5,0.45,1.68,1.79l0.02,0.15h0.77l-0.01-0.18
			l-0.1-2.68l-0.01-0.17l-0.17,0.01c-1.21,0.04-2.58,0.05-4.3,0.05c-0.91,0-1.96-0.01-2.89-0.07l-0.18-0.01l0,0.18L97.03,152
			l-0.01,0.18h0.78l0.02-0.15c0.17-1.36,0.58-1.77,1.73-1.77c0.09,0,0.19,0,0.28,0v6.76c0,0.78-0.13,0.92-0.93,0.97l-0.16,0.01v0.92
			l0.18-0.01c0.71-0.04,1.42-0.05,2.13-0.05c0.69,0,1.3,0.02,1.86,0.05l0.19,0.01v-0.93L102.93,157.98 M92.56,132.65
			c-1.24,0-2.3,0.48-3.07,1.39c-0.84,0.97-1.25,2.18-1.25,3.7c0,1.51,0.41,2.72,1.24,3.7c0.82,0.95,1.81,1.37,3.18,1.37
			c1.22,0,2.31-0.5,3.14-1.45c0.83-0.95,1.25-2.18,1.25-3.65c0-1.44-0.4-2.64-1.19-3.59C95.01,133.12,93.96,132.65,92.56,132.65
			 M96.46,157.98c-0.79-0.02-0.89-0.16-0.89-1.19v-5.67c0-0.93,0.1-1.07,0.76-1.07h0.3v-0.93l-0.18,0.01
			c-0.66,0.03-1.31,0.04-1.95,0.04c-0.54,0-1.2-0.01-1.95-0.04l-0.18-0.01v0.93h0.29c0.67,0,0.77,0.15,0.77,1.07v5.67
			c0,1.04-0.1,1.17-0.89,1.19l-0.17,0v0.91l0.18-0.01c0.68-0.03,1.33-0.04,1.95-0.04c0.53,0,1.16,0.01,1.95,0.04l0.18,0.01v-0.91
			L96.46,157.98 M80.19,133.79l0.17,0.01c0.6,0.02,0.75,0.21,0.95,0.88c0,0,2.54,8,2.54,8l0.04,0.12h0.8l0.04-0.12l2.45-7.51
			c0.3-0.93,0.46-1.34,1.17-1.39l0.16-0.01v-0.92l-0.18,0.01c-0.43,0.03-0.87,0.04-1.37,0.04c-0.53,0-1.02-0.01-1.45-0.04
			l-0.18-0.01v0.93l0.17,0c0.72,0.01,0.79,0.17,0.79,0.55c0,0.19-0.07,0.75-0.34,1.61c0,0-0.71,2.26-1.04,3.31l-1.29-4.31
			c-0.13-0.42-0.16-0.64-0.16-0.7c0-0.27,0.05-0.45,0.7-0.45h0.25v-0.93l-0.18,0.01c-0.53,0.04-1.16,0.05-1.96,0.05
			c-0.81,0-1.4-0.02-1.87-0.05l-0.19-0.02V133.79z M75.79,149.13l-0.18,0.01c-0.43,0.03-0.87,0.04-1.37,0.04
			c-0.53,0-1.02-0.01-1.45-0.04l-0.18-0.01v0.93l0.17,0c0.72,0.01,0.79,0.17,0.79,0.55c0,0.19-0.07,0.75-0.34,1.61
			c0,0-0.71,2.26-1.04,3.31l-1.29-4.32c-0.13-0.42-0.16-0.64-0.16-0.7c0-0.27,0.05-0.45,0.69-0.45h0.25v-0.93l-0.19,0.01
			c-0.53,0.04-1.16,0.06-1.96,0.06c-0.81,0-1.41-0.02-1.87-0.06l-0.19-0.01v0.94l0.17,0.01c0.6,0.02,0.75,0.21,0.95,0.88
			c0,0,2.54,8,2.54,8l0.04,0.12h0.8l0.04-0.12l2.45-7.51c0.3-0.93,0.46-1.34,1.17-1.39l0.16-0.01V149.13z M76.4,158.92
			c0.71-0.08,1.51-0.1,2.5-0.1c1.03,0,2.4,0.03,4.07,0.08l0.18,0.01v-3.19h-0.73l-0.02,0.15c-0.23,1.49-0.68,1.94-1.94,1.94
			c-0.81,0-1.1-0.31-1.1-1.19v-2.32c0.71,0.01,1.08,0.23,1.24,1.41l0.02,0.15h0.79l-0.01-0.18c-0.04-0.61-0.05-1.26-0.05-1.93
			c0-0.52,0.01-1.2,0.05-1.81l0.01-0.19h-0.82l-0.02,0.15c-0.17,1.21-0.51,1.41-1.2,1.41h-0.02v-2.89c0-0.26,0-0.26,0.46-0.26
			c1.37,0,1.86,0.23,2.09,1.59l0.02,0.15h0.78v-2.8l-0.18,0.01c-2.13,0.08-3.31,0.08-3.62,0.08c-0.78,0-1.62-0.03-2.51-0.08
			l-0.18-0.01v0.9h0.25c0.55,0,0.8,0.17,0.8,1.18v5.16c0,1.42-0.12,1.65-0.87,1.65H76.2v0.96L76.4,158.92z M86.94,165.4l-0.18,0.01
			c-0.43,0.03-0.87,0.04-1.37,0.04c-0.53,0-1.02-0.01-1.45-0.04l-0.18-0.01v0.93l0.17,0c0.72,0.01,0.79,0.17,0.79,0.55
			c0,0.19-0.07,0.75-0.34,1.61c0,0-0.71,2.25-1.04,3.31l-1.3-4.32c-0.13-0.42-0.16-0.64-0.16-0.7c0-0.27,0.05-0.45,0.69-0.45h0.25
			v-0.93l-0.19,0.01c-0.53,0.04-1.16,0.05-1.96,0.05c-0.81,0-1.41-0.02-1.87-0.05l-0.19-0.02v0.94l0.17,0.01
			c0.6,0.02,0.75,0.21,0.95,0.88c0,0,2.54,8,2.54,8l0.04,0.12h0.8l0.04-0.12l2.45-7.51c0.3-0.93,0.46-1.34,1.17-1.39l0.16-0.01
			V165.4z M91.6,165.41l-0.18,0.01c-0.66,0.03-1.31,0.04-1.95,0.04c-0.54,0-1.2-0.01-1.95-0.04l-0.18,0v0.93h0.28
			c0.67,0,0.77,0.15,0.77,1.07v5.67c0,1.04-0.1,1.17-0.89,1.19l-0.17,0v0.91l0.18-0.01c0.68-0.03,1.33-0.04,1.95-0.04
			c0.53,0,1.16,0.01,1.95,0.04l0.18,0.01v-0.91l-0.17,0c-0.79-0.02-0.89-0.16-0.89-1.19v-5.67c0-0.93,0.1-1.07,0.76-1.07h0.3V165.41
			z M91.87,158.06l-0.15-0.02c-0.32-0.05-0.63-0.33-0.91-0.83l-1.08-1.9c0,0-0.07-0.12-0.07-0.12c-0.28-0.49-0.5-0.86-0.72-1.1
			c1.07-0.35,1.68-1.21,1.68-2.44c0-1.71-1.06-2.55-3.24-2.55c-0.37,0-0.75,0.01-1.16,0.02c-0.42,0.01-0.86,0.02-1.31,0.02
			c-0.42,0-0.82,0-1.2-0.03l-0.19-0.01v0.92l0.17,0c0.8,0.01,0.92,0.14,0.92,0.97v5.78c0,1.03-0.19,1.18-0.92,1.18h-0.17v0.95
			l0.19-0.02c0.38-0.04,0.81-0.04,1.27-0.04c0.54,0,1.41,0.01,2.59,0.04l0.18,0v-0.94h-0.23c-0.65,0-0.86-0.16-0.86-1.1v-2.23
			c0.27,0.04,0.45,0.32,0.8,0.95c0,0,1.79,3.22,1.79,3.22l0.06,0.1l0.11-0.01c0.27-0.03,0.55-0.03,0.84-0.03
			c0.69,0,1.16,0.01,1.41,0.04l0.19,0.02V158.06z M97.29,166.52c1.08,0,1.5,0.45,1.68,1.79l0.02,0.15h0.77l-0.01-0.18l-0.1-2.68
			l-0.01-0.17l-0.17,0.01c-1.21,0.04-2.58,0.06-4.3,0.06c-0.91,0-1.96-0.01-2.89-0.07l-0.18-0.01l-0.01,0.18l-0.09,2.69l-0.01,0.18
			h0.78l0.02-0.15c0.17-1.36,0.58-1.77,1.73-1.77c0.09,0,0.19,0,0.28,0v6.76c0,0.78-0.13,0.92-0.93,0.97l-0.16,0.01v0.92l0.18-0.01
			c0.71-0.04,1.42-0.06,2.13-0.06c0.69,0,1.3,0.02,1.86,0.06l0.18,0.01v-0.93l-0.17-0.01c-0.81-0.02-0.98-0.19-0.98-0.97v-6.76
			C97.05,166.53,97.18,166.52,97.29,166.52 M107.13,174.26l-0.16-0.01c-0.53-0.05-0.77-0.29-0.98-0.99c0,0-2.51-7.9-2.51-7.9
			l-0.04-0.12h-0.8l-0.04,0.12l-2.68,7.93c-0.22,0.63-0.51,0.92-0.97,0.97l-0.16,0.02v0.91l0.18-0.01c0.43-0.03,0.87-0.04,1.29-0.04
			c0.44,0,0.89,0.01,1.36,0.04l0.18,0.01v-0.93h-0.17c-0.66,0-0.75-0.29-0.75-0.59c0-0.13,0.06-0.49,0.22-0.99
			c0,0,0.09-0.27,0.15-0.43h2.23l0.18,0.62c0.2,0.66,0.22,0.94,0.22,1.01c0,0.25-0.04,0.34-0.79,0.39l-0.16,0.01v0.92l0.18-0.01
			c0.6-0.03,1.22-0.04,1.91-0.04c0.66,0,1.29,0.01,1.92,0.04l0.18,0.01V174.26z M112.17,157.99l-0.16-0.01
			c-0.53-0.05-0.77-0.29-0.98-0.99c0,0-2.5-7.9-2.5-7.9l-0.04-0.12h-0.8l-0.04,0.12l-2.68,7.93c-0.22,0.63-0.51,0.92-0.97,0.97
			l-0.16,0.02v0.91l0.18-0.01c0.43-0.03,0.87-0.04,1.29-0.04c0.44,0,0.89,0.01,1.36,0.04l0.18,0.01v-0.93h-0.18
			c-0.66,0-0.75-0.29-0.75-0.59c0-0.13,0.06-0.49,0.22-0.99c0,0,0.09-0.27,0.15-0.43h2.23l0.19,0.62c0.2,0.66,0.22,0.94,0.22,1.01
			c0,0.25-0.04,0.34-0.8,0.38l-0.16,0.01v0.92l0.18-0.01c0.6-0.03,1.22-0.04,1.91-0.04c0.66,0,1.29,0.01,1.92,0.04l0.18,0.01V157.99
			z M115.3,159.07c1.7,0,2.84-1.26,2.84-3.15c0-1.84-1.08-2.6-2.73-3.54l-0.05-0.03c-0.75-0.43-1.13-0.65-1.13-1.33
			c0-0.66,0.37-1.08,0.94-1.08c0.85,0,1.48,0.72,1.69,1.93l0.03,0.14h0.83l-0.01-0.18c-0.03-0.85-0.04-1.7-0.04-2.62v-0.17h-0.84
			l-0.03,0.14l-0.07,0.3c-0.47-0.39-1.01-0.57-1.71-0.57c-1.45,0-2.42,1.13-2.42,2.81c0,1.68,0.83,2.48,2.26,3.28
			c1,0.57,1.45,0.85,1.45,1.69c0,0.82-0.45,1.33-1.18,1.33c-0.9,0-1.51-0.79-1.79-2.35l-0.03-0.14h-0.84l0.01,0.18
			c0.02,0.48,0.03,1,0.03,1.6c0,0.45-0.01,0.89-0.03,1.35l-0.01,0.18h0.85l0.03-0.14l0.07-0.35
			C113.91,158.86,114.49,159.07,115.3,159.07"/>
		<path style="fill:#D13239;" d="M97.81,206.07L97.81,206.07c10.31,7.75,20.4,12.56,26.72,13.82V201.5
			C115.57,201.4,106.67,203.02,97.81,206.07z"/>
	</g>
	<path style="fill:#F5C400;" d="M170.03,150.9l0.37-0.46l0.51-0.04l1.92-0.53l0.9-0.34l0.33-0.13l0.37,0.3l0.74,0.28l0.77,0.06
		l1.1-0.11l1.38-0.44l1.36-0.86l0.35-0.29l-0.06-0.11l-1.06-0.64l-0.93-0.15l-1.63,0.24l-0.91,0.3l-0.72,0.41l-0.92,0.82v0.05
		l-1.84,0.51l-0.51,0.09l-0.71,0.05l0.15-0.19l0.06-0.19l2.53-2.78h0.53l0.02,0.03l0.3,0.18l0.57,0.14l0.59,0.07l1.42-0.29
		l1.09-0.56l0.81-0.56l0.49-0.59l-0.02-0.15l-0.5-0.15l-1.11-0.02l-1.42,0.39l-1.42,0.65l-0.87,0.68l-0.46-0.05l0.04-0.37l0.12-0.07
		l0.66-0.34l1.11-0.81l0.89-1.12l0.43-1.16l0.31-1.32v-0.96l-0.08-0.11l-0.19,0.17l-0.16,0.12l-0.92,0.54l-1.01,0.88l-0.9,1.12
		l-0.45,1.07l-0.15,0.79v0.72l0.19,0.46l-0.17,0.49l-2.6,2.59l0.12-1.85l0.17-0.48l0.4-1.25l0.05-0.03l0.66-0.57l0.57-0.77
		l0.32-1.16l0.03-1.09l-0.21-1.46l-0.24-0.51l-0.15-0.17l-0.98,1.15l-0.47,1.1l-0.19,0.86v1.57l0.35,1.12l-0.15,0.29l-0.6,1.48
		l-0.38,2.41l-1.17,1.07l-1.23,1.11l0.01-0.79l0.26-1.62l0.27-1.25l0.26-0.8l0.12-0.04l0.59-0.64l0.62-1.28l0.15-1.05l-0.03-0.22
		l-0.15-0.59l-0.37,0.19l-0.49,0.45l-0.56,0.84l-0.39,1.24v0.51l0.06,0.38l0.15,0.21l0.11,0.01l-0.11,0.22l-0.35,0.85l-0.43-0.29
		l0.03-0.27l0.04-1.17l-0.14-0.92l-0.21-0.57l-0.32-0.46l-0.27-0.34l-0.37-0.29l-0.12,0.12l-0.12,0.33l-0.17,0.8l0.15,1.28
		l0.22,0.65l0.5,0.5l0.4,0.36l0.2,0.08l-0.01,0l0.53,0.39l-0.53,1.87l-0.26,1.16l-0.22,0.98l-0.3,0.27l-1.95,1.7l-0.1-1.03
		l-0.12-1.01l-0.08-1.64v-1.39l0.14-1.37l-0.06-0.81l0.06-0.04l0.4-0.91l0.13-0.7l-0.13-0.99l-0.3-0.7l-0.44-0.48l-0.35-0.22
		l-0.19,0.16l-0.17,0.29l-0.23,0.59l-0.12,0.52l0.13,0.95l0.35,0.76l0.56,0.84l0.09-0.01l0.04,0.34v0.2l-0.25,0.52l-0.07,0.37
		l-0.13,0.29l-0.68-0.55l-0.42-0.29l-0.19-0.07l0-0.01l-0.26-0.63l-0.35-0.82l-0.51-0.7l-0.53-0.57l-0.74-0.51l-0.47-0.29
		l-0.54-0.01l-0.08,0.12l0.17,0.79l0.32,0.75l0.6,0.88l0.63,0.54l0.76,0.34l0.44,0.23l0.47,0.1l0-0.01l0.11,0.08l0.4,0.37l0.42,0.62
		l0.44,0.85l0.07,2.19l0.02,2.04l-0.06,0.7l0.02-0.01l-1.73,1.51l-1.33,1.15l0-0.11l-0.38-2.91l-0.08-1.27l0.39-0.38l0.01,0.02
		l0.1,0.05l0.24-0.04l0.41-0.14l0.35-0.19l0.54-0.48l0.44-0.83l0.15-0.78v-0.91l-0.09-0.21h-0.11l-0.19,0.09l-0.71,0.6l-0.57,0.72
		l-0.44,0.89l-0.18,0.44l-0.05,0.42l0.04,0.14l-0.36,0.33l-0.06-1.43v-0.95l-0.15-0.37l0.12-0.14l0.06-0.39l-0.01-0.47l-0.12-0.61
		l-0.21-0.64l-0.5-0.71l-0.68-0.66l-0.39-0.26l-0.09,0.14l-0.13,0.42l0.05,1.07l0.12,0.41l0.6,1.08l0.5,0.59l0.35,0.21l0.17,0.02
		l0.02,0.31l0.01,0.38l-0.07,2.49l-0.24-0.13v-0.08l-0.36-1.4l-0.56-1.08l-1.16-1.2l-0.58-0.33l-0.77-0.35l-0.04,0.19l0.09,0.16
		l0.24,1.17l0.3,0.78l0.58,0.99l0.89,0.83l0.83,0.41l0.41,0.07l0.03-0.02l0.35,0.23l0.02,2.13l-0.2,2.53l0,0l-0.19,0.3l-2.26,2.02
		l-1.91,1.42l-0.01-6.73l-0.12-7.65l0.03,0.03l0.33-0.33l1.17-2.51l0.21-0.26l0.35-0.15l0.84-0.33l1.29-0.53l0.48-0.15l2.71-1.04
		l1.77-0.01l0-0.01l0.41,0.27l0.48,0.23l0.83,0.28l0.78,0.06l1.58-0.28l1.32-0.62v-0.05l-0.12-0.15l-0.66-0.27l-0.94-0.2l-1.31-0.04
		l-0.88,0.15l-1.37,0.4l-0.1,0.18l0.06-0.16l-0.49-0.09l0.57-0.16l0.4-0.24l0.55-0.26l1.81-0.82l0.26-0.17l0.37-0.2l0.22-0.14
		l0,0.03l0.21-0.03l0.23-0.1l0.65-0.22l1.3-0.67l1.18-0.89l0.42-0.49l0.68-0.98l0.24-0.74v-0.3l-0.42-0.02l-0.73,0.23l-1.46,0.67
		l-0.95,0.79l-0.74,0.92l-0.62,1.14v0.4l-0.78,0.4l-2.18,0.96l-3.36,1.09h-0.24v-0.12l0.38-0.77l-0.02-0.01l0.44-0.29l1.24-0.68
		l1.16-0.92l0.62-0.68l0.54-0.86l0.14-0.79l-0.06-0.1l-0.08-0.03l-1.14,0.34l-1.01,0.56l-0.94,0.8l-0.53,0.77l-0.4,0.92l-0.12,0.89
		l-0.02-0.01l-1.18,1.32l-1.12,0.35l-1.41,0.42h-0.48l0.04-0.26l0.56-1.45l0.4,0.03l0.69-0.19l0.68-0.31l0.86-0.74l0.59-0.8
		l0.56-1.51v-1.1h-0.15l-1.09,0.5l-1.27,0.78l-0.85,0.73l-0.37,0.6l-0.39,1.22v0.55l0.1,0.19l0.03,0.01l-0.18,0.2l-0.46,0.84
		l-0.58,0.82l-1.54,2.3l-0.08,0.11l-0.08-5.01l0.98-0.94l0.47-0.77l0.89-1.61l0.01-0.01l1.76-0.54l1.78-0.65l1.02-0.48l2.58,0.42
		l1.59,0.27l0.85-0.16l0.07,0.04h0.89l1.33-0.29l0.98-0.44l0.96-0.74l1.12-1.11l0.49-0.69l-0.05-0.08l-0.65-0.04l-0.7,0.1
		l-1.26,0.38l-1.09,0.57l-1.16,0.88l-1,1.15l-0.02,0.12l-0.65,0.1l-0.86-0.11l-1.18-0.42l-0.6-0.2l-0.35-0.21l0.85-0.3l1.63-0.75
		l0.53-0.36l0.04,0.01l0.17-0.06l0.45-0.08l1.4-0.46l0.76-0.38l0.98-0.88l0.64-0.87l0.33-0.77l-0.06-0.08l-0.21-0.04l-1.03,0.37
		l-1.21,0.52l-0.8,0.57l-0.89,0.87l-0.73,1.01l-0.04,0.2l0.01,0.01l-0.6,0.38l-3.15,1.07l-0.36,0.06l0.1-0.26l1.06-1.93l0.5-0.21
		l0.11,0.06h0.54l1-0.17l0.6-0.27l0.79-0.45l0.93-0.82l0.71-0.99l0.74-0.91v-0.17l-0.15-0.03l-0.21,0.05l-1.22,0.33l-1.03,0.54
		l-1.43,1.01l-1.04,1.06l-0.39,0.54v0.02l-0.46,0.2l0.06-0.25l0.02,0.03l0.35-0.34l0.42-0.56l0.3-0.79l0.05-1.01l-0.19-1.6
		l-0.36-1.08l-0.24-0.03l-0.55,0.87l-0.44,1.15l-0.14,0.89v1.01l0.24,0.65l0.42,0.62l-2.19,3.26l-1.48,0.45l-1.41,0.39l0.84-1.27
		l0.64-1.19l0.44-0.69l0.15-0.41l0.21-0.39l0.22-0.61l0.01,0l0.53-0.66l0.23-0.58l0.16-1.03l-0.16-1.9l-0.29-1.19l-0.08-0.16
		l-0.54,0.64l-0.38,0.76l-0.23,1.04l-0.04,1.4l0.17,0.82l0.39,0.92h0.02l-0.16,0.25l-1.38,2.1l-0.76,1.02l-0.03-0.4l0.08-3.08
		l-0.07,0.06l0.3-0.4l0.31-0.48l0.19-0.89l0.04-1.11l-0.25-1.3l-0.26-0.87l-0.21-0.28l-0.27-0.24l-0.8,1.51l-0.12,0.95l0.12,1.53
		l0.29,0.84l0.51,0.82h0.06l0,0l-0.74,4.48l-0.26,0.48l-0.36,0.41l-0.08,0.21l-1.43,1.37l-0.03-2.29v-2.5l-0.04-0.53l0.02,0.01
		l0.45-0.35l0.34-0.45l0.25-0.7l0.15-0.48l0.09-0.94l-0.09-1.55l-0.13-0.63l-0.76-1.51l-0.35,0.7l-0.44,1.72l-0.19,1.3l0.1,1.19
		l0.22,1.26l0.17,0.34l0.03,0.02l-0.22,0.9l-0.26-0.9l-0.01,0.01l0.01,0l-0.09-0.82l-0.45-1.31l-0.69-1.35l-0.69-1.01l-0.76-0.74
		l-0.27-0.12l-0.03,0.15l-0.21,0.75v0.74l0.21,1.07l0.51,1.06l0.59,0.83l0.78,0.6l0.42,0.12l0.5,0.11l-0.04,0.39l-0.03,2.02
		l-0.04,1.44l-0.15,1.86l-0.03,1.38l-0.02,0.52l-0.69-0.61l-1.05-1.49l-0.91-1.24l-1.18-1.71l-0.2-0.26l0.02,0.01v-0.94l-0.02-1.63
		l0.09-0.87l0.04-0.02l0.26-0.87l0.2-1.06l-0.06-1.58l-0.38-1.49l-0.66-1.23l-0.08-0.04l-0.36,0.44l-0.46,0.81l-0.22,0.81
		l-0.08,1.11l0.14,0.82l0.3,0.69l1.01,1.58l0.02,0l-0.05,0.53l-0.13,0.77l-0.32,1.18l-1.65-1.96l-0.28-0.34l-0.2-0.26l-0.03-0.69
		l0.09-0.02l0.13-0.53l0.2-0.57l0.06-1.15l-0.12-0.97l-0.39-1.07l-0.31-0.48l-0.58,0.62l-0.32,0.75l-0.09,0.56l0.14,0.82l0.39,1.02
		l0.57,0.88l0.08,0.18l0,0l-0.04,0.5l-0.47-0.11l0-0.02l-0.53-0.44l-0.57-0.45l-0.71-0.38l-0.85-0.2l-1.2-0.08l-0.65,0.15
		l-0.04,0.18l0.31,0.49l0.67,0.62l0.53,0.33l0.83,0.27l1.03,0.03l0.73-0.18l0.35-0.19l0.51,0.24l0.89,1.4l0.89,1.25l1.16,1.54
		l0.33,0.48l-0.63,0l-0.74-0.06l-2.17-0.28l-1.23-0.25l-0.25-0.33l0.03-0.01v-0.06l-0.04-0.14l-0.67-1.35l-0.71-0.91l-0.54-0.48
		l-1.27-0.7l-0.98-0.24v0.37l0.65,1.25l0.74,0.91l0.63,0.5l0.84,0.51l1.18,0.38l0.02,0l0.23,0.32l-1.08-0.14l-0.07-0.09l-1.85-0.94
		l-1.46-0.4l-1.27-0.05l-0.39,0.05l-1.42,0.31v0.06l0.13,0.3l0.4,0.33l1.22,0.71l0.83,0.26l1.21,0.19l1.46-0.15l0.83-0.3l0.2-0.1
		l0.66,0.12l-0.24,0.3l-0.1-0.01l-0.35,0.01l-0.6,0.13l-1.46,0.37l-1.24,0.68l-0.77,0.6l-0.39,0.53l0.95,0.28l0.5,0.03l0.89-0.12
		l0.89-0.42l1.01-0.74l0.53-0.52l0.3-0.55v-0.16l-0.03-0.03l0.39-0.33l1.12,0.26l0.48,0.1l3.53,0.79l0.64,0.04l0.82,1.21l0.54,1.09
		l0.62,1.16l1.29,2.1l-0.03,0.81l-0.14,1.06l-0.03,1.66l-0.08,3.83l-0.19,3.54l-0.16,1.64l-0.73-0.63l-1.09-1.13l-1.58-1.81
		l-1.63-1.98l-0.57-0.76l0.08-0.33l0.08-0.31l0.04-1.02l0.44-0.09l0.41,0.13l0.8,0.17l0.64-0.06l1.32-0.44l0.98-0.65l0.76-0.86
		l0.03-0.2l-0.3-0.09l-0.89-0.03l-0.29,0.03l-1.16,0.29l-0.82,0.45l-0.84,0.59l-0.73,0.51v0.02l-0.35,0.01l-0.07-0.55l-0.01,0
		l0.54-0.26l0.8-0.49l0.5-0.57l0.36-0.66l0.33-1.18l0.05-1.4l-0.09-0.4v-0.22h-0.08l-0.33,0.13l-0.64,0.56l-0.69,0.77l-0.37,0.72
		l-0.47,1.6l-0.04,1.36l0.01,0.01l-0.05,0.3l0.02,0.34l-0.61,0.94l-0.45-0.62l-0.57-0.68l0.02,0.01v-1.26l-0.15-1.23l-0.16-1.68
		l0.39-0.39l0.01,0.01l0.18-0.08l0.75-0.03l0.41-0.15l0.86-0.44l0.76-0.59l0.54-0.68l0.67-1.39l0.18-0.33l-0.06-0.06l-0.12-0.03
		l-0.89,0.15l-1,0.52l-0.96,0.76l-0.89,1.06l-0.57,1.17l0.01,0.01l-0.42,0.41l-0.22-0.36l0.12-0.13l0.02-0.16l0.29-0.37l0.15-0.58
		l0.04-1.12l-0.53-2.17l-0.21-0.66l-0.12-0.03l-0.21,0.25l-0.35,0.7l-0.21,1.16l-0.04,1.01l0.14,0.83l0.31,0.77l0.45,0.55h0.02
		l0.11,0.33l-0.45-0.21l0.01-0.05l-0.32-0.33l-0.52-0.53l-0.75-0.61l-1.21-0.79l-0.75-0.24l-0.59-0.09l-0.33-0.06l-0.29,0.06
		l-0.02,0.11l0.15,0.5l0.52,0.83l0.99,0.9l0.89,0.44l0.87,0.3l0.81-0.03l0.48-0.21l0.5,0.26l-0.02,0.45l-0.05,1.4l-0.03,0.95
		l-0.07,0.53l-0.06-0.04l-1.52-1.14l-3.5-2.48l-0.72-0.51l-0.44-0.28l-0.28-0.37v-0.18l-0.25-1.25l-0.26-0.82l-0.96-1.72l-0.59-0.74
		l-1.12-0.93l-0.21-0.03l0.03,1.59l0.29,1.11l0.44,0.95l0.61,0.86l1.05,0.82l0.91,0.44l0.11,0.34l-0.46,0.03l-0.29,0.16l-0.14-0.26
		l-0.93-0.71l-0.9-0.48l-0.93-0.29l-2.03-0.05l-0.36,0.12l-0.87,0.19l-0.35,0.1l0.03,0.04l0.38,0.32l1.19,0.84l1.01,0.35l1.45,0.26
		l1.34,0.03l0.58-0.09l0.47-0.17l0,0l0.64-0.03l0.1,0.06l-0.95,0.59l-0.51-0.04l-0.48,0.05l-0.83,0.28l-0.8,0.32l-1.18,0.76
		l-0.71,0.93l-0.14,0.34l-0.42,0.72v0.15l0.03,0.03l0.33-0.08l1.43-0.27l0.82-0.3l0.87-0.5l0.78-0.67l0.55-0.75l0.19-0.41l0.14-0.39
		l1.17-0.39l0.59-0.06l0.32,0.21l2.85,2.18l-0.5,0.19l-2.47,0.94l-2.46,0.85l-0.93,0.35l-0.13-0.04l-1.48-0.08l-0.67,0.08
		l-0.74,0.21l-1.24,0.68l-1.33,1.25l-0.49,0.62l-0.41,0.79v0.18h0.08l0.44,0.04l1.55-0.18l1.05-0.35l1.52-0.77l1.01-0.86l1.03-1.22
		l0.11-0.21l-0.01-0.01l1.77-0.44l0.57-0.15l0.36-0.1l2.72-0.79l1.04-0.23l0.33-0.11l1.65,1.54l0.74,1.06l-0.37,0.25l-0.56,0.24
		l-0.32-0.15v-0.13l-0.76-0.88l-0.51-0.35l-0.98-0.28l-0.85-0.03l-0.3,0.08l0.05,0.18l0.12,0.17l0.78,0.86l0.75,0.32l0.82,0.17
		l0.73,0.03l0.22,0.21l-0.26,0.18l-0.19-0.05h-0.7l-0.58,0.12l-0.49,0.27l-0.48,0.45l-0.3,0.67l-0.12,0.44l0.15,0.13l0.54,0.02
		l0.37-0.09l0.68-0.26l0.75-0.66l0.39-0.72l0.07-0.23l0.01,0.01l0.62-0.07l1.16,0.09l0.22-0.03l1.35,1.94l-0.06,0.05l-0.66,0.28
		l-1.9,0.59l-0.77,0.26l-0.78,0.19l-0.23,0.15l-0.48,0.17l-0.18,0.02l-0.38-0.31l-1-0.3l-1.11-0.3l-0.01-0.34l0.01,0l0.07-0.06
		l0.61-0.9l0.42-0.95l0.02-0.86l-0.14-0.72l-0.15-0.21l-0.36,0.28l-0.29,0.23l-0.33,0.42l-0.21,0.47l-0.2,0.73l0.15,1.11l0.25,0.4
		l-0.05,0.32l-0.18-0.03l-0.46,0.03l-0.87-0.85l-0.57-0.35l-0.73-0.27l-1.25-0.12l-1.3,0.17l-1.06,0.41h0.02l1.28,0.84l0.9,0.44
		l1.3,0.24h1.03l0.44-0.09l0.46-0.11l0.22-0.16l0.49,0.03l1.51,1l-0.01,0.02l-1.72,0.42l-2.81,0.57l-0.02-0.02l-0.26-0.22l-0.87-0.5
		l-1-0.31l-1.54-0.03l-0.38,0.06l-1.31,0.3l-0.89,0.41l0.04,0.04l1.5,0.93l0.8,0.25l1.5,0.16l1.2-0.09l0.93-0.24l0.49-0.27v-0.17
		l-0.05-0.08l0.27-0.05l-0.14,0.5l-0.15,0.1l-0.34,0.21l-0.4,0.21l-1.1,0.94l-0.6,0.77l-0.6,1.15l-0.17,0.75v1.86l0.1,0.21h0.03
		l1.13-0.57l1.07-0.98l0.86-1.1l0.32-0.76l0.19-0.48l0.1-0.87l-0.03-0.87l-0.13-0.27l-0.09-0.28l0.26-0.43l0.58-0.17l0.78-0.09
		l0.71-0.09l1.25-0.2l0.03-0.01l-0.2,0.3l0.12,0.19l-0.06,0.31l-0.58,0.43h-0.01l-0.56,0.21h-0.21l-0.18,0.1l-0.02,0.11l-0.69,0.59
		l-0.42,0.68l-0.26,1.04l-0.02,0.86l0.1,0.25h0.06l1.46-1.04l0.53-0.62l0.2-0.43l0.25-0.85l-0.09-0.83l0.42-0.29v0.28l0.14,0.24
		l-0.25,0.9v0.55l0.08,0.49l0.25,0.43l0.53,0.72l0.08,0.04l0.06-0.06l0.42-0.93l0.04-0.77l-0.28-0.86l-0.38-0.41l-0.38-0.15
		l0.36-0.95l0.4-0.39v-0.12l0.06-0.2l1.67-0.33l0.69-0.14l-0.55,1.63l-0.7,1.71l-0.19,0.48l-0.32,0.86l-0.5,1.22l-0.62,0.11
		l-0.04-0.07l-0.17-0.08l-0.23-0.03l-0.36,0.01l-0.76,0.1l-1.81,0.42l-0.65,0.29l-1.21,0.88l-1.02,1.14l-0.28,0.58l-0.26,0.44
		l-0.03,0.19l1.3,0.11l0.59-0.14l0.83-0.16l1.22-0.53l0.89-0.55l0.74-0.77l0.89-1.12l0.32-0.55l0.57-0.08l-0.1,0.51v0.38l-0.47,0.27
		l-0.76,0.62l-0.51,0.63l-0.47,1.15l-0.24,1.7l0.09,1.84v0.95l0.06,0.29l0.15,0.07l0.44-0.34l0.59-0.66l0.78-1.17l0.38-0.95
		l0.33-1.49l0.03-1.35l-0.25-1.37l-0.01-0.02l0.2-0.71l0.33,0.53l0.01-0.01l0.02,0.58l0.28,1.11l0.74,1.57l0.63,0.87l1.19,0.97
		l0.94,0.37l0.02-0.05l0.06-0.36l0.02-1.44l-0.17-0.67l-0.62-1.15l-0.77-0.86l-0.83-0.62l-0.74-0.35l-0.72-0.1l-0.24-0.47l0.13-0.33
		l0.64-1.21v-0.11l0.53-1.05l0.2,0.05l0.24,0.22l0.38,0.25l0,0l0.03,0.03h0.07l1.07,1.02l0.79,0.65l1,0.56l1.06,0.42l1.63,0.29
		l1.16-0.08l0.68-0.25v-0.1l-1.27-1.67l-0.8-0.63l-1.04-0.56l-1.21-0.38l-1.3-0.03l-0.48,0.06l-0.47,0.08l-0.88,0.45l-0.21-0.19
		l-0.38-0.84l0.73-1.82l0.78-1.44l2.17-0.45l1.16-0.19l0.15,0.12l0.92,1.17l1.09,1.59l1.05,1.84l0.35,0.58l0.3,0.57l0.72,0.65
		l-0.02,0.21l-0.02,1.64l-0.19,6.84l-0.46,14.57l-0.09,0.85l1.23,0.82l1.21-0.7l0.46-0.05l0.6,0.46l0.68-0.57l-0.15-0.72l-0.09-0.68
		l-0.62-14.11l-0.21-1.44l-0.03-1.32l0.37-0.39l0.47-0.45l0.79-1.1l1.28-1.23l2.31-2.44l1.87-1.85l1.01-0.9l0.47,0.13l1.25,0.25
		l1.39,0.35l1.72,0.47l0.2,0.15l0.13,0.37l0.45,2.32l-0.47,0.24v-0.02l-1.58-0.12l-0.28,0.03l-1.1,0.22l-1.33,0.53l-1.27,0.99
		l-0.58,0.75l-0.28,0.53v0.44l0.13,0.08l0.88,0.16l0.76-0.06l1.52-0.32l0.8-0.37l1.05-0.8l0.97-1.34l0.28-0.54v-0.02l0.49-0.16
		l0.17,1.65l-0.01,0l-0.63,0.93l-0.33,1.11l-0.13,1.24l0.13,0.71l0.51,1.24l0.71,0.74l0.5-0.85l0.38-1.27l0.04-0.3v-1.75l-0.15-0.44
		l-0.4-0.75l-0.38-0.53l0,0l-0.06-0.58l0.02-1.24l0.53,0.16l0,0.03l0.15,0.29l0.14,0.24l0.15,0.21l0.38,0.56l0.56,0.53l1.36,0.89
		l0.55,0.26l1.38,0.36h0.17v-0.39l-0.31-1.09l-0.63-0.75l-0.64-0.5l-0.78-0.48l-0.89-0.32l-0.76-0.06h-0.51l-0.26,0.04l-0.6-0.2
		l-0.15-1.21l-0.02-1.21l1.6,0.69l0.83,0.29l1.11,0.41l0.59,0.2l0.12,0.52l0.21,0.4l0.62,0.78l0.66,0.48l1.4,0.59l0.8,0.12l1.3,0.02
		l0.1-0.1v-0.12l-0.69-1.24l-0.57-0.51l-0.83-0.62l-1.23-0.55l-1.18-0.07l-0.57,0.12l-0.52-0.23l-0.89-0.44l0.38-0.37l0.01,0.01
		l1.09,0.18h0.8l1.55-0.31l1.11-0.58l0.8-0.56l0.8-0.85v-0.23l-0.77-0.23l-0.9-0.04l-0.02,0.04h-0.56l-1.26,0.23l-0.99,0.48
		l-0.93,0.69l-0.78,0.83l-0.05,0.22l0,0l-0.45,0.39l-2.1-0.99l-0.27-0.1l-1.61-0.57v-0.03l0.57-0.35l2.22-0.99l0.21-0.12l0.09,0.08
		l0.46,0.19l1.53,0.12l0.69-0.08l1.38-0.33l0.89-0.49l1.15-1.19v-0.1l-0.06-0.06l-0.39-0.19l-0.75-0.17l-1.03-0.03l-1.25,0.24
		l-1.3,0.49l-1.01,0.66l-0.5,0.62v0.09l-0.44,0.18l-2.48,0.8l-1.18,0.32l-0.24-0.09l-0.44-0.09l-1.58-0.46l-0.43-0.12l0.01-0.01
		v-0.08l2.23-2.11l0.2-0.2l4.37-1.23l0.45-0.08l0.57-0.33l0.9,0.39l0.74,0.15h1.63l1.18-0.38l0.55-0.31l1.66-1.17v-0.1l-0.03-0.08
		l-0.31-0.15l-1.12-0.37l-1.1-0.07l-0.8,0.05l-1.08,0.18l-1.17,0.42l-0.47,0.34l-0.68,0.91l-0.6,0.22l-1.78,0.39l-1.83,0.11
		l0.64-0.66L170.03,150.9z M174.99,149.06l1.55-0.51l1.09-0.19l1.39-0.15l0.23,0.01l0.25,0.01l-0.33,0.23l-1.84,0.28l-1.9,0.39
		l-0.89,0.16L174.99,149.06z M176.59,145.94l1.37-0.44h0.06l-0.53,0.33l-1.07,0.38l-0.87,0.21l-0.48,0.09h-0.08L176.59,145.94z
		 M174.08,144.97l0.46-0.89l0.62-0.91l1.46-2.13h0.06v0.36l-0.75,1.08l-1.03,1.34l-0.52,0.8l-0.37,0.6L174.08,144.97z
		 M171.64,143.59l0.12-0.79l0.06-0.33l0.3-1.06l0.06-0.06l-0.12,0.73l-0.34,2.01l-0.09,0.33l-0.1,0.19L171.64,143.59z
		 M168.75,146.15l0.63-1.63l-0.06,0.47l-0.23,0.57l-0.12,0.21l-0.21,0.6l-0.11,0.26l-0.03,0.03L168.75,146.15z M166.89,147.37
		l-0.28-0.86l-0.27-1.01v-0.26l0.25,0.49l0.3,1.44V147.37z M160.9,147.19l-1.12-1.49l-0.36-0.45l0.69,0.51l0.88,1.16l0.48,0.74
		l0.1,0.27L160.9,147.19z M161.19,152.66l1.02-1.61l0.05-0.28l-0.05,0.3l-0.51,1.11l-0.49,0.64l-0.08,0.07L161.19,152.66z
		 M159.53,149.92l-0.38-0.5l-0.45-1.28l-0.06-0.33l0.28,0.4l0.37,0.82l0.24,0.77V149.92z M158.49,152.84l-0.77-0.94l-0.28-0.48
		l-0.49-0.77l-0.12-0.29l0.15,0.1l0.95,1.35l0.55,0.99V152.84z M167.28,142.8h1.63l0.03,0.03l-0.4,0.12l-3.07,0.25l-0.31-0.1
		L167.28,142.8z M168.78,139.81l0.31-0.27l1.9-1.72l0.49-0.33l0.57-0.33h0.06l-0.03,0.14l-0.61,0.44l-0.68,0.52l-1.83,1.52
		l-0.24,0.16l-0.02,0.04L168.78,139.81z M163.42,139.91l1.15-1.01l0.49-0.36l-0.49,0.58l-1.86,1.85l-0.22,0.15l-0.03,0.03h-0.06
		L163.42,139.91z M159.23,140.8l1.73-1.97l0.38-0.37l-0.09,0.28l-1.03,1.3l-0.71,0.92l-0.66,0.76l-0.3,0.22L159.23,140.8z
		 M168.61,135.8l0.91-0.47l1.34-0.75l0.38-0.15l-0.76,0.48l-2.76,1.57L168.61,135.8z M169.16,132.36l0.44-0.2l-0.52,0.48l-1.6,1.06
		l-0.62,0.3L169.16,132.36z M164.31,133.23l0.03-0.01l1.7-1.32l1.25-0.87l0.27-0.12l-0.13,0.18l-0.29,0.17l-0.46,0.46l-1.49,1.07
		l-0.86,0.43l-0.17,0.13L164.31,133.23z M163.13,132.15l0.07-0.98v-0.57l0.21-1.44l0.03-0.04l0.13,0.17l-0.15,2.02l-0.21,1.27
		l-0.07,0.39v0.06l-0.07,0.06l-0.1-0.21L163.13,132.15z M160.4,131.45l0.21-1.11l0.06-1.71l0.03-0.03l0.15,0.3l-0.03,0.86
		l-0.06,1.06l-0.35,1.45l-0.13,0.21L160.4,131.45z M157.79,131.7l-0.03-0.44l-0.1-0.73l-0.07-0.85v-0.13h0.04l0.03,0.03v-0.27
		l0.1-0.44v-0.36l0.03-0.06h0.06l0.11,0.42l-0.08,1.42l0.03,1.72l-0.05,0.09L157.79,131.7z M154.92,132.3l0.22-2.43l0.19-1.1
		l0.04,1.3l-0.38,3.08l-0.09,0.24L154.92,132.3z M153.27,133.58l-0.69-0.86l-0.69-1.34l-0.2-0.82l0.04-0.15l0.16,0.17l0.37,1.12
		l0.5,1.03l0.84,1.09L153.27,133.58z M146.44,130.97l-0.28-1.4v-0.71l0.07-0.24l0.07,0.38l0.11,0.88l0.07,0.39l0.07,0.74l0.06,0.43
		L146.44,130.97z M143.27,132.34l-1.11-0.44l0.83,0.17l1.78,0.62l0.27,0.14L143.27,132.34z M149.35,131.7l-0.1-0.23l-0.26-2.01
		l-0.06-1.48l0.38,1.89l0.09,1.55l0.12,1.01L149.35,131.7z M144,136.45l-0.2-0.25l-1.11-0.95l-1-0.9l-0.42-0.28l-0.03-0.08
		l0.18-0.02l1.09,0.82l1.64,1.69L144,136.45z M142.02,137.43l-1.43-0.18l-1.77-0.45l-0.53-0.16l1.64,0.22l1.13,0.19l0.44,0.15
		l0.67,0.05l0.45,0.13L142.02,137.43z M141.84,139.57l-1.25,0.52l-0.43,0.08l2.02-1.1l0.7-0.23h0.05L141.84,139.57z M151.21,147.73
		l0.45-0.16l0.29-0.1l0.28-0.06h0.04l-0.91,0.48l-1.33,0.47l-0.33,0.08L151.21,147.73z M148.25,146.37l0.49-1.4l0.4-0.67l0.42-0.48
		l-0.19,0.56l-0.63,1.13l-0.64,1.66L148.25,146.37z M147.92,141.91l1.36-1.08l0.15-0.08l-0.47,0.63l-1.6,1.38l-0.57,0.51l-0.31,0.12
		L147.92,141.91z M143.7,143.88l-0.73-0.24l-0.82-0.44l-0.35-0.25l-1.08-0.78v-0.15l0.49,0.27l1.24,0.91l0.49,0.26l0.64,0.28
		l0.29,0.11L143.7,143.88z M136.63,140.81l-0.66-1.34l-0.42-0.91l-0.03-0.12l0.76,1.22l0.34,0.66l0.2,0.5l0.6,0.95L136.63,140.81z
		 M136.65,143.58l-0.5-0.03l-0.68-0.12l-0.74-0.09l-0.99-0.22l-0.47-0.2l-0.98-0.35l-0.03-0.03l1.77,0.43l1.06,0.23l1.18,0.2
		l0.71,0.18H136.65z M135.44,145.98l-2.05,1.23l-0.21,0.07l2.53-1.75l1.06-0.66L135.44,145.98z M134.31,150.13l-2.22,1.22
		l-0.91,0.38l-0.78,0.18l0.44-0.24l0.53-0.19l2.26-1.32l1.49-0.71L134.31,150.13z M144.81,140.46l0.05-0.52l0.27,1.97l-0.06,1.01
		l-0.21-1.53L144.81,140.46z M143.33,149.71l-1.46-0.68l-0.36-0.27l1,0.42l0.89,0.42l0.29,0.23l0.11,0.15L143.33,149.71z
		 M143.47,151.22l-1.29,0.9l-0.28,0.15v-0.12l1.09-0.8l0.42-0.22l0.33-0.2l0.12-0.03h0.06L143.47,151.22z M140.03,151.66l0.02-0.02
		l0.07-0.6l0.39-0.86l-0.32,1.23l-0.11,0.2l-0.03,0.04l-0.02,0.12V151.66z M137.63,153.13l-2.62-0.45l-0.62-0.17l1.57,0.08
		l1.33,0.23l0.76,0.22l0.13,0.06l0.04,0.03H137.63z M135.67,155.73l-2.67-0.12l-1.86-0.24l0.78-0.08l1.89,0.03l0.53,0.05l0.48,0.12
		l0.59,0.05l0.41,0.13L135.67,155.73z M135.64,158.9l-0.47,0.89l-0.99,1.8l-0.12,0.15l0.42-1.09l0.78-1.84l0.45-0.86l0.36-0.56
		l0.22-0.21L135.64,158.9z M137.96,159.5l-0.12,0.11l0.62-1.24l0.69-1.02l0.22-0.26L137.96,159.5z M140.92,157.25l0.23,0.7
		l0.06,1.21l-0.03,0.32l-0.06-0.5l-0.03-0.19l-0.1-0.63l-0.09-0.61V157.25z M139.11,162.05l-2.17,1.15l-1.3,0.48l-0.86,0.39
		l0.84-0.55l2.04-1.03l1.04-0.56l0.53-0.21l1.12-0.56l0.03,0.04L139.11,162.05z M141.33,162.82l-0.03,0.35l-0.19,0.99l-0.3,1.12
		l-0.42,0.97l-0.27,0.57l-0.14,0.31l-0.28,0.5l0.09-0.37l0.21-0.72l0.56-1.43l0.3-1.17l0.13-0.35l0.09-0.34l0.05-0.18l0.23-0.79
		l0.01,0.2L141.33,162.82z M142.61,161.87l0.22,0.13l0.37,0.52l1.36,1.98l0.29,0.65l0.14,0.2l0.11,0.27l0.11,0.31l0.12,0.3
		l-0.15-0.08l-0.64-1.14l-0.76-1.39l-0.67-0.93l-0.18-0.41l-0.32-0.28l-0.06-0.1L142.61,161.87z M145.79,159.07l0.08,0.07h0.17
		l2.03,0.65l0.71,0.32l1.81,0.8l0.49,0.35l0.06,0.04v0.04l-0.21-0.04l-0.32-0.17l-0.76-0.3l-1.29-0.52l-2.22-0.82l-0.41-0.19
		l-0.87-0.33L145.79,159.07z M167.28,162.89l-0.28,0.18l-0.65,0.38l-1.83,0.94l-1.75,0.84l-0.06,0.08l-0.21-0.05h-0.01l-0.03-0.04
		v-0.07l1.75-1.06l1.68-0.89l1.05-0.38l0.27-0.09h0.18L167.28,162.89z M169.2,168.42h-0.14l0.03-0.15l-0.03-0.02H169l-0.17-1.37
		l0.14-1.52l0.18-0.95l-0.06,3.45l0.11,0.53V168.42z M172.09,162.95l1.52,1.24l0.31,0.51h-0.09l-0.78-0.68l-1.25-0.97l-0.15-0.15
		l-0.43-0.37L172.09,162.95z M175.16,161.58l2.23,1.47l0.36,0.29l-0.9-0.44l-1.89-1.2l-0.62-0.47L175.16,161.58z M174.9,158.31
		l1.36-0.44l0.71-0.15h0.09l-4.06,1.51L174.9,158.31z M172.44,155.92l2.49-0.63l1.63-0.22h0.03l-1.04,0.34l-2.82,0.7l-0.49,0.19
		l-0.69,0.11h-0.06L172.44,155.92z M163.98,146.59l-0.12-0.23l-0.13-1.04v-0.93l0.02-0.14l0.28,1.64L163.98,146.59z M172.7,152.77
		l2.15-0.59l0.88-0.16l1.03-0.09l0.98,0.03l-0.36,0.12l-0.89,0.18l-1.71,0.2l-2.48,0.58L172.7,152.77z"/>
	<path style="fill:none;stroke:#F5C400;stroke-width:1.1614;" d="M163.16,205.85c-1.19,2-1.98,4.43-2.17,6.75l-0.24-0.95
		c-1.32-2.22-4-3.24-6.28-4.16c-3.06-1.23-6.17-2.34-9.34-3.26c-6.77-1.96-13.49-2.46-20.5-2.73c-6.94,0.07-13.62,0.76-20.33,2.6
		c-5.2,1.42-11.38,2.66-15.41,6.52l-0.44,0.64l-0.26,0.64l-0.03,0.32c-0.41-2.13-0.93-4.34-1.88-6.3c-0.7-1.44-2.01-2.82-2.39-4.39
		c-0.57-2.36,1.98-3.76,3.76-4.6c11.93-5.65,25.32-8.12,38.46-7.82c7.28,0.17,14.53,1.23,21.56,3.14c3.45,0.94,6.84,2.07,10.13,3.48
		c1.7,0.73,3.37,1.53,4.98,2.44c1.05,0.59,2.38,1.28,2.77,2.52C165.94,202.61,164.06,204.35,163.16,205.85z M53.5,119.1h142.2
		 M124.58,62.2v126.89 M124.58,201.5v18.65 M97.45,206.14c7.55,5.52,16.75,10.5,26.9,14.08c10.6-3.48,19.44-8.11,27.23-13.83
		 M161.85,197.75c48-47.15,33.02-135.54,33.02-135.54l-140-0.03c0,0-16.18,87.16,32.26,135.09"/>
	<g>
		<path style="fill:#F5C400;" d="M105.41,75.76c-2.78-0.79-5.29-1.77-6.61-1.99c-4.11-0.71-9.08,0.63-10.69,1.99h-1.6
			c-1.61-1.37-6.57-2.7-10.69-1.99c-1.32,0.23-3.84,1.2-6.61,1.99h-7.65v31.1h51.27v-31.1H105.41z M86.5,105.14
			c0,0-3.31-1.81-6.66-1.7c-3.55,0.12-9.06,2.09-12.57,2.2c-2.51,0.08-4.17,0.15-4.17,0.15l-0.03-28.11
			c4.6,0.23,10.76-2.57,13.1-2.98c4.5-0.77,9.58,0.97,10.33,2.43V105.14z M111.52,105.8c0,0-1.66-0.07-4.17-0.15
			c-3.51-0.12-9.03-2.09-12.57-2.2c-3.35-0.11-6.66,1.7-6.66,1.7V77.15c0.76-1.47,5.84-3.21,10.34-2.43c2.34,0.4,8.5,3.21,13.1,2.98
			L111.52,105.8z"/>
		<path style="fill:none;stroke:#F5C400;stroke-width:0.4649;stroke-linecap:round;" d="M109.62,101.75
			c-3.2,0.17-6.68-1.61-9.89-2.02c-3.71-0.47-5.72-0.47-9.58,0.39 M109.62,99.11c-3.2,0.17-6.68-1.61-9.89-2.02
			c-3.71-0.47-5.72-0.47-9.58,0.39 M109.62,96.48c-3.2,0.17-6.68-1.61-9.89-2.02C96.02,94,94.01,94,90.14,94.85 M109.62,93.84
			c-3.2,0.17-6.68-1.61-9.89-2.02c-3.71-0.47-5.72-0.47-9.58,0.39 M109.62,91.21c-3.2,0.17-6.68-1.61-9.89-2.02
			c-3.71-0.46-5.72-0.46-9.58,0.39 M109.62,88.57c-3.2,0.17-6.68-1.61-9.89-2.02c-3.71-0.46-5.72-0.46-9.58,0.39 M109.62,85.93
			c-3.2,0.17-6.68-1.61-9.89-2.02c-3.71-0.47-5.72-0.47-9.58,0.39 M109.62,83.3c-3.2,0.17-6.68-1.61-9.89-2.02
			c-3.71-0.47-5.72-0.47-9.58,0.39 M109.62,80.66c-3.2,0.17-6.68-1.61-9.89-2.02c-3.71-0.47-5.72-0.47-9.58,0.39 M64.77,101.75
			c3.2,0.17,6.68-1.61,9.89-2.02c3.71-0.47,5.72-0.47,9.59,0.39 M64.77,99.11c3.2,0.17,6.68-1.61,9.89-2.02
			c3.71-0.47,5.72-0.47,9.59,0.39 M64.77,96.48c3.2,0.17,6.68-1.61,9.89-2.02c3.71-0.47,5.72-0.47,9.59,0.39 M64.77,93.84
			c3.2,0.17,6.68-1.61,9.89-2.02c3.71-0.47,5.72-0.47,9.59,0.39 M64.77,91.21c3.2,0.17,6.68-1.61,9.89-2.02
			c3.71-0.46,5.72-0.46,9.59,0.39 M64.77,88.57c3.2,0.17,6.68-1.61,9.89-2.02c3.71-0.46,5.72-0.46,9.59,0.39 M64.77,85.93
			c3.2,0.17,6.68-1.61,9.89-2.02c3.71-0.47,5.72-0.47,9.59,0.39 M64.77,83.3c3.2,0.17,6.68-1.61,9.89-2.02
			c3.71-0.47,5.72-0.47,9.59,0.39 M64.77,80.66c3.2,0.17,6.68-1.61,9.89-2.02c3.71-0.47,5.72-0.47,9.59,0.39"/>
	</g>
	<path style="fill:#F5C400;" d="M91.79,197.64c0.72-0.25,1.38-0.49,2.01-0.73l4.53,3.88l1.03-5.8c0.52-0.16,0.9-0.28,1.14-0.36
		c0.91-0.31,1.69-0.61,2.4-0.87l0.14,0.41c-1.24,0.44-1.36,0.76-1.09,1.55l1.47,4.27c0.24,0.69,0.59,0.8,1.77,0.43l0.14,0.42
		c-1.34,0.42-2.17,0.69-2.47,0.8c-0.88,0.3-1.72,0.61-2.51,0.91l-0.14-0.42c1.21-0.51,1.22-0.74,0.96-1.49l-1.32-3.84l-1.18,6.32
		l-0.69,0.24l-4.99-4.34l1.2,3.49c0.36,1.06,0.73,1.41,1.86,1.05l0.15,0.43c-0.86,0.26-1.45,0.44-1.76,0.55
		c-0.47,0.16-1.02,0.36-1.67,0.62l-0.15-0.43c1.12-0.41,1.15-0.89,0.78-1.96l-1.51-4.38c-0.34-0.14-0.78-0.09-1.43,0.11l-0.13-0.39
		C90.78,197.99,91.26,197.83,91.79,197.64 M114.75,192.79c-1-0.36-1.96-0.48-3.02-0.34c-1.6,0.2-2.99,0.86-3.97,1.87
		c-0.74,0.76-1.1,1.76-0.97,2.8c0.28,2.23,2.62,3.44,5.81,3.03c1.2-0.15,2.19-0.55,3.16-1.25l0.4,0.62l0.64-0.08
		c-0.06-0.37-0.13-0.77-0.18-1.19c-0.05-0.43-0.1-0.89-0.14-1.38l-0.66,0.08c-0.15,1.4-1.17,2.3-2.77,2.5
		c-1.93,0.25-3.28-0.73-3.54-2.75c-0.27-2.12,0.84-3.48,2.71-3.71c1.38-0.18,2.52,0.34,3.15,1.49l0.63-0.08
		c-0.18-0.66-0.31-1.33-0.4-2.02c-0.01-0.1-0.03-0.2-0.04-0.29l-0.63,0.08L114.75,192.79z M120.66,191.84
		c-0.56-0.01-1.07-0.02-1.53-0.07l-0.01,0.41c0.68,0.04,1.11,0.14,1.38,0.4l-0.1,4.64c-0.02,1.13-0.22,1.57-1.41,1.56l-0.01,0.45
		c0.7-0.02,1.28-0.02,1.78,0c0.32,0.01,0.94,0.04,1.84,0.1l0.01-0.45c-1.19-0.06-1.41-0.52-1.39-1.64l0.08-3.7l3.18,5.81l0.73,0.02
		l3.29-5.52l-0.09,4.06c-0.02,0.8-0.1,1.01-1.42,1.06l-0.01,0.44c0.85-0.01,1.75,0,2.67,0.02c0.32,0.01,1.19,0.04,2.59,0.11
		l0.01-0.44c-1.24-0.06-1.52-0.29-1.51-1.02l0.1-4.52c0.02-0.83,0.24-1.09,1.55-1.07l0.01-0.43c-0.76,0.01-1.59,0.01-2.55-0.01
		c-0.25-0.01-0.65-0.03-1.19-0.06l-2.97,5.08l-2.91-5.21C122.13,191.87,121.42,191.86,120.66,191.84 M137.92,192.94
		c-0.85-0.14-1.72-0.29-2.63-0.47l-0.07,0.44c0.03,0,0.06,0.01,0.08,0.01c1.01,0.17,1.29,0.43,1.19,1.08l-0.74,4.52
		c-0.13,0.81-0.42,1.05-1.42,0.89c-0.04-0.01-0.11-0.02-0.17-0.03l-0.08,0.46c1.64,0.25,3.18,0.48,4.58,0.71
		c1.43,0.24,2.99,0.49,4.66,0.79l0.42-2.17l-0.62-0.1c-0.51,1.08-1.49,1.44-3.2,1.15c-1.54-0.25-1.86-0.67-1.69-1.76l0.66-4
		c0.12-0.72,0.43-0.88,1.52-0.7c0.03,0,0.06,0.01,0.09,0.01l0.07-0.44C139.52,193.2,138.63,193.06,137.92,192.94 M149.39,195.32
		c-0.82-0.26-1.66-0.54-2.49-0.86l-0.13,0.41c0.61,0.23,1.05,0.78,1.55,1.71l1.7,3.17l-2.6,1.1c-0.96,0.4-1.73,0.54-2.51,0.34
		l-0.13,0.42c0.49,0.13,0.98,0.28,1.45,0.43c0.97,0.31,1.78,0.58,2.4,0.81l0.14-0.43c-0.74-0.26-1.05-0.51-0.97-0.79
		c0.04-0.12,0.21-0.29,0.55-0.44l1.98-0.86l1.09,2.01c0.15,0.28,0.22,0.47,0.18,0.59c-0.09,0.27-0.43,0.24-1.17,0.01
		c-0.04-0.01-0.1-0.03-0.16-0.05l-0.14,0.44c0.96,0.29,1.88,0.57,2.81,0.87c0.72,0.23,1.53,0.5,2.43,0.82l0.14-0.44
		c-0.63-0.21-0.91-0.5-1.2-1.02l-2.15-4l1.88-0.82c1.19-0.53,1.92-0.89,2.93-0.58l0.13-0.4c-0.84-0.23-1.53-0.44-2.07-0.62
		c-0.59-0.19-1.16-0.38-1.69-0.6l-0.13,0.41c0.74,0.26,1.06,0.49,0.97,0.79c-0.06,0.18-0.3,0.37-0.71,0.55l-1.62,0.69l-1.03-1.96
		c-0.1-0.18-0.12-0.35-0.07-0.49c0.07-0.23,0.44-0.22,1.15,0l0.13-0.4C150.94,195.81,150.07,195.54,149.39,195.32"/>
</g>
</svg>
