<svg xmlns="http://www.w3.org/2000/svg" x="0px" y="0px" width="250px" height="250px">
<circle fill="#FFFFFF" cx="125" cy="125" r="123.25"/>
<path fill="#881C1C" d="M192.63,135.36c-0.51-8.27-2.76-15.79-3.36-23.96c-0.08-1.29-0.6-3.23,0.45-4.07
	c1.96-0.06,4.01-0.51,5.38-1.57c1.71-1.71,2.62-4.13,3.22-6.52c0.29-0.92,1.19-1.44,1.4-2.42c-0.89-0.58-1.99-0.58-2.91-1.28
	c-0.08-1.46-0.08-2.77-0.66-4.05c-0.6-1.78-2.08-2.84-4.03-3.05c-2.85-0.23-4.78-1.73-7.55-2.04c-4.1-0.45-5.92,3.45-7.83,6.15
	l-0.53,0.22l-0.45-0.77l0.23-6.89c0.07-5.26,0-10.33-0.31-15.68l-0.2-0.6h-7.31v-0.07c-4.58-0.07-9.37-0.07-13.92-0.16l-0.29-0.3
	c0.51-1.55,0.66-3.72,0.2-5.4c-0.97-3.28-3.14-6.31-5.44-8.47c-2.67-2.4-5.75-5.34-8.37-7.96c-0.73-0.69-1.13-1.52-1.87-2.17
	c-1.86-2.25-3.88-3.68-5.46-6.22c-1.36-2.12-1.47-5.26-3.51-6.86c-0.97-0.9-2.08-0.96-3.51-1.05c-1.89-0.3-3.96-0.21-5.48,0.81
	c-1.72,0.63-0.94,2.94-2.36,3.79c-1.78,0.35-2.85,1.7-4.25,2.77c-2.47,2.68-4.71,5.23-5.91,8.93c-1.26,3.08,0.91,5.78,2.86,7.56
	c0.82,1.45,3.04,1.96,3.71,3.62l-0.14,0.09c-1.95-0.45-4.34-0.38-6.37,0.08c-0.81-0.25-1.64-0.46-2.45-0.53
	c-1.65,0.06-3.07,0.59-4.03,1.63c-1.28,1.36-1.44,3.53-1.14,5.34c0.45,1.95,2.61,2.17,4.04,3.14c2.91,0.75,5.15-0.83,7.6-1.11
	c2.7,1.42,5.55,1.11,8.3,0.45c1.81,0.74,4.05,0.58,5.91,0.06l3.73,0.69c1.81-0.09,3.46-0.16,4.87-0.92l2.78,0.69
	c1.41,0.22,2.67,0.51,3.94-0.23l3.14,0.67c0.88-0.38,1.87-0.6,2.67-1.13c0.84-0.74,1.35,0.53,1.85,0.92l0.85,1.11
	c-0.98,0-2.04-0.06-2.83,0.09c-3.44-0.22-6.96,0-10.33-0.16l-0.53,0.16c-10.68-0.16-21.41-0.22-32.48-0.31
	c-8.67-0.27-16.76-0.23-25.32-0.43c-1.21,0-2.25,0.06-3.15,0.65v21.1l-0.45,0.53c-1.03-1.05-1.8-2.25-3.06-3.09
	c-1.71-1.49-4.26-0.97-6.43-0.59c-2.68,0.28-5.31-0.15-7.47-0.45v-0.06l-1.34,0.13c-1.19,0.45-2.3,1.51-2.39,3
	c0.74,5.79,2.52,11.71,1.25,17.79c0,0.68-0.23,1.59,0.69,1.5c1.71,0,2.85-1.27,4.34-1.57l0.66,1.04c-0.21,3.16,0,6.6-0.39,9.78
	c0.08,4.64-0.66,9.59-0.36,14.48c0.15,3.52,0,6.99,0.36,10.37c1.23,6.76,2.56,14.63,9.44,17.18c0.37,0.66-0.15,1.35-0.47,1.9
	c-1.19,5.7,0.71,10.79,2.17,15.73l3.68,8.19c6.28,11.21,15.61,22.45,28.52,26.14c2.49,0.88,5.17,1.06,7.77,1.26l1.94,1.64
	c4.79,4.07,13.23,4.07,19.14,1.67c1.62-0.73,2.61-2.32,4.03-3.31c9.57-1.21,18.14-5.32,24.85-10.82
	c11.89-9.72,15.25-25.57,20.5-40.01c0.43-1.05,1.71-1.05,2.76-1.21c1.81-0.43,3.14-1.78,4.4-3.15
	C193.73,151.81,193.39,142.76,192.63,135.36 M147.67,64.79c-0.85-0.7-0.77,0.59-1.28,0.9c-0.46,0.37-1.05,0.74-1.81,0.74
	c-1.18,0-2.3-1.13-3.48-0.38c-1.37,0.46-2.77,0.38-4.19,0.09c-1.07,0-1.79-1.44-2.77-0.38c-2.26,1.21-5.42,0.62-7.5-0.6
	c-1.15,0.74-2.88,1.35-4.45,1.05c-1.13-0.16-1.67-0.76-2.85-0.76c-2.24,0.76-5.14,0.6-7.25-0.44c-2.36,1.13-6.1,2.25-8.35,0.22
	c-0.96-0.89-1.8-1.94-1.5-3.51c0.23-0.92,0.66-1.74,1.5-2.18c1.34-0.9,3.44-0.53,4.86,0c1.04-0.62,2.61-1.06,4.02-0.66
	c1.21,0.26,2.18,0.74,3.22,1.1c0.92-0.31,1.57-0.9,2.55-1.1c-0.53-1.06-1.71-1.77-2.46-2.65c-1.79-2.02-4.43-3.38-6.07-5.86
	c-1.78-2.4,0.1-5.45,1.36-7.36c1.87-1.86,3.3-4.8,5.89-5.87c1-1.65,2.64-0.8,3.75-2.16c-0.14-1.06-0.66-2.53,0.44-3.16
	c1.07-1.11,2.55,0,3.98-0.31c1.48-0.06,2.74,0.4,3.64,1.3c1.78,1.26,1.44,3.79,2.4,5.57l0.14,0.66
	c4.78,5.56,10.39,11.42,15.85,16.66c3.06,2.64,4.86,6.23,5.28,10.59c0.08,0.69-0.14,1.34-0.36,1.86
	C149.9,68.15,149.28,65.76,147.67,64.79 M185.84,159.15c-1.28,0.67-2.48-0.06-3.73-0.4l-0.68,1.58c-1.78,6.17-3.58,12.4-5.81,18.27
	c-2.69,5.85-4.57,11.84-8.97,16.53c-6.22,7.86-14.88,12.89-24.82,15.44c-2.16,0.23-4.04,0.9-6.2,1.18c-1.25,1.3-2.32,2.79-4.25,3.33
	c-5.33,1.78-11.45,1.95-16-1c-0.95-0.73-1.48-1.64-2.16-2.61c-2.69-0.39-4.93-0.75-7.54-1.21c-11.96-2.54-19.7-12.14-26.15-21.31
	c-3.6-5.93-6.36-12.45-8.23-19.38c-0.82-2.69-0.72-6.74,1.52-8.77c0.43-0.59,1.7-0.66,1.85-1.6c0.08-1.93-2.24-0.81-3.37-1.42
	c-5.61-1.33-7.55-7.35-8.57-12.38c-0.97-5.02-0.77-10.35-0.9-15.7c0.22-8.14,0.59-16.27,0.53-24.6l-0.22-1.28l-0.45,0.08
	c-0.84,0.97-2.1,1.87-3.44,2.33l-0.6-0.69c0.89-5.04-0.69-9.69-1.79-14.19c-0.24-1.12-0.16-2.53,0.51-3.37
	c1.72-1.74,4.27-0.15,6.36-0.15c3.2,0.82,6.63-1.65,9.1,0.82c3.29,3,3.05,7.96,3.58,12.37c0.66,11.13-0.6,22.22-0.95,33.26
	c0.06,6.25,0.88,11.95,3.27,17.04l0.98,0.82c1.87-0.73,3.58-1.47,5.55-0.34c2.36,1.7,3.65,4.87,2.82,8.09
	c-0.76,1.88-1.94,3.47-4.11,3.82c-0.16,1.37,0.45,2.48,0.67,3.86c3.56,10.57,8.73,20.25,17.86,26.7c3.86,2.72,8.28,4.81,13.59,5.11
	l1.94-0.37c-2.31-2.56-5.14-4.66-7.19-7.45c-6.72-6.82-11.12-15.68-15.88-24.22c-4.26-9.86-8.31-19.9-10.93-30.87
	c-1.63-7.13-3.26-14.04-3.79-21.7c-1.26-8.84-1.8-18.3-2.31-27.62c-0.32-5.83,0.2-11.78,0.27-17.71l0.24-0.21
	c5.17-0.09,10.79,0.06,15.84,0.21c5.97,0,10.68,0.09,16.88,0.25l50.13,0.27c4.25-0.07,9.04,0.25,13.36-0.07l0.61,1.2
	c0.13,6.53,0.51,12.99,0.13,19.61l0.09,0.6c-0.53,9.01-1.21,16.89-2.63,25.51c-0.23,2.64-1.28,4.98-1.53,7.6
	c-1.22,4.58-2.26,9.54-3.62,14.09c-1.64,5.65-3.81,11.2-5.96,16.21c-2.55,7.61-5.92,14.66-9.87,21.48
	c-4.33,7.08-9.04,13.31-14.79,19.23c-1.48,1.28-2.83,2.92-4.43,4.05l0.1,0.4l0.83,0.06c4.03,0,7.83-1.34,11.34-2.83
	c5.89-2.43,10.54-6.71,14.35-11.94c2.54-3.7,4.63-7.97,6.23-12.4c2.06-6.45,3.57-13.36,6.09-19.59c1.35-3.59,4.19-6.6,8.47-6.74
	l0.29-0.45c0-5.4-0.75-10.89-1.58-16.16c-0.97-6.22-1.95-12.6-2.76-18.97c-0.36-4.23-0.07-8.93,1.2-12.62
	c0.83-3.31,2.45-6.32,4.33-9.02c0.99-1.03,2.3-2.09,4.11-1.57c2.5,1.05,5.23,1.8,7.99,2.25c2.15,0.84,3,2.78,2.92,5.18l-0.15,1.58
	c0.83,0.31,2.24,0.08,2.39,1.05c-1.86,2.78-1.27,7.38-4.99,8.35c-1.5,0.36-3.15-0.09-4.55,0.22c-0.52,1.9-0.09,4.06-0.09,5.99
	c1.04,7.05,2.32,14.19,3.26,21.1c0.7,5.04,1.08,10.13,0.11,15.25C190.62,152.7,189.5,157.04,185.84,159.15 M76.92,115.38l0.43-0.09
	c0.96,3.74,1.2,7.73,2.02,11.65c1.44,7.56,3,15.16,5.53,22.27l-0.23,0.33l-3.06-0.23c-0.96-0.1-1.93,0.43-2.76-0.1
	c-1.12-1.56-1.31-3.58-1.93-5.39c-0.61-3.97-0.76-8.02-0.91-12.32C75.88,125.97,76.83,120.85,76.92,115.38 M89.02,160.4l0.74,0.78
	c2.61,7.04,6.36,13.58,10.55,19.9c1.93,3.51,4.32,6.27,6.57,9.36c1.86,2.19,3.89,4.28,5.67,6.55c-0.14,0.84-1.12,0.13-1.65,0.21
	c-3.94-0.66-6.93-2.79-10.15-5.1l-1.72-1.32c-1.86-1.75-3.66-3.78-5.22-5.65c-3.05-4.58-6-9.75-7.99-15.09
	c-0.44-1.51-1.35-3.31-0.91-4.95C86.62,163.88,87.96,162.38,89.02,160.4 M174.64,118.16c1.73,7.86,2.59,16.12,2.98,24.6
	c0,0.83,0.08,1.8-0.45,2.43c-0.76,0.66-1.71,0.59-2.54,1.1c-3.66,2.11-5.31,6.17-6.66,10.21c-2.97,9.34-5.01,19.61-10.46,27.26
	c-4.17,6.68-10.89,11.41-18.52,13.44c-0.74-0.08-1.49,0.63-2.09,0l0.06-0.43c3.75-4.29,7.92-9.1,11.44-13.68
	c3.75-5.54,7.4-11.11,9.94-17.4c5.3-12.98,10.5-26.3,13.58-40.54c0.73-2.48,1-5.43,1.94-7.74L174.64,118.16 M125.4,38.21
	c0.88,0.83,2.32,0.23,3.14-0.15l0.76,0.21c-1.12,1.74-3.97,1.31-5.91,1.07l-0.61,0.87h1.15l1.75,0.47c1.59-0.23,3.23-0.67,4.13-1.87
	c0.36-1.89-0.07-3.52-1.1-4.9c-1.36-0.57-2.64-1.87-4.34-1.26c-0.9-0.14-0.82,1.26-1.59,1.04v-0.88l-0.81-0.3
	c-0.91,1.05-0.29,2.98-0.08,4.28C122.95,37.61,124.29,37.37,125.4,38.21 M128.7,36.19c-0.31,0.66-1.22,1.18-1.96,1.49l-0.54-0.45
	c0.26-0.69,0.78-1.27,1.52-1.51L128.7,36.19 M127.34,34.6c-0.6,0.69-1.34,1.42-2.02,2l-0.67-0.06c-0.08-0.74,0.23-1.26,0.6-1.73
	C125.92,34.6,126.9,33.63,127.34,34.6 M123.54,34.82c0.29-0.75,0.76-1.18,1.5-1.47l0.51,0.22l-1.62,1.8L123.54,34.82 M120.11,50.9
	c0.74,2,3.1,2.16,4.71,3.3c0.36,1.58,0.73,3.62-0.16,5.03l-1.12,0.53c-1.86-0.47-2.86-2.19-4.28-3.45
	c-2.39-2.78-5.66-3.99-7.59-6.97c-0.39-0.69-0.54-1.81-0.25-2.65c1.8-3.21,4.8-6.01,7.12-8.78h0.95l1.56,1.6
	c0.41,0.59,1.41,0.89,0.98,1.87c-0.81,2.11-2.91,3.31-4.1,4.95c-0.76,0.45-1.18,0.9-2.1,1.13l-0.22,1.04
	C116.67,50.06,119.34,48.87,120.11,50.9 M149.47,61.26c0.22,0.83,0.83,1.36,0.75,2.4l-0.23,0.14c-2.01-1.57-3.88-3.83-5.84-5.55
	c-5.46-5.86-10.72-11.47-15.92-17.18l0.76-0.85c1.19,0,1.79,1.21,2.63,1.91c4.04,5.31,8.73,8.77,13.14,13.79
	C146.54,57.64,148.17,59.15,149.47,61.26 M138.48,59.68l3.2-0.76l0.17-0.23c-4.34-4.72-9.5-9.61-13.83-14.47
	c-0.96-0.38-1.96-0.45-2.77-0.81l-1.31,1.03c-0.71,0.4-1.96-0.22-2.16,0.83c-0.42,0.89-1.37,1.42-1.45,2.39l1.71,2.19
	c1.05,0.44,2.18,0.9,3.08,1.56c2.08,0.26,4.23,0.53,5.52,2.12c1.5,1.2,1.79,3.37,2.02,5.24l0.66,0.23
	C135.03,58.46,137.05,58.92,138.48,59.68 M130.02,51.05c-2.31-1.43-5.97-0.91-7.69-3.17c0.12-1.87,2.41-2.02,3.82-2.48
	c3.59,1.51,5.36,5.26,8.52,7.51c1.56,1.75,2.92,3.47,4.46,5.04c-1.03,0.3-1.79-0.3-2.74-0.52l-1.96-0.08
	C134.13,54.37,132.58,52.17,130.02,51.05 M126.64,58.7c0.26-1.36-0.11-2.85,0.17-4.29h1.81c0.66,0.44,1.32,1.36,1.49,2.17
	c0.14,0.61,0.38,1.37,0.14,2.06c-0.35,1.55-2.24,0.14-3.35,0.43 M134.83,60.9c1.84,0.06,3.56,0.93,4.54,2.47l0.15,0.45
	c-2.46,0.59-4.69-0.92-6.04-2.34L134.83,60.9 M109.63,62.9v0.53c-1.41,0.44-2.98,0.9-4.49,0.38c-0.43-0.45-0.89-1.04-0.73-1.73
	l0.52-0.97C106.96,60.29,108.22,62.07,109.63,62.9 M111.43,61.39c0.54-0.5,1.11-0.22,1.79-0.22c1.65,0.53,2.99,1.59,4.25,2.7
	l-1.56,0.53C113.9,64.17,112.71,62.69,111.43,61.39 M141.84,61.18c1.4-0.09,2.3,0.66,3.12,1.58l-0.44,1.1
	c-1.71,0.22-2.68-1.1-3.58-2.1L141.84,61.18 M119.57,61.32c2.18-0.35,3.42,1.13,4.93,2.04l-0.73,0.61c-2.02,0.3-3.76-0.99-5.02-2.13
	L119.57,61.32 M127.26,61.72c2.02-0.17,3.96,0.51,5.24,1.84l-1.19,0.71c-1.88,0.14-3.37-1.07-4.4-2.12L127.26,61.72 M126.47,199.15
	c5.19-4.02,9.76-8.71,13.65-13.94c6.64-8.42,12.11-18.32,16.38-28.71c1.77-4.85,4.03-9.44,5.37-14.47
	c1.58-5.36,3.29-10.53,4.4-16.15c3.45-16.5,5.67-34.23,4.48-52.15l-0.23-0.4c-11.2,0-22.34,0.06-33.85-0.07
	c-5.8,0.07-12.08-0.07-18.28,0.07l-0.09,0.16l1.14,0.67c3.04,2.25,4.68,5.62,6.11,8.94c1.1,0.12,2.22,0.45,3.23,0.9
	c1.49,0.74,2.36,2.39,2.83,4.14c0.66,2.62-0.67,5.53,0.05,8.25c-0.05,2.12,1.83,3.12,3.23,3.83c2.39,1.03,3.05,3.52,3.36,6.06
	c0.83,2.95,0.65,6.53,1.36,9.62c1.34,1.63,0.66,4.28,0,5.99c0.29,1.28,0.13,3,0.13,4.13c0.54-0.68,0.46-1.73,0.83-2.53
	c0.38-1.73,1.56-3.86,0.88-5.71l0.17-1.37l0.29-1.27c0.45-0.74,0.36-1.73,0.75-2.47c0-0.84,0.16-2.04,0.6-2.79l1.19-0.31
	c0.59,0.31,0.97,0.76,1.17,1.44l-0.73,2.11v0.9c0.14,1.59-0.98,2.63-1.05,4.13l-1.34,1.49l-0.39,1.29l-1.33,4.87
	c-0.46,2.71-2.63,5.69-1.06,8.62c0.22,0.86,0.76,1.73,0.38,2.58c0.08,2-1.64,2.61-2.61,3.98c-2.02,0.36-1.28,2.77-2.18,4.05
	c-0.13,0.67-0.82,1.8,0.17,2.16l-0.6,1.44c-0.59-0.53-0.17-1.57-0.45-2.25c0.06-1.88,1.12-3.47,0.98-5.4l1.19-1.13l-0.6-1.64
	l-0.82,2.08l-0.23-0.08l-0.29-3.36c0.17-1.36,0.82-2.25,1.56-3.29l-0.15-2.87c-0.29-1.57-1.05-2.86-0.65-4.58
	c-0.23-2.09,1.42-3.36,1.71-5.26l1.34-0.21l-0.15-0.77c-0.73-0.61-1.88,0.08-2.48-0.16c-0.42-0.72,0.38-1.49,0.77-1.99
	c0.51-1.16-0.97-0.92-0.91-2.04l1.27-0.53l-0.42-0.74c-2.56-3.29,0.87-9.23-2.56-11.8c-0.68,0.61,0.08,1.44,0,2.25
	c0.51,2.47-1.1,4.52-0.51,7.06c0.06,2.48-0.24,5.03,0.36,7.34c-0.24,1.05-0.29,2.35-0.95,3.1l-0.45-0.31
	c0.51-2.01-0.08-4.33-0.08-6.14c-0.29-0.69,0.38-1.37-0.21-1.73c-0.84,0.43-0.6,1.73-1.09,2.47h-0.35l-0.45-2.04h-0.23l-0.38,0.77
	c-0.51,1.94-0.23,4.57-1.89,5.86c-1.03,1.12-2.67,0-4.01,0.06c-2.91-0.59-1.86-4.36-2.77-6.61c-0.88-0.45-0.14,1.06-0.88,1.06
	c-0.67-0.46-1.07-1.22-1.07-2.04l0.54-0.96c0.16-1.07-0.66-1.65-1.28-2.33c-1.26-1.81-0.43-4.14,0-6.16l-0.2-0.46
	c-0.69,0-0.82,0.92-1.11,1.29l-0.76,1.5l-1.19-0.14c0,1.55,0.79,2.54,1.34,3.89c0.13,1.14,0.39,2.34,0.13,3.54l-0.68,0.66
	c-0.97-0.45-1.69-1.28-2.9-1.04l-0.3,1.8c1.2,0.93,2.32,1.72,2.76,3.15c-0.11,1.36-0.11,3.17-1.48,3.61l0.82,1.35l1.54,0.1l1,0.22
	c-0.51,1.33-0.23,3.09,0.82,3.98c0.29,0.9-0.05,2.17,0.45,2.92c0.73-0.53,0.44-1.72,0.89-2.48c0.14-0.59,0.23-1.57,0.97-1.72
	c1.1,0.82,0.29,2.83,1.28,3.83l0.21-1.65c0.14-0.77-0.14-1.89,0.75-2.11l2.24,2.04l0.88,0.72c0.29-1.42-1.25-2.08-0.88-3.52
	c1.4,0,2.98,0.15,4.4,0.08l1.64,0.45c-0.39,0.97-0.59,2.33-1.11,3.3l0.12,0.14c0.83-0.2,1.28-1.18,1.59-1.93
	c0.29-0.47,0.66-1.13,1.35-1.21c0.66,1.05-0.11,2.25-0.45,3.24l0.57,0.28c0.98,0.38,0.83,1.75,0.98,2.7
	c-0.39,2.04,0.14,3.97,0.23,6.09l-0.97,0.83c-2.19-0.22-4.33,0.24-6.6,0.15c-2.43-0.3-5.06,0.09-7.52,0.09
	c-0.83,0.35-1.86,0.53-2.62,1.05c-0.29,0.96,0.76,1.28,0.53,2.18l1.26-0.38c1.65-0.22,3.97-0.9,5.4,0.2
	c1.06,0.46,1.64-0.72,2.68-0.28c0.74,1.42,1.39,3.08,2.02,4.65l0.22,0.09c0.29-1.88,0.89-3.76,2.39-4.97l2.3,0.16
	c0.99,0.89-0.14,2.17-0.3,3.08c0.23,1.95-1.96,2.78-1.05,4.71c0.39,0.45,0.62,1.08,1.35,1.08l0.99-0.83l0.66-1.88l0.46,1.58
	c-1.29,1.43-0.83,4.1-0.59,6.08l-1,3.83c0.54,2.48-0.06,5.12-0.14,7.72c0.14,2.04-0.97,4.08-0.1,5.92c0.18,2.13,1.83,3.78,3.6,4.44
	c1.13,0.9,2.83,1,3.6,2.33c0.31,0.67,0,1.21-0.52,1.72c-2.11,1.28-5.61,0.9-7.55-0.46c-1.35-0.87-3.66-0.27-5.01-0.95
	c-1.51-1.05-0.66-3.23-0.74-4.89c0.96-3.45,0.79-7.58-0.16-10.89l-0.18-5.1l0.18-1.44c0.45-1.33,0.24-2.84-0.23-4.21
	c0-3.43,0.47-6.37-0.39-9.67l-0.2-0.15c-0.97,3.45,0.15,7.74-0.32,11.41c0.18,1.21-0.59,1.95-0.2,3.08c-0.1,2.48,0.57,6.6-0.6,8.7
	c-0.46,2.5,0.21,4.35-0.54,6.69c-0.23,1.86,1.19,2.99,0.75,4.88c0.08,1.42,0.77,3.06-0.21,4.04c-1.67,0.91-3.2,1.95-5.09,2.71
	c-1.19,1.06-2.09,2.04-3.66,2.33c-0.87,0.14-1.5,0.53-2.48,0.6l-1.33-0.9c-0.66-0.68-0.08-1.74,0.07-2.4
	c0.52-0.82,1.63-1.43,1.5-2.4c-1.81-2.18-2.92-5.33-3.88-7.96c-1.89-6.3-3.2-12.68-4.34-19.22l-0.15-0.59
	c-1.18-8.11-2.48-16.3-3.34-24.48c-0.4-4.19-0.47-8.62-0.85-12.75c-0.81-1.64-1.34-3.31-1.8-5.26c0.31-1.6,1.52-2.49,2.48-3.54
	c0.45-3.51,1.03-7.11,2.01-10.42l1.05-0.84l0.29,1.14c-0.81,4.27,0.78,8.28,0.99,12.46c0.89,0.67,0.89,1.8,1.71,2.41
	c0.73,0.14,1.5,0.36,2.32,0.43l0.08-0.98c0.39-3.36,1.35-6.65,1.56-10.2c0.38-2.87,3.59-3.09,5.48-4.66
	c1.99-2.01,0.26-5.62,1.42-8.25c0.11-1.21-0.24-2.54,0.51-3.46c0.36-0.83,1.09-1.13,1.33-2.03c-2.15-1.65-4.39-3.52-5.98-6
	c-0.36-1.07-1.47-2.08-0.76-3.31c1-0.3,1.88,0.83,2.84,1.06l0.11-0.45c-0.22-0.97-0.41-2.33,0.05-3.16l-0.76-0.14l-18.5-0.23
	c-4.84-0.22-9.63,0.09-14.64,0l-1.95,0.44c-0.16,8.04-0.09,16.53,0.6,24.49c0.35,4.43,0.35,8.94,0.89,13.27
	c0.08,3.46,0.89,6.46,1.34,9.78c2.09,15.48,6.58,29.2,12.25,42.65c3.88,8.07,8.22,15.91,13.76,22.75c4.18,5.02,8.9,9.36,14.1,13.65
	C125.18,200.28,125.63,199.55,126.47,199.15 M114.94,116.13l-1.62-0.83l0.27-0.68l1.2,0.68L114.94,116.13 M118.15,116.23l0.46,0.19
	c0.97,1.44,1.79,2.93,2.01,4.74l-1.59-0.32C118.09,119.8,117.63,117.72,118.15,116.23 M131.96,124.9c-3.24,0.45-6.78,0.15-9.93-0.27
	l-0.66-0.08c-1.51-0.53-2.63,0.6-3.97,0.08c0.23-1.65,2.61-0.54,3.88-1l0.61-0.72c1.21-0.32,2.46,0.07,3.73,0l0.14,0.88
	c2,0.3,4.27-0.16,6.29,0.52l0.2,0.25L131.96,124.9z M133.6,149.9l-0.93-0.43l0.44-0.92l0.88,0.46L133.6,149.9 M95.29,93.9
	l-0.42-0.75c0.05-1.93,0.36-3.9,0.65-5.78c-0.36-0.66-1.34-1.13-1.85-1.73c-1.03-1.05-2.27-1.88-3.15-2.79l0.53-0.8
	c1.93-0.71,4.02-0.85,5.95-1.49c1.14-1.96,2.04-4.32,3.7-5.8c1.1,0.22,1.5,1.47,1.72,2.48c0.7,0.88,0.94,2.01,1.5,3.09l0.94,0.23
	c1.73,0.05,3.68,0.74,5.45,0.95l0.39,0.9c-1.37,1.5-2.4,3-4.03,4.29c-0.46,1.11,0.54,2.02,0.54,3.08l0.36,3.22l-0.61,0.45
	c-1.93-0.52-3.89-1.58-5.67-2.48C99.25,91.81,97.47,93.31,95.29,93.9 M122.11,84.37c-2.61-2.26-3.35-5.72-4.04-9.02l0.08-0.07
	c2.47,1.66,3.96,4.06,5.15,6.76c0,0.83,1.13,1.79,0.17,2.41L122.11,84.37 M115.61,78l1.42,0.53l0.99,2.38
	C116.98,80.26,116.21,79.12,115.61,78 M129.59,88.43c-0.76-1.29-2.02-2.56-3.66-2.7c-1.34,0.36-2.83,0.82-3.9,1.64
	c-0.45,2.34-1.13,4.65-0.57,7.15c-0.62,2.25-0.62,5.39-3.37,5.75l1.56,0.16c0.73,0.53,0.82,1.96,0.97,2.92
	c0.44,1.06,0.96,2.4,1.81,3.23c0.73,0.84,1.62,1.29,2.67,1.57l1.8,0.05l1.93-0.87c0.76-0.75,1.1-1.65,1.65-2.48
	c0.29-1.27,0.2-2.63,0.39-3.74l0.06-1.2c-0.76-0.4-1.19-0.99-1.64-1.59c-1.19-0.59-0.31-1.79-0.45-2.69c0.14-1.34,1.1-2.4,0.6-3.99
	C130.12,90.76,130.12,89.41,129.59,88.43 M123.38,91.21h2.24l0.13-0.66c-0.82-0.25-1.77-0.25-2.54-0.7c0-0.75-0.22-1.7,0.54-2.16
	c1.13-0.14,2.24,0.13,3.3-0.14c0.66,0.06,1.34,0.43,1.56,1.12l0.15,1.64c-0.59,0.69-1.66-0.37-1.96,0.51
	c-0.45,0.98,0.45,2.57-0.82,2.87l0.29,1.06l-0.6,0.36c0.6,0.38,0.52,1.2,0.68,1.87c-0.37,0.77-1.27,0.08-1.94,0.3
	c-0.08,1.05,1.73,1,1.26,2.35l-1.99-0.38l-0.6-0.61c0.29-1.35-0.14-3.08,0.36-4.32C123.92,92.99,122.11,92.1,123.38,91.21
	 M127.57,99.34l-0.31,0.13l0.08-0.54L127.57,99.34 M128.97,100.35l0.62,0.62c-0.09,2.25-0.17,5.02-2.33,5.78
	c-0.97,0.22-1.77,0.08-2.6,0c-0.67-0.67-1.56-0.83-2.02-1.71c-0.37-0.9-0.75-1.91-0.45-3.02l-0.21-1.67l1.65,0.62
	c0.97,0.22,2.14,0.66,3.02,0.66L128.97,100.35z M129.06,92.55l-0.66,0.84l-0.54-0.9l0.91-0.69L129.06,92.55 M58.91,89.63
	c0.99,0.16,1.5,0.97,1.87,1.73c1.47,2.63,1.41,7.26-0.53,9.67l-0.29,0.09c-0.24-3.68-1.22-6.9-1.8-10.36L58.91,89.63 M77.05,153.82
	c-2.52-3.54-3.57-7.75-4.4-12.25c-0.87-9.23,0.23-17.93,0.46-27.23c-0.28-6.39,0.74-13.67-0.98-20.05c-0.57-1.9-1.3-4.45-3.65-4.5
	c-1.62,0.44-3.57,0.44-5.53,0.5c0.3,1.66,0.91,3.47,1.13,5.18c0.83,5.2,0.76,10.66,0.59,15.68c-0.13,9.6-1.04,18.79-0.3,28.16
	c0.98,5.93,0.83,13.75,6.97,15.99c1.93,0.53,4.27,0.31,5.61-0.66L77.05,153.82 M70.59,111.93l-1.06,0.88
	c-0.17,0.98-0.84,1.89-1.89,2.04l-1.19-0.07c-0.95-0.75-1.19-2.03-0.95-3.3l0.89-1.05l0.59,0.52c-0.06,0.67-0.53,1.37-0.13,1.96
	l0.79,0.07c0.99-0.97,0.91-2.55,2.33-2.94c0.74-0.08,1.28,0.3,1.57,0.84c0.51,1.2,0.29,2.63-0.17,3.75h-1.62
	c-0.22-0.97,1.07-1.2,1.12-2.25L70.59,111.93 M69.09,107.06l0.5,0.36c0.76,0.32,1.78-0.51,1.96,0.53l-0.45,0.81
	c-1.8-0.21-3.59,0.07-5.23,0l-0.16-0.75l2.46-2.7l-0.3-0.27c-0.73-0.09-2.61,0.5-2.16-0.98l0.6-0.51c1.93,0.27,3.38-0.4,5.16-0.18
	l0.23,0.37C71.99,105.63,69.8,105.93,69.09,107.06 M65.34,97.66c1.19-0.38,2.53,0,3.75-0.3l1.93-0.16c0.52,1.06,0.44,2.19,0.52,3.24
	l-0.91,0.82l-0.37-0.53l0.14-1.39h-0.96l-0.15,1.1h-1.35l-0.57-0.97l-0.99,0.51v1.75l-1.05-0.7C65.42,99.91,64.97,98.73,65.34,97.66
	 M65.26,117.03l0.23-0.24c1.93-0.14,3.86,0,5.76-0.06l0.21,0.3l-0.09,3.46l-1.1,0.6l-0.29-0.45l0.29-2.03l-1.06,0.23l-0.36,1.21
	l-1.21-0.33l-0.26-1.18l-1.07,0.45c0,0.74,0.91,1.51,0.31,2.11l-1.35-0.76C65.19,119.21,65.04,118.17,65.26,117.03 M65.04,125.05
	c0.82-0.36,1.87,0,2.83-0.14c1.06,0.14,2.54-0.65,3.16,0.38h-0.1c-0.06,0.91,0.45,3.15-0.82,3.96h-2.37
	c-0.76-0.44-1.06-1.42-1.21-2.39c-0.45-0.45-1.34,0.08-1.56-0.59L65.04,125.05 M64.73,131.37c0-0.69,0.76-0.38,1.13-0.6
	c2,0.07,2.91-0.09,4.77,0.07c0.39,1.19,0.29,2.4,0.08,3.6l-1.04,0.25c-0.15-0.84,0.59-1.37,0.2-2.13l-1.11,0.08
	c-0.45,0.6,0.38,1.58-0.73,1.51c-0.47,0.07-1.19,0.07-0.9-0.66l0.13-0.92l-1.12,0.15c-0.59,1.13,0.6,1.73,0.38,2.69l-1.34-0.51
	C64.82,133.84,64.66,132.64,64.73,131.37 M65.26,139.02c-0.22-0.95,0.89-0.76,1.5-0.89l3.04-0.31l0.17-0.97l-0.09-0.69l0.98,0.38
	c-0.05,1.44,0.6,2.84,0.16,4.19l-0.91,0.26l0.08-1.21c-1.42-0.46-3.05,0.22-4.55-0.07L65.26,139.02 M66.08,143.18l4.56-1.07
	l0.97,0.74l-0.51,0.97c-1.65,0.1-3.35,0.46-4.94,0.39L66.08,143.18 M72.22,149.76l-0.45-1.27c-1.5,0-3,1.2-4.5,1.05l-0.13-1.57
	c1.49-0.3,2.74-0.61,4.11-1.3c0.36-0.8-1.21-0.95-0.39-1.64c0.68,0,1.35,0,1.57,0.69C72.3,146.97,74.38,149,72.22,149.76
	 M188.46,93.76c0.36-0.75,0.89-1.28,1.03-2.12c-0.89-0.14-1.93-0.29-2.88-0.67c-1.3-0.15-2.12-1.58-3.53-0.96
	c-4.56,5.01-6.29,12.46-5.76,20.27c1.28,10.2,2.93,20.11,4.12,30.34c0.14,2.46,0.14,3.8,0.36,6.29c3.07,1.19,5.08,4.13,5.24,7.57
	l0.21,0.09c0.99-1.19,1.34-2.62,1.64-4.19c1.37-6.37,0.97-13.67-0.07-20.06C187.56,118.61,182.55,104.73,188.46,93.76
	 M178.87,107.57c0.46-0.81,1.44-1.21,2.1-2.08c-0.13-1.44-2.84-1.6-1.69-3.25c1.69,0.3,3.35,0.47,5,0.58l0.21,1.61
	c-0.68,0.53-1.26-0.38-2.09-0.22l-0.38,0.06c0.14,0.78,2.03,1.38,0.9,2.42l-0.76,0.74l2.18-0.08l0.45,1.44l-0.23,0.23
	c-1.73-0.16-3.66-0.84-5.45-0.23L178.87,107.57 M179.18,114.55c0-1.11-1.05-3.01,0.3-3.6h0.17c0.14,0.68-0.48,1.65,0.35,2.03
	c0.76-0.06,1.63-0.3,1.28-1.29l1.19-0.3l0.45,1.2l0.89-0.52c0.29-0.77-0.82-1.26-0.23-1.95c1.9,0.16,0.98,2.56,1.44,3.83l-0.45,0.45
	c-1.56-0.37-3.28,0.22-4.99,0.37L179.18,114.55z M179.8,117.62l0.13-1.34l1.04-0.38v1.96l0.4,0.13c1.25-0.27,2.73-0.37,4.03-0.66
	l0.5,1.6l-0.42,0.21c-1.29,0.13-2.64,0.13-3.91,0.38l-0.2,1.2l0.14,0.75l-1-0.38C180.09,120.04,180.17,118.67,179.8,117.62
	 M181.57,122.74c0.91,0.23-0.36,2.93,1.35,1.79l0.16-0.81l1.41-0.15c0.07,0.43,0.21,0.96,0.91,0.71l0.5-0.51
	c0.09-0.8-1.34-1.58-0.21-2.01l0.92,0.66l0.43,3.3c-0.43,0.69-1.35,0.08-2.02,0.3l-3.58,0.68c-0.54-0.82-0.46-2.1-0.54-3.13
	L181.57,122.74 M181.64,128.8c1.89,0.31,3.76-0.28,5.55-0.52c0.45,0.31,0.58,0.9,0.52,1.6l-0.57,0.43c-1.74,0-3.69-0.07-4.9,0.99
	l-0.66-0.1C181.57,130.47,180.9,129.36,181.64,128.8 M182.02,131.98c0.73,0.35,1.42,0.88,2.09,1.26l3.6,1.44l-0.23,0.91
	c-1.65,0.65-2.99,1.73-4.56,2.78l-0.52-0.3l0.23-1.9c0.95-0.05,1.78-0.52,2.32-1.26l-1.59-0.9c-0.53,0.14-1.63,0.44-1.47-0.61
	L182.02,131.98 M187.49,144.36c-1.22,0.88-2.78,0.97-4.12,0.22c-0.96-0.76-1.79-2.03-1.47-3.44c0.59-1.36,1.47-2.41,3.06-2.66
	c1.32-0.52,2.19,1.89,3.38,0.42c0.86,0.42,0.18,1.72,0.13,2.52C188.6,142.55,188.35,143.67,187.49,144.36 M188.51,102.92
	c-0.53-1.59,0.08-3.14,0.55-4.73c0.8-2.03,1.56-3.85,3.27-5.25l0.67,0.3c0.24,2.02-0.97,3.9-1.71,5.69
	c-0.6,1.29-1.49,2.49-1.64,3.89L188.51,102.92 M193,103.21l-0.82-0.51c0.16-1.45,1.19-2.35,2.25-3.02v1.34
	C194.13,101.87,193.98,102.79,193,103.21 M125.03,102.09c1.03,0.69,2.08-0.6,3.13-0.45v0.37c-0.45,0.59-0.97,1.35-1.71,1.57
	c-0.97-0.14-1.87-0.45-2.47-1.26L125.03,102.09 M102.77,117.72c1.05,0.44,1.18-0.69,2.01-1.08c1.64-0.74-0.3-2.1,0.17-3.43
	c0.19-1.2-1-1.44-1.73-1.97v-0.53c1.73,0.1,2.09,1.83,2.98,2.85c0.31,1.13,0.31,2.55,0.17,3.6l0.74,0.14
	c0.09-0.9,0.14-1.71-0.08-2.46c-0.37-1.6-1.13-3.08-2.24-4.04l0.36-0.32c-0.07-1.36-0.07-2.77-0.42-4.01l-0.29-0.05l-0.32,2.32
	l-0.07,1.52l-1.26,0.06c-0.9,0.75-1.8,1.73-1.96,2.91c0.09,0.94,0.16,1.75,0.6,2.51c0.38,0.76,1.35,0.45,1.8,0.97l-0.6,0.38
	L102.77,117.72 M102.16,111.93l1.78,0.66l-0.59,0.62l-1.26-0.62L102.16,111.93 M101.71,113.51l2.24,0.45l0.08,0.51l-1.93-0.08
	L101.71,113.51 M102.42,115.76l-0.55-0.69l1.72,0.15l0.16,0.45L102.42,115.76 M120.75,111.63c1.22,0.69,2.63,1.8,3.02,3.22
	c0.05,1.29,0.73,2.61,1.48,3.59l-0.36,0.56c-1.94-0.45-2.12-2.64-2.7-4.22l-1.66-2.62L120.75,111.63 M108.79,161.33
	c-0.8-4.14-1.6-8.12-1.84-12.48c0.52-2.86-0.29-5.93-0.6-8.85c-0.45-1.87-0.09-4.13-1.42-5.57c-0.91-2.99-0.76-6.16-1.2-9.31
	l-0.44-5.62l0.29-0.69c0.84,0.23,1.95,0.31,2.32,1.13l0.24,2.18h-0.07c0.66,5.93,1.48,11.87,2.21,17.8
	c1.81,12.77,3.29,25.97,4.93,38.81l-0.2-0.16C111.2,173.09,109.64,167.41,108.79,161.33 M115.31,125.36c0,1.13-0.36,2.25-0.51,3.39
	c-0.53,2.24-0.25,4.8,0.06,7.06c-0.14,1.7-0.14,3.89,0,5.54c1.5,3.22,0.82,7.75,2.18,11.03c0.98,1.87,0,4.22,0.67,6.3
	c-1.13,2.71,0.31,5.41,0.31,8.21l0.36,9.43c-0.67,1.36-0.54,3.26-1.52,4.37c-0.6,0.61-0.6,1.36-1.31,1.8l-0.3-0.38
	c-1.12-7.34-1.81-14.77-2.7-22.29c-1.47-9.78-2.47-20.11-4.11-29.58c-0.21-3.26-0.79-6.16-1.06-9.3l0.18-0.31
	c1.48,0.75,2.83,2.12,4.76,2.17c0.6,0.82,0.76,2.25,2.04,2.33L115.31,125.36 M67.87,127.39l0.91-0.69l0.97,0.46l-0.68,0.82
	L67.87,127.39z M129.36,134.14c0.08,0.69-1.26,1.22-0.74,1.86c0.36,0.93-0.39,1.52-0.86,2.06c-0.56,0.36-1.23,0.66-2,0.42
	l-0.35-0.66c0.96-0.06,1.93-0.51,2.35-1.36l-0.11-0.46c-1.19,0.42-2.99,1-4.19,0.15l-0.08-0.58c2.12,0.31,3.68-0.75,5.24-1.58
	 M186.8,142.03h0.68l-0.96,1.37c-0.91,0.19-2.26,0.26-2.94-0.31l-0.57-1.06c0.07-0.69,0.66-1.14,1.17-1.49
	c0.83-0.08,1.87-0.33,2.55,0.2l-0.38,0.94L186.8,142.03 M180.25,149.02c-1.73-0.75-3.67-0.08-5.02,0.96
	c-3.3,3.16-3.58,8.26-5.14,12.56c-1.93,6.23-3.3,13.06-6.29,18.62c-2.91,5.31-6.43,10.04-11.45,13.66
	c-1.26,0.89-2.67,2.17-4.31,2.61c-3.66,2.41-8.36,3.68-13.1,4.51c-1.1,0-0.35,1.2-0.57,1.82c-0.1,0.66-0.7,1.03-0.62,1.8
	c0.84,1.04,1.5,2.3,2.03,3.66l0.36,0.23c4.4-0.53,8.6-1.65,12.48-3.36c5.96-2.58,10.88-6.54,15.16-10.82
	c0.9-0.91,1.57-1.96,2.54-2.84c4.25-6.79,7.77-14.35,10.03-22.48c1.32-2.83,1.77-6.16,2.98-9.02c0.32-2.45,1.12-4.48,1.71-6.69
	c0.46-1.1,1.19-2.25,1.5-3.44C182.1,149.84,181.11,149.54,180.25,149.02 M138.9,207.85l-0.73-0.72l1.59-0.69
	c0.12-0.89-1.13-0.76-1.5-1.29l-1.28-0.83l0.22-1.28c0.6-0.67,1.5-0.73,2.25-1.04l0.76,0.83c-0.37,0.6-1.3-0.23-1.63,0.45
	c0,1.04,1.46,0.77,2.16,1.35c0.52,0.37,0.94,0.96,0.88,1.66C141.25,207.42,139.83,207.42,138.9,207.85 M149.54,204.71l-0.61-0.66
	c-0.43-1.31-0.74-2.64-1.63-3.54l-0.9,1.06l-0.37,4.26l-0.78,0.31c-1.18-1.28-2.21-2.57-3.4-3.91c0-0.66,0.81-0.61,1.19-0.82
	l0.66,0.96c0.54,0.31,0.76,1.28,1.55,1.13c0.48-1.05-0.36-2.09,0-3.06c1.5-0.84,2.94-1.36,4.51-2.13c0.76-0.06,1.34,0.17,1.59,0.77
	c-0.48,1.49,1.48,1.36,1.54,2.54C152.82,203.51,150.74,203.83,149.54,204.71 M159.92,197.51h-0.75c-0.97-1.21-2.41-2.25-3.21-3.39
	l1.19-1.03c0.72,0.98,1.72,2.04,2.76,2.38c0.82-0.12,0.52-1.4,1.49-1.36C162.67,195.78,160.53,196.37,159.92,197.51 M163.63,193.82
	l-0.26,0.08c-1.14-1.11-2.35-2.25-3.67-3.06l0.07-1.22c0.67-0.82,1.19,0.16,1.78,0.39l2.84,2.46L163.63,193.82 M166.27,190.36
	l-0.66-0.05c-1.11-1.21-2.72-1.9-3.89-2.96c0.13-1.5,1.17-2.61,2.37-3.21l1.28,0.52c-0.07,1.68,2.08,0.17,2.31,1.51
	C168.58,187.83,166.91,189.18,166.27,190.36 M171.05,181.9c-0.6,0.9-1.05,1.94-1.87,2.84c-1.34-0.74-2.7-1.59-4.18-2.2l-0.24-1.1
	c0.74-0.83,0.85-2.69,2.37-2.17l0.1,0.23c-0.38,0.58-1.62,0.74-1.12,1.72c0.3,0.08,1.12,0.61,1.26-0.22l0.37-0.76l1.19,0.61
	l-0.43,1.42l0.97,0.14l0.6-1.86l0.97,0.66V181.9z M172.16,176.92l-0.51,0.31c0.21,0.45,1.04,0.3,0.96,1.05l-0.75,1.21l-0.44-0.23
	c-1.11-0.67-2.68-1.29-3.97-1.73c-0.21-0.9,0.39-1.72,0.61-2.62l1.43-1.28l1.48,0.59c0.38,0.38,0,1.5,0.89,1.36l1.96-0.21
	C173.73,176.32,173.04,176.64,172.16,176.92 M174.65,171.96l-1.8-0.34l-2.27-0.75l-0.43,1.41l-0.76-0.53l-0.14-0.45l1.19-3.52
	l0.82-0.31l0.51,0.45l-0.69,1.13c1.06,0.69,2.28,1.2,3.54,1.42V171.96 M176.2,165.68l-0.75,0.52l0.08,1.06
	c0.83,0.22,0.52,1.28,0.22,1.88l-0.82-0.32l-3.66-3.59v-0.62c1.67-0.51,3.49-0.29,5.14-0.74l0.67,0.45
	C176.87,164.87,177.03,165.75,176.2,165.68 M177.85,161.63l-0.45,0.14c-1.12-0.44-2.3-0.97-3.67-1.12
	c-0.74,0.36-0.08,1.35-0.45,1.94l-0.95-0.45l-0.08-0.66l1.19-4.21l1.21,0.07c-0.24,0.44-0.92,0.9-0.69,1.57
	c1.19,0.68,2.7,0.84,4.04,1.13L177.85,161.63 M179.49,156.67l-1.04,0.22c-1.42-0.39-2.92-1.05-4.34-1.28
	c-0.54-0.84,0.29-1.96,0.29-2.91l1.42-0.71c-0.08,0.92-1.34,1.52-0.45,2.25l0.98-0.28l0.73-0.53l0.76,0.69l0.23,0.97l1.04-0.62
	l0.07-1.4l0.82,0.45C180.25,154.66,179.66,155.62,179.49,156.67 M129.13,154.78c0.68-0.53,1.11-1.49,2-1.96l-0.37,1.96l-1.48,0.84
	c0,1.05,0.66,2.27,0.82,3.23l-1.05,0.16c-0.66-1.67-1.19-3.52-1.05-5.41l0.82-0.17L129.13,154.78 M183.46,154.05
	c0.22-0.77,0.95-0.45,1.11,0.12c0.14,0.53-0.29,1.3-0.29,1.97l-1.19,0.25C182.4,155.55,183.22,154.79,183.46,154.05 M76.7,158.24
	c-0.14-1.26,1.56-0.96,2.15-1.63c1.56-0.84,1.63-3.47,4.12-2.56l1.04,0.9c0.97,1.21,1.05,3.15,0.6,4.66
	c-0.23,0.67-0.83,1.12-1.58,1.06c-1.78-0.77-3.21-2.18-5.45-1.66L76.7,158.24 M122.64,154.47c-0.1,1.52-3.07-0.06-2.11,1.99
	c-1.2,0.58,0,1.65,0.08,2.46l1.85-0.3l-1.24,1.21c-0.61,0-1.5,0.06-1.8-0.68c-0.4-1.36-0.45-3.38,0-4.9c0.73-0.06,1.1,0.31,1.84,0.4
	L122.64,154.47 M114.55,201.42c-1.86-0.09-4.03-0.56-5.81-1.21c-2.48-0.82-4.93-1.49-6.79-3.13c-6.78-3.7-11.58-10.53-15.56-17.13
	c-1.87-3.45-3.11-7.21-4.39-11.02c-0.69-2.06-1.04-4.32-1.74-6.34c-0.29-0.44-0.81-0.95-1.5-1.12c-1.72-0.24-3.5,0.17-4.77,1.34
	c-1.04,0.77-0.82,2.39-0.88,3.77c1.03,6.43,3.35,12.3,6.41,17.64c4.02,8.04,10.21,15.09,17.47,19.96c3.71,2.57,8.31,3.78,12.84,4.6
	c1.07,0.08,2.25,0.59,3.18-0.09c0.29-1.14,0.66-2.38,1.53-3.14c0.76-0.53,0.18-1.44,0.18-2.19
	C114.5,202.69,115.03,202,114.55,201.42 M74.75,170.65l-0.08-1.61c1.72-0.43,3.22-1.13,4.87-1.7c1.2,0.45,0.96,2.17,1.35,3.31
	l-0.77,1.64c-0.51,0.44-1.1,0.44-1.85,0.3c-0.83-0.47-1.06-1.52-1.7-2.19C75.87,170.34,75.28,171.35,74.75,170.65 M76.61,175.82
	c-0.58-1.67,1.71-1.21,2.49-1.8c0.87-0.31,2.21-1.95,2.82-0.23c0.08,1.2-1.44,0.77-2.03,1.36c-0.6,0.59-2.23,0.36-1.77,1.66
	l0.59,1.1C77.29,178.22,77.2,176.58,76.61,175.82 M79.78,182.41c0.11-0.67,1.03-0.91,0.71-1.72l-0.66-0.92
	c-0.54,0.07-1.51,0.55-1.57-0.36l0.51-0.76c1.81,0,3.66-0.58,5.53-0.38l0.17,0.25c-1.05,1.8-2.55,3.31-3.74,5.17L79.78,182.41
	 M82.29,186.69c-0.58-0.53-0.58-1.57-0.37-2.32c0.44-1.35,1.5-2.11,2.93-2.34c1.02,0,1.9,0.51,2.35,1.43l0.23,1.65l-0.49,0.25
	c-0.38-0.53-0.18-1.61-0.97-1.8c-0.75-0.25-1.44,0.07-1.96,0.43l-0.89,1.57c-0.17,0.99,1.28,1.18,1.13,2.01
	C83.33,187.74,82.82,187.22,82.29,186.69 M84.47,189.92l0.06-0.36c1.57-0.84,2.85-2.1,4.19-3.09l0.89,1.1l-0.17,0.49
	c-1.54,0.88-2.61,2.08-4.08,2.91L84.47,189.92 M86.71,193.08c0.44-0.91,1.41-1.27,2.17-1.96l1.92-1.79
	c1.05,0.28,1.28,1.44,1.88,2.01c0.68,1.07,0.15,2.63-0.47,3.46c-0.57,0.55-1.18,0.98-1.99,1.03
	C88.48,195.48,87.5,194.36,86.71,193.08 M94.16,200.96l-0.59-1.52l-0.07-1.13l-1.29-0.8c-0.41-0.22-1.62,1.14-1.84-0.17l1.02-0.5
	c1.65-0.3,2.85-1.15,4.51-1.67l0.5,0.52c-0.36,1.88-1.32,3.23-1.55,5.17L94.16,200.96 M101.11,204.94l-1.2-0.28
	c-0.2-1.21,1.05-1.68,0.99-2.73c-0.75-0.3-1.65,0.76-2.18,0.07l-0.74-1.14l-1.18,1.88L95.9,202l1.33-1.8
	c0.53-0.9,0.82-1.94,1.57-2.63c1.5,0.16,0.45,2.27,1.35,3c1.13-0.06,2.36-1.13,3.28-0.29C103.12,202,101.63,203.35,101.11,204.94
	 M174.39,165.43l-0.23,0.84l-0.88-0.6L174.39,165.43z M78.94,170.78l-1.06-0.53l0.29-0.61c0.38-0.14,1.42-0.51,1.35,0.3
	L78.94,170.78 M130.02,175.82c-0.6-0.43-1.49,0-1.81-0.68c0.1-0.6-0.27-1.5,0.48-1.65c1.42-0.76,1.42,0.84,1.7,1.65L130.02,175.82
	 M170.01,176.27l-0.52,0.3l-0.54-0.53l0.54-0.61L170.01,176.27z M128.18,178.96c1.32,0.17,2.46,0.45,3.65,0.9
	c0.66-0.37,1.59-0.37,1.76-1.26l-1.31-2.01c-0.89-0.32-1.43,0.79-2.24,0.87l-1.25-0.87C128.54,177.23,127.87,178.13,128.18,178.96
	 M131.45,177.99l1.22,0.29l-1.01,0.32L131.45,177.99 M82.06,179.58l-0.51,0.59l-0.46-0.53L82.06,179.58z M117.18,184.65l0.9-0.97
	c0.54-1.28,1.72-0.22,2.46,0.07c0.83,0,1.57-0.21,1.93-0.96c0.39-0.75-0.05-1.5-0.36-2.03l-0.44-0.45l-2.02-0.46
	c-0.36,1.57-1.72,2.86-2.67,4.06L117.18,184.65 M120.27,181.51l1.7,0.32c0.14,0.66-0.45,0.89-0.75,1.12l-1.05-0.68L120.27,181.51
	 M163.49,186.4c0.23-0.3,0.76-0.99,1-0.25l-0.48,0.92L163.49,186.4 M166.57,187.82l-0.45,0.68l-0.84-0.61l0.84-0.76L166.57,187.82z
	 M91.26,191.12c0.74,0,0.6,0.91,0.54,1.42c-0.32,0.76-0.6,1.52-1.42,1.8h-1.66l-0.15-0.95C89.63,192.69,90.28,191.72,91.26,191.12
	 M94.62,196.85l-0.22,0.81l-0.68-0.46 M149.8,199.82l-0.52,0.61l-0.42-0.53l0.52-0.46L149.8,199.82z M118.15,204.64
	c-0.76-0.54-1.39-0.89-1.39-1.96c0.22-0.66,0.22-1.42,1.01-1.65l0.52,0.99C118.22,202.92,118.81,204.1,118.15,204.64 M149.75,201.33
	c0.36-0.45,1.41-0.45,1.58,0.3l-0.32,1.29l-0.81,0.07C150.03,202.46,149.54,202.01,149.75,201.33 M120.4,202.24
	c2.01,0.68,3.53,3.98,5.77,1.82l2.15-1.6l0.29,0.22c-0.2,0.97,0.1,2.25-0.66,2.92c-2.4,0.3-5.01,0.23-7.33-0.22
	C120.27,204.48,120.12,203.22,120.4,202.24 M130.49,202.61l1.65,0.68c0.22,0.95-0.53,1.42-1.13,1.79l-0.61,0.08
	C130.17,204.41,130.4,203.45,130.49,202.61 M132.13,207.13c0.97,0.88,1.64,1.94,1.19,3.43c-2.09,3.84-7.15,3.74-11.44,3.54
	c-2.15-0.51-4.78-1.03-5.97-3.01c-0.44-1.28-0.23-3.13,0.66-4.04l0.46-0.17C121.59,208.32,127.35,208.62,132.13,207.13"/>
<path fill="#881C1C" d="M244.17,87.81c-6.12-20.1-17.16-37.51-31.45-51.85c-7.04-7.12-14.94-12.84-23.46-18.27
	C169.86,5.98,145.73-0.38,120.99,0.6V0.51C92.83,1.79,67.74,11.48,47.71,27.4c-14.5,11.69-26.99,26.87-35.17,44.14
	C4.81,87.36,0.5,106,0.5,125.36c-0.08,17.93,4.24,35.96,11.18,51.34c13.76,30.41,39.2,53.9,71.07,65.47
	c11.27,4.12,23.43,6.61,36.44,7.28l0.74-0.14c14.26,0.9,29.51-1.52,42.43-5.63c28.49-9.06,52.44-28.09,68.07-52.53
	c8.36-13.85,13.95-28.01,17.08-44.55C251.06,127.3,249.79,105.53,244.17,87.81 M245,112.67h0.44c0,4.43,0.23,8.64,0.45,12.92
	l-4.19,0.3v-0.99c1-0.21,2.02-0.64,2.55-1.71c0.51-1.28,0.51-3.08,0.09-4.51l-5.82,0.14c0,0.89,0.06,1.95,0.74,2.65
	c0.51,0.5,1.18,0.66,1.91,0.59v0.95c-2.08-0.05-4.17,0.08-6.2,0.22l-0.06-0.97c0.9-0.2,1.87-0.36,2.31-1.33
	c0.17-0.61,0.3-1.29,0.17-2.02c-2.18,0.43-5.6-0.92-6.35,1.86c-0.15,1.89-0.07,3.99,1.87,4.89l1.78,0.54v0.89
	c-1.49,0.15-3.07-0.1-4.46,0.15c-0.39-4.5-0.17-9.4-0.61-13.99l0.83-0.05c0.05,0.75,0.05,1.42,0.66,1.87l0.91,0.31l11.5-0.46
	l1.03-1.05L245,112.67 M243.21,99.99c0.82,1.57,1.05,3.9,0.16,5.49l0.98,0.15l0.12,0.95c-1.31,0.32-2.76,0.69-4.09,0.97
	c-1.06-1.26,0.9-1.18,1.33-2.07c1.05-1.05,1.45-2.69,0.83-4.06c-0.31-0.59-0.83-1.27-1.57-1.34c-0.8,0-1.65,0.28-2.02,1.05
	c-1.41,3.08-0.95,8.26-5.59,8.69c-1.34,0.23-2.62-0.22-3.6-1.05c-1.55-1.49-2.22-3.47-2-5.63c0.06-0.91,0.45-1.72,0.76-2.45
	l-1.22-0.07l-0.23-1.08l4.87-0.9l0.14,0.9c-1.62,0.83-3.51,2.48-3.34,4.61c0.05,0.96,0.45,1.7,1.1,2.36c0.61,0.55,1.59,0.71,2.4,0.4
	c2.9-1.65,1.46-5.65,3.66-7.88c1.19-1.44,3.12-1.74,4.85-1.28C241.7,98.12,242.83,99.01,243.21,99.99 M234.4,75.14l-0.16-0.45
	l0.9-0.07l2.39,6.44l0.39,0.92l-0.77,0.37c-0.2-0.6-0.53-1.37-1.25-1.57h-1.12c-3.23,1.42-6.67,2.09-9.49,4.26
	c-0.83,0.83-0.9,2.18-0.59,3.23c0.43,1.57,1.49,3.29,3.11,3.75c1.28,0.3,2.42-0.06,3.45-0.45c2.39-1.11,5.09-1.64,7.26-3.35
	c0.74-0.66-0.6-2.26,0.85-2.26l2.05,5.26c-1.13,1.19-1.06-1.2-2.26-1.07l-1.34,0.15c-4.13,0.84-8.74,5.35-12.84,1.36
	c-1.8-2.32-3.08-5.26-2.24-8.33c1.03-2.48,3.73-3.29,5.99-4.12l4.92-1.96C234.48,76.86,234.64,75.96,234.4,75.14 M222.39,54.48
	L222,53.89l0.66-0.52l4.36,6.92l-0.76,0.43l-1.35-1.26c-1.93,0.3-3.44,1.8-5.17,2.78l3.69,6c1.48-0.84,3.14-1.72,4.54-2.95
	l0.07-1.73l-0.36-0.58l0.75-0.43c1.2,2.39,2.85,4.57,4.27,6.89l-0.67,0.53c-0.32-0.53-0.75-1.18-1.44-1.36L229.32,69l-9.34,5.91
	l-0.39,1.9l0.39,0.66l-0.66,0.46l-4.34-7c1.04-1.28,1.11,1.28,2.3,0.91c1.86-0.51,3.46-1.96,5.17-2.84
	c-1.21-2.05-2.47-4.15-3.82-6.11l-4.57,3.01l-0.13,1.8l0.38,0.59l-0.68,0.47l-4.41-7.02c1.05-1.33,1.05,0.86,1.94,0.86l1.2-0.17
	l9.54-6.01L222.39,54.48 M202.94,43.54c2.09-1.96,4.87-2.87,7.62-2.18c2.16,0.45,4.19,2.04,5.37,4.03c0.54,0.85,0.84,1.81,0.88,2.87
	l1.28-0.61l0.69,0.68l-3.51,3.61l-0.69-0.69c1.06-1.4,1.43-3.64,0.47-5.24c-0.92-1.49-2.4-2.4-4.06-2.19
	c-3.13,0.4-6.03,3.02-7.46,5.86c-0.76,1.42-0.76,3.54,0.36,4.72c1.07,1.36,2.55,2.18,4.19,1.8c0.97-0.14,1.81-0.58,2.61-1.04
	l0.7,0.61l-3.9,3.74c-1.05-0.52-0.29-1.26,0-1.95c-2.83-0.36-5.89-3.08-6.81-5.92C199.73,48.71,200.69,45.54,202.94,43.54
	 M198.7,28.97l1.03,0.68l-3.89,14.58c-0.3,0.96,0.3,1.71,0.88,2.38l-0.42,0.6c-2.1-1.57-4.19-3.31-6.44-4.72l0.45-0.66
	c0.6,0.06,1.27,0.88,2.02,0.45c0.75-0.9,0.89-2.05,1.18-3.09c-1.28-1.2-2.73-2.26-4.25-3.28c-0.81,0.64-2.02,0.96-2.53,2.08
	c-0.54,1.11,2.02,1.66,0.51,2.48l-4.56-3.46l0.53-0.68c1.8,1.22,3.57-0.3,5.09-1.14L198.7,28.97z M174.77,29.43
	c0,1.55,1.19,3,2.63,3.61c0.82,0.2,1.87,0.13,2.53-0.45c0.68-0.61,0.96-1.49,0.75-2.44c-0.88-2.9-4.48-4.85-3.57-8.31
	c0.45-1.57,2.01-3.13,3.66-3.31c2.55-0.13,4.99,1.19,5.98,3.54l0.68-0.62l0.9,0.46l-1.96,3.84c-1.34-0.22-0.46-1.23-0.67-2.11
	c-0.07-1.14-0.38-2.09-1.28-2.86c-0.65-0.59-1.49-0.96-2.46-0.84c-0.74,0.08-1.28,0.84-1.5,1.51c-0.15,2.41,2.3,3.84,3.2,5.86
	c0.66,1.1,1.04,2.56,0.61,3.91c-0.47,1.59-2.04,3.23-3.75,3.39c-2.3,0.27-4.16-0.54-5.75-2.18c-0.51-0.62-0.89-1.28-1.13-2.03
	l-0.97,0.9l-0.89-0.53l2.38-4.37C175.81,26.73,174.33,28.4,174.77,29.43 M160.66,20.61c1.63,0,0.37,2,0.88,2.87
	c0.22,0.97,0.62,2.06,1.56,2.64c0.83,0.54,1.81,0.9,2.93,0.61c0.68-0.14,1.34-0.84,1.57-1.52c0.67-3.98-5.61-5.3-4.65-9.52
	c0.23-1.49,1.44-3.24,3.01-3.62c2.51-0.59,5.22,0.38,6.56,2.71l0.67-0.76l0.88,0.38l-1.49,4.04l-0.88-0.38
	c0.2-1.57-0.15-3.29-1.59-4.28c-0.74-0.43-1.65-0.8-2.53-0.53c-0.75,0.16-1.27,1-1.35,1.67c0,2.4,2.94,3.67,4.06,5.6
	c1.18,1.44,1.18,3.7,0.26,5.27c-0.95,1.74-2.67,2.49-4.54,2.41c-2.24-0.23-4.5-1.35-5.46-3.54l-0.81,1l-0.97-0.39L160.66,20.61z
	 M141.24,19.94c2.09,0.41,3.28-1.86,4.39-3.28l7.02-9.61l1.07,0.3l2.24,15.02c0.05,0.9,0.97,1.42,1.73,1.79l-0.22,0.77
	c-2.55-0.77-5.17-1.45-7.79-1.96l0.14-0.75c0.61-0.07,1.88,0.39,2.19-0.52c0.21-1.21-0.17-2.19-0.25-3.3l-5.01-1.21
	c-0.65,0.81-1.64,1.72-1.64,3c0.08,1.2,2.42,0.59,1.42,1.95l-5.51-1.36L141.24,19.94z M121.28,18.17l0.48-1.12l0.44-11.27
	c-0.44-0.84-1.34-1.08-2.18-1.13l-0.08-0.83l5.61,0.15l4.35,11.41l4.77-11.04l5.66,0.16v0.81c-0.72,0-1.43,0-1.85,0.53l-0.45,1.06
	l-0.36,10.56c0,0.82,0.36,1.75,1.24,1.95l0.85,0.17l0.08,0.82c-2.77-0.06-5.39-0.39-8.17-0.22v-0.9c0.78-0.08,1.75-0.08,2.12-1
	c0.51-3.14,0.31-6.74,0.51-10.05c-1.81,3.75-3.44,7.9-5.24,11.87c-0.45-0.2-1.28,0.24-1.28-0.44l-4.46-12.02l-0.22,9.61
	c0,0.69,0.44,1.44,1.19,1.65l0.83,0.15v0.85l-5.67-0.24C118.96,18.22,120.91,19.13,121.28,18.17 M107.48,5.24l0.95,3.98l-0.79,0.15
	c-0.48-0.81-1.29-1.93-2.34-2.17c-1.49-0.3-2.83,0.14-4.19,0.45l-0.31,0.31l1.13,5.83c0.91-0.09,2.09-0.3,2.54-1.35l0.3-1.86
	l0.82-0.16c0.38,2.02,0.76,4.12,1.28,6.15l-0.91,0.17c-0.22-0.7-0.85-1.8-1.8-2.06l-2,0.25l1.1,5.26l1.07,0.87l1.41-0.13l0.14,0.83
	c-2.71,0.51-5.45,0.9-8.14,1.56l-0.16-0.72c0.6-0.23,1.59-0.39,1.87-1.21l-0.14-2.04l-2.1-10.06l-1.12-0.9L94.9,8.56l-0.14-0.82
	C99.04,7.05,103.19,6.09,107.48,5.24 M75.11,17.63c1.36-3.53,5.01-5.63,8.52-5.99c3.23-0.21,6.22,1.27,7.75,4.11
	c1.13,1.93,1.45,4.79,0.48,6.92c-1.44,3.29-4.8,5.32-8.15,5.75c-3.29,0.32-6.29-1.02-7.91-3.96C74.75,22.5,74.23,19.83,75.11,17.63
	 M54.15,27.25l0.52,0.59c-0.52,0.46-1.21,1.13-0.89,1.8c1.83,1.51,4.25,2.27,6.33,3.39c-0.14-2.42-0.08-4.98-1.03-7.08l-1.59-0.15
	l-0.43,0.37l-0.45-0.64l4.19-3.16c0.9,0.51,0,1.04-0.16,1.64c0.16,3.23,0.45,6.54,0.82,9.67c1.05,1.29,1.78,2.92,3.29,3.85
	c0.96,0.44,1.8-1.64,2.33-0.11c-2.17,1.61-4.5,3.18-6.63,4.97l-0.54-0.66c0.54-0.45,1.1-0.92,1.19-1.58
	c-0.23-1.59-1.57-2.73-2.37-4.04l-8.77-3.97c-0.8-0.34-1.71,1.02-1.99-0.4C50.09,30.4,52.11,28.84,54.15,27.25 M44.66,34.37
	c1.1,0.91,2.15,2.04,3.29,3c-0.47,1.81-1.44-0.22-2.34-0.05c-1.71-0.4-2.99,0.59-3.96,1.94l0.09,0.44l8.88,8.48l1.54-0.07l0.91-0.74
	l0.59,0.52c-2.07,1.96-3.94,4.05-5.9,6.07l-0.58-0.53c0.52-0.61,1.33-1.27,0.98-2.18c-2.78-3.15-5.99-6.07-8.98-8.85
	c-0.91,0.08-1.64,0.89-2.15,1.67c-0.77,1.32,0,2.85,0.73,3.98l-0.68,0.74l-3.06-3.25C37.38,41.82,41.05,38.11,44.66,34.37
	 M31.34,48.71l0.67,0.46c-0.37,0.68-0.96,1.4-0.43,2.24l0.97,0.97l8.67,6.48l1.77-0.62l0.91-0.08l0.14,0.08l-4.84,6.54l-0.67-0.45
	c0.36-0.6,0.88-1.36,0.52-2.1l-1.05-1.13l-8.52-6.31h-1.41l-0.97,0.89l-0.61-0.43C28.21,53.05,29.85,50.9,31.34,48.71 M21.19,63.2
	c0.65-0.89,1.56-1.81,2.61-2.02l-0.67-0.76l0.51-0.91l3.72,2.12l-0.42,0.91c-1.65-0.61-3.54-0.3-4.73,1.01
	c-0.57,0.71-0.81,1.66-0.66,2.59c0.22,0.74,0.97,1.14,1.57,1.33c2.45-0.07,4.03-2.45,6.17-3.29c1.5-0.81,3.59-0.44,4.96,0.52
	c1.55,1.21,2,3.01,1.71,4.95c-0.45,2.12-2.17,4.51-4.4,4.97l0.88,0.97l-0.45,0.83c-1.48-0.66-2.92-1.67-4.34-2.56
	c0.39-1.51,2.02-0.06,3.07-0.45c1.1,0,2.02-0.44,2.85-1.26c0.67-0.77,1.03-1.65,0.9-2.71c-0.08-0.88-0.9-1.65-1.65-1.86
	c-3.29-0.53-4.93,3.36-8.08,3.45c-1.79,0.05-3.41-0.91-4.32-2.48C19.53,66.8,20.23,64.7,21.19,63.2 M14.83,76.95
	c1.37-1.73,4.1-1.6,5.54-0.14c0.9,1.13,1.28,2.61,0.9,4.04l8.13-2.4c0.52-0.38,0.82-1.12,1.58-0.51c-0.68,1.4-1.35,2.84-1.8,4.41
	c-2.92,0.87-6.12,0.87-8.73,2.69l-0.14,0.47l4.56,1.78c0.73,0.26,1.5-0.27,1.79-0.97l0.21-0.51l0.76,0.23
	c-0.97,2.51-2.09,5.02-2.98,7.63l-0.82-0.28c0.29-0.61,0.58-1.43,0.13-2.12l-1.26-0.82l-9.93-3.97c-0.82-0.25-1.56,0.35-1.87,1.07
	l-0.15,0.51l-0.83-0.3C11.78,84.23,12.29,80.17,14.83,76.95 M8.24,93.76l4.12,0.66l-0.2,0.99c-1.04,0.06-2.19,0.14-2.94,1.13
	c-0.8,1.2-1.16,2.7-1.1,4.28c1.79,0.51,3.75,0.82,5.61,1.28c0.36-0.77,0.29-1.75,0.05-2.58c-0.36-0.66-1.11-1.03-1.78-1.19l0.16-0.9
	c2.02,0.46,4.05,1,6.11,1.3l-0.12,0.9c-0.97,0.06-1.94,0-2.56,0.73c-0.46,0.61-0.53,1.29-0.75,1.97c1.95,0.38,3.9,1.21,5.85,0.73
	c1.25-1.11,1.41-2.83,1.25-4.43c-0.09-1.35-1.63-2.15-2.62-2.69l0.16-0.9l4.46,0.98c-0.88,4.58-2.15,9.02-2.82,13.66l-0.82-0.09
	l-0.17-1.96l-0.82-0.51l-11.26-2.4l-1.51,1.04l-0.21,0.82l-0.76-0.35C6.7,102.17,7.45,97.96,8.24,93.76 M4.52,118.43h0.81
	c0,0.85-0.05,1.76,0.69,2.06c2.39-0.06,4.63-1.13,7.03-1.66c1.04-0.4,2.08-0.6,3.16-1.03c-3.16-1.28-5.98-3.31-9.42-4.01
	c-0.96,0.17-1.07,1.21-1.22,1.97l-0.82-0.07l0.39-6.01l0.75,0.09c0.07,0.87,0.53,1.86,1.39,2.38l13.41,6.78l-0.1,1.04l-14.76,4.8
	c-1.22,0.37-0.3,2.42-1.82,1.96L4.52,118.43z M4.81,138.06c0-2.72-0.29-5.27-0.5-7.9l0.82-0.08c0,0.75,0.2,1.59,0.96,1.95
	c4.13,0,8.23-0.3,12.25-0.75l0.89-1.12l0.08-1.13l0.82-0.06c0.1,2.76,0.24,5.47,0.55,8.17l-0.83,0.09
	c-0.08-0.77-0.14-1.65-0.97-1.95l-1.51-0.16l-10.44,0.8l-1.21,1.08l-0.08,1.21L4.81,138.06 M9.01,160.34
	c-0.23-1.72-0.6-3.29-1.03-4.96c2.9-3.8,5.67-7.67,8.64-11.47l-0.14-0.09l-7.98,1.9l-1.28,1.47l0.05,1l-0.82,0.14
	c-0.36-1.8-0.57-3.67-1.13-5.48c1.37-0.9,0.85,1.5,2.21,1.43l1.91-0.15c4.04-0.84,8.08-1.66,12.12-2.56l0.22,1.13l-9.79,13.3
	l9.04-2.04c0.75-0.2,1.41-0.97,1.41-1.72v-0.82l0.82-0.15c0.29,1.87,0.66,3.69,1.19,5.47l-0.91,0.15c-0.15-0.59-0.5-1.41-1.26-1.57
	h-1.48l-9.87,2.12c-0.82,0.74-1.32,1.57-1.13,2.69L9.01,160.34z M19.1,179.4l-0.69,1.5l0.32,1.05l-0.76,0.3l-3.36-7.5l0.67-0.3
	c0.38,0.45,0.75,1.42,1.5,1.51l1.19-0.14l7.85-3.62c0.82-0.53,1.73-1.29,1.85-2.25c0.16-2.09-0.66-3.99-2.37-5.26
	c-0.84-0.59-2.09-0.66-3.14-0.36c-2.76,1.36-5.82,2.16-8.3,4.13c-0.97,0.75,0.62,2.4-0.88,2.45l-2.33-5.16l0.76-0.31l1.43,1.2
	l1.34-0.05c4.24-1.29,10.53-6.91,14.12-0.69c1.18,2.32,2.76,5.95,0.6,8.35C25.98,176.86,22.3,177.54,19.1,179.4 M40.76,210.57
	l-5.36-5.99l0.59-0.53c0.59,0.43,1.18,1.18,1.93,0.88c0.88-0.84,1.28-1.94,1.79-2.93l-3.59-3.9c-1.03,0.46-2.3,0.6-2.99,1.65
	c-0.58,1.07,1.73,1.8,0.08,2.48c-1.2-1.49-2.4-2.93-3.82-4.28l0.68-0.61c1.65,1.67,3.82,0.16,5.53-0.27l11.06-3.92l0.82,0.83
	l-6.66,13.82c-0.37,0.84,0.15,1.56,0.6,2.23L40.76,210.57z M58.75,225.86c-2.07-1.72-4.17-3.52-6.33-5.15l0.54-0.53
	c0.58,0.23,1.4,0.82,2.24,0.37c2.46-2.4,4.32-5.15,6.5-7.74c-3.75,1.98-7.54,4.22-11.3,6.23l-0.87-0.67
	c1.25-4.19,2.44-8.4,3.72-12.59c-2,2.38-4.18,4.85-5.99,7.5v1.96l0.61,0.74l-0.51,0.59c-1.43-1.18-2.85-2.47-4.35-3.52
	c0.38-1.72,1.67,0.66,2.71-0.25c2.9-2.91,5.15-6.22,7.76-9.29c0.08-0.97-0.43-1.67-1.04-2.25l0.45-0.61l4.33,3.52l-3.35,11.63
	l10.46-5.91c1.4,1.34,2.89,2.45,4.4,3.58l-0.46,0.62c-0.6-0.31-1.26-0.97-2.1-0.62l-1.25,1.23l-6.36,7.94l-0.09,1.6
	C58.75,224.82,59.65,225.29,58.75,225.86 M80.26,235.93l0.83,0.46l-0.37,0.66l-7.38-3.52l0.37-0.67c0.59,0.23,1.62,0.67,2.32,0
	c1.12-1.55,1.8-3.31,2.61-5.03l-6.35-3.15c-0.82,1.88-2.01,3.54-2.3,5.62c-0.09,1.05,2.14,1.01,1.11,2.03l-7.34-3.49l0.3-0.71
	c0.59,0.17,1.63,0.71,2.24,0c2.08-3.44,3.68-7.12,5.37-10.8l-0.58-1.65l-0.76-0.43l0.29-0.68c2.36,1.19,4.86,2.4,7.33,3.51
	l-0.3,0.77l-2.17-0.15c-1.27,1.5-1.78,3.31-2.68,4.94l6.33,3.09c0.82-1.72,1.95-3.28,2.24-5.34c-0.08-0.66-0.91-1.14-1.42-1.42
	l0.29-0.68l7.34,3.52l-0.23,0.75c-0.68-0.23-1.72-0.75-2.31-0.06c-2.04,3.52-3.68,7.2-5.39,10.79
	C79.47,234.97,79.77,235.56,80.26,235.93 M100.69,231.31c-1.45,0.11-0.62-1.28-0.99-2.05c-0.6-2.09-2.9-2.55-4.71-2.86l-0.36,0.4
	l-1.59,5.16c0.75,0.38,1.81,0.54,2.7,0.25l1.25-1.65l0.84,0.23l-1.86,6.06l-0.8-0.3c0-0.97,0.13-2.01-0.6-2.61l-1.83-0.83
	c-0.4,1.88-1.62,3.68-1.27,5.78c0.92,1.27,2.5,1.57,4.05,1.63c1.42,0.09,2.47-1.24,3.17-2.38l0.88,0.22
	c-0.52,1.42-1.04,2.86-1.36,4.41l-13.29-4.1l0.16-0.77l2.09-0.08l0.66-1.11l3.13-10.66c0.17-0.74-0.44-1.28-0.95-1.59l-0.75-0.2
	l0.21-0.82c4.04,1.49,8.3,2.53,12.34,3.82L100.69,231.31z M119.8,245.7l-4.71-0.53c-1.56-2.56-2.39-5.57-4.77-7.72l-0.7,0.12
	c-0.07,1.9-0.67,3.75-0.22,5.57l1.79,0.76l-0.08,0.74c-2.58-0.36-5.36-0.69-8.05-0.97v-0.76l2.07-0.52l0.39-0.98l1.36-11.13
	l-1.13-1.42l-0.91-0.14l0.08-0.82c3.86,0.96,8.44,0.3,11.93,2.1c1.07,0.58,1.67,1.64,1.74,2.78c0.21,1.65-0.58,3.07-2.02,3.73
	c-0.66,0.3-1.32,0.52-2.08,0.52l4.19,7.06l1.25,0.84L119.8,245.7z M132.48,244.88c-1.63,0.9-3.94,1.05-5.67,0.37l-1.56-0.96
	l-0.36,1.2l-1.06,0.04l-0.15-5.02h0.97c0.46,1.75,1.71,3.84,3.66,4.06c1.03,0.13,2.09-0.07,2.84-0.77c0.69-0.66,0.81-1.55,0.62-2.47
	c-1.75-3.29-6.44-2.07-7.84-5.94c-0.4-1.47-0.32-3.26,0.73-4.48c1.52-1.58,3.57-1.85,5.75-1.5l1.8,0.89l0.28-0.89l1-0.08l0.29,4.36
	h-0.99c-0.35-1.42-1.55-3-3.04-3.31c-1.03-0.08-2.18-0.08-2.85,0.77l-0.38,1.88c1.21,2.25,3.89,2.09,5.76,3.37
	c1.57,0.79,2.68,2.38,2.61,4.11C134.95,242.4,134.08,243.95,132.48,244.88 M152.14,230.82c-0.31-0.97-1.05-1.99-2.02-2.47
	c-1.05-0.43-2.25-0.14-3.22,0.09v1.78l2.17,10.74l1.5,0.82l0.94-0.14l0.23,0.79l-8.34,1.67l-0.16-0.82
	c0.74-0.14,1.63-0.31,1.99-1.12v-1.26l-2.21-11.36c-0.76-0.38-1.59,0-2.31,0.08c-0.9,0.22-1.73,1.15-1.89,2.03l-0.17,1.73l-1,0.3
	l-0.7-4.51l15.12-2.98l1.03,4.41L152.14,230.82z M154.46,221.06c-12.1,4.08-26,5.34-39.73,4.08c-10.25-1.06-19.87-3.68-28.93-7.52
	c-1.55-0.59-3.2-1.12-4.62-2.09c-9.5-4.14-17.85-10.16-25.4-17.13c-1.94-1.87-4.26-4.29-6.26-6.3c-3.46-4.05-6.53-8.25-9.35-12.75
	c-7.79-12.54-13.37-27.24-15.24-43.35C20.82,97.27,37.7,65.02,64.21,44.52c22.57-18.03,56.11-25.69,86.97-17.41
	c19.2,5.04,35.79,15.59,48.55,29.48c3.82,4.13,6.97,8.11,10.09,12.84c11.86,18.12,18.52,41.83,15.53,66.39
	c-2.33,19.73-9.71,36.08-20.47,50.65c-4.79,6.17-9.8,11.36-15.69,16.08l-0.23,0.38C178.65,211.08,167.45,217.18,154.46,221.06
	 M176.66,233.75l-0.46-0.66c0.54-0.37,1.35-0.68,1.41-1.43l-0.51-1.58l-4.78-8.92c-0.4-0.67-1.21-0.3-1.65-0.15l-0.77,0.37
	l-0.34-0.75c1.48-0.97,2.89-2.38,4.08-3.75l6.66,12.39c0.37,0.77,1.25,0.91,1.86,0.6l0.76-0.36l0.3,0.67L176.66,233.75z
	 M195.7,220.48c-0.29,2.03-2.01,3.81-3.81,4.56c-1.38,0.62-3.38,0.82-4.71-0.13c-0.91-0.66-1.33-1.65-1.33-2.71
	c-0.1-1.2,0.42-2.15,0.94-3.16c-1.94,0.08-3.78-0.52-4.77-2.32c-0.91-1.42-0.51-3.53,0.45-4.79c1.63-2.1,4.94-3.54,7.18-1.44
	c0.6,0.67,0.97,1.5,0.73,2.47c-0.06,0.76-0.29,1.43-0.66,2.04c1.94-0.07,3.88,0.39,5.08,2.03
	C195.46,217.97,195.94,219.21,195.7,220.48 M206.91,212.08c-0.46,1.86-2.24,3.59-4.18,3.82c-4.2,0.13-7.54-3.97-9.04-7.45
	c-0.85-1.7-0.76-4.21,0.44-5.77c0.9-1.27,2.08-2.17,3.58-2.3c0.64,0,1.34,0.28,1.66,0.97l-0.23,1.33c-1.5,1.73-3.36-1.82-4.43,0.77
	c-0.07,2.11,1.59,3.67,2.8,5.25c0.2-1.15,0.74-2.18,1.78-2.86c1.34-1.05,3.37-1.05,4.7-0.23
	C206.3,207.05,207.41,209.52,206.91,212.08 M216.63,202.38c-0.69,1.8-2.49,3.61-4.52,3.83c-0.57-0.07-1.33-0.3-1.55-1.05l0.53-1.5
	c1.42-1.06,3.66,1.41,4.41-1.06c0.37-1.42-0.75-2.57-1.74-3.58c-0.89-0.76-1.87-1.67-3.11-1.52l-1.06,1.07
	c-0.15,0.81,0.89,2.09-0.45,2.39c-1.65-0.45-0.23-2.25-0.51-3.52c0-1.65-0.83-3.17-2.33-3.98l-2.25,0.15
	c-0.6,0.45-0.6,1.34-0.45,2.03l1.06,1.13l1.12-0.83l0.22-0.3l0.74,0.9c0.08,0.76,0,1.49-0.57,2.04c-0.54,0.57-1.42,0.74-2.18,0.35
	c-1.21-0.66-1.64-2.03-1.5-3.29c0.24-1.96,1.37-3.84,3.14-4.67c1.19-0.53,2.76-0.31,3.59,0.83c1.27,1.43,0.6,3.68,0.23,5.27
	c0.9-1.43,2.46-2.49,4.26-2.27c1.21,0.15,2.17,1.03,2.84,2.05C217.49,198.4,217.36,200.74,216.63,202.38 M234.53,177.24
	c-0.51,0.75-1.25,1.43-2.01,1.81l0.68,0.66l-0.45,0.88l-3.88-1.63c-0.08-1.66,1.44-0.36,2.24-0.89c1.41-0.16,2.76-1.28,3.13-2.64
	c0.16-0.67,0.08-1.51-0.45-2.1c-0.51-0.6-1.31-0.75-2.18-0.53c-2.83,1.52-4.93,5.42-8.72,4.35c-1.65-0.45-3.23-2.09-3.36-3.82
	c-0.21-2.26,0.45-4.19,2-5.7l1.8-1.14l-0.94-0.89l0.44-0.99l4.46,2.2l-0.44,0.82c-1.78-0.29-3.75-0.2-5.01,1.2
	c-0.6,0.82-1.1,1.73-0.89,2.84c0.08,0.84,0.66,1.44,1.44,1.82c3.4,0.97,4.98-3.91,8.11-4.14c1.97-0.2,3.74,0.69,4.71,2.32
	C236.12,173.48,235.59,175.74,234.53,177.24 M238.73,166.81l-4.33-1.13l0.29-1.08c1.5,0.33,3.06-0.06,3.9-1.47
	c0.14-0.74,0.96-1.66,0.36-2.43l-11.88-3.52c-0.74-0.08-1.27,0.74-1.5,1.36l-0.2,0.59l-0.75-0.38l2.46-8.04l0.75,0.25v2.16
	l1.14,0.69l11.21,3.37c0.66-1,1.33-2.31,0.8-3.61c-0.44-0.96-1.42-1.57-2.24-2.08l0.21-0.93l4.34,1.44L238.73,166.81z
	 M244.11,146.84l-4.47-0.3l0.06-1.07c1.13,0,2.18-0.22,2.92-1.11c0.83-0.82,0.83-1.95,0.97-3.08l-0.44-0.4l-12.05-1.33l-1.27,0.9
	l-0.22,1.21l-0.84-0.09c0.48-2.79,0.76-5.65,1.06-8.48l0.84,0.14c-0.11,0.9-0.23,2.04,0.75,2.41c4.08,0.75,8.27,1.2,12.4,1.49
	c0.58-0.99,0.81-2.63,0.14-3.65c-0.59-0.93-1.65-1.29-2.52-1.65l0.06-1.01l4.48,0.66L244.11,146.84z M151.52,17.05l-4.08-0.98
	l3.42-4.74 M83.2,26.73c-3.23-1.66-4.43-5.12-4.95-8.43c-0.13-1.36,0.07-2.69,0.99-3.74c1.18-1.13,2.75-1.66,4.39-1.29
	c1.44,0.39,2.61,1.83,3.37,3c1.34,2.64,2.99,6.33,0.97,9.09C86.7,26.73,84.9,27.32,83.2,26.73 M193.9,37.76
	c-1.1-0.84-2.23-1.65-3.36-2.57l4.93-3 M19.9,81.67c0.39,1.28-0.28,2.34-0.67,3.38l-5.82-2.42c0-1.18,0.69-2.59,2.03-3.13
	C17.23,79.19,19.1,80.04,19.9,81.67 M42.86,195.65l-2.53,5.17l-2.83-3.16 M199.96,207.32c2.08,0.3,3.6,2.65,4.79,4.25l0.14,2.09
	l-1.74,0.52c-1.84-0.9-3.19-2.84-4.6-4.42c-0.18-0.76,0.06-1.44,0.52-1.96L199.96,207.32 M187.84,212.13
	c0.68,0.84,1.13,1.82,0.92,2.94c-1.34,0.3-3.01,0.96-4.49,0.3c-0.61-0.35-1.14-0.97-1.14-1.72c-0.06-0.9,0.45-1.52,0.97-2.03
	C185.24,210.63,187.03,211.04,187.84,212.13 M187.93,218.9c1.64-0.38,4.09-1.29,5.53,0.43c0.52,0.61,0.73,1.44,0.52,2.26
	c-0.08,0.92-0.89,1.7-1.75,2.12c-0.64,0.3-1.71,0.44-2.44,0.07c-1.48-0.82-2.24-2.5-2.02-4.22L187.93,218.9 M113.82,230.61
	c1.21,1.05,0.9,3.02,0.45,4.36c-0.31,0.76-1.13,1.2-1.8,1.43c-0.9,0.07-1.78,0-2.64-0.15l0.92-6.31
	C111.82,229.71,112.92,230.02,113.82,230.61"/>
</svg>
