<svg xmlns="http://www.w3.org/2000/svg" height="243.29" width="250" viewBox="0 0 564.81486 549.64452">
 <g>
  <path fill="#101820" d="m472.74 458.62c-4.6153 0.16664-3.2528 2.8725-3.2528 2.8725 2.3884-1.0151 5.3589 0 5.3589 0 4.0857-0.50253 0.25546-2.7704 0.25546-2.7704-0.92484-0.0952-1.7022-0.12595-2.3615-0.10214zm-381.65 0c-0.65232-0.0238-1.4238 0.006-2.3389 0.10214 0 0-3.7907 2.2677 0.24979 2.7704 0 0 2.9427-1.0151 5.3022 0 0 0 1.3531-2.7058-3.213-2.8725zm-41.63-71.69c-1.5845 0.0351-2.1174 0.85153-2.1174 0.85153 6.8169 3.2816 19.438 18.183 19.438 18.183 2.5266-1.0126 1.7655-5.3022 1.7655-5.3022-10.887-11.676-16.445-13.791-19.085-13.732zm465.35-0.37309c-2.6402-0.0593-8.2026 2.0504-19.092 13.727 0 0-0.75974 4.292 1.7655 5.3022 0 0 12.624-14.895 19.438-18.177 0 0-0.52768-0.81599-2.1118-0.85153zm-383.98-1.4306c-0.009 1.3368 0.0342 2.848 0.15328 4.5925 0.34007-0.0116 0.67424-0.00092 1.0105 0-0.85875-0.001-1.723 0.0205-2.6057 0.10215 0.72394-1.5088 1.196-3.1173 1.4419-4.6947zm300.95-0.59608c0.43122 1.7798 1.3812 3.4976 2.8838 5.1262 0.30905 0.22615 0.56768 0.44118 0.87423 0.66987-1.3776-0.0875-2.6806-0.10228-3.9511-0.0795 0.18218-2.0529 0.26417-3.8985 0.23275-5.5292-0.0163-0.062-0.0246-0.12517-0.0397-0.18735zm-317.3-45.38c-0.16566-0.13027-0.60948 0.0879-1.493 0.90828 0 0-5.5541 0.25424-12.37 25.25 0 0-1.5137 9.0846 0.50523 9.3384 0 0 2.7758-0.50635 2.2707-7.8284 0 0 2.2707-4.2925 2.2707 4.5471 0 0 3.2812 1.7687 3.2812-3.2869 0 0-2.0175-18.424 4.0419-24.989 0 0 1.99-3.5489 1.493-3.9398zm335.31-0.38595c-0.49717 0.39008 1.493 3.9398 1.493 3.9398 6.0581 6.5632 4.0363 24.995 4.0363 24.995 0 5.0506 3.2869 3.2812 3.2869 3.2812 0-8.8372 2.2707-4.5415 2.2707-4.5415-0.50382 7.322 2.2707 7.8227 2.2707 7.8227 2.0189-0.25127 0.50521-9.3384 0.50521-9.3384-6.8169-24.994-12.37-25.245-12.37-25.245-0.88382-0.82036-1.3273-1.044-1.493-0.91395zm-376.72-64.68c-0.39952 0.84426-0.71928 1.7391-0.92533 2.6739-2.1823 0.53772-5.9899 2.0118-10.485 6.0799 0 0 0.48347-2.6535 1.6292-6.9427 3.6899 0.65833 6.9481-0.1217 9.7811-1.8109zm418.15-0.37467c2.8343 1.6892 6.0944 2.4693 9.7869 1.8109 1.1458 4.2916 1.6292 6.9427 1.6292 6.9427-4.4977-4.068-8.3028-5.5453-10.485-6.0855-0.20605-0.93472-0.53021-1.8239-0.93099-2.6681zm-383.96-35.69c25.295 141.49 146.04 218.69 169.01 232.23-0.66021-0.38655-0.4741-0.259-1.317-0.7664-7.5879-0.32842-15.429-1.1674-23.473-2.5772-1.0012-13.647-8.975-17.779-8.975-17.779-3.5882-0.17591-5.716 1.6254-6.9712 4.0476-3.5529-3.9048-16.638-18.2-22.066-22.979 0 0-3.7864-4.5428-3.7864-8.0782 0 0-5.7065-10.035-9.0886-1.2432-3.7929-6.4501-17.243-28.221-20.704-18.706 0 0-1.7637 6.8206-1.0048 14.396 0 0 0.11141 2.8198 0.0398 6.0913-2.3431-1.9775-5.3476-4.3314-5.3476-4.3314-12.877-7.3194-9.3384 0.25546-9.3384 0.25546 1.2765 4.0127 0.70979 8.5407 0.29519 10.752 0.0639 0.0272 0.0804 0.0468 0.14193 0.0738-2.4622-1.0788-6.8223-2.3009-13.539-1.7541-0.85934-0.2111-2.9456-0.9648-3.389-2.2765-0.0565-0.16582-0.0852-0.34899-0.0852-0.54498 0-0.89452 0.58996-2.0934 1.7144-3.4401 0.0641-0.0854 1.1865-1.2769 4.8878-0.57337l0.28951 0.0511 0.30087-0.0283c0.2161-0.015 5.3259-0.60071 7.2493-4.797 1.5931-3.4801 0.40641-8.1128-3.5309-13.767-0.52818-0.60151-7.4189-7.9185-17.478-11.104 0.16872 0.0533 0.34405 0.0976 0.51092 0.1533-0.16961-1.2714-0.24979-2.5156-0.24979-3.6161 0-1.7765 0.19749-3.1982 0.51659-3.8716 0.97745 0.2588 1.9963 0.40872 3.0542 0.40872 6.6096 0 11.989-5.3843 11.989-11.995 0-6.6109-5.3798-11.989-11.989-11.989-6.6147 0-11.989 5.3786-11.989 11.989 0 1.1785 0.17603 2.3167 0.49388 3.3948-0.009 0.005-0.0197 0.0103-0.0284 0.017-0.92718 0.75129-1.9892 2.1919-2.4012 6.0288 0.0176 0.37942 0.0284 0.77055 0.0284 1.1751 0-3.1735-0.62971-5.7395-0.68121-5.938l-0.0681-0.24976-0.1249-0.22708c-2.2891-4.162-5.8779-5.8636-9.5712-6.341 0.18537 0.0238 0.37161 0.0323 0.55633 0.0624 0.32666-10.124 1.46-51.645-2.089-48.537 0 0-4.745 1.6353-10.377 6.7838-2.5102-1.5478-8.5183-6.9052-5.2794-21.68 0 0-3.2708-11.41-16.525 12.807-2.4599-4.8821-8.5429-15.671-14.022-15.083 0 0-2.5275-2.0158-1.7711 5.0523 0 0 1.7622 13.661-3.1563 17.099-0.4749-2.5579-0.61109-5.2098-0.12489-7.7602 0 0-0.19319-7.2268-4.3768-4.6664-0.78774-4.0957-1.1431-9.9194 1.4135-14.993 2.225-4.4198 6.3673-7.5951 12.285-9.4746 2.0718 1.4874 4.6013 2.3729 7.3401 2.3729 6.964 0 12.625-5.6619 12.625-12.62 0-6.9633-5.6614-12.631-12.625-12.631-1.6735 0-3.262 0.3355-4.7231 0.931 0.22614-0.30151 0.43548-0.61058 0.65283-0.91965 3.46-1.284 12.337-5.3307 18.716-14.902 0 0 4.547-10.099 8.3336-12.875l0.006-0.005c-0.0633-0.34776-0.12091-0.70082-0.18165-1.0502zm348.98-0.2952c-0.0143 0.0809-0.0252 0.16326-0.0397 0.24411 0.38696 0.44976 0.65285 0.72663 0.65285 0.72663 3.7878 2.7765 8.3336 12.875 8.3336 12.875 6.3822 9.5709 15.257 13.618 18.716 14.902 0.21736 0.31157 0.43238 0.62947 0.65851 0.931-1.4636-0.5955-3.0598-0.93668-4.7344-0.93667-1.3392 0-2.6264 0.21478-3.8375 0.60173-5.852 1.0956-10.298 6.2371-10.298 12.404 0 6.9576 5.6607 12.62 12.62 12.62 1.343 0 2.6396-0.21226 3.8546-0.60175 1.8393-0.34675 3.5396-1.093 5.0069-2.1459 5.9174 1.887 10.06 5.0554 12.285 9.4804 2.5529 5.0706 2.2 10.888 1.4136 14.981-4.1848-2.563-4.3825 4.6664-4.3825 4.6664 0.48621 2.5504 0.3488 5.208-0.12492 7.7658-4.9174-3.4424-3.1563-17.104-3.1563-17.104 0.75885-7.0682-1.7655-5.0467-1.7655-5.0467-5.479-0.58799-11.568 10.201-14.028 15.083-13.254-24.215-16.52-12.807-16.52-12.807 3.24 14.768-2.7668 20.126-5.2794 21.674-5.631-5.146-10.377-6.7838-10.377-6.7838-3.6421-3.1862-2.3553 40.586-2.0664 49.258 0.0645-0.0135 0.12852-0.0157 0.19301-0.0284-2.7643 0.54442-5.5658 1.8185-8.2768 4.1497-0.15076 0.13318-3.344 2.9923-3.565 7.2664-0.008 0.15829-0.017 0.31922-0.017 0.48254 0 0.53949 0.0751 1.0711 0.17029 1.6009-0.0992-0.53042-0.17029-1.061-0.17029-1.6009 0-0.16332 0.004-0.32425 0.0116-0.48254 0.008-0.15579 0.0475-0.29454 0.0625-0.44278-0.33548-2.3695-0.99639-4.1196-2.0153-5.2227 0.44222-1.2488 0.69256-2.588 0.69256-3.9851 0-6.6109-5.383-11.989-11.995-11.989-6.6096 0-11.989 5.3786-11.989 11.989 0 6.6109 5.3799 11.995 11.989 11.995 0.43218 0 0.86334-0.0229 1.283-0.0682l-0.0511 0.28953c0.23118 0.0401 0.35693 0.1226 0.48254 0.32358 0.82917 1.3218 0.28316 5.0863-0.34628 7.2096l0.29519 0.0852c-7.8824 2.5089-11.798 6.6926-12.058 6.9881-4.5304 4.3319-6.5738 8.6791-5.9493 12.79 0.82793 5.4626 6.0896 8.1631 6.3183 8.2712l0.64713 0.32359 0.70964-0.16463c2.1533-0.49755 3.2801 0.32309 3.3266 0.36332 1.9084 1.701 2.986 3.306 2.986 4.4393 0 0.13568-0.0165 0.25406-0.0454 0.37468-0.32539 1.3543-2.5556 2.3403-3.7467 2.6794-8.9389-0.85432-15.062 3.3142-15.322 3.5026-0.10099 0.0825-1.0789 0.84891-2.6511 2.0038l4.0022-3.1733s-1.7375-6.5588 0-12.114c0 0 3.4696-7.5725-9.1681-0.25544 0 0-2.9431 2.3426-5.2397 4.3201-0.0691-3.269 0.0454-6.0855 0.0454-6.0855 0.74123-7.5758-0.99345-14.391-0.99345-14.391-3.3984-9.513-16.589 12.247-20.311 18.699-3.3218-8.7844-8.9126 1.2432-8.9126 1.2432 0 3.5353-3.7184 8.0782-3.7184 8.0782-5.3294 4.7791-18.16 19.075-21.645 22.979-1.2312-2.4222-3.3203-4.2178-6.8406-4.0419 0 0-8.0014 4.2377-8.8331 18.273 1.7988-0.29311 3.5769-0.613 5.3306-0.9537-1.7545 0.34009-3.5307 0.65807-5.3306 0.9537-7.6674 1.2594-15.729 2.1061-24.155 2.3672-0.80657 0.48431-0.62478 0.36061-1.2603 0.73232 22.821-13.437 143.92-90.748 169.14-232.56zm-353.62-55.911v3.497c0 14.882 1.0759 29.18 3.0542 42.906-2.3331-0.23118-5.5314-0.10447-9.906 0.55633 1.8154-3.9902 3.2528-6.869 3.2528-6.869 8.0796-15.483-5.0467-9.7642-5.0467-9.7642-1.7237 0.8493-3.3545 1.7167-4.9389 2.5887 0.28142-3.0404 0.5661-8.7076-0.27817-15.294 0 0-2.5187-10.371 3.2756-14.436 0.81411 0.19097 1.66 0.30087 2.5318 0.30087 3.1723 0 6.0289-1.3448 8.0554-3.4856zm358.2-0.78476c2.0365 2.5906 5.1894 4.2633 8.731 4.2633 1.0478 0 2.0589-0.16576 3.02-0.43712 5.3772 4.2188 2.952 14.198 2.952 14.198-0.84554 6.5833-0.5596 12.251-0.27818 15.294-1.583-0.8719-3.2164-1.7394-4.9389-2.5887 0 0-13.125-5.7191-5.0467 9.7642 0 0 1.4419 2.8788 3.2584 6.869-4.8922-0.74124-8.334-0.81729-10.712-0.4655-0.008 0.0556-0.0202 0.10922-0.0283 0.16463 1.9673-13.69 3.0428-27.947 3.0428-42.786v-4.2746zm19.08-2.8328c8.5331-0.77643 15.872 12.132 18.892 18.358-0.67213 1.098-0.29519 3.0031-0.29519 3.0031 0.41712 0.73874 0.71106 1.547 0.9083 2.4013-6.5807-9.0282-18.674-15.563-24.229-18.234 2.0768-1.2287 3.7328-3.0969 4.6551-5.3532 0.0264-0.0578 0.043-0.11823 0.0681-0.17598zm-388.13-25.25c3.0989 0.13265 6.8718 1.1141 10.843 4.0022v9.6053c-2.0265-2.1409-4.8832-3.4856-8.0554-3.4856-3.7565 0-7.0772 1.8751-9.0886 4.7344-2.9449-0.20605-6.8179 0.56768-6.8179 0.56768 1.4561-4.8017 5.3361-10.774 8.3677-14.975 1.2739-0.30246 2.8922-0.52806 4.7516-0.44846zm380.48-0.36332c1.9629-0.10987 3.666 0.12621 4.9956 0.44279 3.0328 4.2012 6.9173 10.168 8.3733 14.97 0 0-3.8717-0.76804-6.8178-0.56201-2.0126-2.8594-5.3359-4.7401-9.0886-4.7401-3.6522 0-6.8717 1.7868-8.8956 4.513v-9.9969c4.1719-3.301 8.1616-4.4436 11.433-4.6266zm-292.58-95.582c1.9831-0.03679 4.1196 0.13184 6.3864 0.59606l-0.35196 1.9528 0.18166 0.9083h-19.233c2.5026-1.387 7.0676-3.3468 13.017-3.4572zm192.88-1.9812c5.5253-0.16996 9.7304 3.4032 11.666 5.4384h-17.882c0.24371-0.86688 0.37465-1.7674 0.37469-2.6795l-0.0852-1.1467c2.1003-1.0849 4.0849-1.5555 5.9266-1.6122zm-172.92-4.013c3.7653-0.11307 9.0408 1.3084 14.595 7.7886 0 0 0.56429 0.78136 1.5782 1.6633h-11.075l0.15328-0.90829c0-3.7263-2.1379-6.9556-5.2511-8.5436zm152.54-5.813c2.8609-0.19768 4.414 1.56 5.149 2.81l-0.45414-0.06812c-5.4286 0-9.8493 4.4162-9.8493 9.8437 0 0.9121 0.12402 1.8125 0.36901 2.6795h-18.234c7.2026-4.6485 16.349-12.268 16.349-12.268 2.7646-2.056 4.9537-2.8788 6.6702-2.9974zm-45.82-43.666c-2.1478-0.16371-2.3223 3.3015-2.2878 4.9332-2.24 1.0013-6.993 2.3188-11.07-1.9471 0 0-5.8066-2.5239-3.7864 6.3126 0 0 0.68075 4.397 2.8668 8.2086-8.8861 0.21106-17.508-1.9017-17.508-1.9017-9.5934-0.75632 3.5367 10.355 3.5367 10.355 1.1872 1.2388 2.3848 2.3736 3.5935 3.4516-5.2792 0.90456-15.733 3.1707-7.3855 5.8869 0 0 12.622 3.7907 17.167 12.625 0 0 8.8388 7.5736 16.162 5.3022 0 0-2.5363 1.0693-2.3843 5.7052h-50.723c-0.25378-2.1032-1.3295-5.1536-5.2681-6.5907 1.578-0.47239 3.1245-1.0788 4.5982-1.8904 0 0 15.15-3.0293 19.948 2.5262 0 0 6.5586 2.2696 3.0257-5.0523 0 0-6.543-10.406-19.005-12.932 2.8155-1.7613 6.3808-5.5008 6.3808-5.5008 6.5632-7.0682 0.50524-7.8227 0.50524-7.8227-3.5329 1.5177-9.3384-0.7607-9.3384-0.7607-14.898-9.3396-29.023-5.8073-29.023-5.8073v-1.7655c-0.76009-12.623-6.5681-5.5519-6.5681-5.5519-0.75632 4.0404-5.8074 4.797-5.8074 4.797-15.149 4.5429-18.427 13.381-18.427 13.381-2.5202 6.5632-8.3336 8.8331-8.3336 8.8331-9.7656 1.8845-15.8 4.9291-18.677 6.693 0.63697-1.3418 1.0048-2.8393 1.0048-4.4222 0-5.7063-4.6432-10.349-10.355-10.349-5.7064 0-10.349 4.6425-10.349 10.349 0 4.0127 2.2952 7.4891 5.6371 9.2079-1.9901 2.8393-7.0674 9.3828-13.602 12.659h-5.8926c-0.008-3.8645-0.51998-13.552-5.3305-16.56 0 0-1.7689-0.50523-3.5367 3.7864 0 0-6.4519 9.3505-11.796 12.773h-8.9865-2.7135v2.7135 11.513c-1.7665 1.2287-3.7193 3.1672-5.6201 6.2728-2.6961-3.2866-5.217-5.5008-5.217-5.5008-7.5745-3.5329-6.3126 1.5158-6.3126 1.5158 2.7765 6.8169-2.2707 15.652-2.2707 15.652-4.5969 4.7037-6.423 11.894-7.0109 18.626-4.2741-3.4097-11.672-3.2301-11.672-3.2301-14.894 2.274-5.5519 7.3288-5.5519 7.3288 6.0594 4.0379 6.3126 12.875 6.3126 12.875 1.436 9.8523 8.5456 12.69 11.155 13.409-2.4462 9.895-10.655 18.398-10.655 18.398-0.90582-2.1734-3.3629-4.7265-4.6834-6.0004-1.083-5.7239-6.1154-10.071-12.148-10.071-6.8208 0-12.37 5.5504-12.37 12.37 0 6.8219 5.5491 12.37 12.37 12.37 2.2326 0 4.3992-0.60193 6.29-1.72 5.3746 13.355-1.4016 22.228-4.4847 25.365-1.3883-2.4096-3.0646-4.3475-4.973-4.7344-0.31282-5.6661-2.4052-22.107-16.099-28.333 0 0-10.606-0.50366-2.2765 9.8437 0 0 3.2852 13.133-1.2603 19.188 0 0-2.4567 4.4865-2.1174 9.0773-1.1144-0.59802-2.2573-1.1048-3.4344-1.5043 0 0-4.295-0.50358-1.2659 8.3336 0 0 1.5163 15.145-0.50524 21.963 0 0-0.28565 4.9218 0.95938 11.95-4.2678-1.5277-8.2768-0.32925-8.2768-0.32925-13.129 2.7765-8.8388 8.8331-8.8388 8.8331 8.3309 4.2892 11.359 13.13 11.359 13.13 7.0518 19.017 20.614 20.489 24.615 20.494 0.08041 6.0782 0.68736 12.807 2.4864 18.716 0 0-3.6643-2.913-9.1056-3.5765-1.8847-4.6081-6.4075-7.8624-11.683-7.8624-6.9614 0-12.62 5.6569-12.62 12.62 0 6.9602 5.6582 12.625 12.62 12.625 4.0279 0 7.6171-1.9063 9.9288-4.8537 3.0228 1.0503 13.178 5.5654 15.929 19.398-8.3221-5.7516-16.264-6.7157-16.264-6.7157-11.612-2.7791 1.5158 17.417 1.5158 17.417 0.36309 1.0101 0.69318 2.0524 0.99345 3.1052-2.0629 0.44726-7.0615 0.54963-13.363-6.1366 0 0-6.819-7.0656-5.5577 7.0733 0 0-0.70863 8.5615 11.944 30.071-1.5754 0.12055-3.1948 0.27583-4.8707 0.47686 0 0-11.11 6.8168 0.75502 8.0781 0 0 16.409 5.5573 21.459 21.714 0 0 9.3382 11.198 17.252 13.852l-1.0275 0.97076-0.15895 0.28382c-0.09548 0.18597-9.3782 17.898 10.372 31.904 0.3838 0.21722 4.125 2.2318 8.89 2.9803-0.08048-0.0129-0.1699-0.009-0.24977-0.0228-2.5617 0.70356-4.2747 1.283-4.2747 1.283-12.622 8.0783-1.5158 11.11-1.5158 11.11 3.7867-0.2538 11.865 4.0419 11.865 4.0419 6.8169 7.0682 9.0886 3.5311 9.0886 3.5311-0.25127-5.8069-12.364-9.5938-12.364-9.5938-8.3321-1.5127-7.0733-2.776-7.0733-2.776 9.0896-7.0657 22.219-4.5415 22.219-4.5415 6.8169-3.0328-0.25546-5.3022-0.25546-5.3022-1.48-0.24121-3.1858-0.26255-4.9786-0.14193-0.04064 0.0282-0.08414 0.0461-0.12489 0.0738 0.4974-0.33794 0.99218-0.69437 1.4703-1.1126l7.1528-8.6288c1.3632 0.23366 5.9718 1.4902 7.59 7.8397l-8.3563 9.6053-0.11922 0.24979c-0.13317 0.27642-2.2537 4.8676-2.2537 10.712 0 2.7866 0.48327 5.8558 1.8904 8.8785 2.9674 6.3722 9.2516 10.861 18.677 13.346 0.12054 0.0351 9.0347 2.3104 18.33 10.894 1.6182 1.2036 146.07 104.49 303.47-6.6476l0.20439-0.14192 0.17029-0.20436c0.14324-0.16335 3.5905-4.04 12.83-4.3314l0.2725-0.005 0.26114-0.0852c0.43343-0.13316 10.616-3.3728 14.647-12.597 1.0666-2.4374 1.6009-5.0386 1.6009-7.8 0-3.9299-1.0793-8.1844-3.2415-12.705l-0.10781-0.22708-0.16463-0.19866c-0.44854-0.53271-4.3211-5.1352-9.4747-11.161 1.0792-1.9901 3.4037-4.9045 7.8851-5.603l5.6996 7.2039c1.034 0.97594 2.424 1.974 3.9965 2.8725-0.17415-0.0994-0.38223-0.17594-0.55067-0.27816-1.48-0.0578-2.8833-0.008-4.1271 0.19302 0 0-7.1497 2.2694-0.26112 5.3022 0 0 13.268-2.5242 22.452 4.5415 0 0 1.2805 1.2633-7.1358 2.776 0 0-12.255 3.7871-12.506 9.5938 0 0 2.2978 3.5372 9.1851-3.531 0 0 8.1639-4.2956 11.989-4.0419 0 0 11.225-3.0312-1.5327-11.11 0 0-1.5722-0.52812-3.9568-1.1864-0.11283 0.0277-0.22237 0.0374-0.33492 0.0624 3.049-0.67845 6.1991-2.2709 9.2533-5.2568 0.26133-0.18344 10.453-8.1744 11.32-18.859 0.34573-4.3085-0.88752-8.3998-3.6218-12.205 8.1286-1.8519 18.405-14.186 18.405-14.186 5.0506-16.16 21.459-21.714 21.459-21.714 11.866-1.2614 0.7607-8.0782 0.7607-8.0782-1.6772-0.20102-3.2952-0.35372-4.8707-0.47686 12.651-21.506 11.938-30.071 11.938-30.071 1.2626-14.141-5.552-7.0676-5.552-7.0676-6.3018 6.6813-11.3 6.575-13.363 6.1253 0.30027-1.0503 0.63033-2.0837 0.99342-3.0939 0 0 13.122-20.197 1.5101-17.422 0 0-7.9408 0.96479-16.264 6.7213 2.372-11.91 10.226-16.907 14.294-18.739 2.318 2.7916 5.8109 4.5699 9.7131 4.5699 1.1985 0 2.3522-0.1798 3.4516-0.49387 6.205-0.78899 11.024-6.0786 11.024-12.506 0-6.9576-5.662-12.625-12.62-12.625-1.1998 0-2.3566 0.1798-3.4572 0.49389-4.548 0.58044-8.3476 3.5875-10.054 7.6808-4.4199 0.99252-7.2721 3.2699-7.2721 3.2699 1.7979-5.9124 2.4016-12.636 2.4808-18.716 4.004-0.005 17.558-1.4873 24.609-20.499 0 0 3.0342-8.8357 11.365-13.125 0 0 4.29-6.0648-8.8388-8.8388 0 0-4.0134-1.196-8.2825 0.32926 1.2438-7.0254 0.95939-11.944 0.95939-11.944-2.0189-6.8169-0.50525-21.963-0.50525-21.963 3.0291-8.8371-1.2602-8.3336-1.2602-8.3336-1.1785 0.39951-2.3257 0.90885-3.4401 1.5043 0.34047-4.5908-2.1174-9.0773-2.1174-9.0773-4.5429-6.0581-1.2602-19.188-1.2602-19.188 8.3309-10.35-2.2707-9.8436-2.2707-9.8436-13.692 6.224-15.792 22.667-16.106 28.333-1.9071 0.38695-3.5789 2.3273-4.9672 4.7344-2.999-3.0478-9.486-11.527-4.8991-24.274 2.6245 1.1156 5.5511 1.3012 8.2712 0.52226 6.0782-0.7739 10.803-5.9727 10.803-12.262 0-6.8169-5.5529-12.375-12.37-12.375-1.1759 0-2.3111 0.17598-3.389 0.48254-2.7238 0.3367-5.2453 1.5554-7.2152 3.5253-2.1684 2.1734-3.454 5.0606-3.6048 8.1235l0.0795 0.005c-1.0754 1.2161-2.1676 2.6431-2.7078 3.9398 0 0-8.2036-8.498-10.65-18.393 2.6094-0.71862 9.719-3.5653 11.155-13.419 0 0 0.252-8.8346 6.3126-12.875 0 0 9.3433-5.0459-5.552-7.3175 0 0-7.4056-0.18278-11.677 3.2245-0.58797-6.7315-2.4082-13.92-7.0052-18.626 0 0-5.0517-8.8366-2.2763-15.652 0 0 1.2676-5.0486-6.3069-1.5158 0 0-2.5196 2.22-5.217 5.5065-2.2074-3.6057-4.4878-5.6576-6.4603-6.8236v-10.593-2.7135h-2.7135-19c-2.1295-4.2214-9.5314-8.9865-9.5314-8.9865-5.808-1.7689-12.114-7.5729-12.114-7.5729-4.0417-5.5556-6.5681-4.0419-6.5681-4.0419-5.553 1.5151-2.776 9.8437-2.776 9.8437 2.9474 3.6409 3.6344 8.2373 3.7751 10.758h-2.3558c-1.3508-3.6665-5.9565-6.4762-5.9565-6.4762-19.17-6.814-21.19-17.922-21.19-17.922-0.0251-0.98246-0.1814-1.8005-0.43142-2.4864l1.1921-1.5555c0.98497-1.5955 1.5101-3.4278 1.5101-5.3022 0-5.5657-4.5285-10.099-10.099-10.099-5.5707 0-10.099 4.5335-10.099 10.099 0 2.3292 0.81495 4.5096 2.197 6.2559-7 0.818-16.09-5.496-16.09-5.496-6.56-12.624-21.7-16.412-21.7-16.412-8.34 0.505-18.18-6.5623-18.18-6.5623-1.95-2.0863-3.34-2.9115-4.32-2.986z"/>
  <path fill="#a51c30" d="m108.04 65.907h347.36v119.4c0 184.27-166.52 277.85-173.68 281.77-7.1474-3.9349-173.68-97.51-173.68-281.77v-119.4z"/>
  <path fill="#101820" d="m242.73 109.05c-1.8506-0.0401-3.4039 2.1601-5.1264 3.0144-9.0107 4.1384-18.289 0.89749-28.419 2.2594l-7.6126 2.566c-2.0743-0.23369-3.6539-1.6536-5.728-1.8848-7.39 0-14.358-1.3578-21.709-0.22709-5.5382-0.86942-11.044-1.584-15.453-4.8255-2.9726-0.23369-2.7577 3.9608-5.5065 4.1442-2.0743 0-4.1919 0.67935-6.2559 0.22709-2.7602-0.23369-5.0888 1.166-6.2558 3.2414l-0.67555 13.568c0 0.94478-0.67677 2.0776-1.5839 2.3389-5.317 0.23116-11.583-0.53557-13.647 5.274-0.45354 2.5278-1.1619 5.7367 0.68125 7.8399 3.0104 2.9801 7.6083 3.2455 11.757 3.0144 3.0104 0.4523 2.3389 3.8797 2.3389 5.955 0.49124 11.528-0.90709 22.616 0 34.827-1.3607 5.9928-8.9756 0.48813-12.438 4.1442-1.3996 1.8544-2.5714 4.189-2.3389 6.4831-0.23244 3.244 0.68605 5.9887 4.1497 7.3856 3.4725 1.3518 7.4234 0.25993 10.627 2.1118 1.6207 5.3068-1.1306 12.634 2.3332 17.718 1.8519 1.6232 4.1125 2.102 6.4093 2.3332 7.1589 0 13.878 1.1748 20.806-0.44848 7.1676 0.22363 14.466-0.90116 21.635 0.22709 1.8418 0.71612 4.4128 0.45305 5.1264 2.7874 3.2025 2.0755 7.3912 3.6594 11.308 1.5839 2.0743-1.8418 3.4272-4.3764 5.955-5.0525l11.53 0.45416c3.2025-1.3971 7.1284-0.90645 10.332-0.45416 5.9916 0.22364 12.025 0.22364 17.786 0 2.9813-0.45229 6.2204-0.74609 8.7483-2.5603 3.4638-6.2518-1.2085-13.61 2.4865-19.602 3.6948-0.90459 7.844 1.1315 10.854-1.6576 2.5278-2.073 3.5475-5.0499 3.0941-8.294-2.0743-4.822-7.6507-5.5051-12.291-5.274-2.0743-0.4523-2.4972-2.748-2.9406-4.3712-0.49249-10.36 0.15797-19.637 0.38036-29.775 1.1383-3.244-0.90375-6.2207 1.4306-8.9694 3.4248-2.5278 8.5207-0.23247 11.308-4.1497 0.18343-2.568 1.3881-6.7433-1.1297-8.8163-2.3054-2.5203-6.03-2.2594-9.0491-2.2594-6.6663-4.8648 0.23046-11.801-3.6957-17.792-2.9714-2.7514-7.6467-2.9377-11.303-2.038-2.5178-0.18344-4.3343-2.3023-5.955-4.1442-0.68723-0.6332-1.3473-0.89005-1.9642-0.90264zm163.13 0.74935c-0.2613 0.0227-0.52478 0.13914-0.82884 0.22709-10.584 8.2469-25.816 1.8428-38.291 4.8255-1.3996 0.22114-2.3067 1.8468-4.1497 1.3568-9.6865-5.2792-21.451-0.46308-31.58-2.9406-4.4087-0.27136-8.3791-4.4485-12.518-2.1118-1.8519 6.405-9.424 1.3199-13.795 2.9406-7.6124 3.2013-2.5276 11.504-3.9169 17.718-2.5668 4.8622-9.0482 0.3006-12.512 4.218-1.8519 1.3896-2.4912 3.662-2.7136 6.1823 0.45354 8.9706 11.309 3.9277 15.68 8.521-1.1295 5.5356 0.67407 11.34-0.45412 16.202-0.67593 8.0658 1.3901 15.908 0.45412 23.52-3.9274 4.1486-12.437-0.25706-14.55 6.4093-1.8142 2.7891-0.0328 5.7629 1.3568 8.2884 3.0202 2.558 6.9328 3.0168 11.081 2.7931 3.9175 3.6963 1.6624 9.4566 1.8848 14.55 0.45354 1.8042-0.49102 3.653 1.1297 5.274 4.8244 1.6232 10.17 1.6577 15.226 1.6577 11.297 0 21.452-0.0259 31.813 0.45416 5.3156-1.387 8.5471 4.15 13.642 4.3712 4.8232 0.68598 5.5437-6.0012 10.406-4.8255 0 0 23.52 0.22959 23.52 0.22709 4.602 0.26133 9.1592-0.25944 13.568 0.45415 4.563-0.94478 10.104 0.89314 12.892-2.7931 1.5818-5.3144 0.90223-10.845 1.5782-16.355 1.3984-4.6311 7.6185-1.6302 10.86-3.6957 2.5278-0.94479 4.1448-3.2002 4.5982-5.728 0.93601-3.4626-1.3554-6.0309-3.4687-8.3678-2.7502-1.5805-5.7277-0.68087-8.7482-1.3568-1.8431-0.48999-2.4824-2.334-2.7136-3.9172 0.23108-6.7139-0.94417-14.06 0.45419-20.505-0.45358-5.5356-0.71363-10.893 0-16.208l0.90261-1.3568c3.6949-0.93726 8.0664 0.48952 10.854-2.2594 1.8431-2.558 3.2045-6.0352 1.5839-8.8221-1.3983-5.5382-7.6083-4.1061-11.757-4.8197-3.9175-1.8444-1.8068-5.9954-2.038-9.1967 0-3.0202 1.3288-7.199-2.1061-9.5031-3.0104-1.3519-6.6695-0.56815-9.6508-0.37469-4.3055 1.0579-3.7725-5.4016-7.6923-5.0525zm-181.6 157.55c-2.112 0.3342-2.6267 4.2122-4.672 4.9787-4.641 1.583-10.397-1.3605-14.323 2.3332-2.2966 4.8252 0.44697 10.365-0.68125 15.68-0.67592 3.244-4.602 1.8068-7.1586 2.038-3.9175 0-7.8138 0.93287-9.8778 4.1442-0.68598 2.0655-0.94098 4.3759-0.44849 6.7102 2.0743 4.5933 7.8402 4.375 12.211 5.2795 1.6207 0 3.4298-0.41061 4.5982 0.97644 0.67468 6.6764 0.22172 12.933 0.45416 19.375-0.94607 4.3721 0.2211 9.6481 0 14.249-0.23244 1.8444-0.72369 3.9541 0 5.5748-0.23244 1.3896-0.4173 3.0104-2.038 3.2414-3.2414 0.45479-6.9755-0.9395-9.7246 0.68121-2.2966 0.71613-3.8806 2.7467-4.8255 4.8197-0.45355 2.0755-0.49189 4.4099 0.45415 6.2617 3.4248 4.141 8.7433 3.2478 13.568 3.6899 4.8621 1.1684 2.5697 7.3877 3.0144 11.081l0.45416 7.6129c1.3983 4.8244 7.3865 3.4661 11.081 4.8255l7.84-0.90264c5.0947 1.3996 11.044-0.94885 16.128 0.22701 5.7693-1.6207 11.948-0.68125 18.393-0.68125 3.9262-0.25869 8.0681-0.29426 12.217-0.52795 3.4638 2.3469 7.2008 5.3124 11.609 3.9227 3.6559-3.2013 8.9369-3.889 13.568-3.1676l9.7246-0.52795 1.8052 0.75501 11.763-0.45415c7.1688 0.23369 14.546-0.75316 22.39-0.30086l6.7043-0.45416 5.955-1.5782c4.1486-3.9149 1.4418-10.372 2.3389-15.458 0.72366-1.8519 0.1898-4.3709 2.4865-5.0467 4.8622-0.71362 11.341-0.21915 13.193-5.8074 0.48244-2.2565 0.71299-4.8601-0.45415-6.7043-2.0743-2.2941-4.5979-3.2467-7.3856-3.9227-2.7502 0.45479-6.6732 0.71685-8.294-1.811 1.1671-13.825-0.447-25.593 0.68122-39.419 0 0 1.5839-2.1093 1.5839-2.1118 4.5921-0.94479 10.405-0.23137 12.739-5.2795 0.90709-2.2941 0.19009-5.083-1.4306-7.1586-2.7489-5.0932-9.4243-0.90244-13.119-3.9227-2.2967-4.852 1.3889-10.135-0.45415-15.453-3.0202-5.2766-9.6781-3.4687-14.771-3.4687-2.7502-2.2564-6.2506-2.7132-9.7246-3.3891-5.0456 3.1661-11.051 4.073-17.263 4.0704-7.6211 0.89956-15-0.90645-22.39-0.45415-4.4087-0.23119-9.4238-0.6752-12.665 2.7874l-5.8018-2.5603c-14.274-2.302-29.441 3.4647-43.265-1.5928l-4.3712-2.7874c-0.69351-0.38698-1.3235-0.45575-1.811-0.38036z"/>
 </g>
 <path fill="#fff" d="m239.41 115.76c-5.0845 3.1635-12.024 3.6205-18.237 3.1682-4.602 0.23116-9.8788-0.41383-14.248 0.75456-3.9175 1.1282-3.503 5.6521-4.4479 8.8958 0.94478 5.0932-0.004 10.923-0.22505 15.978-0.23244 18.464-0.19587 37.986 0.75015 56.684 0.45355 3.2339-2.7904 7.6588 0.90459 9.0459 9.4543-1.6207 19.798-0.9796 29.476-0.9796l5.5776-1.3547c2.9714-1.8519 2.0702-5.9986 2.2637-8.7502-0.45352-13.601-0.22502-25.889-0.22502-39.947 0.86812-9.2319 0-17.975 0-27.438-0.48244-5.0857 0.90093-9.4241 0.22502-13.794 0.22232-1.3619-0.67088-2.0727-1.8092-2.2637h-0.005zm83.901 0.22504c-2.0743 1.1659-1.5841 4.411-1.5841 6.4866v23.894c-1.1772 17.298 0.44754 33.731 0.22502 50.807-0.22231 3.2036-1.1672 5.7613 0 8.7414 3.2025 3.244 8.5546 2.1168 12.664 3.0138 1.843-0.2211 3.9189-0.90233 6.032-0.45009 4.5921 0 8.7127-0.26057 13.344 0.22945 1.3607 0.22362 3.4378 1.1307 4.8274 0 0.23106-6.704-0.23012-12.247 0.44567-18.471-0.22232-3.6937 0.22945-6.9715 0.22945-10.63-0.9071-13.149 0.48244-26.957 0-40.327 0.71363-6.4855 0.72224-12.466-1.1296-19.142-1.1672-2.5203-4.1076-1.8158-6.1821-2.2681-6.9366 0-14.136 1.5805-21.035 0-2.2966-1.3619-5.0488-1.6254-7.8368-1.8842zm78.924 0c-10.169 4.5907-22.613 1.8527-33.699 2.9432-1.8431 0.45227-3.6897 1.8473-4.1435 3.9228-0.44352 24.002-1.1757 44.059-0.22945 68.294-0.22232 6.214-0.90726 11.949-1.1296 18.392 1.8431 2.568 4.6385-0.91072 7.1661-0.67955 7.6124-0.90459 15.904 0.89956 23.969 0 3.2327 0 7.346 0.0478 8.7458-2.7138-0.23108-13.37 0.86629-27.287 0.22073-40.177 1.3607-15.446-0.45262-32.044 0.45449-47.943-0.00002-0.90709-0.21644-2.0342-1.3547-2.0342v-0.005zm-238.89 0.98401c-0.53144-0.0201-1.085 0.0911-1.6592 0.37507-1.1672 0.94479-1.3625 2.3415-0.909 3.6934 0.49125 4.4073-0.45655 9.4278 0.22946 13.569-0.90711 9.2319-0.22159 17.985-0.67513 27.438 0.23116 12.214 1.1203 26.998 0.44567 39.656 0.94479 1.6232-0.89909 3.5023 0.68396 5.123 2.7879 2.9726 8.063 2.479 11.98 2.0342 8.2972 0.44477 16.13 0.0507 23.974 2.1136 0.71362 0 1.1266-0.93548 1.3591-1.6591-1.3996-6.6663-0.19096-12.444-0.90459-19.151l0.45009-22.315v-4.3685c0.89703-13.873 0.22109-26.045 0-39.193l-1.5841-3.4683c-2.5278-1.3619-5.3139-2.4934-8.5164-2.0386-1.1684 0.22111-2.3327 1.1318-3.6934 0.67954-5.2781-0.22365-11.273 0.90568-16.358-1.1296-1.73-0.16834-3.2284-1.2993-4.823-1.3547v-0.005zm82.935 1.6547c-0.26885 0.0102-0.51547 0.0319-0.82958 0.15004-0.90709 1.3494-0.44302 3.3567-0.22073 4.9774-0.67595 14.78-0.007 30.227-0.22947 44.775 0 12.214 0.007 23.069-0.22502 35.274 1.1282 2.7514 1.8516 5.9939 4.823 7.3911 0.68469 0 1.0546-0.67701 1.0546-1.5841v-24.044c0-19.149 0.68469-38.974 0-58.114 0.45354-1.583-0.14753-3.8516-1.0546-5.4319-0.59051-1.191-1.4412-3.4761-3.3183-3.3933zm163.05 0.52952c-0.25374-0.0377-0.58422 0.0172-0.90458 0.075-1.1282 0.2588-0.90726 1.3914-1.1296 2.3387-0.45355 8.7018 0.90709 16.236 0 24.794-0.23138 18.426-0.22503 36.489-0.22503 55.405-0.71358 3.435 0.94677 6.4418 3.2433 8.7458 0.72367 0.89955 1.8473 0.90094 2.4843 0.22504 1.1282-5.9905-0.6361-12.468 0.45449-18.692 0.22231-7.6487-0.67877-14.103-0.22502-21.485 0.44349-15.222 0.67877-30.149 0.22502-44.7l-0.90901-2.7138c-0.9875-1.3845-1.2373-3.7423-3.0138-3.9934zm-253.5 0.50304c-0.11196-0.0102-0.24241-0.006-0.38831 0.0221v0.005c-2.7891 1.176-3.4732 4.3369-4.1479 6.8572v29.772c-0.94607 13.614 0.67767 27.406-0.22945 40.786-0.26133 4.8648 0.45354 9.2779 0 13.869 0.45354 0.94732-0.49407 3.018 1.3591 3.2389 4.5921-2.7866 4.5974-8.5524 3.9228-13.648 0-7.6112-0.18241-17.035 0.30006-24.649 0-10.139-0.48244-19.639 0-29.547-1.1672-6.9377 0.64578-14.697 0-21.856-0.93601-1.1383-0.52146-2.34 0.15444-3.4683-0.16931-0.39795-0.18695-1.3093-0.97077-1.3812zm160.1 0.62218v0.005c-0.67469-0.008-1.1585 1.3766-2.0342 1.8842-2.5278 5.0932-1.1261 9.8788-1.5797 15.678 0.23137 18.878-0.5032 36.929 0.22073 56.985-0.94606 5.0857 0.68666 9.9179-0.22073 15.232 0.23108 0.71615-0.005 2.2579 1.3547 2.0342 2.2966-0.45229 2.2968-2.9772 3.4639-4.598 0.23137-18.466 0.45197-36.638 0.22945-54.43 1.1283-7.8347-0.4507-15.716 0.22503-23.29 0-2.9726 0.001-6.1471-0.90459-8.8958-0.29147-0.40707-0.52975-0.60453-0.75455-0.60453zm-72.142 90.459c-0.34802-0.0401-0.76553-0.0131-1.2002 0.075-7.3424 3.465-16.775 2.501-24.878 2.9432-3.4248 0.94729-6.4192-1.3494-9.6504 0-0.90709 0.49249-2.524 1.4294-1.8092 2.7888 2.2954 4.141 6.8625 1.0956 10.78 1.8092 5.7693 0 10.14-0.2566 15.678-0.45009h14.098c0.9448 0 2.0377-1.1316 1.5842-2.0386-1.6119-1.6107-2.1638-4.8284-4.6024-5.1275zm76.29 0.22945c-1.3606 1.1684-3.3889 2.3016-3.3889 4.1434 0 1.1307 1.0838 1.6631 2.0298 1.8842l24.649-0.22505c4.5921-0.48996 8.7522 2.0774 13.123 0.909 1.1672-1.3971 0.71268-2.7444-0.4545-3.9228-5.0845-1.8042-12.408-0.68095-18.167-0.90458-6.0004 0.45479-12.033-1.1605-17.792-1.8842zm84.206 0.22505c-5.9916 2.0755-12.896 2.3373-19.601 2.1136-5.7693 0-12.396-1.3957-17.712 1.1296-0.22231 1.1307 0.22524 2.749 1.3547 3.2389h40.631c1.3504 0.45483 1.8082-1.2021 1.3547-2.1092-1.5831-2.073-3.2399-4.3729-6.0276-4.3729zm-244.26 0.2074c-0.21088-0.0131-0.43166-0.006-0.66189 0.0221-2.0743 0.94732-3.4722 2.7395-3.6934 5.0436 0.22113 2.0655 3.2877 1.2174 4.6774 1.4385 11.268 1.3996 22.991-1.1684 34.299 0.90459 1.3505-0.23116 1.3591-1.6209 1.3591-2.5682-0.44478-1.6207-2.3094-1.8044-3.6978-2.2593-8.9729-0.90467-19.378 0.67838-28.572-0.90467-1.1906-0.58925-2.2348-1.585-3.711-1.6768zm172.73 62.262c-0.31471-0.0158-0.65737 0.002-0.98842 0.0264-0.44225 0.0328-0.86677 0.0705-1.2046 0.0705-4.8622 2.7119-10.891 3.4398-16.883 3.1683-7.8434 0.49251-15.386-0.90016-23.219-0.90016-3.0202 1.1684-7.8822-0.23467-8.5958 3.914-0.23119 6.214-0.23119 11.57 0 17.792 1.6207 4.3721 3.0123 8.968 4.3729 13.569 0.94478 7.6135 5.3141 13.87 6.0276 21.481 0 4.1887 5.5036 4.602 5.957 8.2957-1.8431 2.7515-5.9518 0.89847-8.9708 1.1296-1.3506 0-3.0146-0.19452-3.4683-1.5841 1.3984-3.9149 0.49186-8.5112-1.8047-11.755-0.68474-0.45228-1.6601-1.1342-2.1136-0.22945-1.8519 4.3721-0.23603 8.9718-0.67954 13.794 0.44349 6.2616 0.67854 10.891 0.22502 17.112 1.6207 3.2441-1.1672 6.4491 0 9.6504 3.4638 1.3896 5.5763-2.2514 9.0503-1.8092l26.908 0.22502c5.3156 0.18346 11.044-0.26243 15.453-3.0138 2.0353-2.5178 0.68053-6.1753 1.134-9.1959-0.67592-11.981 0.68476-23.064 0-35.058 0.68476-15.446-1.8493-29.813 0.22503-45 0.25432-1.2909-0.48111-1.6313-1.4253-1.6812zm-106.24 0.55158c-1.3996 0.71612-0.44491 1.8167-1.1296 2.7138 1.5818 9.6865 0.4518 20.495 0.22945 30.451 0.67468 19.363 0.22331 37.395 0.45451 56.314l1.3547 1.5797c3.9175 2.5203 9.1611 2.3387 14.023 2.3387 5.0932-0.23108 10.368 0.22945 15.453 0.22945l8.0663-0.22945c3.6949-0.67342 7.1599 1.1706 10.855 0.45449 1.3506-0.4523 1.1296-2.1126 1.1296-3.2433 0.45355-6.0282-0.46066-13.154-0.22945-19.146-0.45357-6.028 1.3886-11.531-0.45449-17.262-0.9071-0.71359-2.3002-0.2592-3.0138 0.4545-2.9714 3.2036-1.8082 7.8462-1.3547 11.985-0.23119 1.1383-1.1641 1.8134-2.5637 1.5797-2.0743 0.23367-5.0848 0.45558-6.9366-0.67514-1.3895-2.7866 2.3731-3.1997 3.7728-4.823 3.4638-9.4528 4.6025-19.644 8.0663-29.331 1.8431-5.5356 2.2593-11.79 2.2593-17.783-0.67724-4.3599 2.3235-10.135-2.9432-12.655-12.708-2.7496-25.63 0.89706-38.518-0.4545-2.7526-0.90395-5.2799-2.2518-8.5208-2.4843v-0.0136zm112.7 2.7888-1.1296 1.3547c-0.26015 5.7617-0.49249 12.172 0 17.942v13.419l-0.22945 8.0662c-0.23108 12.697-0.0301 28.382 0.22945 41.311-1.3996 4.3721 1.1265 8.25 3.6934 11.23 0.45355 0.4925 1.3902 1.1725 1.8048 0.22502l0.4545-26.458c0-20.087 0.44869-41.531-0.67954-62.037-0.90712-1.8519-2.2915-4.1453-4.1434-5.0524zm-119.63 1.8092c-1.1672 1.583-2.7898 3.4296-3.2433 5.5025-0.45354 25.095 0 50.737 0 76.815l-0.22505 9.1959c0 0.71612 0.67875 1.209 1.3547 1.209 2.7879-2.2941 4.6029-6.0291 3.9184-9.7254 0-26.53 0.002-50.956-0.22064-75.61-0.90709-2.5178 2.2943-6.7109-1.5841-7.3867zm57.139 33.774c-0.19611 0.0303-0.44336 0.1446-0.67954 0.37066-0.67593 3.4652-2.977 7.4226-1.134 10.855 0.71359 0.67593 2.0802 0.46143 2.2637-0.44568l0.75897-9.4253c-0.17328-0.70121-0.6198-1.4377-1.2091-1.3547zm4.823 8.3663c-0.0818-0.007-0.15228 0.0373-0.22502 0.075-0.19475 0.10054-0.3173 0.38261-0.37509 0.90016 0 0.72371-0.267 1.8178 0.90018 1.5842 0.45357 0 0.46157-0.44146 0.68395-0.67514 0.29775-0.73875-0.41363-1.8314-0.984-1.8842zm-56.918 47.559c-2.5278 1.3996-4.099 3.433-5.0436 6.1821 0 1.1684 1.3451 0.98402 2.0298 0.98402 4.1774-0.9448 8.7867 0.67814 13.119 0.4545l37.388 0.22073 1.5841-0.90459c0.45357-0.71352 0.98307-1.6628 0.52953-2.3387-1.8519-1.6208-4.8696-1.3547-7.1661-1.3547-11.761 0-23.975 0.44948-35.504-0.45009-2.5278-0.68345-4.4088-2.3384-6.9366-2.7932zm110.51 0c-0.75637-0.0113-1.5806 0.40326-2.5593 1.4385-10.815 3.01-22.166 1.3625-33.474 1.8048-4.602 0-9.6513-0.85391-13.569 1.2091-0.94602 1.1407 0.19203 2.4472 1.3591 3.1682 8.5195-0.23108 17.327 0.44473 25.624 0 8.5093 0 16.321-0.48999 24.878 0 1.1282-0.23108 3.4717-0.19407 3.0182-2.0386-1.5553-1.7288-3.0098-5.5369-5.2775-5.582zm-217.76 5.529c-4.18 0.16335-8.1447 1.7948-8.8385 2.0916-0.0327 0.0303-0.24516 0.22434-0.5957 0.556-0.00084 0.00077-0.0212 0.0226-0.0221 0.0226-1.3632 1.284-4.8827 4.6015-9.4033 8.8606-12.286 11.579-35.806 33.745-36.228 34.149-0.35806 0.71616-1.7518 3.7588-1.7518 8.053 0 5.1964 2.1187 12.064 10.833 18.251 0.11057 0.0628 10.99 5.9462 17.659 0.13669l35.672-43.076c0.10047-0.11794 10.211-11.846 23.969-0.31772 0.98249 0.74128 3.8654 3.1327 3.8654 5.7585 0 0.34931-0.0452 0.70096-0.15444 1.0502-0.80658 2.563-3.9362 3.0702-6.4248 3.1859-0.63951 0.27642-4.7631 2.1362-8.4193 6.0762 0 0-35.38 40.681-35.804 41.161-0.2563 0.58294-1.765 4.2073-1.765 8.8032 0 2.2766 0.38591 4.7664 1.5091 7.1661 2.4462 5.2214 7.8407 8.9619 15.996 11.115 0.40079 0.0953 9.9697 2.4999 19.905 11.689 1.4184 1.0428 143.56 102.57 298.54-6.7954 0.84178-0.90712 5.1378-4.9183 14.994-5.3834 0.24386-0.0881 8.8509-2.9098 12.095-10.365 0.82917-1.9021 1.2399-3.9544 1.2399-6.1556 0-3.2815-0.93436-6.8901-2.7711-10.78-2.9839-3.5504-6.7532-7.9892-10.754-12.655l-0.12788-0.0398c0.002-0.0113 0.0136-0.056 0.0226-0.0838-10.816-12.614-23.314-26.828-26.754-29.503-0.0181-0.0181-1.9896-1.6645-5.6746-2.9962-2.0818-0.14075-7.304-0.82081-8.1545-4.2758-0.0791-0.31157-0.11906-0.61119-0.11906-0.91782 0-3.0932 3.8157-5.801 7.2632-7.8589 0.10934-0.0628 11.226-6.4215 23.06 3.7728l31.612 39.912c0.4246 0.40206 10.625 9.623 20.867-0.37506 0.0854-0.0678 9.2318-7.2578 9.9416-16.15 0.33162-4.1085-1.235-8.0314-4.5494-11.592l-36.947-35.178c-0.25403-0.26451-3.3132-3.4567-7.6603-5.4849-0.69789-0.32559-1.4304-0.61215-2.1887-0.86047-4.0716-1.3334-8.9146-1.321-13.582 2.6917-0.0203 0.0181-2.0782 1.9126-2.1975 4.4656-0.0779 1.5856 0.62616 3.1949 1.7694 4.4965 3.3972 2.4147 5.0259 3.8134 5.6967 4.8362 2.5253 0.44225 6.9928 0.37115 6.2615-5.9658 0 0 0.16899-3.2012-2.5284-2.6961 0 0-4.1638-2.3568 3.0315-2.9874 0 0 12.624 4.424-3.155 14.897 0 0-1.7948 1.36-6.9057-0.0398-19.587-3.0882-28.442 6.6335-28.938 7.1837-3.2414 3.1083-4.9421 6.0638-4.9421 8.5914 0 0.26623 0.0269 0.52975 0.0574 0.78103 0.40335 2.7389 2.7612 4.4341 3.6934 5.0171 3.5655-0.48999 5.6749 1.0995 5.9438 1.3282 3.494 3.1159 4.9297 6.1044 4.2449 8.8561-1.0176 4.1361-6.2755 5.5661-6.8749 5.7143l-0.35301 0.0883-0.37506-0.0352c-7.6513-0.90206-13.026 2.7248-12.947 2.652-1.0641 0.88197-107.84 87.495-234.54-0.85605-0.0377-0.0325-3.9748-3.1985-13.644-2.299l-0.3133 0.0264-0.30006-0.0617c-0.53143-0.12065-5.2195-1.2317-6.5086-4.973-0.81916-2.3796-0.0306-5.0322 2.2195-7.7133 0.22362-0.3392 2.3761-3.1524 8.4104-2.1798 0.36815-0.0477 2.9981-0.4916 3.8875-2.4667 0.20731-0.45728 0.30448-1.0012 0.30448-1.6018 0-2.0403-1.163-4.8156-3.3315-7.9515-0.14322-0.15588-14.212-15.414-30.654-10.127-1.5365 0.66337-3.3318 0.98588-5.3746 0.95312h-0.0176c-0.22991-0.002-0.45217 0.0113-0.68836-0.005l0.005-0.0971c-2.0001-0.37696-7.7864-2.102-9.6548-9.5798 0 0 0.50406-5.893 5.7232-6.1468 0 0 4.9688 1.1832 2.3608 2.952l-0.17651-0.0838s-3.7003-0.92275-2.2681 3.786c0 0 0.96206 4.7982 5.6746 5.1275 0.99001-0.0529 1.866-0.22367 2.6211-0.5251-0.001-0.009-0.0397-0.11025-0.0397-0.11025 0.0942-0.0328 0.1781-0.0181 0.27359-0.0529 0.7714-0.34925 1.4706-0.79019 1.9945-1.4209 1.3883-1.681 1.8004-4.2467 1.8004-6.6013 0-1.8896-0.27191-3.5829-0.51187-4.6156-1.6744-2.8692-4.437-3.956-7.3029-4.1699-0.59705-0.0447-1.1944-0.0529-1.7915-0.031l0.009-0.0181zm18.577 27.689c-4.7084 0.17125-7.6502 3.3697-8.1236 3.9272l-25.929 31.272c2.7414 1.0201 5.9616 3.3379 7.8236 7.7353l24.83-28.545c4.6322-4.9877 9.9343-7.1442 10.158-7.2323l0.33095-0.12788 0.3486-0.0136c2.0165-0.0727 2.6718-0.32581 2.9609-0.47657-0.26133-0.56789-1.1496-1.5881-2.171-2.3519-3.9457-3.3074-7.4035-4.2902-10.228-4.1876zm290.28 1.1385c-0.44817-0.0113-0.88238 0.001-1.2973 0.0264v-0.005c-3.3196 0.20378-5.5184 1.4275-5.6879 1.5268-4.4828 2.6761-5.1284 4.009-5.2289 4.2979 0.4636 0.54523 2.7593 1.1804 4.8097 1.2885l0.29565 0.0181 0.26917 0.0971c4.6145 1.6333 7.047 3.7564 7.047 3.764 3.7001 2.8796 16.335 17.287 26.109 28.664 1.4724-2.2062 3.9316-4.712 7.8677-5.8953l-23.04-29.17c-4.0756-3.4937-7.9828-4.5547-11.12-4.6288z"/>
 <path fill="#ad8b3a" d="m308.37 7.3033c-1.3255 0.13048-3.4996 1.0792 0.28683 6.5704 0 0 1.0486 1.2819 3.5389 2.6564 5.1374 0.61059 24.607 3.7879 31.811 17.54 0 0-0.002 0.11475-0.009 0.29564 0.46355 0.593 0.99023 2.018 1.5179 5.0083 0 0-6.4009-0.58766-12.792 3.0182 9.047-0.90709 7.7442 2.2813 7.7442 2.2813-10.606 0.25377-21.207 12.373-21.207 12.373-2.945-5.0229 2.0713-9.691 5.5114-12.126-8.2129 0.93473-24.234 0.72917-39.643-11.111-9.5295-0.50758-7.272 2.2813-7.272 2.2813 4.0378 0.50255 7.8236 3.5389 7.8236 3.5389 9.8461 12.119 23.48 11.866 23.48 11.866 8.3309-0.50505 5.807 1.0105 5.807 1.0105-2.7552 2.2389-4.6883 5.8779-5.6393 7.9736h14.182c4.3997-2.6057 17.402-10.585 20.744-15.806 0 0 11.105-6.5609 19.186 1.2664 0 0 1.0136 6.8174 8.587 6.0585 0 0 13.616-0.90412 17.39 8.481h15.704c-1.5152-1.6358-4.7447-4.4232-11.385-7.9736 0 0-13.633-7.0769-14.39-15.66 0 0-5.8049-3.0276-6.31 1.5179 0 0 0.75296 7.3199-5.8114 1.0105 0 0-1.7605-1.7661-9.8401-4.7965 0 0-8.8421-1.7663-15.66-11.362 0 0-7.8226-8.8346-18.93-10.096 0 0-9.092-1.5135-13.635-5.807 0 0-0.34797-0.052322-0.78986-0.00883zm-15.42 0.6089c-0.65365-0.062358-0.45452 1.4164-0.45452 1.4164 0.16583 5.3118 4.0362 7.7789 6.6719 8.8517 1.4021-0.53269 5.0035-1.7942 8.3266-2.0254-1.0189-1.1433-2.1784-2.8527-2.8417-5.1142-3.5292 1.0629-9.3812-0.70161-9.3812-0.70161-1.2306-1.7995-1.9289-2.3895-2.321-2.4269zm-71.511 6.4998c-0.85246-0.02949-2.3038 0.60046-4.6994 3.2477 0 0-3.033 2.0232-7.0734 1.7695 0 0-10.352 3.2837-14.645 16.159 0 0-2.7749 4.0364-15.652 6.0541 0 0-5.803 3.0326-10.096 5.5555 0 0-4.04 2.5621-3.486-0.62659-1.7953 1.4951-4.1006 2.396-6.6145 2.3961-0.27892 0-0.55127-0.01966-0.82516-0.03972-0.70607 5.4603-7.0596 9.5522-10.899 11.552h12.038c6.3044-8.9354 27.208-5.9526 27.208-5.9526 7.3234-2.0203-2.5284-3.283-2.5284-3.283-9.3398 0.25128-4.0331-3.0315-4.0331-3.0315 2.5266 1.5127 9.593 0.24711 9.593 0.24711 4.0881-1.0528 7.2592-1.5703 9.7254-1.7562 1.4863-1.2614 3.4892-2.155 5.6526-2.7932-0.58546-0.36184-0.42852-0.27751 0.0176-0.0088 6.2881-1.8469 13.891-1.4959 13.891-1.4959 13.885-3.0278-19.949-4.042-19.949-4.042 1.8845-1.3292 5.4679-1.7849 8.9002-1.8754 8.8976-6.8247 22.407-8.2251 22.407-8.2251 17.671 0.75885 18.683 7.828 18.683 7.828l-0.0264 0.08384c0.74502-0.08294 1.4757-0.12681 2.1931-0.15444 3.3231-0.94229 7.7238-2.8476 8.94-6.491 0 0 1.0129-2.021-4.289-2.021 0 0-3.7885-2.2734-6.8175-4.545 0 0-19.949-9.592-43.177 10.1 0 0-2.0217 0.25159 3.5301-5.5555 0 0 6.3164-4.7953 10.859-7.3205 0 0 4.5427-2.5228 2.2725-5.048 0 0-0.24637-0.69412-1.0943-0.72808h-0.005zm90.084 5.9791c-4.1576-0.0329-8.9575 0.48687-14.491 1.8136 0 0-9.8536 2.7786-18.436-0.50304 0 0-4.5399 1.7675 7.5765 8.0795 0 0 27.732 22.602 50.251 5.5378-4.9336-2.274-16.336-6.393-27.023-2.0033 0 0-0.23026-8.7122 24.318-4.3023-3.0662-3.4222-9.7224-8.5234-22.195-8.6223zm63.017 0.30006c-3.3368 0-6.0629 2.7191-6.0629 6.0585 0 1.9574 0.94841 3.7414 2.4799 4.8671 2.0441-0.72868 5.4937-1.6575 8.0707-0.82075l0.67073-0.86929c0.59303-0.95484 0.90018-2.0512 0.90018-3.1771 0-3.3394-2.7127-6.0585-6.0585-6.0585zm-24.397 6.1203 0.0574 0.05736c-0.0113-0.01898-0.0203-0.03845-0.031-0.05736h-0.0264zm0.0574 0.05736c0.11996 0.21192 0.23876 0.42068 0.35301 0.63983 0 0 0.32409 0.22315 0.89575 0.58246l-1.2488-1.2223zm-115.29 3.672c-11.932 0.37611-17.191 4.3052-19.071 6.2438 0.40329 0.04019 0.63542 0.06177 0.63542 0.06177 12.369-0.50505 14.641 0.76338 14.641 0.76338-1.7664 6.3119-11.107 6.8087-11.107 6.8087-5.1548 0.40454-8.2428 1.3379-10.096 2.3078 8.0824 3.558 21.203 0.22064 21.203 0.22064 6.3108-5.0482 12.373-8.0795 12.373-8.0795 7.8272-3.7867-8.5781-8.3266-8.5781-8.3266zm-75.747 1.765c-3.4789 0-6.31 2.8281-6.31 6.3056 0 3.4801 2.8312 6.3189 6.31 6.3189 3.4815 0 6.31-2.8388 6.31-6.3189 0-3.4777-2.8286-6.3056-6.31-6.3056zm92.127 6.9984c-1.9838-0.02237-3.7217 0.11461-4.973 0.26034-5.4752 2.4173-10.908 8.6487-10.908 8.6487-1.0629 0.96993-2.1338 1.7934-3.208 2.502 4.5921 2.5605 12.805 1.0326 12.805 1.0326 13.632-5.0505 24.486-3.7904 24.486-3.7904-4.064-7.0764-12.251-8.586-18.202-8.6531zm161.61 5.6261s-3.5349 0.50164 0.25153 8.5825c0 0 1.3077 3.8014 1.5665 6.9675h8.3619c-1.3946-1.9851-4.1396-5.6082-6.641-7.219 0 0 2.5045-2.5003 10.987 7.219h7.294c-2.2916-2.965-8.0077-9.2442-17.271-12.267 0 0-3.5394-1.014-4.5494-3.283zm-284.28 7.069c-0.86436 2.5881-4.9118 6.3552-7.3867 8.481h9.1165c2.3356-6.1111-1.7297-8.481-1.7297-8.481zm228.23 0c-3.2036 0-5.807 2.6039-5.807 5.8026 0 0.94229 0.2365 1.8568 0.66633 2.6785h10.281c0.42589-0.82419 0.6663-1.7362 0.6663-2.6785l-0.075-0.92665 0.24269-0.03972c-1.4386-0.89706-3.3393-2.4501-4.3244-4.7744l-0.044 0.16328-1.6062-0.22504zm-144.46 0.96636c3.9989 3.2943 8.4615 6.0573 10.957 7.5147h25.743c-0.82291-2.965-2.8619-4.687-4.4876-5.604-7.0973 0.90962-14.134-0.54626-17.849-1.5488-5.3408 1.6911-10.434 0.94479-14.363-0.36183zm-17.125 1.0546-1.4826 0.26034c-0.59303 2.3243-2.3305 3.2342-3.764 3.5786l-0.30888 1.7121 0.18532 0.909h10.767l0.15444-0.909c0-3.063-2.4879-5.5511-5.5511-5.5511zm265.53 24.711v13.661c0.0628 0.03771 0.12245 0.06376 0.18526 0.10149 0.50756-2.9952 2.0741-6.0194 3.8919-8.6929-0.90709-1.5076-2.282-3.4622-4.0773-5.0701zm-358.21 1.1914c-1.387 1.4197-2.4801 2.9882-3.2389 4.2494 1.3142 1.9348 2.4914 4.048 3.2389 6.2041v-10.453zm368.97 3.3801c-0.53264 0.06642-0.85163 0.3839-0.85163 0.3839-5.004 3.5757-6.4611 8.2727-6.8881 10.723 6.777 5.0656 15.376 15.277 15.25 34.458 1.9235 0.14071 2.9962 1.0281 2.9962 1.0281 0.84178-0.60053 1.6404-1.1592 2.4005-1.6768 3.5594-13.958-2.4005-26.101-2.4005-26.101-2.7766-3.5353-6.5616-14.394-6.5616-14.394-1.5783-3.9451-3.0572-4.5322-3.9449-4.4214zm-378.88 0.37066v0.0045c-0.88744-0.11018-2.3666 0.47796-3.9449 4.4214 0 0-3.7949 10.857-6.5704 14.39 0 0-5.9522 12.144-2.3916 26.105 0.75885 0.51511 1.5511 1.0718 2.3916 1.6724 0 0 1.0802-0.88489 3.005-1.0281-0.12566-19.177 8.473-29.385 15.25-34.454-0.42715-2.4474-1.8841-7.147-6.8881-10.723 0 0-0.31918-0.32219-0.85164-0.38831zm368.12 14.959v17.174c6.6262 5.058 13.189 14.337 13.189 14.337 0.39575-0.2161 0.77791-0.39579 1.1473-0.55158 0.13307-5.91-0.86841-21.761-14.337-30.959zm-358.21 0.9796c-12.663 9.272-13.624 24.569-13.494 30.354 0.36937 0.1558 0.74836 0.33297 1.1429 0.55158 0 0 6.0212-8.5153 12.351-13.679v-17.227zm396.28 11.866c-5.3237-0.13999-8.9653 2.423-10.573 3.8522 0.0727 4.4904-0.3036 8.4276-0.6001 10.767 3.6434-2.2941 5.732-3.2786 5.732-3.2786-5.4502 4.7064-6.7863 10.28-6.1291 15.647 5.8998-0.77896 7.1396-8.0751 7.1396-8.0751 1.5139-7.8245 4.2891-13.128 4.2891-13.128 7.3208-4.2892 2.5284-5.5555 2.5284-5.5555-0.82809-0.14167-1.6267-0.20945-2.3872-0.22945zm-433.52 0.37507c-0.76057 0.0203-1.5547 0.096-2.3828 0.23828 0 0-4.7969 1.2567 2.524 5.5511 0 0 2.7794 5.3048 4.2935 13.132 0 0 1.2322 7.2873 7.1308 8.0663 0.65834-5.3673-0.67132-10.941-6.1203-15.647 0 0 2.0795 0.98432 5.7232 3.2786-0.2965-2.3394-0.66419-6.279-0.59129-10.767-1.6061-1.4313-5.253-3.9949-10.577-3.8522zm243.03 6.0188c-0.83426 0.11305-1.5846 0.44534-2.2593 0.90017-1.6207 4.5907-1.2074 9.3839-1.4385 14.248-1.1672 7.1287-10.356 2.7842-14.544 6.7116-0.9071 1.8418-0.25898 3.6609 1.5841 4.598 4.4087 1.1282 11.117-1.1712 12.96 4.5979 0.45355 5.3144-0.45513 10.852 0.22945 15.674-0.2311 9.6865 0.41616 19.573-1.2046 29.026-2.0642 3.9274-7.3072 2.5636-10.78 3.4683-1.6207 0.45482-2.7588 1.8432-2.4887 3.4639 1.5818 4.8244 7.535 2.5318 11.23 3.6978 1.6207 1.1307 3.2457 2.9894 3.4683 5.0524 0.45354 4.1887 0.00094 8.3714 0.45449 12.51 1.8431 4.8244 8.2906 2.3086 12.439 3.2433 11.307-0.71359 22.838 0.22547 34.145-0.22947 0.6746-0.48999 1.8442-0.9408 1.5841-2.1092-0.45357-1.1282-1.6176-1.1249-2.5637-1.5797-13.151-1.387-25.829-0.0407-38.747-1.2091-1.5818-0.90459-2.9459-1.8433-3.1683-3.6978-1.1383-16.843 0.009-36.894-0.44566-53.066 0-10.815 0.005-21.107 0.22502-32.411-0.67594-4.4099 1.128-8.1034 2.4887-11.76l-0.68394-0.67513c-0.81035-0.45488-1.6501-0.57004-2.4843-0.4545zm-53.732 0.29564c-0.84051 0.13567-1.6304 0.65167-1.8842 1.5135 2.0742 5.9603 0.71752 13.082 1.6636 19.296 0 15.001 0.031 28.152-0.22947 42.661-0.90709 12.255 1.0973 24.275-0.75455 36.033-2.7502 5.317-9.839 3.9172-14.923 3.6934l-16.137 0.4545c-3.6948-0.22112-8.0637-0.26745-11.305 1.1296-0.22238 0.67593 0.003 1.4319 0.22505 1.8842 1.1772 0.22366 2.5293 1.1321 3.6978 0.22502 4.8621 1.6207 9.9069-0.67514 14.769 0.22947l24.878-0.45452c1.1282-0.67344 2.4853-0.98237 2.9388-2.3343 0.41462-5.5455 0.6761-11.724 1.1296-17.262 3.0191-5.7693 11.573 0.85918 14.323-4.9024-0.90707-7.8423-10.627-0.64367-13.869-6.6366-1.3506-6.9252-0.44664-13.192-0.90018-20.351 1.1382-9.6865-0.007-17.904 1.3547-27.588 1.8519-3.4751 6.7441-0.94722 9.7254-2.3343 1.6207-0.19348 2.5655-2.1088 2.3343-3.4683-2.7879-4.4099-9.0417-0.71762-12.514-3.6978-1.3506-5.317 0.52008-10.851-1.2841-16.128-0.14459-1.4373-1.8381-2.1898-3.2389-1.9636zm162.16 0.60012-0.009 0.005c-3.6948 1.5805 0.23107 5.2481 0 8.2207-0.22231 13.38-0.005 26.807 0.22502 40.631-0.45355 13.383-0.22593 26.731-0.67954 40.102-1.3896 4.8648 1.849 10.891-3.689 13.419-8.0658 0.23386-16.13 0.4443-23.974 0.22064-5.7606 0.44478-12.704-2.103-17.567 1.1385-0.23108 0.67593-0.27102 1.6525 0.67513 2.1048l11.31 0.22502c11.528-0.22096 22.839 0.67457 34.599-0.22502l2.1136-1.8842c0.67593-5.5356 1.5841-11.04 1.5841-16.812 2.0742-5.5356 8.9717-0.91024 12.889-3.4683 1.6207-0.4523 2.0692-2.5201 1.8092-4.1434-2.7502-3.2013-7.8334-1.6522-11.76-2.5593l-1.8004-1.3591c-1.8042-5.3144-1.5415-12.473-0.90458-18.021v-16.133c0.23105-4.1486 0.45356-7.1289 0-11.305 1.1672-6.9 9.6513-1.3601 13.569-5.2775 0.45353-0.71363 0.67878-2.2986 0.22503-3.2433-1.3996-3.6963-5.9462-1.8067-8.9664-2.7138-8.2495-1.8544-2.7541-11.799-5.2819-17.337-0.89702-1.3619-2.7478-1.5841-4.3685-1.5841zm-269.88 0.68396c-4.602 3.4626-1.619 10.357-3.6934 14.998-1.3996 5.9905-8.3 2.0013-11.985 4.2979-1.6207 0.67342-3.0501 2.3686-2.7888 4.2229 0.90709 2.073 3.1992 1.8067 5.0524 2.7138 2.5278-0.45483 5.3221-0.44864 7.8412-0.22504 2.5278 1.1659 2.0678 3.9622 3.0138 6.0276-1.3996 14.509 0.48668 29.025-1.134 44.025l-1.1296 1.1296c-3.6949 1.3996-8.3277-0.6336-11.53 1.8842-0.93598 0.94731-1.4304 2.3023-0.75455 3.4683 3.0191 4.5933 9.7219 0.90802 13.639 3.9184 0.94473 5.0482 0.19414 11.273 0.909 16.587 0.45355 1.3519 1.8438 2.7927 3.2433 3.0138 14.017 0.68598 29.06-0.002 43.57 0.45007 1.1672-0.22119 2.5194-0.94471 2.2593-2.3343 0-0.90458-0.90945-1.3605-1.5841-1.5841-6.484-0.4523-12.019-0.4523-18.242 0-5.7704 0.49249-11.956-0.90285-17.946-0.22946-2.5668-0.67342-6.6975 0.003-7.3823-3.914-0.22238-7.3798-0.90852-13.876-1.1296-21.489 0.90709-18.697 0.003-38.453 0.22504-57.814l0.45009-12.064c-0.89686-2.5203 4.1411-7.0822-0.90459-7.0822zm313.86 4.5979v13.092c3.3519 1.5252 6.8042 1.8356 6.8042 1.8356 0.38959-4.2541-3.4913-10.468-6.8042-14.928zm-358.21 1.5312c-3.0906 4.332-6.3122 9.8764-5.9526 13.776 0 0 2.8909-0.27088 5.9526-1.487v-12.289zm377.07 7.9118c-0.72585 0.0632-1.3591 0.44126-1.3591 0.44126 0.75636 5.0482-2.0166 4.042-2.0166 4.042-4.7967-0.50505-4.042 1.765-4.042 1.765 3.5353 4.2919 14.641 23.731 14.641 23.731 6.3119 11.36 2.524 10.352 2.524 10.352-2.2778-4.3823-6.7371-4.2641-9.2577-3.7816 0.43093 1.1835 0.67514 2.4523 0.67514 3.7816 0 0.0427-0.005 0.0877-0.005 0.12796 3.9009 0.68345 12.979 4.3988 22.756 23.202 1.5127 0.95987 3.4562 2.5058 5.9526 4.8804 0.42971-1.5102 1.1824-3.9162 2.2063-6.3586-14.074-17.23-6.4204-29.931-6.4204-29.931 0.0314-0.0176 0.0524-0.0308 0.0838-0.0485-0.22345-0.19349-0.45398-0.3733-0.66631-0.58688l2.855-2.855c0.0791 0.0778 0.16538 0.14522 0.24712 0.22064 0.18594-1.2614-0.24712-2.2857-0.24712-2.2857-4.0404-4.543-5.5555 1.0105-5.5555 1.0105-1.2652 5.8071-4.7965 3.283-4.7965 3.283-8.5834-12.875-15.652-29.538-15.652-29.538-0.37816-1.2626-1.198-1.5149-1.9239-1.4518zm-395.06 0.37066c-0.72601-0.0628-1.5451 0.19034-1.9239 1.4518 0 0-7.0666 16.663-15.652 29.538 0 0-3.5351 2.5239-4.7965-3.283 0 0-1.5182-5.5536-5.5599-1.0105 0 0-1.511 3.5422 2.2769 5.5599 0 0 7.6548 12.699-6.4204 29.926 1.0239 2.4424 1.7766 4.8571 2.2063 6.3674 2.4964-2.3745 4.4412-3.9268 5.9526-4.8892 9.781-18.81 18.856-22.521 22.756-23.202-0.0013-0.0427-0.0045-0.0834-0.0045-0.12356 0-1.3292 0.24545-2.6006 0.67513-3.7816-2.5215-0.48243-6.9842-0.60069-9.2621 3.7816 0 0-3.7892 1.0062 2.524-10.356 0 0 11.109-19.442 14.645-23.731 0 0 0.75479-2.2701-4.042-1.765 0 0-2.7698 1.0086-2.0122-4.042 0 0-0.63746-0.37845-1.3635-0.44127zm376.23 7.4706v4.5803c0.26013-1.8745 2.8373-3.6492 2.8373-3.6492-0.94356-0.24119-1.9101-0.57175-2.8373-0.93106zm-358.24 0.68837c-0.66337 0.23622-1.3368 0.44942-1.9989 0.61777 0 0 1.1546 0.79616 1.9989 1.8842v-2.502zm365.59 3.0888c-3.414 0.13714-7.0602 2.2019-7.0602 2.2019-0.17577-0.26636-0.27312-0.53804-0.31329-0.81193v6.0629c3.2792-2.0705 8.0146-3.7302 14.156-2.577-1.0378-1.3443-1.7209-2.1666-1.7209-2.1666-1.0409-2.176-3.0093-2.7896-5.0568-2.7094h-0.005zm-372.98 0.37c-1.7228 0.11502-3.2968 0.82914-4.192 2.7005 0 0-0.6844 0.82668-1.7209 2.171 5.6336-1.0604 10.084 0.2566 13.313 2.0783v-5.0304c-1.2446-0.62663-4.5285-2.1111-7.4-1.9195zm-46.275 2.5372c-4.5944 0-8.3266 3.736-8.3266 8.3266 0 4.5959 3.7322 8.3354 8.3266 8.3354 1.6509 0 3.2364-0.50553 4.5935-1.4076-0.7463-1.8846-1.9146-6.5707 3.4639-9.0282-0.93348-3.578-4.1902-6.2262-8.0574-6.2262zm464.56 0c-0.24502 0-0.48687 0.0151-0.72807 0.0353-2.6811 0.87695-4.739 3.0826-5.454 5.8291 5.3583 2.4575 4.1882 7.1303 3.4418 9.015 1.3581 0.89956 2.9435 1.4076 4.598 1.4076 0.24242 0 0.48179-0.0199 0.71926-0.0397 1.2149-0.39199 2.3602-1.0586 3.3227-2.021 3.2414-3.249 3.2414-8.5397 0-11.786-1.5768-1.5755-3.6747-2.4402-5.8997-2.4402zm21.273 16.49v0.005c-0.80007 0.0511-2.3622 0.76333-5.2025 2.7358 0 0-10.181 7.0708-7.1573 21.401 0.68589 0.62818 1.3855 1.4802 2.1092 2.5858 0 0 3.8219 6.4351 6.7116 12.955 1.2715-1.3368 2.6368-2.617 4.0728-3.7904 0.29276-4.3119 0.38724-10.662-1.187-13.966 0 0-5.3038-11.864 0.50303-18.935 0 0 1.9101-3.104 0.15001-2.9918zm-505.25 0.37507c-1.7597-0.11219 0.15444 2.9918 0.15444 2.9918 5.8056 7.0708 0.50304 18.935 0.50304 18.935-1.573 3.3068-1.481 9.654-1.187 13.966 1.4348 1.1735 2.7927 2.4536 4.064 3.7904 2.8862-6.5195 6.716-12.955 6.716-12.955 0.7224-1.1031 1.4277-1.9551 2.1136-2.5858 3.024-14.33-7.1661-21.401-7.1661-21.401-2.8402-1.9717-4.3982-2.6848-5.1981-2.7358v-0.005zm65.042 2.2328c-3.8972 0-7.0734 3.1736-7.0734 7.0734 0 3.8972 3.1763 7.069 7.0734 7.069 3.896 0 7.0602-3.1719 7.0602-7.069 0-3.8998-3.1642-7.0734-7.0602-7.0734zm375.01 0c-2.8268 0-5.2632 1.6752-6.3939 4.0772-0.32538 0.81161-0.50745 1.6939-0.50745 2.6211 0 3.8948 3.1663 7.069 7.0646 7.069 2.8243 0 5.262-1.6732 6.3939-4.0728 0.32537-0.81161 0.51185-1.6939 0.51185-2.6211 0-3.8998-3.1719-7.0734-7.069-7.0734zm-385.2 11.45c-8.5271-0.76638-15.858 12.134-18.877 18.361 0.6709 1.0956 0.29123 3.005 0.29123 3.005-0.4171 0.73874-0.70859 1.5506-0.90458 2.4049 6.6727-9.1563 19.024-15.756 24.468-18.352-2.2137-1.1835-3.9761-3.1018-4.9774-5.4187zm394.45 12.404s-0.00036 10.857-1.0105 15.907c0 0 0.33196 6.2984 3.3271 10.934 4.0367 2.563 7.5678 5.1844 10.626 7.828 0.36182-1.0554 0.93082-2.4749 1.765-4.0728-1.916-7.0156-9.4077-18.732-9.4077-18.732-2.2728-4.2919-2.021-4.7965-2.021-4.7965 4.2956 2.0454 12.235 13.698 15.096 18.052 0.10551-0.12568 0.19972-0.24942 0.30889-0.37507 0 0 1.6406-3.9565 2.118-8.3487-3.832-4.8447-12.753-15.056-20.801-16.397zm-393.35 0.37507c-8.0495 1.3418-16.965 11.553-20.797 16.397 0.47744 4.3922 2.1136 8.3443 2.1136 8.3443 0.10806 0.12557 0.19893 0.25387 0.30447 0.37949 2.8608-4.352 10.8-16.002 15.096-18.048 0 0 0.2518 0.50296-2.021 4.7921 0 0-7.484 11.718-9.3989 18.736 0.83422 1.5981 1.4032 3.0178 1.765 4.0729 3.058-2.6434 6.5889-5.2694 10.626-7.8324 2.9964-4.636 3.3227-10.934 3.3227-10.934-1.0101-5.0505-1.0105-15.907-1.0105-15.907zm434.25 1.39c-1.1257 0.0543-5.7148 0.99355-7.0734 12.58 2.1974 2.6459 5.3552 7.0733 8.1545 13.388 1.3808-2.5127 4.0479-6.9804 7.6736-11.398-1.4071-4.2439-5.112-14.365-8.5031-14.566 0 0-0.0908-0.0122-0.25152-0.005zm-475.15 0.38c-0.16264-0.008-0.25719 0.004-0.26035 0.005h-0.0045c-3.3897 0.20652-7.0966 10.319-8.5031 14.562 3.6271 4.4198 6.3029 8.8939 7.6824 11.407 2.8004-6.3146 5.9483-10.744 8.1457-13.392-1.3526-11.562-5.9217-12.523-7.0602-12.58zm458.11 8.2428c-0.75746 0.15768-1.3926 1.3584-0.88694 5.5246 0 0 0.76009 13.378-4.5406 17.673 0 0-1.6146 2.2925-1.3017 5.0039 8.5596 8.6564 12.61 17.27 14.438 24.256 0.65204-6.8497 0.40587-16.048-3.0403-25.893 0 0 4.7158 0.66987 11.446 41.735 0 0 1.2213 0.45628 2.5682-0.48098 1.8921-7.0834 9.3415-41.609-17.046-67.094 0 0-0.87966-0.88135-1.6371-0.72367zm-441.08 0.37507c-0.75728-0.15799-1.6415 0.72809-1.6415 0.72809-26.376 25.474-18.942 59.977-17.046 67.081 1.3494 0.94478 2.5726 0.49422 2.5726 0.49422 6.7305-41.07 11.442-41.748 11.442-41.748-3.4463 9.8423-3.6881 19.044-3.0359 25.893 1.8293-6.9828 5.8723-15.591 14.429-24.243 0.31409-2.7138-1.2929-5.0083-1.2929-5.0083-5.3019-4.2942-4.5494-17.673-4.5494-17.673 0.50505-4.1648-0.12085-5.3665-0.87811-5.5246zm480.34 0.0971c-0.67303 0.0962-1.8947 0.85377-4.0729 3.0315 0 0-11.503 10.447-14.65 20.219 1.2878 3.9248 2.3554 8.3843 3.0315 13.375 2.0126-8.9555 7.0734-15.665 7.0734-15.665-2.5241 3.533-2.7756 13.123-2.7756 13.123 0.36437 2.9072-2.1458 8.2816-3.583 11.076 0.18978 5.5382-0.10483 11.613-1.0899 18.246 5.3673-4.6912 18.868-18.809 17.042-40.931 0 0-4.7971-15.909-0.25153-20.96 0 0 0.39811-1.6739-0.72366-1.5135zm-519.6 0.37c-1.1215-0.16036-0.72808 1.5135-0.72808 1.5135 4.543 5.0505-0.25593 20.96-0.25593 20.96-1.8255 22.125 11.683 36.243 17.05 40.931-0.98498-6.6337-1.2897-12.704-1.0987-18.242-1.4385-2.7942-3.9417-8.1729-3.5786-11.08 0 0-0.25148-9.5878-2.7755-13.123 0 0 5.0644 6.7153 7.0734 15.678 0.67718-4.9953 1.7482-9.4605 3.0359-13.388-3.1478-9.7719-14.659-20.219-14.659-20.219-2.177-2.177-3.3911-2.9355-4.064-3.0315zm445.29 12.364c-1.6103 0.0665-1.3458 1.9062-1.3458 1.9062 3.0293 2.0177 9.4298 17.836 9.4298 17.836 4.0529 28.11 18.509 35.167 24.058 36.859-3.2138-10.659-9.4613-26.986-20.364-40.556 0 0 6.9757 4.9849 28.13 34.33 6.6852-24.934-34.52-47.793-34.52-47.793-2.776-2.0202-4.4217-2.6168-5.3878-2.577v-0.005zm-370.97 0.37066v0.005c-0.96618-0.0399-2.6114 0.55671-5.3878 2.577 0 0-41.198 22.853-34.515 47.793 21.154-29.345 28.117-34.33 28.117-34.33-10.899 13.574-17.142 29.901-20.355 40.556 5.5455-1.6911 20.008-8.7457 24.062-36.854 0 0 6.3949-15.822 9.4253-17.84 0 0 0.26443-1.8397-1.3458-1.9062zm265.31 3.1683c-1.0265 0.0401-1.9602 0.58761-2.5682 1.8842-1.1673 1.583-1.4261 3.884-0.75014 5.957 0.71366 1.3996 1.8475 2.7827 3.4683 3.0138 1.3983-0.23117 3.2449 0.19316 4.3729-0.97519 1.1382-2.073 1.3566-5.0028-0.22502-6.8572-0.70606-1.7162-2.588-3.0854-4.2979-3.0226zm-159.66 0.98401c-2.2966 0.90709-3.9228 2.5271-3.9228 5.0524 0.22111 2.2966-0.64362 4.7868 1.8842 5.9526 1.1282 0.89957 2.9833 1.126 4.3729 0.45009 2.5655-0.94478 2.5303-4.1062 2.7138-6.4027-0.67593-2.3042-2.7527-4.3665-5.048-5.0524zm258.9 10.912c-0.92827 0.0694-1.8155 0.24696-2.6211 0.56922 0 0-5.2234-0.25195 2.855 9.593 0 0 7.8259 9.0844 9.09 11.61 0 0 4.5841 4.9604 8.7679 7.4176-3.1019-6.3044-4.5582-12.13-4.5582-12.13-0.64953-4.053-3.0915-10.363-5.4496-15.824-2.1757-0.69163-5.2991-1.4435-8.0839-1.2355zm-355.24 0.14549c0.22613 1.485 0.46169 2.9648 0.71043 4.4347-0.24499-1.4725-0.48555-2.9497-0.71043-4.4347zm-3.8566 1.2752c-2.7853-0.2074-5.9075 0.55271-8.0839 1.2444-2.3582 5.4577-4.8014 11.764-5.4496 15.815 0 0-1.4536 5.8365-4.5582 12.144 4.1837-2.4574 8.7635-7.4264 8.7635-7.4264 1.2627-2.5253 9.09-11.614 9.09-11.614 8.0798-9.8475 2.8638-9.593 2.8638-9.593-0.80565-0.32226-1.6971-0.50011-2.6255-0.56925zm448.11 10.859c-2.5647 0.0825-5.2134 0.42336-6.8704 0.67073-2.3821 9.1113-7.3848 20.193-17.876 28.925 0.10438 1.8494 0.17396 3.8831 0.18526 6.0188 10.079 0.11047 17.774-12.7 17.774-12.7 3.7868-8.0786 9.3415-16.411 9.3415-16.411 7.8272-4.2919 2.7756-6.0629 2.7756-6.0629-0.79436-0.2337-1.7706-0.36715-2.8329-0.42361-0.79675-0.0422-1.6426-0.0445-2.4975-0.0181zm-536.18 0.39284c-0.85503-0.0269-1.705-0.0253-2.502 0.0181-1.0626 0.0565-2.0341 0.18548-2.8285 0.4192 0 0-5.0458 1.7667 2.7799 6.0585 0 0 5.5516 8.3296 9.3371 16.411 0 0 7.6954 12.813 17.774 12.695 0.0113-2.1333 0.08554-4.1676 0.18973-6.0144-10.49-8.7343-15.501-19.815-17.884-28.925-1.6565-0.24705-4.301-0.5805-6.866-0.6619zm498.01 10.153s0.66813 24.232-3.3712 25.245c0 0-2.3575-6.3916-5.3878-12.452 0 0 4.7171 15.822 4.7171 28.611 0 0-2.358-0.3367-3.3668-4.3773 0 0-6.5603-8.2864-12.223-10.317-0.0881 2.4449-0.87065 4.7148-2.1622 6.6145 6.0079 2.2966 10.329 5.9256 12.81 10.868 3.7565 7.483 2.3357 15.902 1.112 20.377 1.6433 2.6208 4.7103 8.1592 6.7734 15.846 0.83426-0.93473 1.6849-1.8014 2.5505-2.6078 1.3468-16.212 11.382-23.228 16.839-25.867-0.56159-1.4297-0.87813-2.9808-0.87813-4.6068 0-0.15589 0.0158-0.30749 0.0226-0.46331-3.1095 1.0629-7.4461 3.0655-11.04 6.6586 0 0-2.6916-1.69 4.0376-31.987 0 0-3.3639 5.7259-5.7232 6.7337 0 0-3.6953-7.4003-4.7083-28.276zm-459.82 0.37949c-1.0117 20.865-4.7127 28.272-4.7127 28.272-2.3572-1.0057-5.7276-6.7292-5.7276-6.7292 6.7328 30.295 4.042 31.983 4.042 31.983-4.3921-4.3948-9.8934-6.4077-12.911-7.2367 0.01243 0.22345 0.03531 0.4446 0.03531 0.67073 0 1.4825-0.2746 2.8967-0.74573 4.2184 4.6851 1.8745 17.052 8.5152 18.555 26.635 0.86689 0.80658 1.7238 1.6643 2.5593 2.599 2.063-7.6865 5.1226-13.22 6.7645-15.841-1.2225-4.47-2.6345-12.894 1.1208-20.377 2.4813-4.945 6.7951-8.5723 12.797-10.864-1.2903-1.9021-2.0667-4.1721-2.1534-6.6145-5.66 2.0278-12.223 10.308-12.223 10.308-1.0101 4.0404-3.3668 4.3861-3.3668 4.3861 0-12.792 4.7171-28.62 4.7171-28.62-3.0316 6.0608-5.3878 12.461-5.3878 12.461-4.0393-1.0076-3.3624-25.249-3.3624-25.249zm32.23 17.668c-4.7328 0-8.587 3.8542-8.587 8.5914 0 4.734 3.8542 8.5825 8.587 8.5825 4.734 0 8.5825-3.8486 8.5825-8.5825 0-4.7372-3.8486-8.5914-8.5825-8.5914zm393.84 0c-0.45355 0-0.89349 0.0472-1.3282 0.11477-3.3382 1.1785-5.7364 4.3599-5.7364 8.0972 0 4.7366 3.8474 8.5869 8.5825 8.5869 0.446 0 0.88211-0.0497 1.3105-0.11477 3.347-1.1735 5.7585-4.3488 5.7585-8.0927 0-4.7372-3.8541-8.5914-8.587-8.5914zm-129.61 4.6024c-0.70974-0.0135-1.5042 0.19565-2.2593 0.60013-2.9714 1.8544 1.2046 3.8879 1.2046 6.1821-0.22231 17.753 0.90712 36.863 0 54.655 0 12.438 0.68377 26.278-0.45449 38.972-0.71361 2.0755-3.053 3.018-5.1275 3.2389-16.845 1.6207-34.781 0.45623-51.857 1.1296l-2.1136 0.984c-1.1672 1.1307 0.26867 2.486 1.2046 3.1594 17.076 0.94734 33.432-0.45228 50.732 0 3.9262-1.1282 9.0136 1.212 11.985-2.4843 0-5.7591 0.90643-11.566 1.8136-16.883 2.5668-5.0833 10.098-0.007 13.339-4.3773 0.67468-1.1659 0.93601-2.7819 0-3.689-3.9274-3.4626-10.559-0.005-14.023-4.1523-1.8142-6.2117-0.48163-14.997-0.67514-22.156 0.64577-8.2972-0.45508-15.683 0.22945-24.203 1.8432-6.7139 9.8766-2.0354 13.794-5.9526 0.23108-1.1659 0.67756-2.567-0.22945-3.6978-3.6949-1.8519-8.5165-0.70491-11.98-2.5593-2.4889-4.1384-1.7775-9.9532-1.5841-14.778-0.14436-2.2338-1.8683-3.9489-3.9978-3.989zm-135.62 1.0414c-1.4744 0.11342-3.197 1.1402-3.8346 2.2725-0.45355 4.5933-1.1331 8.5236-0.67954 13.114-1.6207 6.4854-8.9706 3.8802-13.794 5.2775-1.3996 0.45481-2.5637 1.8475-2.5637 3.4683 2.2954 5.5382 8.7478 1.8432 13.119 3.4639 4.1486 2.5203 3.0165 7.6253 3.2389 11.764-0.22229 11.086-0.004 22.16-0.22505 33.92-0.23241 1.8443 0.0427 4.4101-1.8092 5.807-4.6311 1.3518-10.174-0.52534-13.869 3.1682-0.71487 0.93726-0.007 2.5616 0.90018 3.0138 4.1384 2.7514 11.082-0.44905 14.323 4.3729 1.8042 5.0958 0.44756 10.673 1.3547 16.433 0.44349 0.90709 1.6287 2.2676 3.0182 2.4887 8.7017 0.68598 17.533-0.68395 26.312-0.68395 7.12 1.3619 13.986-0.7136 21.106 0 3.4638-0.7136 7.0091 0.0386 10.251-1.1296 1.1282-0.90459-0.00093-2.2902-0.4545-3.0138l-18.467-0.22502c-12.214-1.1283-24.453 0.49654-35.954 0.22502l-1.6591-1.3547c-0.67593-7.39-0.45939-13.637-1.134-21.26 0-3.4626 0.67469-7.8405 0-11.084 0.9071-7.1589 0.4545-13.558 0.4545-20.951 0.2211-13.149-0.90709-27.702 0-41.086 0.45354-2.2941 2.601-3.646 2.7844-5.9526-0.0691-1.284-0.86252-1.9231-1.8048-2.0386-0.19647-0.0235-0.40272-0.0251-0.61336-0.009zm-192.73 15.06c-4.7366 0-8.587 3.8486-8.587 8.5825 0 4.734 3.8504 8.587 8.587 8.587 4.7328 0 8.5825-3.853 8.5825-8.587s-3.8497-8.5825-8.5825-8.5825zm521.76 0c-0.26507 0-0.52663 0.0136-0.78543 0.0398-3.4449 1.1157-5.9438 4.3516-5.9438 8.1633 0 4.734 3.8497 8.5825 8.5825 8.5825 0.26508 0 0.52663-0.0136 0.78543-0.0398 3.4463-1.1156 5.9438-4.3516 5.9438-8.1634 0-4.734-3.8486-8.5825-8.5826-8.5825zm-52.373 17.019c-0.10009-0.0136-0.21328-0.005-0.34418 0.0441-0.62866 0.22933-1.6382 1.2741-3.2477 4.0199 0 0-4.4799 5.1951-5.0304 13.706 1.6735 4.0881 3.7499 11.182 3.6581 21.145 1.6018-1.9072 3.3376-3.9587 5.1583-6.0718 0 0 2.2198-3.2043 4.1346-7.7397-1.2978-5.4025-4.0143-17.578-3.6272-23.563 0 0-0.00031-1.4371-0.70161-1.54zm-415.18 0.38c-0.70148 0.10166-0.70158 1.5356-0.70161 1.5356 0.3857 5.9879-2.3295 18.174-3.6272 23.577 1.9147 4.5328 4.1302 7.7353 4.1302 7.7353 1.8205 2.1132 3.5551 4.16 5.1583 6.0674-0.09299-9.9632 1.9901-17.057 3.6625-21.145-0.55028-8.5105-5.0304-13.71-5.0304-13.71-1.6099-2.7449-2.6188-3.7814-3.2477-4.0111-0.13099-0.0479-0.24396-0.063-0.34418-0.0486zm389.8 1.1208c-0.48084 0.16267-0.97853 1.6792-0.18978 8.6223 0 0-1.2258 9.3494-3.6669 14.548 3.283 4.1032 6.5046 9.4876 8.9709 16.503 0 0 2.612-14.637-1.8445-20.695 0 0 6.0606-1.0065 8.0795 29.459 0 0 2.5056-3.1439 6.3012-7.7221-0.40956-8.4076-2.8246-33.718-17.077-40.424 0 0-0.28507-0.38904-0.57364-0.29124zm-364.43 0.37949c-0.28854-0.0976-0.57364 0.29124-0.57364 0.29124-14.252 6.7064-16.67 32.018-17.081 40.424 3.7992 4.5756 6.3145 7.7133 6.3145 7.7133 2.0215-30.461 8.0751-29.459 8.0751-29.459-4.4602 6.0582-1.8489 20.704-1.8489 20.704 2.4663-7.0156 5.6867-12.397 8.9708-16.503-2.4436-5.1987-3.6669-14.553-3.6669-14.553 0.78914-6.9415 0.29115-8.4554-0.18973-8.6178zm400.99 9.849c-0.85066 0.00007-1.6759 1.4213-2.1489 5.9658 0 0-1.5207 16.918-14.65 27.773 0 0-9.5959 10.856-8.8385 25.752 0 0-5.5474 4.2918-5.0436-11.362 0 0-6.8164-36.607-23.48-43.676 0 0-1.9496 34.648-0.22945 45.371 7.4127-0.0292 14.156 4.6983 17.531 8.3266l36.254 34.529c5.1348-1.6509 17.366-6.7872 20.925-19.049 0 0 10.603-12.869 20.448-17.92 0 0-22.213-9.5984-50.997 16.155 0 0-5.2994 3.5337-2.524-3.5345 0 0 7.5688-11.866 5.5511-17.924 0 0-4.5437 2.7775-9.593 18.683 0 0 0.00055 2.5235-2.021 0.75457 0 0 0.50194-13.884 9.0856-23.983 0 0 7.5781-9.3376 5.304-21.203 0 0 3.0345-3.2861 4.5494 4.2846 0 0-0.002 22.976-8.3354 36.863 0 0 2.7211-4.5541 10.259-8.587 3.6007-7.297 10.99-27.222 0.85163-53.269 0 0-1.477-3.9452-2.8947-3.9449l-0.005-0.005zm-437.53 0.37506v0.005c-1.4177-0.00022-2.8947 3.9449-2.8947 3.9449-10.139 26.044-2.7491 45.975 0.85164 53.274 7.5394 4.0329 10.255 8.587 10.255 8.587-8.3323-13.888-8.331-36.867-8.331-36.867 1.5164-7.576 4.5406-4.2935 4.5406-4.2935-2.2715 11.865 5.304 21.211 5.304 21.211 8.5834 10.099 9.09 23.987 9.09 23.987-2.0203 1.7664-2.021-0.76338-2.021-0.76338-5.0505-15.903-9.593-18.683-9.593-18.683-2.0215 6.0582 5.5555 17.928 5.5555 17.928 2.7778 7.0709-2.524 3.5389-2.524 3.5389-28.782-25.753-51.005-16.164-51.005-16.164 9.8475 5.0505 20.457 17.928 20.457 17.928 3.4222 11.787 14.842 16.979 20.28 18.829l42.952-40.473 0.30005-0.14121c0.3857-0.18074 5.5954-2.5168 11.257-2.6123 1.5617-11.358-0.31771-44.784-0.31771-44.784-16.662 7.0709-23.471 43.676-23.471 43.676 0.50505 15.654-5.0524 11.362-5.0524 11.362 0.7601-14.893-8.8429-25.752-8.8429-25.752-13.125-10.86-14.637-27.78-14.637-27.78-0.47348-4.5436-1.2984-5.9659-2.1489-5.9659zm469.56 3.3183c-6.8648 1.2212-11.953 4.7603-15.479 8.2604-0.002 0.0578-0.0113 0.11432-0.0136 0.17215l-0.1455-0.0136c-2.4474 2.4625-4.1318 4.8976-5.0878 6.4733 0.44481 2.6208 0.74413 5.4195 0.82958 8.3796 6.4741-7.8272 6.6807-4.0817 6.6807-4.0817-2.7552 1.3041-5.2593 6.7662-6.8925 11.186-0.5842 6.5407-2.2795 13.676-5.6967 21.211 3.2993-1.3368 7.2689-2.492 11.998-3.2432 5.1272-5.1461 6.0629-13.331 6.0629-13.331 3.3632-21.373 7.4044-28.276 7.4044-28.276 3.5356-6.2239 0.33977-6.7381 0.33977-6.7381zm-501.59 0.37949s-3.1914 0.50255 0.34418 6.7292c0 0 4.0327 6.9027 7.4 28.276 0 0 0.94151 8.1958 6.0762 13.339 4.7241 0.7513 8.691 1.9091 11.989 3.2433-3.4184-7.5356-5.1169-14.668-5.7011-21.211-1.6333-4.4198-4.1374-9.8906-6.8925-11.195 0 0 0.21113-3.739 6.6851 4.0905 0.08542-2.9624 0.38039-5.7696 0.82516-8.3928-0.95862-1.578-2.6421-4.0038-5.0922-6.4689l-0.14561 0.005c-0.0027-0.0578-0.01062-0.1055-0.01333-0.16334-3.5266-3.5004-8.6167-7.0355-15.475-8.2516zm418.64 14.337c0.23607 0.0465 0.65207 0.32461 1.315 0.9399 0 0 5.5514 0.25464 12.369 25.249 0 0 1.5158 9.0857-0.50304 9.3371 0 0-2.7763-0.50149-2.2725-7.8236 0 0-2.2725-4.2969-2.2725 4.5406 0 0-3.2874 1.772-3.2874-3.2786 0 0 2.0252-18.434-4.0331-24.997 0 0-1.993-3.5504-1.4959-3.9405 0.0413-0.0325 0.10234-0.042 0.18097-0.0264zm97.889 0.14121c-0.58427-0.10348-1.5544 0.22854-3.1638 1.5532 0 0-7.8906 6.1664-13.873 4.4126-1.6974 7.8597-1.946 15.201-1.946 15.201 3.8646-4.5482 5.0524-3.5345 5.0524-3.5345 0.43346 4.4677-7.023 12.868-9.1738 15.193 2.3205-0.17848 4.8031-0.25706 7.4353-0.22945 3.3068-3.0229 15.029-14.802 16.547-31.043 0 0 0.0956-1.3808-0.87813-1.5532zm-433.58 0.23828c0.0787-0.0158 0.13511-0.007 0.17652 0.0264 0.497 0.39083-1.4915 3.9405-1.4915 3.9405-6.0594 6.5657-4.042 24.993-4.042 24.993 0 5.0557-3.283 3.283-3.283 3.283 0-8.8398-2.2681-4.545-2.2681-4.545 0.50505 7.3223-2.2725 7.828-2.2725 7.828-2.019-0.25373-0.50304-9.3371-0.50304-9.3371 6.816-24.997 12.369-25.253 12.369-25.253 0.66266-0.61531 1.0788-0.8906 1.315-0.93546zm-97.898 0.1412c-0.97417 0.17261-0.8737 1.5576-0.8737 1.5576 1.5164 16.24 13.239 28.008 16.547 31.034 2.6371-0.0292 5.12 0.0531 7.4441 0.23388-2.1434-2.3118-9.606-10.724-9.1738-15.201 0 0 1.1785-1.0136 5.048 3.5345 0 0-0.2486-7.3353-1.946-15.193-5.9815 1.7539-13.878-4.4082-13.878-4.4082-1.6094-1.3258-2.5839-1.6612-3.1683-1.5576zm128.52 25.037c-4.3846 0-7.9515 3.5599-7.9515 7.9471 0 4.3849 3.5669 7.9515 7.9515 7.9515 4.3834 0 7.9515-3.5669 7.9515-7.9515 0-4.3872-3.5681-7.9471-7.9515-7.9471zm273.34 0c-4.3849 0-7.9515 3.5599-7.9515 7.9471 0 4.3849 3.5666 7.9515 7.9515 7.9515 4.3884 0 7.9515-3.5669 7.9515-7.9515 0-4.3872-3.5632-7.9471-7.9515-7.9471zm35.544 11.667c0.8015 0.3869 1.555 0.81155 2.2549 1.2488-0.69983-0.43721-1.4534-0.86186-2.2549-1.2488zm-173.71 1.3282c-0.21621-0.002-0.45399 0.0181-0.68394 0.075-1.5818 0.22344-2.3257 1.4341-3.4639 2.3387-0.48244 2.0378-1.6207 4.5595 0 6.4116 0.45352 1.583 2.0727 3.2388 3.6934 3.2388 1.5818 0 3.238-0.27402 3.9228-1.6636-0.2313-2.749 1.1312-5.2355-0.22947-7.5323-0.59051-1.3845-1.7276-2.8381-3.2389-2.8682zm-144.58 2.3608c-0.41587 1.2161-0.92128 4.032-0.46774 10.211 0.8028 0.0881 1.5944 0.20898 2.3696 0.35741-0.21987-2.4777-0.23083-5.7446 0.82074-8.0486-1.0302-0.69845-1.9524-1.5422-2.7226-2.5196zm291.7 0.55157c-1.0177 1.1433-2.2596 2.0782-3.6404 2.7667 1.2476 2.3494 0.88848 5.7909 0.44128 8.0574 1.1055-0.22118 2.2844-0.39384 3.508-0.52951 0.58167-5.9126 0.15973-8.8547-0.30889-10.295zm87.613 6.3409c1.5842 0.0355 2.1092 0.85163 2.1092 0.85163-6.8133 3.2816-19.438 18.176-19.438 18.176-2.5253-1.0101-1.765-5.304-1.765-5.304 10.889-11.676 16.453-13.782 19.093-13.723zm-465.35 0.40597c2.6408-0.0583 8.1974 2.0557 19.085 13.732 0 0 0.76151 4.2913-1.765 5.304 0 0-12.62-14.903-19.438-18.184 0 0 0.53359-0.81652 2.1181-0.85162zm330.24 19.844c-0.80245 0.0748-2.2099 0.99687-4.6112 3.5213 0 0-8.5712 9.8577-11.623 17.439 0.20718 3.0505 0.37149 7.0468 0.25593 11.19 4.1686-1.1383 6.1644-8.4366 6.1644-8.4369 1.7376-7.8271 3.7198-7.572 3.7198-7.572 0.99381 3.2842-0.74571 7.325-0.74571 7.325-2.2238 3.0304-3.711 18.176-3.711 18.176l-3.6007 2.0386c7.3223-3.4902 13.505-6.9653 18.383-9.9681l-3.3889 1.871s2.7213-13.888-1.9813-22.218c0 0-0.49401-5.05 1.7298-9.593 0 0 1.1785-3.937-0.58689-3.7728h-0.005zm-196.69 0.2074c-1.7978-0.16267-0.60012 3.7816-0.60012 3.7816 2.274 4.543 1.765 9.593 1.765 9.593-3.6146 6.2768-2.9317 15.677-2.374 19.941 3.95 2.367 7.8775 4.5653 11.777 6.6057-0.47365-4.0582-1.7971-14.046-3.5963-16.446 0 0-1.7647-4.0411-0.75456-7.3249 0 0 2.0197-0.2551 3.786 7.5721 0 0 2.0383 7.2984 6.2836 8.4369-0.11554-4.146 0.051-8.1441 0.26476-11.195-3.1144-7.5833-11.852-17.439-11.852-17.439-2.4456-2.5245-3.8821-3.4516-4.6994-3.5257zm211.16 13.158c-4.2541-0.16831-8.0667 4.1759-10.171 7.1484 0.19362 1.9172 0.50544 3.5887 1.0105 4.4656 0 0 1.9136 2.2264 1.4914 7.1264 3.0531-1.9499 5.4463-3.6208 7.1661-4.8671-1.9662-2.7866 0.50302-9.5798 0.50302-9.5798 2.7213-4.2919 0-4.2935 0-4.2935zm-225.9 0.21621s-2.7791 0.002 0 4.2935c0 0 1.6738 4.5522 1.1738 7.7309 2.2187 1.5126 4.4305 2.9773 6.6366 4.3817 0.22866-3.2592 1.5268-4.7965 1.5268-4.7965 0.5126-0.87695 0.82962-2.5438 1.0281-4.4612-2.1434-2.9726-6.0257-7.3167-10.365-7.1484zm188.71 2.524c-0.68243 0.0438-1.4589 0.79061-2.2019 3.0623 0 0-11.635 16.669-19.067 22.981 0 0-5.1287 6.1535-3.3095 13.913 2.6848-0.73873 5.2871-1.5264 7.8324-2.3431 0.99629-9.2142 8.6002-19.649 8.6002-19.649 6.9377-9.0886 6.438-4.0375 6.438-4.0375-4.8119 4.2064-3.895 17.712-3.7331 19.689 2.004-0.77644 3.9418-1.5705 5.829-2.3696 1.5391-3.7791 7.2449-19.302 1.6238-29.441 0 0-0.8747-1.8778-2.0122-1.8048zm-150.82 0.23386c-1.1586-0.073-2.0474 1.8004-2.0474 1.8004-5.0456 8.9226-1.1501 21.997 0.92665 27.583 2.2627 1.0202 4.5133 1.9883 6.7557 2.9079 0.22109-4.0253 0.37643-14.712-3.8963-18.379 0 0-0.50483-5.044 6.566 4.042 0 0 7.1667 9.6422 8.6267 18.573 2.7791 0.94733 5.541 1.8176 8.2825 2.6167 1.3267-7.3723-3.5301-13.11-3.5301-13.11-7.5772-6.3096-19.438-22.976-19.438-22.976-0.75807-2.2718-1.5508-3.0144-2.246-3.058zm190.29 8.7238-2.5284 2.0077c1.25-0.9121 2.105-1.5765 2.5284-1.9106v-0.0971zm-30.028 11.292c-0.45856 0.92709-1.9252 1.0027-3.0006 0.92223-0.27147 2.8746-0.74008 5.6512-1.465 8.0883 0.96238-0.43461 1.8937-0.87325 2.8197-1.3106 2.3607-3.0354 1.6459-7.7 1.6459-7.7zm-169.87 0.22073c-0.001 0.007-0.4233 2.684 0.42361 5.304 1.2048 0.60307 2.4066 1.1896 3.6051 1.765-0.45229-1.9323-0.7704-4.0079-0.97519-6.1512-1.0933 0.0804-2.5866 0.002-3.0535-0.91782zm125.67 9.2312c-0.24327-0.0389-0.47315-0.0316-0.68837 0.0136-3.7303 0.761-3.4065 13.26-3.4065 13.26-0.0402 0.13081-0.082 0.25209-0.12358 0.37508 3.3484-0.65331 6.6156-1.3751 9.7916-2.1666-0.14188-7.5908-2.9741-9.8224-2.9741-9.8225-1.0097-1.0297-1.869-1.5426-2.599-1.6591zm-80.08 0.19859c-0.84828-0.0897-1.8907 0.38568-3.1771 1.6724 0 0-2.6909 2.1008-3.005 9.0812 3.3054 0.8744 6.5799 1.6451 9.8225 2.321 0.0235-1.674 0.0355-12.681-3.6404-13.07v-0.005zm104.97 1.2135c-1.9373 1.5378-3.694 4.7943-4.1126 5.6084 1.2375-0.4146 2.4658-0.83669 3.6669-1.2664-0.32165-1.8117 0.44566-4.342 0.44566-4.342zm-130.87 0.2074s0.49373 1.5958 0.53393 3.1638c0.96112 0.36433 1.9184 0.72109 2.877 1.0678-0.80158-1.3318-2.0579-3.1812-3.411-4.2317zm-126.89 0.83c-4.5793 0.10889-10.76 1.1044-15.731 4.9686 0 0-1.2588 1.2629 7.0734 2.7755 0 0 8.0705 2.5288 11.173 6.6145-0.26008-1.9926-0.45025-4.9251 0.22946-7.2367 0.10804-0.36936 0.24189-0.71855 0.37507-1.0678-1.813-0.13578-3.4507 0.42362-3.4507 0.42362-4.0405-0.50255-0.25152-2.7667-0.25152-2.7667 2.3645-0.24619 3.7726-0.0427 4.6068 0.34418 1.1646-2.1986 2.4622-3.6272 2.4622-3.6272s-1.8461-0.35231-4.6332-0.42362c-0.58063-0.0158-1.1991-0.0203-1.8533-0.005zm385.19 0c-0.66104-0.0158-1.2886-0.0113-1.8754 0.005-2.8167 0.0712-4.6818 0.42361-4.6818 0.42361s1.3007 1.4366 2.4667 3.6404c0.84049-0.39198 2.2638-0.60616 4.6774-0.35741 0 0 3.8343 2.2642-0.25153 2.7667 0 0-1.6788-0.56936-3.5257-0.42361 0.13195 0.34928 0.26694 0.69847 0.37509 1.0678 0.68848 2.3444 0.4842 5.3234 0.22073 7.3161 3.0894-4.1361 11.354-6.694 11.354-6.6939 8.4163-1.5126 7.1352-2.7756 7.1352-2.7756-5.0224-3.8642-11.267-4.8596-15.894-4.9686z"/>
 <path d="m340.69 142.48c-3.3992 0.0732-6.7453 0.37324-10.218 0.0341-0.90709 0.2211-1.8109 1.1645-1.8109 2.1118 0 1.387 1.5794 1.5794 2.4865 2.4865 1.8519 2.9801 1.4363 6.6709 1.4363 9.8722-0.23107 7.8347-0.44953 14.556-0.22701 21.936-0.45354 2.2966-4.4131 3.4231-2.3389 6.1823l9.2703 0.22709c4.8244-1.8418-1.6571-4.3695-1.2035-7.1586-0.23107-3.2013-0.41215-6.6305 0.75502-9.6508 0.67468-0.2211 1.5398-0.25944 2.0324 0.45416 2.0742 4.5933 5.283 8.5169 7.8399 12.887 1.1382 1.8444 2.9827 3.4652 5.2795 3.2414 0.90714-0.45229 2.2978-1.1246 1.8053-2.4865-4.332-3.4626-5.1952-8.8177-8.8901-12.966-0.71363-1.387-0.22236-2.2904 0-3.6899 2.9813-2.2941 6.1826-5.0862 7.5333-8.521 0.45354-2.7866 0.006-5.3121-0.44849-7.8399-1.3506-4.1486-5.9605-6.1878-9.8778-7.0848-1.1505-0.0584-2.2901-0.0584-3.4231-0.0341zm42.849 0.0341c-2.7502 0.89706-6.4416-0.7247-8.9694 1.1297-0.93601 2.0353 0.90793 3.6623 1.5839 5.5065-0.22235 9.9179 1.3936 20.047-0.227 30.223-0.45358 1.6232-2.7833 2.5234-3.0144 4.1442-0.45354 0.67593 0.45378 1.5898 1.1297 1.811 3.4725 0 6.5209-0.2252 9.7246 0.22709 4.1486-1.8519-0.68592-4.3398-0.90831-6.6363 0.22236-10.4-0.67993-19.635 0.22701-29.543 0.90709-1.8544 3.167-3.2403 2.7136-5.5065-0.1834-1.1308-1.3146-1.1357-2.2594-1.3568zm-213.11 0.45415c-2.2966 0.93473-6.6671-0.68363-6.9372 2.5603 0 1.3217 1.624 1.5449 2.3389 2.4922 4.1486 5.5382 5.056 12.17 7.6126 18.16 1.3594 3.0104 1.3884 6.527 3.2414 9.2761 0.67468 3.6963 1.3575 8.0309 5.0525 9.4179 1.3883 0 2.0376-1.1252 2.7136-2.0323 3.6949-11.297 6.0283-23.3 9.7246-34.373 0.49124-0.90709 1.8003-1.8922 1.3568-3.2414-1.3996-1.6207-3.4266-1.5839-5.501-1.5839-1.1295 0.49-2.7984 0.90945-2.566 2.7136 4.1384 5.5382-0.41607 12.471-1.1297 18.24-0.90709 2.558-0.45424 6.7119-3.6957 7.1642-2.0743-2.2941-2.3445-5.3121-3.2414-7.8399-2.0743-4.1384-2.983-8.5489-4.3712-13.187 0-2.0755 1.6671-3.1368 2.1118-4.9787-0.67592-2.9827-4.4148-2.5663-6.7102-2.7874zm54.426 0c-5.0947 0.44224-11.04 0.18838-16.355 1.3568-1.8042 2.2941 1.8844 3.6181 2.5603 5.955 0.2211 9.2319-0.006 18.207-0.2271 27.891 0 2.568-4.1802 5.0796-0.97644 6.9316 4.8622 0.22363 9.4548 0.6872 14.096 0.90831 2.7489 0.23369 5.9571 0.52405 7.5391-2.2651 0.94604-1.6207 2.1436-3.7303 0.97644-5.5748 0-1.1282-1.4362-2.2632-2.3332-1.811-1.3607 2.0655-1.7696 4.3767-4.2974 5.274-2.7879 0-6.97 1.6594-8.8221-1.1297-0.22238-5.0455-2.2901-12.201 0.68125-16.128 3.6949-2.5178 6.5154 4.5936 9.0433 0.2214 0.90709-1.8519 0.67503-4.4014-0.67555-6.2559-2.7879 0.23369-4.15 3.9556-7.3915 2.566-3.4638-2.073-1.6636-7.4295-1.8847-10.854 0.45354-1.8544 2.0844-2.9406 4.1497-2.9406 3.0202-0.22363 4.3747 3.1632 6.9316 4.0704 1.5441-0.45479 1.5402-2.2609 1.3568-3.3891-1.6207-1.6207-1.361-5.0592-4.3712-4.8255zm117.22 3.1676c3.1446-0.27389 5.3882 2.5434 6.1823 5.3475 1.3506 2.5253 0.67406 5.5054-0.45416 7.8399-1.6207 2.0755-3.7341 4.1509-6.4832 3.9172-5.5382-0.71359-2.0738-7.3903-2.7874-10.622 0.26014-2.0378-0.46063-5.5089 2.1061-6.1823 0.48499-0.17588 0.98649-0.26319 1.4363-0.30089zm-80.966 151.35c-3.474 2.9828-8.1323 2.0345-12.512 1.811-2.5567 0.41707-5.7655 0.67881-7.84-1.1354-1.1295-0.71362-2.7142-0.4847-3.1676 0.68125-0.71362 2.9726-2.8248 5.9617-1.6576 8.9694 0.67467 0.90715 1.5892 0.68198 2.2651 0.22701 0.94479-2.5278 3.274-4.3288 5.8018-5.0525 1.1672 0.23368 2.5656 1.3941 3.2414 2.3389l-0.67555 11.229c0.22239 5.5382-0.27109 11.574 0.2214 16.889 1.1282 3.6963-5.2798 5.2859-2.2594 8.9694 1.1282 0.45482 2.9032 0.68598 4.0704 0 2.5278 0 5.5426 1.1729 7.3856-0.90264 1.3984-2.073-1.0917-3.2048-1.8052-4.8255-0.23116-6.9351-0.30147-15.004-0.75502-22.163 1.1772-3.4725-1.3522-7.6545 0.98211-10.406 3.435-1.8519 3.4629 3.2914 6.7043 3.0202 2.5178-1.3493 1.3627-5.0906 2.4922-7.6185 0.19224-1.1282-1.325-2.0324-2.4922-2.0324zm58.422 1.9586c-1.0591-0.0291-2.2779 0.47293-3.0882 1.0559-4.4087-0.4523-9.7237-0.26508-12.291 3.8434-1.5818 3.0202-2.7453 6.262-1.5782 9.7246 3.2025 8.0658 14.055 8.7116 17.036 17.036 0.22235 2.5279-0.63521 5.1336-2.9406 6.4832-3.0104 0.49249-6.2198 0.44616-8.294-2.1118-2.7879-1.3971-1.4307-5.501-4.672-5.501-3.4638 1.6232-0.86018 6.2224-1.5839 9.4237 0.27002 0.67593 0.45567 1.8813 1.5839 1.6577 3.4725-2.9801 6.5172 1.3534 10.173 1.1297 3.2414-0.48996 6.4904-1.1656 8.7482-3.9169 2.3054-2.5655 3.0185-6.4471 2.7874-9.6508-1.6496-9.7243-12.923-10.172-17.565-17.565-0.90712-1.5805-0.67997-3.4292 0.227-5.0525 2.1032-2.2942 5.0851-0.66962 7.6126-0.44849 2.0642 1.1307 2.8362 5.494 5.8074 3.6899 0.90709-2.3343 0.68471-5.3162 0-7.6126 0-1.6006-0.90511-2.1555-1.9642-2.1856zm-167.24 140.45c-0.20951-0.0233-0.36885 0.0538-0.48822 0.24968-0.23744 0.39701-0.0233 0.67369 0.48822 0.9878 0.65206 0.39449 1.4104 0.93241 1.7144 1.2716 1.3004 1.3267 1.1285 2.4454 0.0681 4.4052-0.99632 1.8418-1.947 3.4065-7.1133 11.905l-5.9835 9.8324c-3.1246 5.1336-5.8112 9.5557-7.4708 11.757-1.1734 1.5052-2.1509 2.5948-3.2188 2.2481-0.48621-0.1433-1.1112-0.37579-1.811-0.80045-0.55908-0.34172-0.84971-0.28397-1.0218 0-0.23619 0.38696-0.0108 0.75967 0.59609 1.124 1.8632 1.1332 4.9005 2.7528 5.9722 3.4062 1.3041 0.79152 4.1352 2.7445 7.1642 4.5814 0.55908 0.33946 1.0354 0.40335 1.2716 0.0116 0.1696-0.27642 0.037-0.58603-0.47686-0.90265-0.69854-0.42715-1.6512-1.1583-2.2367-1.6633-1.2602-1.0729-0.79586-2.4788 0.0171-4.1271 1.2262-2.5379 3.9123-6.9584 7.0395-12.092l2.9918-4.9162c0.1696-0.28397 0.34056-0.24996 0.48255-0.16451l17.797 10.82c0.13946 0.0881 0.20948 0.28427 0.0738 0.50525l-2.9859 4.9162c-3.1258 5.1412-5.817 9.5557-7.4766 11.757-1.171 1.5076-2.1522 2.593-3.2188 2.2537-0.49124-0.14068-1.1124-0.36759-1.811-0.79475-0.55783-0.3369-0.8453-0.28193-1.0162-0.006-0.23747 0.38698-0.0163 0.75792 0.63581 1.1524 1.8155 1.1031 4.8563 2.722 5.9268 3.3778 1.3066 0.789 4.1378 2.7401 7.1642 4.5869 0.56033 0.3394 1.0329 0.39832 1.2716 0.0116 0.1696-0.28398 0.0402-0.5917-0.47118-0.90831-0.69854-0.41963-1.6582-1.164-2.2424-1.669-1.2615-1.0704-0.79019-2.4656 0.0227-4.1216 1.2287-2.5404 3.9134-6.9566 7.0395-12.098l5.9777-9.8269c5.165-8.4904 6.1207-10.062 7.3005-11.791 1.2853-1.9021 2.23-2.6201 3.6559-2.1402 0.62817 0.23369 1.0826 0.42985 1.4533 0.65854 0.56033 0.33946 0.90929 0.40335 1.1467 0.0116 0.23744-0.39448-0.0166-0.70682-0.66988-1.1013-1.8167-1.1056-4.854-2.7202-5.9722-3.4062-1.2576-0.76638-4.0939-2.7136-6.6078-4.2462-0.65331-0.39196-1.0481-0.47779-1.283-0.0907-0.23871 0.39201-0.03 0.67558 0.48256 0.98211 0.65331 0.39704 1.4091 0.93243 1.7144 1.2716 1.3004 1.3242 1.1335 2.4554 0.0681 4.4052-0.99126 1.8443-1.947 3.4164-7.1133 11.905l-0.70961 1.1751c-0.17088 0.27642-0.38091 0.29923-0.51659 0.22148l-17.79-10.84c-0.13818-0.0805-0.20808-0.28136-0.0397-0.56769l0.71528-1.1638c5.1624-8.498 6.114-10.059 7.295-11.785 1.2828-1.8997 2.2331-2.6302 3.6617-2.1402 0.62692 0.22875 1.0814 0.42989 1.4533 0.65852 0.55784 0.33934 0.91055 0.38695 1.1467 0 0.23997-0.39198-0.0221-0.70366-0.67555-1.0956-1.818-1.1106-4.8514-2.7277-5.9722-3.4062-1.2551-0.76385-4.0913-2.7104-6.6078-4.2407-0.32664-0.20229-0.58527-0.32902-0.79478-0.35195zm245.61 12.557c-6.237 0.18195-11.672 3.5687-16.009 6.273-2.7778 1.7338-5.5952 3.7175-7.0223 4.6096-1.3016 0.80911-4.3119 2.455-6.7668 3.9852-0.69351 0.42718-0.95461 0.74275-0.70962 1.1297 0.24619 0.38716 0.59184 0.33301 1.0956 0.0116 0.64704-0.40204 1.474-0.84128 1.9074-0.95941 1.7677-0.56033 2.6986 0.0927 3.9626 1.9245 1.1986 1.7112 2.1713 3.2688 7.4255 11.712l6.0913 9.7644c3.1798 5.1083 5.9065 9.4912 7.1302 11.961 0.82292 1.7288 1.3498 3.0952 0.56202 3.8942-0.34801 0.36937-0.83358 0.82811-1.5271 1.2603-0.55906 0.34926-0.63573 0.6319-0.45982 0.90831 0.2363 0.38449 0.6654 0.34917 1.2659-0.0233 0.92218-0.57539 2.0594-1.4396 3.1223-2.1004 1.0729-0.74879 2.0919-1.389 2.6057-1.7031 1.1596-0.71866 2.8783-1.5625 4.7401-2.4922 1.8632-0.93476 3.8704-1.9433 5.535-2.9862 8.5611-5.3321 10.918-12.276 11.422-16.213 0.62314-4.7718-0.24503-11.628-4.6096-18.626-4.1096-6.6061-9.156-9.858-13.267-11.303-2.2467-0.79463-4.4154-1.0882-6.4945-1.0275zm-3.6899 5.8585c1.616 0.0331 3.3414 0.28805 5.1662 0.84588 3.4086 1.0352 8.6994 4.0527 13.085 11.099 3.567 5.719 5.7867 11.348 4.729 16.247-0.97871 4.6133-3.4286 7.6824-8.1576 10.627-3.6536 2.2816-6.1829 2.2396-7.4368 1.5612-0.75132-0.38696-2.2379-2.5488-3.1449-3.9059-0.70232-1.0252-3.4135-5.2702-7.0735-11.155l-4.3657-6.9883c-2.7288-4.3872-5.7327-9.2171-6.8633-11.127-0.38696-0.61561-0.41707-0.97403-0.14184-1.459 0.2363-0.4498 1.8494-1.6897 2.7704-2.2651 2.7119-1.6867 6.5852-3.5795 11.433-3.4801zm-184.43 10.781c-0.43422 0.13894-0.99845 0.73133-1.9756 1.8734l-27.766 33.211c-2.2125 2.6459-3.9928 4.3392-6.4718 3.7864-0.42968-0.10056-1.1631-0.3262-1.6179-0.49958-0.40706-0.16597-0.65596-0.1119-0.80044 0.24968-0.19224 0.48746 0.0645 0.7233 0.72664 0.9821 2.6384 1.0403 5.4996 1.9607 6.0573 2.1743 1.5755 0.62314 3.6847 1.6634 5.308 2.2991 0.55908 0.22119 0.90785 0.21305 1.1013-0.26683 0.14195-0.36937 0.0404-0.55036-0.56769-0.78908l-0.76071-0.30089c-1.5742-0.61561-1.7196-1.5839-1.2887-2.6795 0.28645-0.73623 1.1141-2.0933 2.2197-3.4176l6.1652-7.624c0.24375-0.32161 0.39463-0.40704 0.64719-0.30656l11.314 4.4506c0.25252 0.1029 0.3594 0.28514 0.34062 0.62449l-1.0105 14.499c-0.0314 0.82669-0.60593 1.2412-1.0105 1.2262-0.53144-0.14068-0.78086-0.10493-0.92534 0.26682-0.1671 0.42213 0.43889 0.66468 1.3284 1.0843 4.0128 1.7162 7.7161 3.1784 9.5429 3.8942 1.8783 0.73371 2.3851 0.79402 2.5773 0.30655 0.1696-0.42718-0.0635-0.58352-0.46552-0.74934-0.61183-0.23631-1.347-0.5987-2.038-1.0786-0.94479-0.72115-2.0812-2.1589-1.8564-8.3904 0.39198-10.526 2.0365-38.544 2.1345-42.372 0.044-1.6006-0.0467-2.2684-0.50525-2.4468-0.12627-0.052-0.25834-0.052-0.40306-0.006zm145.24 4.6607c-2.6712-0.22468-5.2839 0.49188-7.7036 1.3795-1.5868 0.58294-5.4121 2.192-7.1473 2.8328-1.0805 0.38695-4.3724 1.3893-7.0848 2.3843-0.76388 0.27642-1.078 0.54042-0.91968 0.96508 0.15841 0.43218 0.50063 0.4413 1.0673 0.23281 0.71863-0.26624 1.611-0.52298 2.0607-0.55065 1.8532-0.19358 2.6175 0.64616 3.4856 2.6966 0.82041 1.9273 1.4535 3.6425 4.8709 12.977l3.9567 10.809c2.0692 5.646 3.8431 10.505 4.5302 13.176 0.44852 1.8544 0.68939 3.3028-0.24415 3.9285-0.41713 0.28892-0.98467 0.63443-1.7598 0.90831-0.60687 0.23369-0.74892 0.49392-0.63582 0.80048 0.15579 0.42715 0.5862 0.47964 1.2546 0.23834 2.0441-0.75133 5.2066-2.1234 6.1765-2.4752 0.76513-0.2863 4.6221-1.4911 7.5958-2.5716 0.66462-0.24386 0.95749-0.55876 0.80045-0.99347-0.1119-0.309-0.38835-0.41759-0.80045-0.26683-0.61311 0.22875-1.7815 0.52296-2.5944 0.68125-1.6245 0.31408-2.4318-0.92488-3.2359-2.6511-1.1986-2.4876-2.9732-7.3365-5.0639-13.046l-0.31225-0.85721c-0.13574-0.36937-0.0317-0.55417 0.227-0.64718l4.5052-1.5114c0.36434-0.12556 0.68537-0.17991 1.0786 0.0965 1.0038 0.67846 4.8932 3.991 8.1748 6.6195 4.5997 3.6762 7.5993 5.8466 10.321 6.4547 1.6496 0.37187 3.0351 0.21015 5.9097-0.84018l4.8595-1.7826c0.61308-0.21857 0.93025-0.48331 0.74935-0.97077-0.11045-0.309-0.38394-0.41759-0.79478-0.26683-0.41082 0.15086-0.89189 0.26334-1.4987 0.34633-0.8355 0.0979-3.0984 0.43747-7.2723-2.0778-4.4099-2.7012-9.9504-6.8715-17.025-12.08 3.3295-6.9276 3.3961-11.687 1.7314-16.23-1.5076-4.1134-4.7064-6.4933-6.5683-7.1415-0.89863-0.31348-1.7948-0.49279-2.6852-0.56772zm-126.44 4.059c-0.21264 0.0465-0.33829 0.1712-0.38602 0.39739-0.098 0.44977 0.19669 0.64648 0.78341 0.77205 0.7463 0.15841 1.6398 0.42288 2.038 0.64151 1.6609 0.82919 1.8656 1.9505 1.4987 4.1442-0.33545 2.0654-0.72586 3.8536-2.8328 13.568l-2.4354 11.252c-1.2765 5.8748-2.3708 10.925-3.2188 13.551-0.61686 1.8092-1.1898 3.1589-2.3105 3.1792-0.50883 0.0262-1.174 0.009-1.9756-0.16452-0.63698-0.13312-0.89032 0.0116-0.95941 0.33493-0.0993 0.43974 0.23308 0.71781 0.92534 0.86857 2.1333 0.46486 5.5283 0.99691 6.5398 1.2205 0.80283 0.16335 4.7037 1.2164 7.7943 1.8848 0.69226 0.15085 1.1068 0.0384 1.2035-0.40876 0.0716-0.31911-0.1033-0.55672-0.52795-0.64715-0.63823-0.13573-1.7845-0.51847-2.5546-0.81748-1.5441-0.60305-1.5595-2.0736-1.317-3.9681 0.31659-2.7389 1.4145-7.7923 2.7022-13.732l0.19303-0.89695c0.0842-0.38192 0.2742-0.4754 0.53931-0.42009l4.6096 1.1411c0.37312 0.0779 0.67378 0.21073 0.85722 0.65285 0.48496 1.1031 1.997 5.9852 3.3664 9.9629 1.9172 5.5632 3.29 9.0116 5.2624 10.979 1.191 1.1885 2.4546 1.801 5.4385 2.4468l5.0639 1.1013c0.63948 0.13312 1.0419 0.0849 1.1524-0.42009 0.0678-0.32417-0.10205-0.5574-0.52795-0.65285-0.42465-0.0881-0.89171-0.26537-1.4533-0.51662-0.75632-0.36181-2.8405-1.2851-5.024-5.637-2.2841-4.6462-4.7282-11.131-7.9193-19.313 6.518-4.0707 9.1124-8.0661 10.139-12.79 0.9272-4.2843-0.49959-8.0126-1.7258-9.5429-2.367-2.9903-5.8516-4.1503-9.2136-4.8764-1.6496-0.36434-5.7443-1.0449-7.556-1.4419-1.1182-0.23863-4.432-1.1613-7.2551-1.7769-0.39954-0.0881-0.70133-0.12033-0.91397-0.0738zm121.52 0.18166c3.038 0.15493 6.8628 2.2144 9.2534 8.7538 1.8444 5.0354 1.3935 8.3995 0.35199 10.309-0.6307 1.1332-1.2088 1.6273-3.2528 2.3786-1.2853 0.47491-2.8845 0.85195-4.1157 0.81181-0.4259-0.0477-0.62358-0.26014-0.86857-0.93101l-6.8351-18.677c-0.18224-0.48747-0.16015-0.76804 0.14766-1.0218 0.44854-0.37187 1.345-0.77272 2.6228-1.2376 0.75568-0.27642 1.6838-0.4377 2.6965-0.38603zm-146.09 3.0827c0.15193 0.0529 0.0855 0.3783 0.0454 0.64716l-1.3511 16.827c-0.0227 0.19358-0.14486 0.36164-0.39739 0.26101l-9.3328-3.673c-0.20349-0.0779-0.18924-0.27845-0.0397-0.49959l10.559-13.136c0.14698-0.22119 0.36582-0.48857 0.51659-0.42576zm108.51 1.3965c-0.54527 0.0805-0.75528 0.84326-1.1184 2.8158l-7.4083 42.645c-0.59175 3.3998-1.286 5.7507-3.7071 6.5172-0.41962 0.12556-1.1695 0.30996-1.652 0.38035-0.43343 0.0628-0.63046 0.22614-0.56768 0.61309 0.0729 0.51264 0.42047 0.59873 1.124 0.48822 2.8004-0.41712 5.7306-1.0644 6.3297-1.1524 1.6647-0.25142 4.0163-0.40855 5.7452-0.66989 0.59175-0.0881 0.89479-0.27089 0.82315-0.78341-0.0639-0.38672-0.24997-0.49787-0.89695-0.39739l-0.80044 0.12499c-1.6722 0.25374-2.2879-0.51197-2.4638-1.6804-0.11685-0.77141-0.0744-2.366 0.21567-4.0646l1.5101-9.6906c0.0491-0.40204 0.14562-0.54511 0.41442-0.59039l12.024-1.8166c0.26886-0.0401 0.44787 0.0732 0.60742 0.37466l6.3808 13.057c0.38573 0.74127 0.0956 1.3828-0.26101 1.5612-0.52894 0.15085-0.71953 0.30813-0.66421 0.69258 0.0703 0.45982 0.71426 0.36103 1.6917 0.27816 4.3331-0.5176 8.2704-1.1145 10.213-1.4135 1.9951-0.30156 2.4553-0.49354 2.3786-1.0162-0.0628-0.4498-0.34618-0.47721-0.77208-0.41442-0.64704 0.0953-1.4693 0.16567-2.3048 0.0852-1.1835-0.15085-2.8846-0.82434-5.8132-6.3297-4.9287-9.3098-17.54-34.391-19.37-37.751-0.76388-1.4046-1.1778-1.9324-1.6577-1.862zm-72.755 1.0559c0.57289-0.0677 1.5509 0.0695 2.8839 0.36332 3.1435 0.67593 7.5844 4.3866 5.6144 13.46-1.137 5.2391-3.3193 7.8391-5.2228 8.9072-1.1408 0.61562-1.8872 0.72598-4.0192 0.26101-1.333-0.28659-2.8887-0.82724-3.9114-1.5157-0.33048-0.27147-0.38353-0.55106-0.23276-1.2546l4.2122-19.421c0.11056-0.51514 0.27101-0.75272 0.67555-0.80048zm19.478 1.5101c-0.81539-0.0262-1.4212 0.0203-1.4363 0.53929-0.0125 0.39451 0.14582 0.5898 0.63581 0.60745 0.43596 0.0174 1.3046 0.0485 2.1175 0.33492 1.9386 0.71866 2.8444 1.4676 3.9852 5.1037l12.444 40.375c0.93851 3.1057 1.2329 4.0282 1.9415 4.0532 0.76388 0.0203 1.1234-1.0108 2.6625-4.7572 1.3066-3.2289 4.0954-10.274 7.8908-19.699 3.2025-7.9478 4.7909-11.426 7.1188-17.502 1.6019-4.1361 2.4611-5.2269 3.1848-5.7847 1.0038-0.75882 2.1481-0.71334 2.6909-0.69828 0.5528 0.0116 0.88485-0.10231 0.89127-0.56202 0.0174-0.45479-0.40727-0.60439-1.1184-0.62445-1.6395-0.0578-4.2084 0.0668-5.1319 0.034-0.70985-0.0262-2.9941-0.29238-5.7167-0.38036-1.034-0.0378-1.5322 0.0791-1.5498 0.60175-0.0151 0.45735 0.42081 0.53304 0.90831 0.55066 0.71112 0.0203 1.5228 0.11917 2.1686 0.40305 0.49 0.21364 0.68622 0.74016 0.66988 1.2603-0.0233 0.59047-0.26856 1.5589-0.56768 2.3957-1.4524 4.2768-9.2136 25.092-11.785 32.211l-0.2214-0.0116-8.4131-29.973c-0.68848-2.3745-1.1233-4.2178-1.0956-5.0694 0.0189-0.593 0.19969-1.0427 0.59039-1.3568 0.44727-0.37928 1.2683-0.42114 2.1402-0.38603 0.48999 0.0145 0.82384-0.10725 0.84018-0.56202 0.014-0.45732-0.58176-0.60747-1.2376-0.63011-2.7238-0.0878-5.3458 0.0262-6.7102-0.0233-1.9059-0.0578-5.0069-0.353-7.8966-0.44846zm53.926 10.894c0.16597-0.0262 0.2709 0.28746 0.35766 0.53365l7.2665 15.242c0.0843 0.18079 0.0517 0.38562-0.21567 0.42576l-9.9176 1.4987c-0.22119 0.0326-0.30147-0.143-0.28397-0.41442l2.5546-16.656c0.0174-0.27147 0.0802-0.60751 0.23834-0.63015z" fill="#101820"/>
</svg>
