<svg xmlns="http://www.w3.org/2000/svg" height="249.74" viewBox="0 0 197 249.73792" width="197"><g transform="matrix(1.25 0 0 -1.25 -497.15 591.26)"><g><path d="m554.44 357.66-0.006 110.66c-88.897 8.5714-155.99 0-155.99 0v-110.68c7.0844-75.012 77.341-83.823 78.008-83.705 12.549 2.2653 71.449 14.11 77.992 83.722" fill="#800000"/><path d="m79.746 13.76c-4.996-0.02-10.96 0.864-17.738 3.478-6.379 2.46-21.906 0.399-21.906 0.399v59.838c13.616 0.926 31.351-6.087 40.13-5.504 9.08 0.604 16.815 4.8 16.815 4.8v-58.55s-6.309-4.418-17.301-4.461zm38.814 0.058c-9.6 0.305-18.777 4.608-18.777 4.608 0.017 2.029 0 58.39 0 58.39s6.007-4.845 18.417-4.845c6.02 0 29.69 6.495 41.1 5.717v-59.543s-16.8 2.377-31.33-2.991c-2.97-1.095-6.21-1.437-9.41-1.336zm-97.31 14.43c-8.299 0-8.476 12.713 0 12.713 8.341 0 8.341-12.713 0-12.713zm140.38 2.332v11.334c2.94 0.869 11-3.729 14.21-5.135 2.3-1.002 5.55-0.348 5.71 0.785 0.1 0.727 0.17 1.244 0.22 1.579-0.04-0.335-0.11-0.852-0.21-1.579 0 0-0.36-6.677-7.52-6.677-2.33 0-5.16 2.837-12.41-0.307zm-131.68 1.072v7.27h7.389v-7.27h-7.389zm-8.699 21.991c-8.671 0-8.671 12.707 0 12.707 8.393 0 8.341-12.707 0-12.707zm140.18 0.332v11.334s6.33-0.051 13.35-4.573c2.11-1.359 5.22-0.804 6.77 0.428h0.01s-0.95-7.421-7.23-6.502c-11.57 1.687-12.9-0.687-12.9-0.687zm-131.48 3.002v7.271h7.389v-7.271h-7.389zm68.676 27.252c-0.32-0.001-0.642 0.021-0.971 0.068-1.873 0.211-4.149 1.316-4.716 3.295-1.142 1.126-1.089-1.893-3.407-0.569-0.987 1.341 1.587 4.296 0.977 4.477-2.527 0.768-2.212-3.79-3.651-3.908-2.075 0.736-7.303 5.515-2.164 9.299-0.159-2.553 4.678-5.335 6.278 0.306 4.851-0.37 6.486 2.57 7.084 4.233 7.145 1.28 5.095 6.01 4.885 6.01-0.67-1.02-3.749-5.76-8.784-2.48-1.165 0.75-3.184 1.49-4.179 0.5 0.098 1.59 2.102 3.02 3.472 2.64 4.474-1.22 5.607 2.95 2.18 4.08 0.734 1.14 2.143 1.07 3.437 0.28 1.924-1.17 2.154-2.21 2.854-2.92 1.21 5.83-6.171 6.4-8.527 6.75 0.36 1.24 1.155 1.51 2.644 1.94-7.792 0.27-9.322 7.58-8.863 11.8 1.759 0.13 4.463-3.69 4.23-1.5-5.519 5.86-7.384 13.7-4.476 18.69 1.383-0.57 1.81-2.09 2.301-3.34 0.21-0.14 3.043 1.12-1.485 6.55-0.316 1.41-1.908 5.67 1.584 6.69 1.332-1.56 1.137-2.94 1.428-4.54 1.013-0.41 1.683 2.87 1.289 3.87-4.552 1.88-3.986 15.85 1.287 23.35-2.441-5.45-2.114-12.45 0-18.04 1.629-4.32 5.206-14.02 5.301-13.91 2.027 2.49 4.597 13.19 4.597 17.62 2.84-2.48 3.4-5.18 5.73-7.01 1.1 3.89 1.55 6.45 2.43 9.89 1.13-3.35 4.12-7.14-0.15-18 0.88-0.8 2.5 3.76 3.01 3.54 0.39-0.15 0.97-2.43-0.48-6.67-3-2.81-3.67-6.92-3.2-7.23 0.38-0.25 1.73 4.27 3.33 4.49 0.32-3.5 1.17-7.08 0.91-9.81-0.06-0.71-1.23-4.33-4.55-7.32-1.92-1.73-2.66-5.35-2.49-6.08 1.86 1.71 1.45 2.97 3.03 3.66 0.66-1.48 0.2-6.93-1.71-9.32-1.09-1.81-0.57-1.56 0.74-0.46 1.71 2.03 0.89 1.87 2.36 2.72 3.24-7.64 0.3-9.12 0.53-9.66 0.2-0.49 2.5 3.56 4.45 2-3.18-1.68-3.1-4.24-3.46-7-0.27-2.18-1.68-3-1.14-3.534 3.18 2.394 4.05-0.259 4.15-0.791-0.61 0.347-3.44 0.724-3.78-3.674-0.14-1.733-2.8-2.498-2.8-2.498 1.64-0.313 6.88-0.604 5.63-5.805-0.64 1.225-2.19 3.161-5.45 2.401-0.01 0.001 2.09-0.565 1.71-2.825-4.72 2.648-8.61-2.247-13.405-2.255zm-38.537 3.699c-0.762 0.003-1.604 0.104-2.533 0.318-3.557 0.818-13.472 6.034-14.846 0.363-3.571 6.328 3.496 5.222 5.629 5.092-0.84 0.585-1.905 1.533-4.539 0.967-5.582 3.677-25.984 16.642-31.875 19.902 7.908 3.68 20.078-3.99 20.252-3.99l0.144 0.14c-0.027 5.71-16.064 13.89-22.939 17.58 10.623 3.66 20.676-6.19 19.469-3.8-1.441 2.8-14.409 13.99-20.063 19.97 4.404 1.21 8.447-2.34 11.639-5.06 3.482-2.96 9.313-10.42 8.424-6.72-9.426 11.63-16.846 35.8-12.274 37.35 2.617-5.48 13.46-33.4 14.141-33.27 0.717 0.14-0.851 7.37-1.09 12.16-0.533 10.52-0.605 15.5 1.674 25.86 1.171-1.6 2.299-1.57 4.152-1.44 0.229-1.01 0.16-0.75-1.004-2.29-3.014-3.98 0.448-9.42-0.998-12.74-1.209-2.78-1.892-0.56-2.439-3.44 0.847-0.77 3.089-1.01 4.011-1.15 0.984-10.81 4.601-16.31 3.252-9.49-0.691 3.45-1.743 9.18-1.244 9.35 0.501 0.17 0.546 0.16 0.977 0.39 0.198 0.11 18.159-29.44 8.201-8.96-1.306 2.68-6.609 9.91-6.609 9.91 1.4 1.44 2.716 3.11 2.886 4.13 0.045 0.27 24.068-31.62 7.705-5.92-1.002 1.57-5.914 6.84-7.168 8.37-0.166 0.2 0.454 5.97 0.454 5.97 2.496-1.73 6.069-5.22 7.734-7.44-0.22-3.26 0.541-2.83 0.721-6.02 0.762-0.49 1.755 0.87 2.959 1.95 0.569 0.51 16.491-27.21 6.504-6.42-1.602 3.34-5.148 7.3-5.313 7.62 0.673 0.72 1.672 3 2.816 5.65 0.045 0.11 21.293-30.65 8.381-7.41-1.017 1.83-7.415 9.53-7.334 9.73 1.571 3.85 2.947 7.59 2.944 7.59-0.389-3-1-8.91 5.218-13.78 0.807 5.33 2.239 5.55 4.092 7.19 0.812 0.72 2.333 3.76 2.512 1.17 0.529-7.58-1.933-7.39-3.768-10.61-0.438-0.78-0.357-2.51-0.015-2.41 15.303 0.46 14.795 14.79 17.349 14.78-1.163-3.65-1.479-7.24-0.101-10.18-4.101-2.91-3.074-7.88-2.291-10.03-4.607-4.77-1.963-14.9 0.238-17.04-2.963-4.31 0.692-7.25-0.094-9.9-1.246-9.36-9.591-6.57-11.461-15.47-1.305 1.58-3.716 6.97-2.586 8.77 1.297 2.05 4.08 2.23 4.247 3.74 0.07 0.64 0.278 2.43-0.182 2.81-1.581 0.28-2.655-1.17-4.276-1.81-3.24-1.28-11.085 4.09-11.56-0.65-0.3-2.99 1.025-0.84 0.879-3.6-0.131-2.85-1.568-0.84-1.588-4.52-0.015-2.69 3.234-3.54 3.469-4.62 0.579-2.67 5.43 3.93 8.273-3.07-1.651 0.23-5.006-0.93-4.689-2.56 0.766-3.968 0.896-13.044-6.467-13.012zm83.542 0.051c-0.78 0.023-1.47 0.136-2.05 0.361-1.78 0.703-2.12 0.598-4.03 2.08-0.84-0.353-3.17-1.844-6.47 2.131-1.02 1.23-2.24 2.664-2.3 3.72-0.15 2.66 0.05 0.136 0.71 2.661 0.26 1.059-0.94 2.998-5.79 4.628-1.88 0.63-1.41 2.48-1.41 2.48 0.93-0.44 2.4-1.49 4.67-0.42 4.44 2.08 5.31-1.21 8.07-3.55 0 0-0.76 2.95 0 3.11 3.44 0.71 2.29 3.29 1.86 3.68-4.35 3.88-2.53 5.35-4.08 7.74-1.46 2.26-3.72 3.12-7.09 3.01-4.63-0.15 6.08-7.16-4.17-10.07 1.61 2.68 2.26 4.84-1.33 6.92-2.25 1.31-1.11 7.98-6.9 4.89 0 0.01-0.47 4.94-1.14 5.15 7.87 6.89 3.47 10.65 3.87 20.5 2.46 6.26-0.24 9.25-0.86 9.59 0.39 4.25 0.79 6.58 3.44 10.03 1.93 2.51-0.17 6.36 1.79 9.04 1.81-6.39 3.74-3.73 4.26-12.62 0.72-1.49 3.71-4.13 5.41-4.3-0.02 5.37 1.95 10.25 1.53 12.51 0 0 4.52-0.83 5.92-0.33 1.11 0.38 1.97 1.84 2 2.73-1.54 0.96-1.54 0.59-3.86 2.29-4.06 2.95-5.93 8.98-5.93 8.99-0.01 0 9.54-7.61 10.22-8.99 0.55-1.09 1.07-2.76 1.57-4.49 0.06-0.19-4.92-3.09-6.29-5.75-4.26-8.3 6.62 4.91 6.87 3.76 0.64-2.87 2.64-5.57 2.64-5.57-0.69-0.82-2.4-1.32-5-5.91-5.95-10.47 6.9 4.48 6.9 4.48 3.4-1.95 3.42 0.65 3.85 3.41 0.04 0.26 5.78 4.49 6.06 4.76 1.62-1.51 2.8-3.56 3.46-4.96 0.08-0.19-10.37-9.46-12.16-12.53-14.41-24.71 11.66 10.97 12.89 9.99 0.69-1.94 0.93-4.59 0.85-8.2 0-0.08-4.9-3.47-8.04-8.65-12.11-19.99 7.94 5.97 7.94 5.78-0.24-4.28-3.75-22.85-1.32-17.27 1.24 2.86 5.14 14.73 4.42 26.81 1.35-2.19 6.94-4.43 9.06-4.98-0.48-17.93-11.48-37.82-8.48-34.13 7.49 9.26 9.89 29.32 15.03 46.61 0-0.01 3.3 1.68 2.6-20.24-0.15-4.45-1.96-10.35-4.16-14.47-4.35-8.14-13.17-21.87-12.91-21.96 2.12-1.74 7.3 10.1 11.8 14.76 2.92 3.01 11.02 5.96 11.58 5.57-6.5-12.6-22.24-24.47-20.6-25.94 11.6 10.86 15.26 11.39 15.74 10.81l-10.44-10.14c-2.95-3.96-6.86-7-6.31-6.87 4.66 1.03-2.43-3.876-7.9-5.372-0.99-0.266-2.57-0.354-2.62-0.848-0.09-0.843 1.28-0.483 2.43-0.843 0.75-0.217 1.51-0.795 1.53-1.873-2.09 0.46-4.23-0.026-6.02-0.838-3-1.393-7.93-2.969-11.31-2.867zm-64.663 7.173s-3.398 2.521-1.848 5.158c3.533 6.04 13.389-1.453 18.721 2.23-0.492-1.1-1.329-2.15-2.52-2.694-4.96-2.364-14.457 2.734-14.353-4.694zm20.152 57.788c-10.316 16.19-1.663 35.09-2.307 34.85-4.481-7-7.744-7.28-8.72-12.66-0.529-2.92-5.846-18.94-15.608-19.23 4.922 4.24 3.733 4.83 4.059 11.77-3.137 17.39 21.188 19.19 19.559 28.21-3.335-5.35-8.422-7.6-16.088-11.77-3.398-2.7-7.227-3.88-7.436-8.09 0.407-3.06 0.582-2.43 0.059-6.41-0.379-2.84-3.172-1.12-5.225-7.05-4.391 3.97-2.783 8.47-2.426 11.04 0.104 0.72 0.605 3.42-0.072 5-1.565-1.07-2.645-3.29-4.389-5.52-3.151-4.03-3.114-8.92-4.695-12.32-0.73-1.58-1.777-3.72-2.392-3.75l-0.114 0.06c-0.769 6.32-0.394 11.84 2.471 16.58 0 0-0.79 1.36-1.428 1.71-2.722-0.72-6.594-3.02-8.166-7.46-3.388 2.85-0.985 6.53-1.146 6.47-7.615-3.9 0.086-19.02-10.756-18.58 2.672 2.91 0.983 6.65 0.75 10.15-0.061 5.66 7.14 10.07 7.14 10.07-8.03-2.71-9.684 1.05-9.587 1.05 0 0 11.835 5.14 30.517 7.08 2.401 0.26 5.828 3.07 5.26 3.07-2.395-0.18-7.146-3.27-13.996 2.81 4.026 0.11 6.791 6.67 13.351 2.9 16.905-4.79 23.17 3.61 25.922 5.76-0.59 1.06-12.991-7.79-22.836-1.92-5.236 3.12-13.64 0.29-20.226-4.63 2.661 6.79 13.984 14.43 17.718 14.44 4.593 0.01 10.454-5.99 17.114-5.66 10.662 0.53 12.146 10.05 10.965 9.31 0.001 0.01-8.389-13.87-19.17 0.95 5.036-2.31 11.777-1.72 17.677 1.08 0.796 0.38-1.446 2.86-3.031 4.66-1.036 1.17-5.534 7.84-10.398 1.28-0.727-0.98-3.046-7.07-18.258-5.78 5.745 2.59 12.087 9.39 15.219 12.49 7.967 7.89 20.016-9.57 20.476-7.62 0 3.92 2.014 5.83 3.074 7.95 2.67 5.34-3.391 4.45-6.675 3.07 0 0 6.285 9.8 11.555 4.35 5.83-6.04-7.634-10.6-3.36-15.41 2.41-2.7 10.87 6.05 14.7 6.08 10.34 1.15 9.8-8.67 15.26-8.38-5.14-5.21-10.6-2.37-11.74-1.04-3.44 4.02-7.44 1.32-10.2-0.84-1.52-1.99-4.05-2.3-6.31-1.7-1.07 0.09 2.17-3.79 6.39-2.97 9.51 1.84 19.04-1.57 21.39-2.88 3.82-2.16 5.97-5.8 10.25-9.87-1.34 0.25-9.25 4.65-11.79 5.93-7.62 3.84-12.39-1.13-13.24-1.11-1.47 0.04-1.09-1.11 1.21-1.85 7.81-1.74 13.21-8.64 20.67-11.35 8.22-3.68 18.66-1.19 25.62-8.07 2.23-1.88 3.51-5.08 6.38-6.03-2.17-1.98-4.29 1.97-5.4 0.61 1.99-3.16 3.26-5.55 3.47-9.48 0.11-2.13 2.57-4.1 3.15-5.27-2.36 0.35-8.69 4.07-9.96 6.22-4.25 5.62-4.03 10.88-21.8 18.72-0.89 0 3.28-3.03 4.47-6.54 0.56-1.64 2.9-9.26 1.29-12.94-3.68 3.73-2.92 4.95-3.96 7.72-2.65 7.26-4.1 7.95-10.73 12.43-0.88 0.6-5.97 8.46-12.56 8.83 0.66-0.18 0.28-1.82 2.51-3.28 7.39-4.83 4.57-15.28 14.22-17.02-4.81-1.7-8.1 2.97-8.98 2.5 3.88-5.38 0.47-9.93 1.03-14.33-1.29 0.69-2.59 2.26-2.71 3.56-0.73 7.83-4.38 9.2-4.75 12.57 0.77 5.58-3.71 9.93-7 13.85-0.64-3.25 0.22-6.14 4.31-8.83 2.26-1.48-0.21-5.94-0.21-5.94-0.92 4.88-3.66 6.37-5.37 6.61-1.48 0.21 5.23-6.82 4.45-13.25-0.35-2.86-1.16-1.59-1.62-4.8-5.8 6.43-1.56 10.42-7.49 17.84-2.81 3.51-3.87 9.7-4.24 9.85 0.06-9.2 0.36-6.51 4.45-13.99 3.37-6.15-0.19-11.89-0.64-15.6-7.37 5.07-6.76 14.86-6.95 12.74-0.18-2.08-1.102-5.75-0.11-9.08 1.64-5.51-1.841-13.92-1.841-13.92zm-47.674 10.3c-2.774 2.77-3.741 2.84-3.586 4.04 0.626 1.7 1.845 2.89 3.149 4.34 1.64 1.34 2.243 2.54 1.039-1.36-0.74-2.59-0.561-4.47-0.602-7.02zm98.895 4.43c-0.03 0.59-0.05 0.51-0.15 1.21-0.24 1.62-0.24 2.89-0.75 4.73-0.05 0.18 1.82 0.94 2.67 1.67 1.2-1.12 2.28-1.68 3.54-3.26-0.28-0.17-5.3-4.54-5.31-4.35zm-1.3 7.46c-0.06-0.01-0.1 0-0.11 0.03-0.32 0.84-0.74 1.8-1.3 2.92-0.5 1.01 1.01 0.29 3.33-1.75 0 0-1.48-1.11-1.92-1.2zm19.64 3.02c-1.81 2.37-4.48 4.43-7.15 5.5-1.88 5.95-0.99 12.1 1.19 8.93 3.12-4.46 4.9-9.25 5.96-14.43zm-136.47 0.56c1.248 4.21 2.168 7.89 4.504 12.33 1.333 2.53 3.652-3.57 1.277-9.78-1.916-0.82-4.006-1.35-5.781-2.55z" transform="matrix(.8 0 0 -.8 397.72 473.01)" fill="#fff"/><path d="m125.49 18.682l-1.38 1.175 0.03 1.661 0.86 0.849h0.85l1.03-0.894v-1.44l-1.39-1.351zm-5.23 1.839c-1.11 0.03-2.76 0.181-3.47 0.293-0.94 0.143-0.94 0.602-0.15 0.698 0.78 0.079 0.93 0.242 1.34 1.295 0.38 1.058-1.51 5.86-1.97 6.99-0.56-0.823-2.55-5.215-2.55-5.811 0-0.427 0.88-0.855 1.26-0.957 0.73-0.227 0.72-0.734 0.16-0.845-1.56-0.22-7.06-0.704-8.03-0.825-0.71-0.061-1.03 0.752-0.17 0.752 0.88 0.024 1.79-0.237 2.76 1.174 1.11 1.596 4.59 9.091 5.43 12.242 0.41-0.662 3.89-10.749 4.09-11.816 0.24-1.045 0.98-2.066 2-2.369 1.06-0.283 0.96-0.731 0.18-0.803-0.2-0.023-0.51-0.027-0.88-0.018zm15.1 0.887c-0.13 0.015-0.28 0.134-0.37 0.391-0.23 0.668-2.12 3.27-4.07 4.109-1.01 0.396 1.22 1.32 1.07 1.278-0.01 2.506 0.35 6.263 0.88 7.767 0.33 0.897 1.35 2.354 2.05 1.91 0.46-0.286 1.44-2.234 1.75-2.482 0.54-0.442 0.01-1.193-0.44-0.74-0.5 0.438-0.93-0.249-1.07-0.705-0.17-0.446-0.63-5.956-0.39-6.063 0 0 4.44-0.541 4.89-0.541 0.3 0 0.31-0.971 0-0.971-0.57 0-4.33 0.078-4.42-0.134-0.28-0.807-0.35-1.786 0.3-3.149 0.2-0.424 0.03-0.694-0.18-0.67zm-61.844 0.84c-1.356 0.037-4.514 1.571-5.067 5.584-0.532 3.849 3.083 5.932 5.947 6.047 0.957 0 2.149-1.235 2.741-1.525 1.268-0.624 0.796-1.24-0.651-0.909-3.159 0.797-4.638-1.737-4.955-2.414 1.278-1.306 3.451-3.441 4.774-4.527-0.873-0.806-1.236-2.141-2.789-2.256zm11.066 0.949c-2.125-0.085-4.522 1.836-5.303 3.043-1.035 1.598 0.234 2.998 1.586 4.035-0.863 0.74-2.064 1.881-3.176 2.922 0.444 0.483 2.878 1.635 4.243 1.602 2.064-0.046 3.972-1.11 5.148-2.055 2.147-1.7 1.403-3.505-0.781-4.779-0.209-0.126-0.41-0.164-0.617-0.203 1.355-1.075 2.538-2.033 2.843-2.41-0.874-0.6-1.829-2.06-3.943-2.155zm-12.182 0.356c0.359 0.884 1.271 1.521 1.782 1.828-0.899 0.877-2.297 2.461-2.879 2.89-0.799-2.567-0.497-3.45 1.097-4.718zm-7.025 0.037c-0.518 0.431-1.709 1.146-2.373 1.515-0.52-0.593-1.16-0.594-2.199-1.408-0.575 0.44-1.851 1.375-2.537 2.207 1.209 0.354 2.121 0.424 2.199 1.459 0.044 0.847-0.09 6.048-0.02 7 0.648 0.143 1.44 0.078 2.36 0.032 0.072-0.746 0.039-7.271 0.039-7.993 0.347-0.194 0.703-0.384 0.875-0.543 0.381 0.291 1.137 1.392 1.746 1.752 0.468-0.347 1.669-1.107 2.183-1.625 0.542-0.53-0.034-0.915-0.513-0.453-0.359-0.429-1.272-1.368-1.76-1.943zm59.245 0.207l-0.64 0.07-2.94 2.584c-0.3 0.451 0.49 0.451 0.88-0.086l2.14 1.225 0.09 5.734c0.16 0.686 0.73 1.349 1.58 2.197h1.71l1.84-2.388c-1.34-0.23-1.88-0.476-2.82-1.535l0.04-5.926-1.88-1.875zm-68.862 0.432c-0.168-0.014-0.341 0.069-0.348 0.285-0.037 0.791-0.505 0.86-1.111 0.666-1.258-0.376-4.044-0.974-5.666-0.043-1.426 0.838-3.611 2.802-3.572 5.275 0.042 4.069 1.58 4.411 3.363 5.506 1.67 0.982 3.977 0.347 6.088-0.262 0.836-0.229 0.94 0.299 1.343 0.893 0.681 0.913 1.231 0.329 0.745-0.41-0.187-0.239-0.542-0.621-0.557-1.104 0-0.316 0.039-3.646 0.039-4.058 0-0.394-0.785-0.352-0.785 0-0.035 0.59 0.05 1.596-0.477 2.414-1.461 2.258-4.24 3.188-6.193 0.42-0.666-0.92-0.823-2.312-0.906-3.305-0.132-1.326 0.872-3.042 0.929-3.199 2.488-3.257 5.938-0.838 6.217 0.486 0.185 0.884 0.383 1.967 0.383 2.535-0.022 0.377 0.794 0.339 0.809-0.053 0-0.405 0.023-5.41 0.023-5.761 0.007-0.163-0.156-0.272-0.324-0.285zm26.615 0.845c0.664 0.091 2.129 0.876 3.004 1.692-0.191 0.153-0.732 0.592-1.316 1.06-0.344 0.059-0.696 0.099-1.055 0.053-1.08-0.154-1.6-0.966-2.1-1.621-0.514-0.685 0.814-1.252 1.467-1.184zm63.267 1.53c-0.26-0.03-0.48-0.024-0.68 0.001-1.44 0.217-2.92 2.076-3.4 2.698-0.34 0.492-0.25 1.11 0 1.342 0.29 0.234 0.67 0.47 1.06 0.707-0.06-0.039-0.13-0.08-0.2-0.108-0.67 0.638-1.66 2.476-1.63 3.721 0.01 1.252 1.14 3.069 1.9 3.748 0.84-0.647 2.08-1.735 3.9-2.086 0.2 0.877 0.62 1.407 1.32 1.904l2.38-2.599s-1.06-0.831-1.69-1.6c0-0.544 0-5.75 0.23-6.031-1.34-1.196-2.41-1.609-3.19-1.697zm-1.89 1.566c0.36 0 2.71 1.256 2.64 1.918 0.08 0.468 0.09 1.456 0.08 2.445-1.17-0.418-3.48-1.503-4.31-2.197-0.23-0.176-0.25-0.278 0.02-0.715 0.54-0.792 1.14-1.484 1.57-1.451zm-53.178 0.459c-0.497-0.028-1.275 1.345 1.729 1.232 0.47-0.018 0.818-1.086-1.729-1.232zm-7.47 1.168c0.717 0.325 1.447 0.649 2.244 1.119 1.15 0.651 0.559 1.89-0.682 2.463-1.261 0.579-3.52-1.049-3.871-1.719 0.462-0.399 1.332-1.09 2.309-1.863zm7.435 0.635c-0.516-0.032-1.298 0.912 1.715 1.222 0.468 0.054 1.096-1.052-1.715-1.222zm52.443 1.127c1.13 0.632 2.45 1.186 3.49 1.519-0.01 0.893-0.04 1.698-0.04 1.992 0 0.379 0.03 0.687 0.06 0.987-0.61 0.033-1.14 0.196-1.92 0.57-0.64-0.522-2.3-2.53-1.08-4.775-0.17-0.102-0.34-0.19-0.51-0.293zm-64.808 4.191c-0.131-0.017-0.26 0.125-0.281 0.436-0.043 0.63-0.812 0.437-1.391 0.437-0.588-0.013-2.304-0.272-3.783 0.549-0.942 0.547-3.097 2.234-1.891 4.258 0.705 1.18 4.843 2.141 5.871 2.822 1.034 0.675 1.267 2.412 0.278 3.209-1.23 0.976-4.576 0.152-5.09-0.44-0.679-0.749-0.938-1.367-1.08-2.236-0.143-0.889-0.891-0.814-0.891 0 0 0.81 0.192 3.591 0.34 4.244 0.135 0.679 0.812 0.454 0.877-0.062 0.076-0.477 0.392-0.616 0.838-0.653 0.952-0.077 2.49 0.495 4.195 0.354 2.027-0.146 3.619-3.287 2.742-5.732-0.815-2.322-3.402-1.914-5.144-2.469-1.602-0.437-2.264-1.445-0.518-2.592 2.055-1.326 4.604 0.802 4.848 1.25 0.377 0.677 0.691 0.666 0.691-0.215 0.054-1.921-0.124-0.834-0.314-2.644-0.033-0.323-0.166-0.499-0.297-0.516zm-11.738 0.559c-0.062 0.023-0.127 0.106-0.186 0.267-0.266 0.657-2.148 3.576-3.363 4.055-0.992 0.407-0.88 0.636-0.24 0.799 0.506 0.098 1.031 0.704 0.935 0.697-0.1 2.421-0.339 5.411 0.414 6.68 0.479 0.8 1.793 1.629 2.389 1.105 0.695-0.555 1.207-1.491 1.49-1.711 0.535-0.442 0.094-0.892-0.357-0.469-0.359 0.354-1.305-0.468-1.346-0.523-0.307-0.361-0.756-5.08-0.547-5.188 0 0 3.003-0.37 3.397-0.363 0.297 0.021 0.337-0.936 0.017-0.953-0.488 0-2.78 0.318-2.861 0.094-0.126-0.5-0.435-2.183 0.318-3.627 0.265-0.473 0.125-0.934-0.06-0.863zm23.427 0.041l-1.297 1.168 0.024 1.605 0.793 0.813h0.805l0.964-0.87v-1.38l-1.289-1.336zm27.249 1.396c-0.16-0.015-0.31 0.069-0.31 0.295 0 0.311-0.69 0.492-1.36 0.311-1.33-0.42-5.21 0.18-6.94 1.127-1.54 0.878-3.9 2.902-3.87 5.443 0.05 4.195 1.72 4.552 3.62 5.648 1.81 1.021 4.84 0.816 7.12 0.217 0.86-0.251 1.33-0.304 1.3 0.44 0 0.466 0.65 0.365 0.65 0.019 0-0.342 0.04-3.86 0.04-4.25 0-0.438-0.64-0.374-0.64 0 0 0.588 0 0.762-0.58 1.6-1.56 2.317-5.48 2.222-7.58-0.61-0.72-0.965-1.37-2.254-0.54-2.498 0.83-0.253 3.35 0.27 5.01 0.41 1 0.065 3.31 0.301 3.6 0.467 0.25 0.193 0.64 0.433 0.64-0.068 0.02-0.492 0.02-2.11 0.02-2.609 0-0.485-0.37-0.253-0.65-0.081-0.29 0.198-2.74 0.608-3.73 0.782-0.99 0.183-4.04 0.43-4.84 0.158-0.82-0.274-0.55-1.92 0.18-2.861 2.13-2.812 6.42-2.616 7.97-0.278 0.53 0.814 0.53 1.007 0.53 1.617 0 0.368 0.62 0.411 0.62 0 0.03-0.397 0.05-4.644 0.05-4.984 0-0.166-0.16-0.28-0.31-0.295zm-66.979 0.748c-1.552 0.559-3.832 1.95-4.807 3.395-1.407 2.154-2.18 5.55 0.26 7.539 1.149 0.96 2.1 1.707 4.443 1.291 0.465-0.931 0.673-1.24 1.494-2.313-1.614 0.261-2.859-0.03-4.039-0.922-2.428-1.882-1.676-4.915-0.961-5.953 1.31-1.944 3.173 0.836 3.506 1.213 0.433-0.516 1.18-1.257 1.911-1.83-0.724-0.956-1.315-1.843-1.807-2.42zm77.799 0.151c-0.43 0.347-1.83 1.874-2.61 2.357-0.18-0.84-1.47-1.745-2.52-1.932-0.33 0.363-2.79 2.238-3.91 2.784-0.35 0.164-0.22 0.916 0.27 0.724 0.45-0.198 1.21-0.773 2.09-1.191 1.02 0.396 2.17 1.429 2.27 3.556 0.1 2.349-1.12 4.815-2.45 5.93 2.3-0.595 2.6-1.969 3.85-3.582 0.7 1.028 1.99 2.27 2.93 2.807 0.67-0.441 2.55-2.554 2.96-2.989-1.36-0.362-3.98-1.747-4.63-3.209-0.51-1.085-0.39-1.596 0.12-2.451 0.46 0.601 3.65 2.066 5.08-0.377-1.57-0.571-2.98-1.599-3.45-2.427zm-70.258 0.818c-1.372 0.124-3.356 1.73-3.947 3.111-0.239 0.553 0.1 2.544 0.353 2.762 0.18 0.159 0.319 0.267 0.477 0.389-0.903 0.837-1.747 1.552-1.721 2.796 0.039 1.201 0.991 2.268 2.223 2.827 0.66-1.003 1.688-1.618 2.791-1.877 0.09 0.958 0.312 1.657 0.941 2.138 0.451-0.499 2.256-2.057 2.606-2.41 0.381-0.36 0.096-0.792-0.35-0.361-0.265 0.246-0.909-0.119-1.1-0.432 0-0.525 0-6.041 0.231-6.293-0.816-0.884-1.592-2.75-2.504-2.65zm27.006 0.205c-0.895 0.57-2.274 1.744-2.871 2.238-0.744 0.629-2.27 2.803-1.428 5.133 0.843 2.39 2.823 3.141 4.299 3.258 0.438-0.818 1.253-2.06 1.703-2.637 0.664-0.882-0.013-1.414-0.477-0.396-0.359 0.782-2.275-0.073-2.968-0.741-0.934-0.869-1.515-3.148-0.772-3.949 0.751-0.808 1.83-0.439 3.219-0.478 0.915-0.047 1.11-0.89 1.267-1.321-0.442-0.207-1.105-0.582-1.972-1.107zm53.182 1.049c-0.91 0.503-4.85 2.55-5.18 4.914-0.48 3.486 0.62 4.181 2.15 6.098 0.86 1.087 2.3 1.137 2.96 0.968 0.71-0.488 3.29-2.941 3.57-3.248 0.26-0.301-0.11-0.576-0.43-0.269-0.32 0.294-0.2 0.419-0.63 0.482-0.43 0.072-2.19 0.367-3.21-0.166-1.28-0.671-2.94-2.245-2.56-4.174 0.28-1.424 1.28-2.006 1.74-2.435 0.65 0.721 1.3 1.535 2.28 1.535 0.95 0.007 1.95-0.436 2.25-0.83-0.79-0.635-2.58-2.52-2.94-2.875zm-81.68 0.441c0.344 0.024 1.577 1.523 1.492 2.176 0.063 0.362 0.091 1.029 0.107 1.728-1.529 0.994-2.018 0.961-3.072-0.228-0.523-0.607-0.475-1.753-0.234-2.186 0.475-0.745 1.309-1.497 1.707-1.49zm34.474 0.125l-0.58 0.076-2.508 2.313c-0.675 0.605-0.069 0.892 0.682 0.224l1.293 0.79 0.049 5.427c0.133 0.649 0.701 0.875 1.5 1.698l1.404-1.209 1.113-1.198c-1.248-0.236-1.248-0.154-1.912-0.752l0.049-5.761-1.09-1.608zm57.096 0.498c-3.3 1.177-5.35 3.789-5.44 6.877-0.06 1.805 1.48 5.529 4.65 5.549 0.98-0.94 2.01-1.936 3.04-2.615 0.65-1.175 1.61-3.075 1.54-4.522-0.08-1.779-1.18-4.419-3.79-5.289zm-1.9 2.268c1.48 0.545 3.21 1.999 3.36 3.336 0.21 1.731-0.29 3.787-1.22 4.91-0.61-0.298-2.85-2.023-3.36-3.342-0.67-1.781-0.67-3.75 1.22-4.904zm-88.055 1.699c0.005 0.899 0 1.751 0 2.076-0.009 0.298 0.001 0.551 0.006 0.821-0.296 0.074-0.629 0.144-1.043 0.353-0.561-0.477-3.221-1.346-1.479-2.752 1.069 0.631 1.482 0.14 2.516-0.498zm95.525 0.721c-0.55 0-0.84 0.775-0.16 0.955 0.43 0.12 1.24 0.264 2.01 0.301 0.53 0.048 0.36-0.779-0.03-0.94-0.41-0.157-1.27-0.316-1.82-0.316zm-0.03 1.851c-0.57 0-0.84 0.742-0.17 0.948 0.43 0.127 1.21 0.243 2 0.302 0.51 0.063 0.34-0.776-0.04-0.935-0.39-0.141-1.26-0.307-1.79-0.315zm-76.593 2.666c-0.371 0.731-0.971 1.401-2.062 1.901 0.664 0.579 1.53 1.323 2.101 1.699 0.657-0.731 1.26-1.407 2.016-2.121-0.749-0.148-1.616-0.524-2.055-1.479zm-6.084 1.356c-0.093 0.02-0.194 0.145-0.267 0.398-0.211 0.662-1.785 3.567-2.711 4.242-0.788 0.592 0.927 1.416 0.773 1.37 0.063 2.428-0.291 4.926 0.535 6.16 0.526 0.765 2.153 1.326 2.436 0.592 0.274-0.74 1.51-2.247 1.787-2.502 0.514-0.455 0.06-0.87-0.371-0.422-0.893 0.945-1.392 0.509-2.051-0.118-0.316-0.36-0.438-3.757-0.209-3.859 0 0 1.639-0.238 2.033-0.238 0.304 0 0.279-0.944-0.041-0.944-0.492 0-1.955 0.015-2.039-0.216-0.183-0.47 0.292-2.757 0.373-3.785 0.043-0.454-0.092-0.712-0.248-0.678zm34.757 0.025c0.05 1.193 0.49 11.453 0.36 12.879-0.08 0.814 1.01 1.677 2 2.356 0.49-0.585 1.54-2.121 2.41-2.766 0.52-0.422 0.16-0.696-0.23-0.541-0.79 0.366-1.58 0.08-1.66-0.83-0.07-0.908-0.07-9.738 0-11.012-0.6 0-2.31-0.032-2.88-0.086zm21.61 0.26c-0.13 0.009-0.28 0.123-0.37 0.371-0.26 0.705-1.88 2.413-3.54 3.227-0.94 0.468 1.26 1.335 1.11 1.296-0.03 2.484-0.53 6.545 0.32 7.834 0.53 0.788 1.73 1.307 2.53 0.999 0.77-0.309 1.76-1.851 2.05-2.104 0.58-0.429 0.09-0.885-0.39-0.441-0.47 0.442-1.76 0.125-1.93-0.321-0.13-0.466-0.3-5.887-0.07-5.996 0 0 1.54-0.034 1.96-0.021 0.32 0 0.34-0.985 0.02-0.985-0.56-0.008-1.81-0.12-1.88-0.343-0.18-0.511 0.04-2.161 0.37-2.832 0.2-0.424 0.03-0.699-0.18-0.684zm-74.984 1.422c-1.178 0.791-5.076 2.429-5.668 6.455-0.521 3.873 3.132 6.177 4.885 6.924 0.442-0.892 1.338-2.336 2.219-3.348 0.667-0.78-0.069-0.986-0.668-0.387-0.809 0.884-3.222 0.044-3.862-1.121 1.166-0.878 4.205-3.42 5.528-4.504-0.873-0.817-2.223-2.852-2.434-4.019zm35.248 0.359c-1.346 0.137-3.36 2.063-3.793 2.694-0.329 0.471 0.097 2.748 0.354 2.964 0.072 0.052 0.105 0.07 0.17 0.131-0.903 0.929-1.572 1.955-1.561 3.248 0.044 1.23 0.455 2.453 1.705 3.008 1.108-0.816 2.534-1.807 3.908-2.066 0.674 0.81 1.707 1.347 2.328 1.836 0.43-0.518 1.801-1.631 2.18-1.977 0.361-0.368 0-0.885-0.379-0.4-0.292 0.445-1.257 0.123-1.533-0.33 0-0.524-0.501-6.056-0.279-6.311-0.799-0.89-2.173-2.897-3.1-2.797zm29.826 0.352c-1.45 0.12-3.29 2.65-3.75 3.306-0.36 0.474 0.02 2.285 0.29 2.512 0.1 0.091 0.14 0.098 0.23 0.176-0.68 0.642-1.9 2.311-1.87 3.541 0.02 1.259 0.62 2.468 1.35 3.148 1.25-0.869 2.02-2.066 4.09-2.863 0.26 0.966 0.94 1.114 1.75 1.723 0.48-0.526 2.24-2.689 2.63-3.067 0.39-0.37 0.17-0.75-0.39-0.369-0.55 0.37-0.93 0.142-1.86-0.853 0.03-0.54-0.06-4.954 0.15-5.2-0.84-0.908-1.62-2.147-2.62-2.054zm-58.986 0.142c-0.758 0.716-1.355 1.368-2.463 2.243 0.514 0.591 1.387 1.336 1.465 2.353 0.067 1.027 0.029 5.793 0.094 6.986 0.81 0 0.666 0.085 2.058 0.032-0.137-0.81-0.021-6.995-0.021-7.881 0.521-0.498 0.596-0.576 1.195-1.022 0.431 0.378 1.44 0.6 1.44 1.264 0 0.666 0.197 3.602-0.038 4.687-0.29 1.323-0.161 2.274 0.553 3.61 0.542-0.605 2.568-2.022 3.008-2.375 0.433-0.376 0.207-0.658-0.354-0.504-0.599 0.129-0.707 0.244-0.707-0.135 0-0.714-0.281-3.935-0.326-5.992-0.074-2.062-1.079-2.668-1.658-2.953-0.59 0.656-1.909 1.485-2.699 2.154-0.594-0.438-0.887-1.424-1.547-2.467zm19.912 0.137l-0.603 0.084-2.493 2.328c-0.66 0.577-0.078 0.855 0.69 0.217l1.65 0.853 0.039 5.272c0.139 0.651 0.717 0.8 1.52 1.627l1.037-1.057 1.088-1.203c-1.223-0.225-0.654-0.215-1.301-0.81l-0.037-4.977-1.59-2.334zm-27.898 1.27c0.353 0.897 1.475 2.604 1.982 2.904-0.873 0.875-3.014 2.326-3.617 2.75-1.095-1.376-1.687-3.62 1.635-5.654zm82.502 0.144c-0.58 0.592-1.6 1.274-2.55 2.332 0.79 0.056 1.45 0.224 1.83 0.981 0.38 0.749 0.05 3.914 0.11 5.132 0.06 1.184 0.78 1.436 1.72 2.416 0.93-0.236 3.55-1.33 4.43-1.935-0.08 0.973 1.15 2.065 1.87 2.277 0.49-0.531 1.02-0.82 1.74-1.484-0.7-0.466-0.61-0.532-0.87-1.457-0.21-0.893 0.05-4.273 0.07-5.723-0.55-0.838-1.46-1.843-2.39-2.539-0.66 0.598-1.54 1.399-2.58 2.492 0.78-0.105 2.3 0.205 2.37 0.854 0.04 0.838 0.17 2.671 0 4.094-0.18 1.433-4.03 0.777-4.09-0.19-0.08-0.993 0.2-3.849 0.22-5.201-0.55-0.836-0.87-1.298-1.88-2.049zm-47.336 0.092c0.329 0 2.375 1.236 2.267 1.896 0.078 0.472 0.04 1.36-0.013 2.231-1.018 0.022-1.891-0.291-3-1.266-0.211-0.177-0.409-1.441-0.168-1.851 0.488-0.777 0.488-1.017 0.914-1.01zm30.206 0.344c0.38 0.024 1.85 1.034 1.78 1.716 0.07 0.443 0.09 1.368 0.08 2.309-1.1 0.133-1.88 0.258-3.11-0.783-0.23-0.183-0.29-1.86-0.03-2.279 0.53-0.807 0.86-0.963 1.28-0.963zm30.56 1.06c-0.65 0.442-2.52 2.15-3.31 2.6 1.14 0.029 2.83 0.405 2.9 1.465 0.04 0.858-0.07 6.215 0 7.195 0.69 0.148 1.52 0.077 2.53 0.02 0.05-0.759 0.03-6.935 0.05-7.684 0.34-0.191 0.74-0.381 0.94-0.555 0.39 0.292 1.58 1.663 2.27 2.031 0.47-0.36 1.71-1.444 2.26-1.957 0.57-0.569-0.05-0.933-0.55-0.472-0.39-0.461-1.45-1.341-2.4-2.012-0.54 0.45-1.66 1.263-2.38 1.635-0.53-0.599-1.24-1.43-2.31-2.266zm-61.204 2.906c0.934 0.629 1.466 0.549 2.643 0.434-0.048 0.636-0.094 1.22-0.094 1.481 0 0.283 0.116 0.507 0.195 0.746-0.608 0.216-1.381 0.345-1.978 0.644-0.54-0.477-2.53-1.836-0.766-3.305zm30.024 0.635c0.81 0.453 1.22 0.174 2.47 0.037 0 0.792-0.02 1.504-0.03 1.885-0.55 0.396-1.23 0.742-2.01 1.129-0.62-0.512-1.53-0.95-0.43-3.051zm-15.473 26.59c-2.256-0.024-4.232 1.469-4.232 1.75 0 0.762 0.801 1.15 3.085-0.287-1.788 2.071 0.245 3.758 0.245 3.758-0.744-0.111-1.806-0.362-2.485-0.75-0.138 0.749 0.891 1.022 1.383 1.345 3.787 1.558 6.277-2.086 9.607-2.728v-0.141c-2.23-0.321-3.98-1.883-6.02-2.654-0.53-0.2-1.063-0.287-1.583-0.293zm1.233 1.316c0.85 0.248 2.88 1.391 3.61 1.87l-3.62 1.828s1.01-1.091 1-1.869c0-1.058-0.99-1.829-0.99-1.829z" transform="matrix(.8 0 0 -.8 397.72 473.01)" fill="#800000"/></g></g></svg>
