<?xml version="1.0" encoding="UTF-8" standalone="no"?>
<!-- Created with Inkscape (http://www.inkscape.org/) -->
<svg
   xmlns:svg="http://www.w3.org/2000/svg"
   xmlns="http://www.w3.org/2000/svg"
   version="1.0"
   width="130.60434"
   height="65.065453"
   id="svg2"
   xml:space="preserve"><defs
     id="defs5" /><g
     transform="matrix(1.25,0,0,-1.25,-76.495944,107.82711)"
     id="g11"><g
       id="g2908"><path
         d="M 86.343,49.39101 C 86.82901,50.255 86.951,51.16101 86.951,51.728 C 86.951,52.444 86.79001,52.93201 86.317,53.94301 C 85.87,54.903 85.83,55.30901 85.83,55.808 C 85.83,57.039 86.371,58.13101 87.18102,58.903 L 85.763,58.903 C 85.11501,58.00999 84.77701,56.944 84.77701,55.823 C 84.77701,55.011 84.95,54.418 85.31601,53.632 C 85.74901,52.70201 85.91301,52.349 85.91301,51.662 C 85.91301,50.864 85.54501,50.02501 85.02,49.39101 L 86.343,49.39101"
         id="path43"
         style="fill:#231f20;fill-opacity:1;fill-rule:nonzero;stroke:none" /><path
         d="M 86.343,49.39101 C 86.82901,50.255 86.951,51.16101 86.951,51.728 C 86.951,52.444 86.79001,52.93201 86.317,53.94301 C 85.87,54.903 85.83,55.30901 85.83,55.808 C 85.83,57.039 86.371,58.13101 87.18102,58.903 L 85.763,58.903 C 85.11501,58.00999 84.77701,56.944 84.77701,55.823 C 84.77701,55.011 84.95,54.418 85.31601,53.632 C 85.74901,52.70201 85.91301,52.349 85.91301,51.662 C 85.91301,50.864 85.54501,50.02501 85.02,49.39101 L 86.343,49.39101 z"
         id="path45"
         style="fill:none;stroke:#231f20;stroke-width:0.18799999;stroke-linecap:butt;stroke-linejoin:miter;stroke-miterlimit:4;stroke-dasharray:none;stroke-opacity:1" /><path
         d="M 91.507,57.22701 C 91.507,57.511 91.507,58.10501 92.18201,58.10501 C 92.84201,58.10501 92.84201,57.52301 92.84201,57.22701 L 92.84201,51.09201 C 92.84201,50.79601 92.84201,50.214 92.19501,50.214 C 91.507,50.214 91.507,50.755 91.507,51.09201 L 91.507,57.22701 z M 90.466,50.80901 C 90.466,49.647 91.358,49.147 92.19501,49.147 C 92.66901,49.147 93.88301,49.40601 93.88301,50.80901 L 93.88301,57.48201 C 93.88301,58.23 93.37,59.14601 92.16801,59.14601 C 91.34401,59.14601 90.466,58.59201 90.466,57.48201 L 90.466,50.80901"
         id="path47"
         style="fill:#231f20;fill-opacity:1;fill-rule:nonzero;stroke:none" /><path
         d="M 91.507,57.22701 C 91.507,57.511 91.507,58.10501 92.18201,58.10501 C 92.84201,58.10501 92.84201,57.52301 92.84201,57.22701 L 92.84201,51.09201 C 92.84201,50.79601 92.84201,50.214 92.19501,50.214 C 91.507,50.214 91.507,50.755 91.507,51.09201 L 91.507,57.22701 z M 90.466,50.80901 C 90.466,49.647 91.358,49.147 92.19501,49.147 C 92.66901,49.147 93.88301,49.40601 93.88301,50.80901 L 93.88301,57.48201 C 93.88301,58.23 93.37,59.14601 92.16801,59.14601 C 91.34401,59.14601 90.466,58.59201 90.466,57.48201 L 90.466,50.80901 z"
         id="path49"
         style="fill:none;stroke:#231f20;stroke-width:0.18799999;stroke-linecap:butt;stroke-linejoin:miter;stroke-miterlimit:4;stroke-dasharray:none;stroke-opacity:1" /><path
         d="M 96.49301,52.336 L 97.10101,51.36301 L 97.994,51.36301 L 97.994,49.39101 L 99.03401,49.39101 L 99.03401,51.36301 L 100.96701,51.36301 L 100.96701,52.336 L 99.03401,52.336 L 99.03401,57.862 L 100.96701,57.862 L 100.96701,58.903 L 97.994,58.903 L 97.994,52.336 L 96.49301,52.336"
         id="path51"
         style="fill:#231f20;fill-opacity:1;fill-rule:nonzero;stroke:none" /><path
         d="M 96.49301,52.336 L 97.10101,51.36301 L 97.994,51.36301 L 97.994,49.39101 L 99.03401,49.39101 L 99.03401,51.36301 L 100.96701,51.36301 L 100.96701,52.336 L 99.03401,52.336 L 99.03401,57.862 L 100.96701,57.862 L 100.96701,58.903 L 97.994,58.903 L 97.994,52.336 L 96.49301,52.336 z"
         id="path53"
         style="fill:none;stroke:#231f20;stroke-width:0.18799999;stroke-linecap:butt;stroke-linejoin:miter;stroke-miterlimit:4;stroke-dasharray:none;stroke-opacity:1" /><path
         d="M 105.64801,49.39101 L 105.64801,57.862 L 106.785,57.862 L 106.785,58.903 L 103.45901,58.903 L 103.45901,57.862 L 104.59401,57.862 L 104.59401,49.39101 L 105.64801,49.39101"
         id="path55"
         style="fill:#231f20;fill-opacity:1;fill-rule:nonzero;stroke:none" /><path
         d="M 105.64801,49.39101 L 105.64801,57.862 L 106.785,57.862 L 106.785,58.903 L 103.45901,58.903 L 103.45901,57.862 L 104.59401,57.862 L 104.59401,49.39101 L 105.64801,49.39101 z"
         id="path57"
         style="fill:none;stroke:#231f20;stroke-width:0.18799999;stroke-linecap:butt;stroke-linejoin:miter;stroke-miterlimit:4;stroke-dasharray:none;stroke-opacity:1" /><path
         d="M 114.93001,58.903 L 113.85001,58.903 L 112.99901,53.87601 L 111.95801,59.321 L 110.95901,53.87601 L 110.08202,58.903 L 108.96001,58.903 L 110.95901,48.72701 L 111.94701,54.17101 L 113.04001,48.72701 L 114.93001,58.903"
         id="path59"
         style="fill:#231f20;fill-opacity:1;fill-rule:nonzero;stroke:none" /><path
         d="M 114.93001,58.903 L 113.85001,58.903 L 112.99901,53.87601 L 111.95801,59.321 L 110.95901,53.87601 L 110.08202,58.903 L 108.96001,58.903 L 110.95901,48.72701 L 111.94701,54.17101 L 113.04001,48.72701 L 114.93001,58.903 z"
         id="path61"
         style="fill:none;stroke:#231f20;stroke-width:0.18799999;stroke-linecap:butt;stroke-linejoin:miter;stroke-miterlimit:4;stroke-dasharray:none;stroke-opacity:1" /><path
         d="M 119.37201,52.336 L 119.37201,57.22701 C 119.37201,57.53999 119.37201,58.10501 120.005,58.10501 C 120.64301,58.10501 120.64301,57.552 120.64301,57.22701 L 120.64301,52.336 L 119.37201,52.336 z M 116.83202,52.336 L 117.44,51.36301 L 118.33401,51.36301 L 118.33401,49.39101 L 119.37201,49.39101 L 119.37201,51.36301 L 120.64301,51.36301 L 120.64301,49.39101 L 121.68301,49.39101 L 121.68301,57.22701 C 121.68301,57.63101 121.68301,58.05101 121.30402,58.578 C 120.91301,59.091 120.27701,59.14601 120.02,59.14601 C 119.27701,59.14601 118.33401,58.672 118.33401,57.22701 L 118.33401,52.336 L 116.83202,52.336"
         id="path63"
         style="fill:#231f20;fill-opacity:1;fill-rule:nonzero;stroke:none" /><path
         d="M 119.37201,52.336 L 119.37201,57.22701 C 119.37201,57.53999 119.37201,58.10501 120.005,58.10501 C 120.64301,58.10501 120.64301,57.552 120.64301,57.22701 L 120.64301,52.336 L 119.37201,52.336 z M 116.83202,52.336 L 117.44,51.36301 L 118.33401,51.36301 L 118.33401,49.39101 L 119.37201,49.39101 L 119.37201,51.36301 L 120.64301,51.36301 L 120.64301,49.39101 L 121.68301,49.39101 L 121.68301,57.22701 C 121.68301,57.63101 121.68301,58.05101 121.30402,58.578 C 120.91301,59.091 120.27701,59.14601 120.02,59.14601 C 119.27701,59.14601 118.33401,58.672 118.33401,57.22701 L 118.33401,52.336 L 116.83202,52.336 z"
         id="path65"
         style="fill:none;stroke:#231f20;stroke-width:0.18799999;stroke-linecap:butt;stroke-linejoin:miter;stroke-miterlimit:4;stroke-dasharray:none;stroke-opacity:1" /><path
         d="M 126.87901,57.647 C 128.06801,56.742 128.21501,55.45801 128.21501,54.93201 C 128.21501,54.132 127.90701,53.06601 126.87901,52.336 L 126.87901,57.647 z M 124.33701,52.336 L 124.94701,51.36301 L 125.83801,51.36301 L 125.83801,49.39101 L 126.87901,49.39101 L 126.87901,51.36301 L 127.772,51.36301 C 128.18901,51.36301 128.21501,51.2 128.21501,50.888 L 128.21501,49.39101 L 129.257,49.39101 L 129.257,50.888 C 129.257,51.578 129.257,52.214 128.17601,52.336 C 128.446,52.63301 129.257,53.50999 129.257,55.054 C 129.257,56.66101 128.28401,58.64601 125.83801,59.321 L 125.83801,52.336 L 124.33701,52.336"
         id="path67"
         style="fill:#231f20;fill-opacity:1;fill-rule:nonzero;stroke:none" /><path
         d="M 126.87901,57.647 C 128.06801,56.742 128.21501,55.45801 128.21501,54.93201 C 128.21501,54.132 127.90701,53.06601 126.87901,52.336 L 126.87901,57.647 z M 124.33701,52.336 L 124.94701,51.36301 L 125.83801,51.36301 L 125.83801,49.39101 L 126.87901,49.39101 L 126.87901,51.36301 L 127.772,51.36301 C 128.18901,51.36301 128.21501,51.2 128.21501,50.888 L 128.21501,49.39101 L 129.257,49.39101 L 129.257,50.888 C 129.257,51.578 129.257,52.214 128.17601,52.336 C 128.446,52.63301 129.257,53.50999 129.257,55.054 C 129.257,56.66101 128.28401,58.64601 125.83801,59.321 L 125.83801,52.336 L 124.33701,52.336 z"
         id="path69"
         style="fill:none;stroke:#231f20;stroke-width:0.18799999;stroke-linecap:butt;stroke-linejoin:miter;stroke-miterlimit:4;stroke-dasharray:none;stroke-opacity:1" /><path
         d="M 131.60701,52.336 L 132.21501,51.36301 L 133.104,51.36301 L 133.104,50.972 C 133.104,50.51201 133.145,49.39101 134.537,49.39101 L 136.07901,49.39101 L 136.07901,50.431 L 134.537,50.431 C 134.14601,50.431 134.14601,50.63501 134.14601,50.972 L 134.14601,51.36301 L 136.07901,51.36301 L 136.07901,52.336 L 134.14601,52.336 L 134.14601,57.862 L 136.07901,57.862 L 136.07901,58.903 L 133.104,58.903 L 133.104,52.336 L 131.60701,52.336"
         id="path71"
         style="fill:#231f20;fill-opacity:1;fill-rule:nonzero;stroke:none" /><path
         d="M 131.60701,52.336 L 132.21501,51.36301 L 133.104,51.36301 L 133.104,50.972 C 133.104,50.51201 133.145,49.39101 134.537,49.39101 L 136.07901,49.39101 L 136.07901,50.431 L 134.537,50.431 C 134.14601,50.431 134.14601,50.63501 134.14601,50.972 L 134.14601,51.36301 L 136.07901,51.36301 L 136.07901,52.336 L 134.14601,52.336 L 134.14601,57.862 L 136.07901,57.862 L 136.07901,58.903 L 133.104,58.903 L 133.104,52.336 L 131.60701,52.336 z"
         id="path73"
         style="fill:none;stroke:#231f20;stroke-width:0.18799999;stroke-linecap:butt;stroke-linejoin:miter;stroke-miterlimit:4;stroke-dasharray:none;stroke-opacity:1" /><path
         d="M 133.03101,57.819 L 134.36401,57.45601 L 134.24701,56.03401 L 132.974,56.623 L 133.03101,57.819"
         id="path75"
         style="fill:#ffffff;fill-opacity:1;fill-rule:nonzero;stroke:none" /><path
         d="M 133.03101,57.819 L 134.36401,57.45601 L 134.24701,56.03401 L 132.974,56.623 L 133.03101,57.819 z"
         id="path77"
         style="fill:none;stroke:#ffffff;stroke-width:0.18799999;stroke-linecap:butt;stroke-linejoin:miter;stroke-miterlimit:3.86400008;stroke-dasharray:none;stroke-opacity:1" /><path
         d="M 63.28101,61.53 C 63.76801,62.395 63.888,63.302 63.888,63.867 C 63.888,64.582 63.72701,65.069 63.255,66.08501 C 62.808,67.04001 62.76801,67.44801 62.76801,67.94901 C 62.76801,69.17801 63.308,70.272 64.119,71.04301 L 62.701,71.04301 C 62.052,70.151 61.714,69.082 61.714,67.96101 C 61.714,67.151 61.88901,66.55701 62.255,65.77301 C 62.686,64.84 62.849,64.48901 62.849,63.8 C 62.849,63.00301 62.48401,62.164 61.957,61.53 L 63.28101,61.53"
         id="path79"
         style="fill:#231f20;fill-opacity:1;fill-rule:nonzero;stroke:none" /><path
         d="M 69.985,62.57001 L 68.82201,62.57001 C 68.22701,62.57001 68.21501,62.705 68.21501,63.326 L 68.21501,71.04301 L 67.16,71.04301 L 67.16,63.326 C 67.16,62.84201 67.16,62.46201 67.498,62.017 C 67.76901,61.63701 68.22701,61.53 68.82201,61.53 L 69.985,61.53 L 69.985,62.57001"
         id="path81"
         style="fill:#231f20;fill-opacity:1;fill-rule:nonzero;stroke:none" /><path
         d="M 71.43201,64.47701 L 72.04001,63.502 L 72.931,63.502 L 72.931,63.11101 C 72.931,62.651 72.97301,61.53 74.36301,61.53 L 75.90401,61.53 L 75.90401,62.57001 L 74.36301,62.57001 C 73.97101,62.57001 73.97101,62.774 73.97101,63.11101 L 73.97101,63.502 L 75.90401,63.502 L 75.90401,64.47701 L 73.97101,64.47701 L 73.97101,70.00201 L 75.90401,70.00201 L 75.90401,71.04301 L 72.931,71.04301 L 72.931,64.47701 L 71.43201,64.47701"
         id="path83"
         style="fill:#231f20;fill-opacity:1;fill-rule:nonzero;stroke:none" /><path
         d="M 77.93701,64.47701 L 78.54501,63.502 L 79.436,63.502 L 79.436,63.11101 C 79.436,62.651 79.47701,61.53 80.869,61.53 L 82.408,61.53 L 82.408,62.57001 L 80.869,62.57001 C 80.47701,62.57001 80.47701,62.774 80.47701,63.11101 L 80.47701,63.502 L 82.408,63.502 L 82.408,64.47701 L 80.47701,64.47701 L 80.47701,70.00201 L 82.408,70.00201 L 82.408,71.04301 L 79.436,71.04301 L 79.436,64.47701 L 77.93701,64.47701"
         id="path85"
         style="fill:#231f20;fill-opacity:1;fill-rule:nonzero;stroke:none" /><path
         d="M 86.55101,69.78601 C 87.72701,68.89401 87.888,67.623 87.888,67.069 C 87.888,66.29901 87.591,65.246 86.55101,64.50301 L 86.55101,69.78601 z M 86.55101,61.53 L 86.55101,63.326 C 86.84702,63.487 87.33501,63.74701 87.84801,64.328 C 88.52501,65.08301 88.929,66.08501 88.929,67.192 C 88.929,69.13901 87.72701,70.772 85.50999,71.46201 L 85.50999,61.53 L 86.55101,61.53"
         id="path87"
         style="fill:#231f20;fill-opacity:1;fill-rule:nonzero;stroke:none" /><path
         d="M 92.41701,61.53 L 93.45801,61.53 L 93.45801,63.571 C 94.214,63.8 94.634,64.38101 94.634,65.313 L 94.634,71.04301 L 93.591,71.04301 L 93.591,65.313 C 93.591,64.718 93.19901,64.57101 92.929,64.57101 C 92.593,64.57101 92.28201,64.8 92.28201,65.313 L 92.28201,71.04301 L 91.24101,71.04301 L 91.24101,65.313 C 91.24101,64.86601 91.35001,64.48901 91.53801,64.19301 C 91.74101,63.879 92.039,63.69301 92.41701,63.571 L 92.41701,61.53"
         id="path89"
         style="fill:#231f20;fill-opacity:1;fill-rule:nonzero;stroke:none" /><path
         d="M 100.79201,61.53 C 100.09,62.138 98.44,63.545 98.44,66.29901 C 98.44,68.98801 100.17,70.50101 100.79201,71.04301 L 99.27901,71.04301 C 98.12801,69.718 97.399,68.054 97.399,66.29901 C 97.399,64.52901 98.08801,62.84201 99.27901,61.53 L 100.79201,61.53"
         id="path91"
         style="fill:#231f20;fill-opacity:1;fill-rule:nonzero;stroke:none" /><path
         d="M 104.798,64.47701 L 104.798,69.367 C 104.798,69.67801 104.798,70.24501 105.43301,70.24501 C 106.06801,70.24501 106.06801,69.69101 106.06801,69.367 L 106.06801,64.47701 L 104.798,64.47701 z M 102.257,64.47701 L 102.86601,63.502 L 103.75801,63.502 L 103.75801,61.53 L 104.798,61.53 L 104.798,63.502 L 106.06801,63.502 L 106.06801,61.53 L 107.108,61.53 L 107.108,69.367 C 107.108,69.77101 107.108,70.192 106.73,70.718 C 106.33801,71.233 105.70401,71.287 105.44701,71.287 C 104.703,71.287 103.75801,70.813 103.75801,69.367 L 103.75801,64.47701 L 102.257,64.47701"
         id="path93"
         style="fill:#231f20;fill-opacity:1;fill-rule:nonzero;stroke:none" /><path
         d="M 111.84702,61.53 L 111.84702,70.00201 L 112.981,70.00201 L 112.981,71.04301 L 109.65601,71.04301 L 109.65601,70.00201 L 110.79301,70.00201 L 110.79301,61.53 L 111.84702,61.53"
         id="path95"
         style="fill:#231f20;fill-opacity:1;fill-rule:nonzero;stroke:none" /><path
         d="M 132.007,85.91 C 132.27301,85.91 132.27301,85.45901 132.27301,85.436 C 132.27301,85.28801 131.858,84.21701 131.73999,83.64201 C 131.791,83.593 131.77,83.60301 131.92,83.60301 C 131.94,83.60301 136.42201,84.78601 138.283,84.78601 L 142.173,84.78601 C 142.32401,84.78601 142.929,84.66801 143.07701,84.66801 L 144.42201,84.66801 C 147.106,84.66801 152.97701,83.05 154.834,81.98601 C 158.36101,79.966 164.033,75.24101 164.349,71.09401 C 164.38701,70.53 164.60301,69.82401 164.70801,69.20201 C 164.80901,68.604 165.04501,67.481 165.04501,67.33501 C 165.04501,66.675 165.14801,67.242 164.927,65.23 C 163.90901,56.24701 153.65701,53.729 147.091,53.729 C 146.942,53.729 147.17999,53.845 147.033,53.845 C 146.88701,53.845 147.091,53.729 146.942,53.729 L 145.93701,53.729 C 145.791,53.729 145.998,53.845 145.847,53.845 C 145.703,53.845 145.90701,53.729 145.761,53.729 C 145.61301,53.729 145.791,53.845 145.64301,53.845 C 145.494,53.845 145.554,53.729 145.40401,53.729 C 145.25801,53.729 145.25801,53.845 145.108,53.845 C 144.96201,53.845 144.87401,53.729 144.72501,53.729 C 144.57701,53.729 144.57701,53.845 144.431,53.845 C 144.28101,53.845 144.401,53.729 144.25101,53.729 C 140.28801,53.729 132.73201,55.27101 129.908,58.96201 C 129.908,58.96201 129.966,59.022 129.97801,59.10501 C 132.60901,58.17801 134.83601,57.515 137.33501,57.10001 L 140.46501,56.98 C 141.11601,56.98 145.59201,57.854 146.15901,57.854 C 148.09,57.839 156.526,61.463 156.526,65.94501 C 156.526,66.091 156.349,67.03801 156.349,67.186 C 156.349,67.33501 156.41,67.72601 156.50301,67.985 C 156.42999,67.388 157.29601,66.69 157.29601,66.26901 C 157.29601,61.98801 151.75801,58.81 148.341,57.856 C 147.065,57.49901 142.64801,56.45 140.67401,56.45 C 140.52501,56.45 140.34,56.397 138.927,56.50601 C 136.35301,56.70801 134.14601,57.494 131.26401,58.06401 C 134.78201,55.179 138.347,54.742 142.005,54.319 L 145.703,54.17101 L 149.39601,54.319 C 157.32201,54.955 163.92101,59.164 163.92101,66.86101 C 163.92101,74.15201 159.67801,79.33 150.86801,82.99701 C 149.972,83.36801 146.649,84.01701 146.375,84.01701 L 145.08801,84.01701 C 144.94101,84.01701 143.83601,84.13301 142.179,84.25201 L 139.311,84.313 C 136.192,84.313 135.03201,83.929 131.433,83.00201 C 131.16901,82.328 130.73401,80.12 130.73401,79.40201 C 130.73401,78.81201 134.638,76.326 134.638,72.186 C 134.638,68.938 131.73201,63.84401 128.98801,63.88901 C 128.53101,63.895 127.59801,63.54901 127.03801,63.54901 C 126.86101,63.54901 124.87701,63.77901 124.367,63.92601 C 123.97501,64.04401 123.58601,64.38301 123.22601,64.716 C 125.28801,64.10101 124.813,64.20001 126.38602,64.20001 C 131.74701,64.20001 133.929,68.731 133.929,72.718 C 133.929,76.132 131.06999,77.42801 129.35501,80.95601 C 129.252,81.17101 129.07201,81.37701 128.84801,81.60901 L 128.84801,81.82201 C 128.92999,81.828 128.92999,81.88701 129.078,81.88701 C 129.729,81.88701 130.028,80.617 130.23601,80.289 C 130.27101,80.339 130.263,80.438 130.263,81.50401 C 130.32201,82.097 130.617,83.19 130.617,83.33601 C 130.617,83.48401 131.151,84.591 131.39,85.175 L 131.39,85.32101 L 131.00998,85.32101 C 130.61,85.317 126.47401,82.45601 126.47401,81.71001 C 126.47401,81.56201 126.52701,81.64301 126.591,81.54901 C 123.45601,81.813 121.21701,79.162 119.31601,78.123 C 119.49001,77.91101 119.787,77.61501 119.96501,77.28801 C 119.87901,77.272 119.84901,77.15501 119.70001,77.15501 C 119.55402,77.15501 118.72601,77.39 118.72601,77.539 C 118.72601,77.686 118.84502,77.44901 118.84502,77.59801 C 118.84502,77.746 117.869,78.71701 117.32201,78.97701 C 116.41301,79.412 115.00601,79.10201 114.134,79.97801 C 114.134,79.97801 113.99301,80.082 113.99301,79.93501 C 113.99301,79.787 114.17101,79.63901 114.17101,79.49001 C 114.17101,79.34201 114.05301,78.51501 114.05301,78.367 C 114.05301,75.63 115.354,75.748 115.354,72.56201 L 115.354,69.79601 C 115.354,68.35501 118.32201,63.07401 119.80101,62.88101 C 120.17801,62.838 120.49701,62.44501 120.83801,62.289 C 121.14101,62.155 121.43401,61.944 121.68301,61.75301 C 121.62302,61.556 121.65401,61.53601 121.50601,61.53601 C 121.33701,61.53601 120.688,61.828 120.57701,61.879 C 119.18701,62.509 117.59901,63.46701 116.63701,65.04201 C 115.62401,66.69 114.408,68.57001 114.408,70.31401 L 114.408,71.453 C 114.408,76.22301 113.34201,75.59601 113.34201,78.60301 C 113.34201,78.75101 113.46001,79.604 113.40501,80.09801 C 113.60001,80.16901 113.81601,80.34901 113.964,80.34901 C 114.58501,80.34901 114.83,79.843 115.56902,79.60101 C 116.25601,79.37901 117.203,79.61301 118,79.207 C 118.36101,79.02101 118.84502,78.397 118.99101,78.397 C 120.42,78.397 119.58,80.86401 125.78,81.84601 C 128.11101,84.40601 129.46201,85.91 132.007,85.91"
         id="path97"
         style="fill:#d40f41;fill-opacity:1;fill-rule:nonzero;stroke:none" /><path
         d="M 132.007,85.91 C 132.27301,85.91 132.27301,85.45901 132.27301,85.436 C 132.27301,85.28801 131.858,84.21701 131.73999,83.64201 C 131.791,83.593 131.77,83.60301 131.92,83.60301 C 131.94,83.60301 136.42201,84.78601 138.283,84.78601 L 142.173,84.78601 C 142.32401,84.78601 142.929,84.66801 143.07701,84.66801 L 144.42201,84.66801 C 147.106,84.66801 152.97701,83.05 154.834,81.98601 C 158.36101,79.966 164.033,75.24101 164.349,71.09401 C 164.38701,70.53 164.60301,69.82401 164.70801,69.20201 C 164.80901,68.604 165.04501,67.481 165.04501,67.33501 C 165.04501,66.675 165.14801,67.242 164.927,65.23 C 163.90901,56.24701 153.65701,53.729 147.091,53.729 C 146.942,53.729 147.17999,53.845 147.033,53.845 C 146.88701,53.845 147.091,53.729 146.942,53.729 L 145.93701,53.729 C 145.791,53.729 145.998,53.845 145.847,53.845 C 145.703,53.845 145.90701,53.729 145.761,53.729 C 145.61301,53.729 145.791,53.845 145.64301,53.845 C 145.494,53.845 145.554,53.729 145.40401,53.729 C 145.25801,53.729 145.25801,53.845 145.108,53.845 C 144.96201,53.845 144.87401,53.729 144.72501,53.729 C 144.57701,53.729 144.57701,53.845 144.431,53.845 C 144.28101,53.845 144.401,53.729 144.25101,53.729 C 140.28801,53.729 132.73201,55.27101 129.908,58.96201 C 129.908,58.96201 129.966,59.022 129.97801,59.10501 C 132.60901,58.17801 134.83601,57.515 137.33501,57.10001 L 140.46501,56.98 C 141.11601,56.98 145.59201,57.854 146.15901,57.854 C 148.09,57.839 156.526,61.463 156.526,65.94501 C 156.526,66.091 156.349,67.03801 156.349,67.186 C 156.349,67.33501 156.41,67.72601 156.50301,67.985 C 156.42999,67.388 157.29601,66.69 157.29601,66.26901 C 157.29601,61.98801 151.75801,58.81 148.341,57.856 C 147.065,57.49901 142.64801,56.45 140.67401,56.45 C 140.52501,56.45 140.34,56.397 138.927,56.50601 C 136.35301,56.70801 134.14601,57.494 131.26401,58.06401 C 134.78201,55.179 138.347,54.742 142.005,54.319 L 145.703,54.17101 L 149.39601,54.319 C 157.32201,54.955 163.92101,59.164 163.92101,66.86101 C 163.92101,74.15201 159.67801,79.33 150.86801,82.99701 C 149.972,83.36801 146.649,84.01701 146.375,84.01701 L 145.08801,84.01701 C 144.94101,84.01701 143.83601,84.13301 142.179,84.25201 L 139.311,84.313 C 136.192,84.313 135.03201,83.929 131.433,83.00201 C 131.16901,82.328 130.73401,80.12 130.73401,79.40201 C 130.73401,78.81201 134.638,76.326 134.638,72.186 C 134.638,68.938 131.73201,63.84401 128.98801,63.88901 C 128.53101,63.895 127.59801,63.54901 127.03801,63.54901 C 126.86101,63.54901 124.87701,63.77901 124.367,63.92601 C 123.97501,64.04401 123.58601,64.38301 123.22601,64.716 C 125.28801,64.10101 124.813,64.20001 126.38602,64.20001 C 131.74701,64.20001 133.929,68.731 133.929,72.718 C 133.929,76.132 131.06999,77.42801 129.35501,80.95601 C 129.252,81.17101 129.07201,81.37701 128.84801,81.60901 L 128.84801,81.82201 C 128.92999,81.828 128.92999,81.88701 129.078,81.88701 C 129.729,81.88701 130.028,80.617 130.23601,80.289 C 130.27101,80.339 130.263,80.438 130.263,81.50401 C 130.32201,82.097 130.617,83.19 130.617,83.33601 C 130.617,83.48401 131.151,84.591 131.39,85.175 L 131.39,85.32101 L 131.00998,85.32101 C 130.61,85.317 126.47401,82.45601 126.47401,81.71001 C 126.47401,81.56201 126.52701,81.64301 126.591,81.54901 C 123.45601,81.813 121.21701,79.162 119.31601,78.123 C 119.49001,77.91101 119.787,77.61501 119.96501,77.28801 C 119.87901,77.272 119.84901,77.15501 119.70001,77.15501 C 119.55402,77.15501 118.72601,77.39 118.72601,77.539 C 118.72601,77.686 118.84502,77.44901 118.84502,77.59801 C 118.84502,77.746 117.869,78.71701 117.32201,78.97701 C 116.41301,79.412 115.00601,79.10201 114.134,79.97801 C 114.134,79.97801 113.99301,80.082 113.99301,79.93501 C 113.99301,79.787 114.17101,79.63901 114.17101,79.49001 C 114.17101,79.34201 114.05301,78.51501 114.05301,78.367 C 114.05301,75.63 115.354,75.748 115.354,72.56201 L 115.354,69.79601 C 115.354,68.35501 118.32201,63.07401 119.80101,62.88101 C 120.17801,62.838 120.49701,62.44501 120.83801,62.289 C 121.14101,62.155 121.43401,61.944 121.68301,61.75301 C 121.62302,61.556 121.65401,61.53601 121.50601,61.53601 C 121.33701,61.53601 120.688,61.828 120.57701,61.879 C 119.18701,62.509 117.59901,63.46701 116.63701,65.04201 C 115.62401,66.69 114.408,68.57001 114.408,70.31401 L 114.408,71.453 C 114.408,76.22301 113.34201,75.59601 113.34201,78.60301 C 113.34201,78.75101 113.46001,79.604 113.40501,80.09801 C 113.60001,80.16901 113.81601,80.34901 113.964,80.34901 C 114.58501,80.34901 114.83,79.843 115.56902,79.60101 C 116.25601,79.37901 117.203,79.61301 118,79.207 C 118.36101,79.02101 118.84502,78.397 118.99101,78.397 C 120.42,78.397 119.58,80.86401 125.78,81.84601 C 128.11101,84.40601 129.46201,85.91 132.007,85.91 z"
         id="path99"
         style="fill:none;stroke:#d40f41;stroke-width:0.18799999;stroke-linecap:butt;stroke-linejoin:miter;stroke-miterlimit:4;stroke-dasharray:none;stroke-opacity:1" /><path
         d="M 135.13501,69.17801 L 137.29401,69.29401 C 138.084,69.33501 139.17601,69.15901 139.90601,69.04301 C 139.48999,69.07501 139.07901,69.06401 138.73,69.19501 C 138.686,69.16101 138.59601,69.13901 138.58501,69.13701 C 138.52301,69.13501 138.16501,69.151 137.94301,69.15201 C 137.425,69.16101 137.26801,69.11601 137.207,69.11401 C 137.14601,69.11 136.92201,69.149 136.86,69.145 C 136.8,69.14101 136.692,69.11101 136.619,69.082 L 135.02301,68.972 C 133.82401,68.83601 132.61501,68.744 131.431,68.451 C 130.599,68.24301 128.26801,67.28801 128.04201,67.27701 C 127.98,67.272 127.93701,67.29601 127.882,67.32401 L 127.87801,67.438 C 128.72701,67.67601 131.12999,68.742 132.25998,68.8 L 135.13501,69.17801"
         id="path101"
         style="fill:#231f20;fill-opacity:1;fill-rule:nonzero;stroke:none" /><path
         d="M 133.61101,68.119 C 133.63501,68.119 133.65901,68.093 134.47301,68.119 L 137.584,67.78201 C 137.51901,67.76901 137.44901,67.76901 136.80801,67.74301 L 134.054,67.91801 C 130.72701,67.91801 128.246,66.89601 127.83101,66.89601 C 127.77,66.89601 127.757,66.91901 127.72501,66.92101 C 127.72501,66.92101 127.72501,66.94801 127.69601,66.98401 C 128.14601,67.17101 130.808,67.91801 131.69101,67.91801 L 133.61101,68.119"
         id="path103"
         style="fill:#231f20;fill-opacity:1;fill-rule:nonzero;stroke:none" /><path
         d="M 132.83,67.31401 C 134.37601,67.425 137.457,66.815 138.69,66.136 C 137.21201,66.673 134.35301,67.246 132.66701,67.12701 L 130.92999,67.00401 L 128.23401,66.58701 C 128.155,66.58101 128.037,66.55701 127.93301,66.675 L 127.92702,66.789 C 128.98801,66.90201 129.483,67.05101 130.427,67.11801 L 132.83,67.31401"
         id="path105"
         style="fill:#231f20;fill-opacity:1;fill-rule:nonzero;stroke:none" /><path
         d="M 118.58701,66.79501 L 116.48302,66.30101 C 115.71001,66.121 114.70801,65.64601 114.03601,65.33101 C 114.43201,65.47801 114.828,65.584 115.12801,65.80701 C 115.18001,65.78601 115.272,65.78801 115.28401,65.79201 C 115.34401,65.80501 115.68301,65.92201 115.895,65.985 C 116.39201,66.136 116.55301,66.14 116.61301,66.15501 C 116.673,66.16901 116.87901,66.26901 116.938,66.28201 C 116.99802,66.29501 117.10701,66.29501 117.18701,66.289 L 118.75301,66.63 C 119.94101,66.834 121.12901,67.08501 122.34502,67.13301 C 123.201,67.16501 125.701,66.90201 125.92201,66.95201 C 125.98401,66.966 126.01801,67.00201 126.06401,67.04001 L 126.03801,67.15401 C 125.15501,67.14401 122.55602,67.496 121.45601,67.23601 L 118.58701,66.79501"
         id="path107"
         style="fill:#231f20;fill-opacity:1;fill-rule:nonzero;stroke:none" /><path
         d="M 120.32201,65.76401 C 120.29501,65.75801 120.28401,65.72301 119.50999,65.468 L 116.701,64.069 C 116.76302,64.08101 116.83202,64.106 117.44301,64.30301 L 119.97301,65.423 C 123.09702,66.57701 125.77402,66.48 126.16501,66.621 C 126.22,66.64301 126.22501,66.67101 126.25101,66.68401 C 126.25101,66.68401 126.246,66.709 126.26102,66.755 C 125.77402,66.774 123.022,66.55 122.19,66.24301 L 120.32201,65.76401"
         id="path109"
         style="fill:#231f20;fill-opacity:1;fill-rule:nonzero;stroke:none" /><path
         d="M 121.85301,65.19301 C 120.39,64.68201 117.78601,62.901 116.912,61.785 C 118.06801,62.866 120.48,64.52901 122.07401,65.08701 L 123.72202,65.66301 L 126.36501,66.34801 C 126.438,66.373 126.55602,66.40001 126.606,66.54601 L 126.57001,66.65501 C 125.55,66.33801 125.035,66.28 124.13901,65.96701 L 121.85301,65.19301"
         id="path111"
         style="fill:#231f20;fill-opacity:1;fill-rule:nonzero;stroke:none" /><path
         d="M 130.403,73.36501 C 130.403,73.36501 130.479,73.367 130.479,73.22101 C 130.479,72.955 128.97101,71.90601 128.83701,71.61 C 128.164,70.10301 128.056,68.73901 128.056,67.306 C 128.056,66.90601 127.94601,65.91501 127.31702,65.91501 C 125.259,65.91501 124.27802,70.136 122.46701,69.936 C 121.05301,69.78201 120.867,69.99701 120.72801,70.00401 C 120.72101,70.08601 120.787,70.16501 120.856,70.231 L 123.22601,70.231 C 123.37401,70.233 123.86401,70.08 124.11401,69.91501 C 125.535,68.97801 125.44301,67.21201 126.966,66.38101 L 127.16501,66.38101 C 127.11,66.46701 127.25999,66.63 127.326,67.755 C 127.43001,69.528 127.63301,72.67101 130.403,73.36501"
         id="path113"
         style="fill:#d40f41;fill-opacity:1;fill-rule:nonzero;stroke:none" /><path
         d="M 62.244,44.659 L 63.05101,44.659 L 63.57201,43.14101 C 63.714,42.715 63.856,42.276 63.987,41.85001 L 64.01001,41.85001 C 64.14,42.276 64.283,42.715 64.425,43.14101 L 64.94701,44.659 L 65.75201,44.659 L 65.75201,36.19701 L 64.875,36.19701 L 64.875,40.06 C 64.875,40.83 64.923,41.944 64.97,42.608 L 64.94701,42.608 C 64.65001,41.57701 64.31801,40.68901 64.01001,39.76401 L 63.987,39.76401 C 63.679,40.68901 63.347,41.57701 63.05101,42.608 L 63.026,42.608 C 63.07401,41.944 63.12201,40.83 63.12201,40.06 L 63.12201,36.19701 L 62.244,36.19701 L 62.244,44.659"
         id="path115"
         style="fill:#231f20;fill-opacity:1;fill-rule:nonzero;stroke:none" /><path
         d="M 68.00401,37.07401 L 68.8811,37.07401 L 68.8811,40.30901 L 68.00401,40.30901 L 68.00401,37.07401 z M 69.757,36.19701 L 68.00401,36.19701 C 67.51801,36.19701 67.12701,36.588 67.12701,37.07401 L 67.12701,40.30901 C 67.12701,40.795 67.51801,41.186 68.00401,41.186 L 68.88101,41.186 L 68.88101,42.099 L 67.31601,42.099 L 67.31601,42.976 L 68.88101,42.976 C 69.367,42.976 69.757,42.58501 69.757,42.099 L 69.757,36.19701"
         id="path117"
         style="fill:#231f20;fill-opacity:1;fill-rule:nonzero;stroke:none" /><path
         d="M 71.132,44.659 L 72.009,44.659 L 72.009,40.42801 L 72.554,40.42801 C 72.73201,40.42801 72.886,40.47501 72.886,40.724 L 72.886,42.26401 C 72.886,42.62 72.981,42.81 73.052,42.976 L 73.929,42.976 C 73.858,42.81 73.763,42.632 73.763,42.26401 L 73.763,40.724 C 73.763,40.321 73.57301,40.084 73.384,39.989 C 73.57301,39.907 73.763,39.66901 73.763,39.26601 L 73.763,36.908 C 73.763,36.541 73.858,36.36301 73.929,36.19701 L 73.052,36.19701 C 72.981,36.36301 72.886,36.55301 72.886,36.908 L 72.886,39.26601 C 72.886,39.397 72.815,39.539 72.554,39.55101 L 72.009,39.55101 L 72.009,36.19701 L 71.132,36.19701 L 71.132,44.659"
         id="path119"
         style="fill:#231f20;fill-opacity:1;fill-rule:nonzero;stroke:none" /><path
         d="M 76.01401,40.02501 L 76.89113,40.02501 L 76.89113,42.09902 L 76.01401,42.09902 L 76.01401,40.02501 z M 75.13701,41.73201 C 75.13701,42.455 75.73,43.047 76.453,43.047 C 77.17601,43.047 77.76801,42.455 77.76801,41.73201 L 77.76801,39.14801 L 76.01401,39.14801 L 76.01401,37.07401 L 76.89101,37.07401 L 76.89101,37.95201 L 77.76801,37.95201 L 77.76801,37.44101 C 77.76801,36.718 77.17601,36.12601 76.453,36.12601 C 75.73,36.12601 75.13701,36.718 75.13701,37.44101 L 75.13701,41.73201"
         id="path121"
         style="fill:#231f20;fill-opacity:1;fill-rule:nonzero;stroke:none" /><path
         d="M 79.14301,42.099 C 79.14301,42.58501 79.53401,42.976 80.02,42.976 L 80.897,42.976 L 80.897,42.099 L 80.02,42.099 L 80.02,36.19701 L 79.14301,36.19701 L 79.14301,42.099"
         id="path123"
         style="fill:#231f20;fill-opacity:1;fill-rule:nonzero;stroke:none" /><path
         d="M 83.705,42.099 L 82.828,42.099 L 82.828,40.02501 L 83.705,40.02501 C 84.19101,40.02501 84.582,39.634 84.582,39.14801 L 84.582,37.44101 C 84.582,36.718 83.98901,36.12601 83.26601,36.12601 C 82.54401,36.12601 81.951,36.718 81.951,37.44101 L 81.951,37.95201 L 82.828,37.95201 L 82.828,37.07401 L 83.705,37.07401 L 83.705,39.14801 L 82.828,39.14801 C 82.34201,39.14801 81.951,39.539 81.951,40.02501 L 81.951,41.73201 C 81.951,42.455 82.54401,43.047 83.26601,43.047 C 83.98901,43.047 84.582,42.455 84.582,41.73201 L 84.582,41.22101 L 83.705,41.22101 L 83.705,42.099"
         id="path125"
         style="fill:#231f20;fill-opacity:1;fill-rule:nonzero;stroke:none" /><path
         d="M 88.979,37.07401 L 89.8555,37.07401 L 89.8555,42.099 L 88.979,42.099 L 88.979,37.07401 z M 88.10101,41.73201 C 88.10101,42.455 88.69402,43.047 89.41701,43.047 C 90.14,43.047 90.73201,42.455 90.73201,41.73201 L 90.73201,37.44101 C 90.73201,36.718 90.14,36.12601 89.41701,36.12601 C 88.69402,36.12601 88.10101,36.718 88.10101,37.44101 L 88.10101,41.73201"
         id="path127"
         style="fill:#231f20;fill-opacity:1;fill-rule:nonzero;stroke:none" /><path
         d="M 92.27301,41.22101 L 91.84601,41.22101 L 91.84601,42.099 L 92.27301,42.099 L 92.27301,43.78101 C 92.27301,44.267 92.664,44.659 93.15001,44.659 L 94.33501,44.659 L 94.33501,43.78101 L 93.15001,43.78101 L 93.15001,42.099 L 94.01401,42.099 L 94.01401,41.22101 L 93.15001,41.22101 L 93.15001,35.34401 C 93.15001,35.10701 93.05501,34.882 92.88901,34.728 C 92.72301,34.57401 92.509,34.479 92.27301,34.46701 L 92.27301,41.22101"
         id="path129"
         style="fill:#231f20;fill-opacity:1;fill-rule:nonzero;stroke:none" /><path
         d="M 98.15001,37.07401 L 99.02713,37.07401 L 99.02713,39.989 L 98.15001,39.989 L 98.15001,37.07401 z M 98.15001,40.866 L 99.02713,40.866 L 99.02713,43.78099 L 98.15001,43.78099 L 98.15001,40.866 z M 97.27301,44.659 L 99.02701,44.659 C 99.51302,44.659 99.90401,44.267 99.90401,43.78101 L 99.90401,41.103 C 99.90401,40.7 99.72601,40.547 99.51302,40.42801 C 99.72601,40.345 99.90401,40.168 99.90401,39.64601 L 99.90401,37.07401 C 99.90401,36.588 99.51302,36.19701 99.02701,36.19701 L 97.27301,36.19701 L 97.27301,44.659"
         id="path131"
         style="fill:#d40f41;fill-opacity:1;fill-rule:nonzero;stroke:none" /><path
         d="M 102.15601,40.02501 L 103.03301,40.02501 L 103.03301,42.09902 L 102.15601,42.09902 L 102.15601,40.02501 z M 101.27901,41.73201 C 101.27901,42.455 101.87201,43.047 102.595,43.047 C 103.317,43.047 103.91,42.455 103.91,41.73201 L 103.91,39.14801 L 102.15601,39.14801 L 102.15601,37.07401 L 103.033,37.07401 L 103.033,37.95201 L 103.91,37.95201 L 103.91,37.44101 C 103.91,36.718 103.317,36.12601 102.595,36.12601 C 101.87201,36.12601 101.27901,36.718 101.27901,37.44101 L 101.27901,41.73201"
         id="path133"
         style="fill:#d40f41;fill-opacity:1;fill-rule:nonzero;stroke:none" /><path
         d="M 105.285,42.099 C 105.285,42.58501 105.67601,42.976 106.16101,42.976 L 107.03801,42.976 L 107.03801,42.099 L 106.16101,42.099 L 106.16101,36.19701 L 105.285,36.19701 L 105.285,42.099"
         id="path135"
         style="fill:#d40f41;fill-opacity:1;fill-rule:nonzero;stroke:none" /><path
         d="M 108.19901,44.659 L 109.07701,44.659 L 109.07701,40.42801 L 109.62201,40.42801 C 109.8,40.42801 109.953,40.47501 109.953,40.724 L 109.953,42.26401 C 109.953,42.62 110.048,42.81 110.119,42.976 L 110.996,42.976 C 110.925,42.81 110.83,42.632 110.83,42.26401 L 110.83,40.724 C 110.83,40.321 110.64101,40.084 110.451,39.989 C 110.64101,39.907 110.83,39.66901 110.83,39.26601 L 110.83,36.908 C 110.83,36.541 110.925,36.36301 110.996,36.19701 L 110.119,36.19701 C 110.048,36.36301 109.953,36.55301 109.953,36.908 L 109.953,39.26601 C 109.953,39.397 109.882,39.539 109.62201,39.55101 L 109.07701,39.55101 L 109.07701,36.19701 L 108.19901,36.19701 L 108.19901,44.659"
         id="path137"
         style="fill:#d40f41;fill-opacity:1;fill-rule:nonzero;stroke:none" /><path
         d="M 113.08202,40.02501 L 113.959,40.02501 L 113.959,42.09902 L 113.08202,42.09902 L 113.08202,40.02501 z M 112.20401,41.73201 C 112.20401,42.455 112.79701,43.047 113.52,43.047 C 114.24301,43.047 114.83501,42.455 114.83501,41.73201 L 114.83501,39.14801 L 113.08202,39.14801 L 113.08202,37.07401 L 113.95901,37.07401 L 113.95901,37.95201 L 114.83501,37.95201 L 114.83501,37.44101 C 114.83501,36.718 114.24301,36.12601 113.52,36.12601 C 112.79701,36.12601 112.20401,36.718 112.20401,37.44101 L 112.20401,41.73201"
         id="path139"
         style="fill:#d40f41;fill-opacity:1;fill-rule:nonzero;stroke:none" /><path
         d="M 116.20901,44.73 C 116.44601,44.718 116.66,44.62201 116.826,44.46901 C 116.99101,44.315 117.08701,44.09 117.08701,43.85201 L 117.08701,36.19701 L 116.20901,36.19701 L 116.20901,44.73"
         id="path141"
         style="fill:#d40f41;fill-opacity:1;fill-rule:nonzero;stroke:none" /><path
         d="M 119.33801,40.02501 L 120.21501,40.02501 L 120.21501,42.09902 L 119.33801,42.09902 L 119.33801,40.02501 z M 118.46101,41.73201 C 118.46101,42.455 119.05402,43.047 119.77701,43.047 C 120.5,43.047 121.09201,42.455 121.09201,41.73201 L 121.09201,39.14801 L 119.33801,39.14801 L 119.33801,37.07401 L 120.21501,37.07401 L 120.21501,37.95201 L 121.09201,37.95201 L 121.09201,37.44101 C 121.09201,36.718 120.5,36.12601 119.77701,36.12601 C 119.05402,36.12601 118.46101,36.718 118.46101,37.44101 L 118.46101,41.73201"
         id="path143"
         style="fill:#d40f41;fill-opacity:1;fill-rule:nonzero;stroke:none" /><path
         d="M 125.09702,34.539 L 124.22101,34.539 L 124.22101,36.19701 L 123.34401,36.19701 C 122.85701,36.19701 122.466,36.588 122.466,37.07401 L 122.466,42.976 L 123.34401,42.976 L 123.34401,37.07401 L 124.22101,37.07401 L 124.22101,42.976 L 125.09702,42.976 L 125.09702,34.539"
         id="path145"
         style="fill:#d40f41;fill-opacity:1;fill-rule:nonzero;stroke:none" /><path
         d="M 129.60001,37.07401 L 130.47701,37.07401 L 130.47701,43.78101 L 129.60001,43.78101 L 129.60001,37.07401 z M 128.724,44.659 L 130.47701,44.659 C 130.96201,44.659 131.35301,44.267 131.35301,43.78101 L 131.35301,37.07401 C 131.35301,36.588 130.96201,36.19701 130.47701,36.19701 L 128.724,36.19701 L 128.724,44.659"
         id="path147"
         style="fill:#d40f41;fill-opacity:1;fill-rule:nonzero;stroke:none" /><path
         d="M 133.60501,37.07401 L 134.48302,37.07401 L 134.48302,39.989 L 133.60501,39.989 L 133.60501,37.07401 z M 133.60501,40.866 L 134.48302,40.866 L 134.48302,43.78099 L 133.60501,43.78099 L 133.60501,40.866 z M 132.72801,44.659 L 134.483,44.659 C 134.968,44.659 135.35901,44.267 135.35901,43.78101 L 135.35901,41.103 C 135.35901,40.7 135.18201,40.547 134.968,40.42801 C 135.18201,40.345 135.35901,40.168 135.35901,39.64601 L 135.35901,37.07401 C 135.35901,36.588 134.968,36.19701 134.483,36.19701 L 132.72801,36.19701 L 132.72801,44.659"
         id="path149"
         style="fill:#d40f41;fill-opacity:1;fill-rule:nonzero;stroke:none" /></g></g></svg>